<svg width="256" height="119" viewBox="0 0 256 119" fill="none" xmlns="http://www.w3.org/2000/svg">
<path d="M48.784 118.28C45.072 118.28 41.2747 112.008 37.392 99.464C36.0693 95.1547 35.2373 92.0187 34.896 90.056C34.6827 88.8187 34.512 87.9867 34.384 87.56C32.208 76.1253 30.9707 63.5813 30.672 49.928C30.672 40.584 31.0773 33.9707 31.888 30.088C32.2293 27.1013 32.5067 25.0747 32.72 24.008C32.976 22.8987 33.1893 21.4907 33.36 19.784C33.0187 20.5947 31.888 23.5387 29.968 28.616C27.0667 36.9787 24.848 43.2933 23.312 47.56C21.776 51.784 17.936 61.4693 11.792 76.616C12.6027 76.616 13.456 76.5093 14.352 76.296C14.6933 76.2107 16.9973 75.8693 21.264 75.272C22.928 75.0587 24.8267 74.9307 26.96 74.888C27.6427 74.888 27.984 75.1227 27.984 75.592C27.984 75.8907 27.792 76.168 27.408 76.424C27.0667 76.6373 24.848 77.1067 20.752 77.832L15.184 79.112C13.6053 79.368 12.4533 79.624 11.728 79.88C11.0453 80.136 10.5547 80.4987 10.256 80.968C9.95733 81.4373 9.68 82.1627 9.424 83.144C8.86933 84.7227 7.52533 87.944 5.392 92.808C3.25867 97.672 1.76533 100.104 0.912 100.104C0.357333 100.104 0.0799999 99.848 0.0799999 99.336C0.0799999 98.312 0.869333 96.3493 2.448 93.448C5.648 86.7067 7.46133 82.5467 7.888 80.968C5.79733 81.3947 4.60267 81.608 4.304 81.608C3.32267 81.608 2.832 81.096 2.832 80.072C2.832 78.9627 4.38933 78.088 7.504 77.448C8.272 77.3627 8.82667 77.256 9.168 77.128C9.50933 77.0427 9.808 76.616 10.064 75.848C10.32 75.08 10.5973 74.3547 10.896 73.672C19.984 51.0587 25.6373 36.296 27.856 29.384C32.208 17.3093 34.9173 9.096 35.984 4.744C36.752 1.75733 37.648 0.264 38.672 0.264C38.7573 0.264 38.9493 0.306666 39.248 0.391998C39.5893 0.477331 39.8667 0.79733 40.08 1.352C40.336 1.90666 40.464 2.44 40.464 2.952L37.712 19.4C37.328 21.192 36.9867 23.0267 36.688 24.904C36.56 26.568 36.3467 28.232 36.048 29.896C35.152 36.1253 34.5973 40.4133 34.384 42.76C33.9147 47.9653 33.68 53.064 33.68 58.056C33.68 61.9813 33.8933 66.3547 34.32 71.176L34.448 72.008C34.9173 77.768 35.6853 82.9307 36.752 87.496C38.7147 95.944 41.0187 102.685 43.664 107.72C45.6693 111.773 47.2907 114.056 48.528 114.568C48.6133 114.397 48.784 114.312 49.04 114.312C50.192 114.568 50.768 115.251 50.768 116.36C50.768 116.957 50.5547 117.427 50.128 117.768C49.7013 118.109 49.2533 118.28 48.784 118.28ZM57.989 94.984C59.8237 94.984 61.8077 94.2587 63.941 92.808C66.7997 90.6747 68.7197 88.072 69.701 85C70.6823 81.928 71.237 79.3467 71.365 77.256C71.5357 75.1653 71.621 73.5227 71.621 72.328C71.621 71.176 71.557 70.472 71.429 70.216C70.7463 70.6427 70.1277 71.0053 69.573 71.304C65.0077 73.736 60.6983 77.1707 56.645 81.608C53.6157 84.8933 51.9943 87.7093 51.781 90.056C51.781 90.3547 51.8023 90.9307 51.845 91.784C51.8877 92.68 52.8477 93.5333 54.725 94.344C55.8343 94.7707 56.9223 94.984 57.989 94.984ZM57.029 96.52C56.645 96.52 55.8557 96.456 54.661 96.328C53.509 96.2427 52.293 95.6667 51.013 94.6C49.9463 93.704 49.413 92.4027 49.413 90.696V89.928C50.0103 86.8133 51.4397 83.976 53.701 81.416C57.285 77.448 62.6183 73.5013 69.701 69.576C70.6397 69.064 71.1517 68.7227 71.237 68.552C71.237 67.528 71.173 66.7387 71.045 66.184C70.1063 61.2773 68.3143 58.824 65.669 58.824C64.0477 58.824 61.9357 59.6987 59.333 61.448C54.981 64.5627 51.7597 69.0427 49.669 74.888C48.9437 77.704 48.4317 79.5813 48.133 80.52C47.5783 81.9707 46.8957 82.696 46.085 82.696C45.4023 82.696 45.061 82.0773 45.061 80.84L45.381 76.232C45.893 70.5573 46.341 65.0747 46.725 59.784C47.1517 53.0853 48.2183 44.68 49.925 34.568C52.3143 20.36 55.1303 13.256 58.373 13.256C59.6957 13.256 60.357 13.7253 60.357 14.664V14.856C56.7303 22.408 54.0423 31.8373 52.293 43.144C50.0317 57.6933 48.6237 68.1467 48.069 74.504C48.7943 72.3707 49.925 70.0667 51.461 67.592C53.125 64.9893 54.8317 62.856 56.581 61.192C60.2077 57.9067 63.3437 56.264 65.989 56.264C66.885 56.264 67.9517 56.52 69.189 57.032C70.8103 57.928 72.0903 59.9973 73.029 63.24L74.053 66.952L78.853 64.84C81.669 63.7307 84.549 62.4293 87.493 60.936C87.877 60.7653 88.197 60.68 88.453 60.68C88.8797 60.68 89.093 60.9787 89.093 61.576C89.093 62.1733 86.7677 63.368 82.117 65.16C78.917 66.44 76.3143 67.592 74.309 68.616L74.373 70.472C74.373 71.7093 74.309 72.9893 74.181 74.312C74.0957 74.9947 73.9463 76.168 73.733 77.832C73.5623 79.5387 73.0077 81.672 72.069 84.232C71.173 86.792 69.8717 89.0747 68.165 91.08C66.4583 93.128 64.197 94.6853 61.381 95.752C59.973 96.264 58.5223 96.52 57.029 96.52ZM92.4595 73.288C92.5448 73.2453 92.8008 72.8613 93.2275 72.136C93.6968 71.112 94.1448 69.4693 94.5715 67.208L91.6915 66.696C91.5208 67.8053 91.4355 68.872 91.4355 69.896C91.4355 70.4933 91.4568 71.2187 91.4995 72.072C91.5848 72.8827 91.9048 73.288 92.4595 73.288ZM94.6355 65.288L94.7635 64.584L94.8275 63.624C94.8275 61.8747 94.4222 60.0827 93.6115 58.248C93.5262 58.76 93.1635 60.0613 92.5235 62.152C92.1395 63.0907 91.9262 63.752 91.8835 64.136C91.8835 64.3493 91.9262 64.5413 92.0115 64.712C92.0968 64.84 92.9715 65.032 94.6355 65.288ZM91.1155 77.128C90.3902 77.128 89.6222 76.8507 88.8115 76.296C87.5742 75.0587 86.9555 73.0107 86.9555 70.152C86.9555 69.0853 87.0408 68.0613 87.2115 67.08C87.4248 66.056 87.5315 65.288 87.5315 64.776C87.5315 64.136 87.4248 63.5813 87.2115 63.112C87.0408 62.6 86.9555 62.1093 86.9555 61.64C86.9555 60.616 87.4248 59.4853 88.3635 58.248C89.7288 56.5413 91.1368 55.688 92.5875 55.688C93.0142 55.688 93.5902 55.8587 94.3155 56.2C95.0408 56.4987 95.7448 57.6293 96.4275 59.592C96.8968 61.1707 97.1315 62.664 97.1315 64.072L97.0675 65.672C99.4142 65.6293 101.91 65.2027 104.556 64.392C107.201 63.5387 109.569 62.472 111.66 61.192C112.556 60.7653 113.281 60.552 113.836 60.552C114.561 60.552 114.924 60.8293 114.924 61.384L114.732 61.96C114.476 62.856 111.404 64.136 105.516 65.8C102.358 66.696 99.4782 67.144 96.8755 67.144C96.5342 70.7707 95.7448 73.4587 94.5075 75.208C93.4835 76.488 92.3528 77.128 91.1155 77.128ZM131.407 87.688C131.151 87.688 130.618 87.56 129.807 87.304C129.039 87.0907 128.25 86.1947 127.439 84.616C125.818 81.3307 125.007 76.936 125.007 71.432C125.007 69.5973 125.092 67.6347 125.263 65.544C122.575 72.8827 119.994 76.552 117.519 76.552C116.538 76.552 115.748 76.296 115.151 75.784C113.274 74.0347 112.335 70.984 112.335 66.632C112.335 65.6933 112.378 64.6693 112.463 63.56C113.06 57.2027 114.362 54.024 116.367 54.024C117.348 54.1093 117.86 54.6427 117.903 55.624C117.86 56.2213 117.775 56.712 117.647 57.096C117.178 58.8453 116.794 61.3413 116.495 64.584C116.41 65.5653 116.367 66.4613 116.367 67.272C116.367 69.192 116.602 70.792 117.071 72.072C117.668 73.096 118.223 73.6293 118.735 73.672C119.887 73.2453 121.359 70.6213 123.151 65.8C124.26 62.8133 124.986 60.7227 125.327 59.528C125.583 58.6747 125.86 57.864 126.159 57.096C126.458 56.328 127.119 55.944 128.143 55.944C128.74 55.9867 129.039 56.4133 129.039 57.224V57.544C127.503 63.3467 126.735 68.1893 126.735 72.072C126.735 74.888 127.183 77.8533 128.079 80.968C128.975 84.0827 130.234 85.64 131.855 85.64C133.306 85.3413 134.65 83.272 135.887 79.432C136.911 76.1467 137.956 70.5147 139.023 62.536C139.236 61.2987 139.77 60.68 140.623 60.68C141.263 60.68 141.583 61.064 141.583 61.832C141.583 62.856 141.114 65.48 140.175 69.704C138.426 77.5547 136.612 82.8667 134.735 85.64C133.583 87.0053 132.474 87.688 131.407 87.688ZM150.038 97.096C149.014 97.096 147.947 96.6693 146.838 95.816C145.003 94.28 143.553 92.0613 142.486 89.16C140.267 83.1867 139.158 75.336 139.158 65.608C139.158 62.408 139.457 57.6293 140.054 51.272C141.59 41.5867 142.721 35.336 143.446 32.52C142.55 32.6053 139.03 33.5653 132.886 35.4C126.742 37.192 122.838 38.088 121.174 38.088C119.809 38.088 119.126 37.576 119.126 36.552C119.126 35.7413 119.446 34.9947 120.086 34.312C120.683 33.5867 121.43 33.2027 122.326 33.16C122.966 33.16 123.286 33.416 123.286 33.928C123.286 34.3547 123.137 34.824 122.838 35.336C123.307 35.2933 130.326 33.736 143.894 30.664C144.491 27.976 145.089 26.12 145.686 25.096C145.729 24.712 145.985 23.9867 146.454 22.92C146.966 21.8107 147.606 21.256 148.374 21.256C149.185 21.256 149.59 21.704 149.59 22.6C149.59 22.9413 149.505 23.368 149.334 23.88C148.395 26.9093 147.926 28.8293 147.926 29.64C147.926 29.768 147.969 29.832 148.054 29.832L152.918 28.872C157.91 27.7627 162.475 26.9733 166.614 26.504C172.801 25.5653 178.006 25.096 182.23 25.096C183.51 25.096 185.259 25.1813 187.478 25.352C189.953 25.48 192.171 26.248 194.134 27.656C194.902 28.296 195.286 29 195.286 29.768C195.286 30.5787 194.945 31.1973 194.262 31.624C194.091 31.752 193.921 31.816 193.75 31.816C193.409 31.816 193.238 31.6667 193.238 31.368C193.281 31.1973 193.345 31.0053 193.43 30.792C193.558 30.536 193.622 30.28 193.622 30.024C193.622 29.0427 192.086 28.1893 189.014 27.464C185.729 26.9093 182.465 26.632 179.222 26.632C172.523 26.632 162.561 28.04 149.334 30.856C148.694 30.984 148.225 31.1333 147.926 31.304C147.457 31.6027 146.283 37.6613 144.406 49.48C143.723 54.728 143.382 60.616 143.382 67.144C143.382 74.6107 144.427 81.4587 146.518 87.688C147.798 91.4853 149.27 93.4907 150.934 93.704C152.598 93.704 154.454 91.0373 156.502 85.704C157.611 82.7173 158.315 80.6267 158.614 79.432C159.339 77.2133 160.321 72.3067 161.558 64.712C161.643 63.816 161.814 62.7707 162.07 61.576C162.326 60.8507 162.838 60.488 163.606 60.488L164.054 60.552C164.566 60.6373 164.822 61.0213 164.822 61.704C164.822 62.5147 164.587 63.56 164.118 64.84C163.649 66.0773 162.966 68.9573 162.07 73.48C159.937 84.4453 157.249 91.656 154.006 95.112C152.811 96.4347 151.489 97.096 150.038 97.096ZM193.467 84.808C190.992 84.808 189.605 82.888 189.306 79.048C189.264 78.2373 189.242 77.3413 189.242 76.36C189.242 70.984 189.925 65.0747 191.291 58.632L191.419 57.8C192.187 54.344 192.912 52.0187 193.595 50.824C194.277 49.5867 195.067 48.968 195.963 48.968C196.731 48.968 197.264 49.2667 197.562 49.864C197.861 50.4187 198.01 51.2933 198.01 52.488C198.01 53 197.648 57.5227 196.923 66.056L198.139 64.2C199.803 61.256 201.467 59.784 203.131 59.784C204.624 59.784 205.883 61.5547 206.907 65.096L208.443 68.872C208.741 69.4693 209.019 69.768 209.275 69.768C210.256 69.768 211.621 68.232 213.371 65.16L214.331 63.56C215.312 62.1947 216.357 61.512 217.467 61.512C218.277 61.512 219.131 61.8747 220.027 62.6C220.709 63.24 221.456 64.0933 222.267 65.16C224.101 67.6773 225.467 68.936 226.363 68.936C227.259 68.936 228.56 67.5707 230.267 64.84C231.973 62.0667 233.189 60.68 233.915 60.68C234.384 60.68 234.619 60.9573 234.619 61.512C234.619 61.7253 234.576 61.96 234.491 62.216C233.765 63.368 233.296 64.1573 233.083 64.584C231.931 66.76 230.715 68.4667 229.435 69.704C228.368 70.7707 227.365 71.304 226.427 71.304C224.635 71.304 222.352 69.3627 219.579 65.48L218.427 64.008C218.384 64.008 218.363 63.9867 218.363 63.944C217.979 63.4747 217.637 63.24 217.339 63.24C217.211 63.24 217.04 63.3253 216.827 63.496C215.888 64.264 214.971 65.5867 214.075 67.464C213.477 68.744 212.773 69.896 211.963 70.92C211.152 71.9013 209.979 72.4347 208.443 72.52C206.523 72.52 205.029 70.792 203.963 67.336C203.749 66.696 203.429 65.4587 203.003 63.624C202.917 63.368 202.832 63.1333 202.747 62.92C202.704 62.664 202.597 62.536 202.427 62.536C202.299 62.536 202.107 62.664 201.851 62.92C200.187 64.968 198.949 68.0827 198.139 72.264C197.755 73.4587 197.435 75.1013 197.179 77.192C196.752 82.0987 195.515 84.6373 193.467 84.808ZM236.424 62.536C237.32 62.536 238.301 61.9813 239.368 60.872L240.392 59.656C241.714 57.992 242.376 55.9653 242.376 53.576C242.376 51.8693 241.949 51.016 241.095 51.016C240.328 51.016 239.496 51.6773 238.6 53C236.978 55.432 235.997 58.6107 235.656 62.536H236.424ZM240.968 79.688C240.712 79.688 240.157 79.624 239.304 79.496C238.493 79.4107 237.533 78.8773 236.424 77.896C233.693 75.464 232.328 71.624 232.328 66.376C232.328 61.7253 233.309 57.8 235.272 54.6C237.32 51.144 239.218 49.416 240.968 49.416C241.821 49.416 242.504 49.864 243.016 50.76C243.528 51.6133 243.784 52.6587 243.784 53.896C243.784 54.4507 243.698 55.368 243.528 56.648C243.4 57.672 242.568 59.144 241.032 61.064C239.496 62.9413 237.938 63.88 236.36 63.88L235.528 63.816C235.442 64.6267 235.4 65.416 235.4 66.184C235.4 69.896 236.296 72.7547 238.088 74.76C239.026 75.8267 240.093 76.36 241.288 76.36C242.056 76.36 242.866 76.1253 243.72 75.656C245.384 74.5893 246.856 73.1387 248.135 71.304C249.458 69.4267 250.866 67.1867 252.36 64.584C253.384 62.7493 254.066 61.6187 254.408 61.192C254.578 60.8933 254.834 60.744 255.176 60.744C255.517 60.744 255.688 61 255.688 61.512C255.688 61.9387 255.453 62.6 254.984 63.496C252.509 67.976 250.76 71.0267 249.736 72.648C248.2 75.0373 246.493 76.936 244.616 78.344C243.378 79.24 242.162 79.688 240.968 79.688Z" fill="black"/>
</svg>
