<svg width="344" height="160" viewBox="0 0 344 160" fill="none" xmlns="http://www.w3.org/2000/svg">
<path d="M65.866 159.47C60.878 159.47 55.7753 151.042 50.558 134.186C48.7807 128.395 47.6627 124.181 47.204 121.544C46.9173 119.881 46.688 118.763 46.516 118.19C43.592 102.825 41.9293 85.9687 41.528 67.622C41.528 55.066 42.0727 46.1793 43.162 40.962C43.6207 36.9487 43.9933 34.2253 44.28 32.792C44.624 31.3013 44.9107 29.4093 45.14 27.116C44.6813 28.2053 43.162 32.1613 40.582 38.984C36.6833 50.2213 33.702 58.7067 31.638 64.44C29.574 70.116 24.414 83.1307 16.158 103.484C17.2473 103.484 18.394 103.341 19.598 103.054C20.0567 102.939 23.1527 102.481 28.886 101.678C31.122 101.391 33.6733 101.219 36.54 101.162C37.4573 101.162 37.916 101.477 37.916 102.108C37.916 102.509 37.658 102.882 37.142 103.226C36.6833 103.513 33.702 104.143 28.198 105.118L20.716 106.838C18.5947 107.182 17.0467 107.526 16.072 107.87C15.1547 108.214 14.4953 108.701 14.094 109.332C13.6927 109.963 13.32 110.937 12.976 112.256C12.2307 114.377 10.4247 118.706 7.558 125.242C4.69133 131.778 2.68467 135.046 1.538 135.046C0.792667 135.046 0.42 134.702 0.42 134.014C0.42 132.638 1.48067 130.001 3.602 126.102C7.902 117.043 10.3387 111.453 10.912 109.332C8.10267 109.905 6.49733 110.192 6.096 110.192C4.77733 110.192 4.118 109.504 4.118 108.128C4.118 106.637 6.21067 105.462 10.396 104.602C11.428 104.487 12.1733 104.344 12.632 104.172C13.0907 104.057 13.492 103.484 13.836 102.452C14.18 101.42 14.5527 100.445 14.954 99.528C27.166 69.1413 34.7627 49.304 37.744 40.016C43.592 23.7907 47.2327 12.754 48.666 6.90599C49.698 2.89266 50.902 0.886 52.278 0.886C52.3927 0.886 52.6507 0.943333 53.052 1.058C53.5107 1.17266 53.8833 1.60266 54.17 2.348C54.514 3.09333 54.686 3.81 54.686 4.49799L50.988 26.6C50.472 29.008 50.0133 31.4733 49.612 33.996C49.44 36.232 49.1533 38.468 48.752 40.704C47.548 49.0747 46.8027 54.8367 46.516 57.99C45.8853 64.9847 45.57 71.836 45.57 78.544C45.57 83.8187 45.8567 89.6953 46.43 96.174L46.602 97.292C47.2327 105.032 48.2647 111.969 49.698 118.104C52.3353 129.456 55.4313 138.515 58.986 145.28C61.6807 150.727 63.8593 153.794 65.522 154.482C65.6367 154.253 65.866 154.138 66.21 154.138C67.758 154.482 68.532 155.399 68.532 156.89C68.532 157.693 68.2453 158.323 67.672 158.782C67.0987 159.241 66.4967 159.47 65.866 159.47ZM78.2352 128.166C80.7006 128.166 83.3666 127.191 86.2332 125.242C90.0746 122.375 92.6546 118.878 93.9732 114.75C95.2919 110.622 96.0372 107.153 96.2092 104.344C96.4386 101.535 96.5532 99.3273 96.5532 97.722C96.5532 96.174 96.4672 95.228 96.2952 94.884C95.3779 95.4573 94.5466 95.9447 93.8012 96.346C87.6666 99.614 81.8759 104.229 76.4292 110.192C72.3586 114.607 70.1799 118.391 69.8932 121.544C69.8932 121.945 69.9219 122.719 69.9792 123.866C70.0366 125.07 71.3266 126.217 73.8492 127.306C75.3399 127.879 76.8019 128.166 78.2352 128.166ZM76.9452 130.23C76.4292 130.23 75.3686 130.144 73.7632 129.972C72.2152 129.857 70.5812 129.083 68.8612 127.65C67.4279 126.446 66.7112 124.697 66.7112 122.404V121.372C67.5139 117.187 69.4346 113.374 72.4732 109.934C77.2892 104.602 84.4559 99.2987 93.9732 94.024C95.2346 93.336 95.9226 92.8773 96.0372 92.648C96.0372 91.272 95.9512 90.2113 95.7792 89.466C94.5179 82.8727 92.1099 79.576 88.5552 79.576C86.3766 79.576 83.5386 80.7513 80.0412 83.102C74.1932 87.2873 69.8646 93.3073 67.0552 101.162C66.0806 104.946 65.3926 107.469 64.9912 108.73C64.2459 110.679 63.3286 111.654 62.2392 111.654C61.3219 111.654 60.8632 110.823 60.8632 109.16L61.2932 102.968C61.9812 95.3427 62.5832 87.9753 63.0992 80.866C63.6726 71.8647 65.1059 60.57 67.3992 46.982C70.6099 27.89 74.3939 18.344 78.7512 18.344C80.5286 18.344 81.4172 18.9747 81.4172 20.236V20.494C76.5439 30.642 72.9319 43.3127 70.5812 58.506C67.5426 78.0567 65.6506 92.1033 64.9052 100.646C65.8799 97.7793 67.3992 94.6833 69.4632 91.358C71.6992 87.8607 73.9926 84.994 76.3432 82.758C81.2166 78.3433 85.4306 76.136 88.9852 76.136C90.1892 76.136 91.6226 76.48 93.2852 77.168C95.4639 78.372 97.1839 81.1527 98.4452 85.51L99.8212 90.498L106.271 87.66C110.055 86.1693 113.925 84.4207 117.881 82.414C118.397 82.1847 118.827 82.07 119.171 82.07C119.745 82.07 120.031 82.4713 120.031 83.274C120.031 84.0767 116.907 85.682 110.657 88.09C106.357 89.81 102.86 91.358 100.165 92.734L100.251 95.228C100.251 96.8907 100.165 98.6107 99.9932 100.388C99.8786 101.305 99.6779 102.882 99.3912 105.118C99.1619 107.411 98.4166 110.278 97.1552 113.718C95.9512 117.158 94.2026 120.225 91.9092 122.92C89.6159 125.672 86.5772 127.765 82.7932 129.198C80.9012 129.886 78.9519 130.23 76.9452 130.23ZM124.555 99.012C124.67 98.9547 125.014 98.4387 125.587 97.464C126.218 96.088 126.82 93.8807 127.393 90.842L123.523 90.154C123.294 91.6447 123.179 93.078 123.179 94.454C123.179 95.2567 123.208 96.2313 123.265 97.378C123.38 98.4673 123.81 99.012 124.555 99.012ZM127.479 88.262L127.651 87.316L127.737 86.026C127.737 83.6753 127.192 81.2673 126.103 78.802C125.988 79.49 125.501 81.2387 124.641 84.048C124.125 85.3093 123.838 86.198 123.781 86.714C123.781 87.0007 123.838 87.2587 123.953 87.488C124.068 87.66 125.243 87.918 127.479 88.262ZM122.749 104.172C121.774 104.172 120.742 103.799 119.653 103.054C117.99 101.391 117.159 98.6393 117.159 94.798C117.159 93.3647 117.274 91.9887 117.503 90.67C117.79 89.294 117.933 88.262 117.933 87.574C117.933 86.714 117.79 85.9687 117.503 85.338C117.274 84.65 117.159 83.9907 117.159 83.36C117.159 81.984 117.79 80.4647 119.051 78.802C120.886 76.5087 122.778 75.362 124.727 75.362C125.3 75.362 126.074 75.5913 127.049 76.05C128.024 76.4513 128.97 77.9707 129.887 80.608C130.518 82.7293 130.833 84.736 130.833 86.628L130.747 88.778C133.9 88.7207 137.254 88.1473 140.809 87.058C144.364 85.9113 147.546 84.478 150.355 82.758C151.559 82.1847 152.534 81.898 153.279 81.898C154.254 81.898 154.741 82.2707 154.741 83.016L154.483 83.79C154.139 84.994 150.011 86.714 142.099 88.95C137.856 90.154 133.986 90.756 130.489 90.756C130.03 95.6293 128.97 99.2413 127.307 101.592C125.931 103.312 124.412 104.172 122.749 104.172ZM176.891 118.362C176.547 118.362 175.83 118.19 174.741 117.846C173.709 117.559 172.648 116.355 171.559 114.234C169.38 109.819 168.291 103.914 168.291 96.518C168.291 94.0527 168.405 91.4153 168.635 88.606C165.023 98.4673 161.554 103.398 158.229 103.398C156.91 103.398 155.849 103.054 155.047 102.366C152.524 100.015 151.263 95.916 151.263 90.068C151.263 88.8067 151.32 87.4307 151.435 85.94C152.237 77.3973 153.986 73.126 156.681 73.126C157.999 73.2407 158.687 73.9573 158.745 75.276C158.687 76.0787 158.573 76.738 158.401 77.254C157.77 79.6047 157.254 82.9587 156.853 87.316C156.738 88.6347 156.681 89.8387 156.681 90.928C156.681 93.508 156.996 95.658 157.627 97.378C158.429 98.754 159.175 99.4707 159.863 99.528C161.411 98.9547 163.389 95.4287 165.797 88.95C167.287 84.9367 168.262 82.1273 168.721 80.522C169.065 79.3753 169.437 78.286 169.839 77.254C170.24 76.222 171.129 75.706 172.505 75.706C173.307 75.7633 173.709 76.3367 173.709 77.426V77.856C171.645 85.6533 170.613 92.1607 170.613 97.378C170.613 101.162 171.215 105.147 172.419 109.332C173.623 113.517 175.314 115.61 177.493 115.61C179.442 115.209 181.248 112.428 182.911 107.268C184.287 102.853 185.691 95.2853 187.125 84.564C187.411 82.9013 188.128 82.07 189.275 82.07C190.135 82.07 190.565 82.586 190.565 83.618C190.565 84.994 189.934 88.52 188.673 94.196C186.322 104.745 183.885 111.883 181.363 115.61C179.815 117.445 178.324 118.362 176.891 118.362ZM201.926 131.004C200.55 131.004 199.117 130.431 197.626 129.284C195.161 127.22 193.211 124.239 191.778 120.34C188.797 112.313 187.306 101.764 187.306 88.692C187.306 84.392 187.707 77.9707 188.51 69.428C190.574 56.4133 192.093 48.014 193.068 44.23C191.864 44.3447 187.134 45.6347 178.878 48.1C170.622 50.508 165.376 51.712 163.14 51.712C161.305 51.712 160.388 51.024 160.388 49.648C160.388 48.5587 160.818 47.5553 161.678 46.638C162.481 45.6633 163.484 45.1473 164.688 45.09C165.548 45.09 165.978 45.434 165.978 46.122C165.978 46.6953 165.777 47.326 165.376 48.014C166.007 47.9567 175.438 45.864 193.67 41.736C194.473 38.124 195.275 35.63 196.078 34.254C196.135 33.738 196.479 32.7633 197.11 31.33C197.798 29.8393 198.658 29.094 199.69 29.094C200.779 29.094 201.324 29.696 201.324 30.9C201.324 31.3587 201.209 31.932 200.98 32.62C199.719 36.6907 199.088 39.2707 199.088 40.36C199.088 40.532 199.145 40.618 199.26 40.618L205.796 39.328C212.504 37.8373 218.639 36.7767 224.2 36.146C232.513 34.8847 239.508 34.254 245.184 34.254C246.904 34.254 249.255 34.3687 252.236 34.598C255.561 34.77 258.543 35.802 261.18 37.694C262.212 38.554 262.728 39.5 262.728 40.532C262.728 41.6213 262.269 42.4527 261.352 43.026C261.123 43.198 260.893 43.284 260.664 43.284C260.205 43.284 259.976 43.0833 259.976 42.682C260.033 42.4527 260.119 42.1947 260.234 41.908C260.406 41.564 260.492 41.22 260.492 40.876C260.492 39.5573 258.428 38.4107 254.3 37.436C249.885 36.6907 245.499 36.318 241.142 36.318C232.141 36.318 218.753 38.21 200.98 41.994C200.12 42.166 199.489 42.3667 199.088 42.596C198.457 42.9973 196.881 51.1387 194.358 67.02C193.441 74.072 192.982 81.984 192.982 90.756C192.982 100.789 194.387 109.991 197.196 118.362C198.916 123.465 200.894 126.159 203.13 126.446C205.366 126.446 207.86 122.863 210.612 115.696C212.103 111.683 213.049 108.873 213.45 107.268C214.425 104.287 215.743 97.6933 217.406 87.488C217.521 86.284 217.75 84.8793 218.094 83.274C218.438 82.2993 219.126 81.812 220.158 81.812L220.76 81.898C221.448 82.0127 221.792 82.5287 221.792 83.446C221.792 84.5353 221.477 85.94 220.846 87.66C220.215 89.3227 219.298 93.1927 218.094 99.27C215.227 114.005 211.615 123.694 207.258 128.338C205.653 130.115 203.875 131.004 201.926 131.004ZM260.283 114.492C256.958 114.492 255.094 111.912 254.693 106.752C254.636 105.663 254.607 104.459 254.607 103.14C254.607 95.916 255.524 87.9753 257.359 79.318L257.531 78.2C258.563 73.556 259.538 70.4313 260.455 68.826C261.372 67.1633 262.433 66.332 263.637 66.332C264.669 66.332 265.386 66.7333 265.787 67.536C266.188 68.2813 266.389 69.4567 266.389 71.062C266.389 71.75 265.902 77.8273 264.927 89.294L266.561 86.8C268.797 82.844 271.033 80.866 273.269 80.866C275.276 80.866 276.967 83.2453 278.343 88.004L280.407 93.078C280.808 93.8807 281.181 94.282 281.525 94.282C282.844 94.282 284.678 92.218 287.029 88.09L288.319 85.94C289.638 84.1053 291.042 83.188 292.533 83.188C293.622 83.188 294.769 83.6753 295.973 84.65C296.89 85.51 297.894 86.6567 298.983 88.09C301.448 91.4727 303.283 93.164 304.487 93.164C305.691 93.164 307.44 91.3293 309.733 87.66C312.026 83.9333 313.66 82.07 314.635 82.07C315.266 82.07 315.581 82.4427 315.581 83.188C315.581 83.4747 315.524 83.79 315.409 84.134C314.434 85.682 313.804 86.7427 313.517 87.316C311.969 90.24 310.335 92.5333 308.615 94.196C307.182 95.6293 305.834 96.346 304.573 96.346C302.165 96.346 299.098 93.7373 295.371 88.52L293.823 86.542C293.766 86.542 293.737 86.5133 293.737 86.456C293.221 85.8253 292.762 85.51 292.361 85.51C292.189 85.51 291.96 85.6247 291.673 85.854C290.412 86.886 289.179 88.6633 287.975 91.186C287.172 92.906 286.226 94.454 285.137 95.83C284.048 97.1487 282.471 97.8653 280.407 97.98C277.827 97.98 275.82 95.658 274.387 91.014C274.1 90.154 273.67 88.4913 273.097 86.026C272.982 85.682 272.868 85.3667 272.753 85.08C272.696 84.736 272.552 84.564 272.323 84.564C272.151 84.564 271.893 84.736 271.549 85.08C269.313 87.832 267.65 92.0173 266.561 97.636C266.045 99.2413 265.615 101.449 265.271 104.258C264.698 110.851 263.035 114.263 260.283 114.492ZM318.007 84.564C319.211 84.564 320.529 83.8187 321.963 82.328L323.339 80.694C325.116 78.458 326.005 75.7347 326.005 72.524C326.005 70.2307 325.431 69.084 324.285 69.084C323.253 69.084 322.135 69.9727 320.931 71.75C318.752 75.018 317.433 79.2893 316.975 84.564H318.007ZM324.113 107.612C323.769 107.612 323.023 107.526 321.877 107.354C320.787 107.239 319.497 106.523 318.007 105.204C314.337 101.936 312.503 96.776 312.503 89.724C312.503 83.4747 313.821 78.2 316.459 73.9C319.211 69.256 321.762 66.934 324.113 66.934C325.259 66.934 326.177 67.536 326.865 68.74C327.553 69.8867 327.897 71.2913 327.897 72.954C327.897 73.6993 327.782 74.932 327.553 76.652C327.381 78.028 326.263 80.006 324.199 82.586C322.135 85.1087 320.042 86.37 317.921 86.37L316.803 86.284C316.688 87.3733 316.631 88.434 316.631 89.466C316.631 94.454 317.835 98.2953 320.243 100.99C321.504 102.423 322.937 103.14 324.543 103.14C325.575 103.14 326.664 102.825 327.811 102.194C330.047 100.761 332.025 98.8113 333.745 96.346C335.522 93.8233 337.414 90.8133 339.421 87.316C340.797 84.8507 341.714 83.3313 342.173 82.758C342.402 82.3567 342.746 82.156 343.205 82.156C343.663 82.156 343.893 82.5 343.893 83.188C343.893 83.7613 343.577 84.65 342.947 85.854C339.621 91.874 337.271 95.9733 335.895 98.152C333.831 101.363 331.537 103.914 329.015 105.806C327.352 107.01 325.718 107.612 324.113 107.612Z" fill="black"/>
</svg>
