<svg width="997" height="174" viewBox="0 0 997 174" fill="none" xmlns="http://www.w3.org/2000/svg">
<path d="M17.448 144.216C21.5187 144.216 25.6467 143.471 29.832 141.98C34.82 140.317 39.3207 138.311 43.334 135.96C52.106 130.743 60.018 124.637 67.07 117.642C77.6193 107.379 83.1233 98.0627 83.582 89.692C83.582 83.5 80.2567 79.028 73.606 76.276C69.7073 74.8427 65.2927 74.126 60.362 74.126C55.2593 74.126 51.59 74.2693 49.354 74.556C47.5767 74.8427 43.076 75.9033 35.852 77.738L36.712 102.85L44.194 100.958C50.2713 99.2953 54.772 98.464 57.696 98.464H58.212C59.1293 98.464 59.588 98.894 59.588 99.754C59.588 100.901 58.9573 101.503 57.696 101.56C53.8547 101.675 48.4367 102.305 41.442 103.452C39.1487 104.025 37.6867 104.341 37.056 104.398C37.056 105.889 37.1133 107.379 37.228 108.87L37.142 111.364C37.142 112.281 37.2567 113.227 37.486 114.202C37.6007 114.775 37.658 115.349 37.658 115.922C37.658 116.61 37.572 117.183 37.4 117.642C36.712 119.133 35.68 119.878 34.304 119.878C31.724 119.878 30.434 117.642 30.434 113.17C30.434 112.081 30.606 109.959 30.95 106.806C29.5167 107.494 28.5133 107.953 27.94 108.182C27.424 108.411 26.5353 108.87 25.274 109.558C18.4513 113.17 13.0333 117.642 9.02 122.974C6.15333 126.815 4.72 130.427 4.72 133.81C4.72 134.785 4.83467 135.989 5.064 137.422C5.29333 138.855 6.41133 140.346 8.418 141.894C10.7687 143.442 13.7787 144.216 17.448 144.216ZM17.018 148.946C15.47 148.946 13.234 148.659 10.31 148.086C7.44333 147.57 5.00667 145.907 3 143.098C1.50933 140.919 0.764 138.454 0.764 135.702C0.764 134.727 0.936 133.007 1.28 130.542C1.56667 128.478 3.22933 125.497 6.268 121.598C10.6827 116.094 16.5307 111.565 23.812 108.01C26.3347 106.749 28.0833 106.032 29.058 105.86C29.6887 105.688 30.1473 105.487 30.434 105.258C31.1793 104.627 31.7527 102.047 32.154 97.518C33.014 87.198 33.444 80.576 33.444 77.652C32.8707 77.2507 32.3547 76.8207 31.896 76.362C31.4373 75.9033 31.208 75.3013 31.208 74.556C31.208 73.18 31.7813 71.9473 32.928 70.858C34.4187 69.5393 35.3073 67.1887 35.594 63.806C35.8233 61.3407 35.938 58.5887 35.938 55.55C35.938 52.11 35.766 47.5807 35.422 41.962C35.1353 38.6367 34.992 36.1427 34.992 34.48C34.992 27.3707 36.4253 23.816 39.292 23.816C40.7253 23.816 41.442 24.8767 41.442 26.998C41.442 28.4313 41.1553 30.266 40.582 32.502C39.9513 35.082 39.3493 39.6113 38.776 46.09C38.604 47.6953 38.4893 49.358 38.432 51.078C38.432 52.798 38.2027 56.0087 37.744 60.71C37.572 61.8567 37.4573 62.6593 37.4 63.118C37.3427 63.5767 37.2567 64.064 37.142 64.58C37.0847 65.0387 37.056 65.5547 37.056 66.128C37.056 66.4147 37.1133 66.558 37.228 66.558C37.9733 66.558 40.324 64.2933 44.28 59.764L45.914 58.044C53.998 48.584 60.4193 39.296 65.178 30.18C68.8473 23.1853 70.9113 17.2513 71.37 12.378L71.456 9.19599C71.456 7.648 70.51 6.1 68.618 4.55199C66.726 3.00399 63.8307 2.23 59.932 2.23C58.3267 2.23 56.4633 2.402 54.342 2.746C46.774 4.06467 39.4353 7.39 32.326 12.722C24.9873 18.3407 19.4547 24.8193 15.728 32.158C13.5493 36.286 12.374 39.812 12.202 42.736C12.202 45.8893 13.234 48.0967 15.298 49.358C15.8713 49.702 16.158 50.2753 16.158 51.078C16.158 51.4793 16.072 51.9667 15.9 52.54C15.0973 53.228 14.4667 53.572 14.008 53.572C13.2053 53.572 12.46 53.4 11.772 53.056C10.568 52.368 9.67933 51.508 9.106 50.476C8.59 49.444 8.332 47.896 8.332 45.832C8.332 39.468 11.772 32.0147 18.652 23.472C21.576 19.9747 24.5573 16.9933 27.596 14.528C29.8893 12.808 32.1827 11.174 34.476 9.62599C38.7187 6.81666 43.5347 4.55199 48.924 2.83199C53.74 1.34132 57.9827 0.595991 61.652 0.595991C63.1427 0.595991 64.8913 0.79666 66.898 1.198C68.9047 1.59933 70.768 2.746 72.488 4.638C74.1507 6.874 74.982 9.65466 74.982 12.98C74.982 18.2547 73.176 24.418 69.564 31.47L65.006 40.07C64.146 41.3313 63.544 42.3347 63.2 43.08C60.6773 47.2653 57.2947 52.11 53.052 57.614L43.592 69.31C49.096 68.794 52.7653 68.536 54.6 68.536C58.1547 68.536 62.1967 68.9373 66.726 69.74C71.3127 70.4853 75.1253 71.718 78.164 73.438C84.6427 77.6233 87.882 83.1273 87.882 89.95C87.882 98.0913 83.5247 106.806 74.81 116.094C73.778 117.47 71.5133 119.821 68.016 123.146C58.1547 132.434 47.376 139.629 35.68 144.732C33.3867 145.707 31.466 146.395 29.918 146.796C24.9873 148.229 20.6873 148.946 17.018 148.946ZM101.301 82.21C102.275 81.2353 104.167 78.2827 106.977 73.352L109.127 69.74C111.019 66.0133 113.455 60.8533 116.437 54.26C119.418 47.6667 121.539 42.65 122.801 39.21C124.807 33.8207 126.441 28.0873 127.703 22.01C127.989 19.8887 128.133 18.5413 128.133 17.968C128.133 15.904 127.617 14.872 126.585 14.872C125.897 14.872 124.922 15.4453 123.661 16.592C120.909 19.0573 118.128 22.6693 115.319 27.428C113.484 30.4667 111.162 35.3973 108.353 42.22C104.798 51.336 102.533 61.4267 101.559 72.492C101.329 75.0147 101.215 77.394 101.215 79.63L101.301 82.21ZM110.417 113.17C105.773 113.17 102.333 108.813 100.097 100.098C98.6634 94.5367 97.9467 87.628 97.9467 79.372C97.9467 68.02 100.068 56.41 104.311 44.542C108.324 33.2473 113.398 24.332 119.533 17.796C122.571 14.356 125.065 12.636 127.015 12.636C128.735 12.636 129.595 14.1553 129.595 17.194C129.595 21.15 128.333 26.8833 125.811 34.394C124.148 39.382 120.737 47.9247 115.577 60.022C111.621 69.138 108.324 76.3333 105.687 81.608L101.559 88.918C101.559 91.6127 102.275 95.282 103.709 99.926C105.715 106.405 108.238 109.644 111.277 109.644C112.71 109.472 114.086 108.669 115.405 107.236C117.87 104.656 119.819 101.503 121.253 97.776C124.463 90.208 126.298 85.9367 126.757 84.962C127.617 83.6433 128.419 82.984 129.165 82.984C129.566 82.984 129.996 83.156 130.455 83.5C130.627 83.672 130.713 83.8727 130.713 84.102C130.713 84.5607 130.512 85.22 130.111 86.08L130.025 86.51C126.413 94.9953 123.345 101.159 120.823 105C117.44 110.217 113.971 112.941 110.417 113.17ZM134.297 100.012C134.412 99.9547 134.756 99.4387 135.329 98.464C135.96 97.088 136.562 94.8807 137.135 91.842L133.265 91.154C133.036 92.6447 132.921 94.078 132.921 95.454C132.921 96.2567 132.95 97.2313 133.007 98.378C133.122 99.4673 133.552 100.012 134.297 100.012ZM137.221 89.262L137.393 88.316L137.479 87.026C137.479 84.6753 136.934 82.2673 135.845 79.802C135.73 80.49 135.243 82.2387 134.383 85.048C133.867 86.3093 133.58 87.198 133.523 87.714C133.523 88.0007 133.58 88.2587 133.695 88.488C133.81 88.66 134.985 88.918 137.221 89.262ZM132.491 105.172C131.516 105.172 130.484 104.799 129.395 104.054C127.732 102.391 126.901 99.6393 126.901 95.798C126.901 94.3647 127.016 92.9887 127.245 91.67C127.532 90.294 127.675 89.262 127.675 88.574C127.675 87.714 127.532 86.9687 127.245 86.338C127.016 85.65 126.901 84.9907 126.901 84.36C126.901 82.984 127.532 81.4647 128.793 79.802C130.628 77.5087 132.52 76.362 134.469 76.362C135.042 76.362 135.816 76.5913 136.791 77.05C137.766 77.4513 138.712 78.9707 139.629 81.608C140.26 83.7293 140.575 85.736 140.575 87.628L140.489 89.778C143.642 89.7207 146.996 89.1473 150.551 88.058C154.106 86.9113 157.288 85.478 160.097 83.758C161.301 83.1847 162.276 82.898 163.021 82.898C163.996 82.898 164.483 83.2707 164.483 84.016L164.225 84.79C163.881 85.994 159.753 87.714 151.841 89.95C147.598 91.154 143.728 91.756 140.231 91.756C139.772 96.6293 138.712 100.241 137.049 102.592C135.673 104.312 134.154 105.172 132.491 105.172ZM161.349 171.306C161.406 171.306 161.98 171.277 163.069 171.22C164.158 171.163 165.792 170.331 167.971 168.726C174.794 163.795 178.205 153.131 178.205 136.734C178.205 131.861 177.918 126.242 177.345 119.878C177.173 116.954 176.972 115.492 176.743 115.492C176.571 115.492 175.912 116.467 174.765 118.416C167.484 129.653 162.496 138.511 159.801 144.99C156.877 151.927 155.415 157.89 155.415 162.878C155.415 165.343 155.788 167.207 156.533 168.468C157.68 170.36 159.285 171.306 161.349 171.306ZM161.779 173.37C161.148 173.37 160.518 173.313 159.887 173.198C155.014 172.395 152.577 169.271 152.577 163.824C152.577 161.129 153.208 157.89 154.469 154.106C156.82 147.226 159.744 140.547 163.241 134.068C164.388 132.176 165.448 130.341 166.423 128.564C167.742 126.156 170.494 121.713 174.679 115.234C176.055 112.826 176.743 111.049 176.743 109.902L176.657 108.354C176.37 104.283 176.227 99.754 176.227 94.766C176.227 91.7273 176.284 88.488 176.399 85.048C174.679 90.036 172.529 94.938 169.949 99.754C168.63 102.334 167.283 103.739 165.907 103.968L164.789 104.054C162.152 104.054 160.46 101.818 159.715 97.346C159.658 96.7153 159.629 96.0273 159.629 95.282C159.629 90.0647 161.005 84.2453 163.757 77.824C165.649 73.868 167.742 71.0587 170.035 69.396C172.099 67.9053 173.819 67.16 175.195 67.16C176.628 67.16 177.746 67.504 178.549 68.192C179.352 68.8227 179.753 69.5393 179.753 70.342C179.753 72.1193 179.008 73.008 177.517 73.008L176.399 72.836C172.5 72.836 169.49 79.286 167.369 92.186C166.91 94.8807 166.652 96.744 166.595 97.776C166.595 98.5213 166.71 98.894 166.939 98.894C167.57 98.6647 168.401 97.26 169.433 94.68C173.274 85.9653 175.482 81.092 176.055 80.06C176.686 78.9707 177.202 78.1967 177.603 77.738C178.062 77.2793 178.721 77.05 179.581 77.05C180.441 77.05 181.014 77.48 181.301 78.34C181.645 79.544 181.817 81.6653 181.817 84.704C181.817 86.4813 181.76 88.6313 181.645 91.154C181.301 96.8873 181.129 101.589 181.129 105.258C185.544 99.41 191.535 92.4153 199.103 84.274C199.848 83.4713 200.536 83.07 201.167 83.07C202.027 83.1273 202.457 83.5 202.457 84.188C202.457 84.9907 200.508 87.3127 196.609 91.154C190.99 96.4287 186.576 101.331 183.365 105.86C183.193 106.204 182.935 106.548 182.591 106.892C181.731 107.809 181.215 109.243 181.043 111.192C180.928 112.511 180.871 114.259 180.871 116.438C180.871 119.018 180.957 122.2 181.129 125.984C181.358 129.768 181.473 133.208 181.473 136.304C181.473 141.407 181.014 146.595 180.097 151.87C179.581 154.966 178.377 158.521 176.485 162.534C174.364 166.834 171.726 169.815 168.573 171.478C166.222 172.739 163.958 173.37 161.779 173.37ZM300.357 142.512C299.589 142.512 298.845 142.176 298.125 141.504C297.021 140.304 296.469 138.24 296.469 135.312C296.469 134.448 296.517 133.488 296.613 132.432C297.237 120.72 297.837 107.616 298.413 93.12C297.069 93.168 295.149 93.72 292.653 94.776C291.405 95.352 290.373 95.64 289.557 95.64C288.549 95.64 288.045 95.256 288.045 94.488C288.045 93.816 288.357 93.288 288.981 92.904C289.653 92.52 291.045 92.16 293.157 91.824C294.789 91.68 296.517 91.224 298.341 90.456C298.485 88.872 298.557 87.504 298.557 86.352C298.701 74.928 299.829 64.32 301.941 54.528C302.853 50.4 303.429 48.216 303.669 47.976C304.005 46.152 304.773 44.064 305.973 41.712C307.173 39.312 308.277 38.112 309.285 38.112C309.669 38.112 310.053 38.28 310.437 38.616C311.109 39.144 311.469 39.72 311.517 40.344C311.373 42.024 310.245 46.968 308.133 55.176C306.741 60.552 305.589 65.616 304.677 70.368C303.813 75.072 303.021 81.456 302.301 89.52C303.885 89.28 306.357 88.632 309.717 87.576C316.149 85.752 320.589 84.84 323.037 84.84C323.901 84.84 324.717 84.984 325.485 85.272C326.253 85.656 326.637 86.112 326.637 86.64C326.637 87.456 325.413 87.864 322.965 87.864L321.813 87.792C319.749 87.792 317.085 88.128 313.821 88.8C308.349 89.76 304.461 90.744 302.157 91.752L301.869 98.664C301.725 100.44 301.653 102.408 301.653 104.568C301.221 110.472 301.005 115.992 301.005 121.128L301.077 126.672C301.029 127.248 301.005 127.872 301.005 128.544C301.005 130.848 301.317 133.68 301.941 137.04C302.325 138.192 302.541 139.152 302.589 139.92C302.493 140.688 302.229 141.312 301.797 141.792C301.365 142.272 300.885 142.512 300.357 142.512ZM279.549 42.936C279.069 42.936 278.637 42.816 278.253 42.576C278.013 42.192 277.893 41.904 277.893 41.712C277.941 41.088 278.421 40.608 279.333 40.272C287.781 35.856 297.501 32.4 308.493 29.904C317.277 27.888 324.573 26.592 330.381 26.016C339.645 25.104 345.741 24.648 348.669 24.648L351.261 24.72C358.557 24.72 362.277 25.896 362.421 28.248C362.325 29.544 361.701 30.192 360.549 30.192C359.877 30.192 359.109 29.88 358.245 29.256C353.973 27.48 348.789 26.592 342.693 26.592C337.941 26.592 332.085 27.096 325.125 28.104C319.461 28.968 313.941 30.096 308.565 31.488C299.637 33.6 292.269 36.24 286.461 39.408C282.957 41.76 280.653 42.936 279.549 42.936ZM335.148 107.016C334.236 107.016 333.54 106.416 333.06 105.216C332.628 104.064 332.412 102.048 332.412 99.168C332.412 96.816 332.556 93.864 332.844 90.312C333.372 83.976 334.452 80.808 336.084 80.808C336.516 80.808 336.9 80.928 337.236 81.168C337.62 81.408 337.812 82.344 337.812 83.976C337.812 87.528 337.62 92.448 337.236 98.736C339.684 89.424 343.284 82.416 348.036 77.712C349.62 76.176 351.276 75.408 353.004 75.408C353.964 75.408 354.78 75.744 355.452 76.416C356.124 77.04 356.46 77.784 356.46 78.648C356.46 79.848 356.076 80.448 355.308 80.448C354.732 80.448 354.06 80.04 353.292 79.224C352.716 78.6 352.188 78.264 351.708 78.216C351.42 78.216 351.06 78.312 350.628 78.504C347.988 79.944 345.18 83.664 342.204 89.664C341.052 91.92 339.948 95.52 338.892 100.464C338.172 104.832 336.924 107.016 335.148 107.016ZM366.033 100.824C366.129 100.776 366.417 100.344 366.897 99.528C367.425 98.376 367.929 96.528 368.409 93.984L365.169 93.408C364.977 94.656 364.881 95.856 364.881 97.008C364.881 97.68 364.905 98.496 364.953 99.456C365.049 100.368 365.409 100.824 366.033 100.824ZM368.481 91.824L368.625 91.032L368.697 89.952C368.697 87.984 368.241 85.968 367.329 83.904C367.233 84.48 366.825 85.944 366.105 88.296C365.673 89.352 365.433 90.096 365.385 90.528C365.385 90.768 365.433 90.984 365.529 91.176C365.625 91.32 366.609 91.536 368.481 91.824ZM364.521 105.144C363.705 105.144 362.841 104.832 361.929 104.208C360.537 102.816 359.841 100.512 359.841 97.296C359.841 96.096 359.937 94.944 360.129 93.84C360.369 92.688 360.489 91.824 360.489 91.248C360.489 90.528 360.369 89.904 360.129 89.376C359.937 88.8 359.841 88.248 359.841 87.72C359.841 86.568 360.369 85.296 361.425 83.904C362.961 81.984 364.545 81.024 366.177 81.024C366.657 81.024 367.305 81.216 368.121 81.6C368.937 81.936 369.729 83.208 370.497 85.416C371.025 87.192 371.289 88.872 371.289 90.456L371.217 92.256C373.857 92.208 376.665 91.728 379.641 90.816C382.617 89.856 385.281 88.656 387.633 87.216C388.641 86.736 389.457 86.496 390.081 86.496C390.897 86.496 391.305 86.808 391.305 87.432L391.089 88.08C390.801 89.088 387.345 90.528 380.721 92.4C377.169 93.408 373.929 93.912 371.001 93.912C370.617 97.992 369.729 101.016 368.337 102.984C367.185 104.424 365.913 105.144 364.521 105.144ZM391.273 107.088C388.969 106.752 387.817 103.608 387.817 97.656C387.817 96.312 387.889 94.824 388.033 93.192C388.945 83.064 390.961 78 394.081 78C395.281 78 395.881 78.696 395.881 80.088L395.737 81.744C395.113 84.72 394.561 88.92 394.081 94.344L393.505 98.376C393.505 98.568 393.529 98.664 393.577 98.664C393.673 98.664 393.985 98.064 394.513 96.864C397.441 89.616 400.465 85.992 403.585 85.992C404.209 85.992 405.025 86.256 406.033 86.784C407.089 87.264 408.385 88.848 409.921 91.536C411.793 94.848 413.713 96.504 415.681 96.504C416.257 96.504 416.953 96.288 417.769 95.856C418.585 95.376 419.449 94.512 420.361 93.264C421.321 91.968 422.185 90.672 422.953 89.376C423.385 88.656 423.769 88.032 424.105 87.504C424.489 86.976 424.873 86.712 425.257 86.712C425.881 86.76 426.193 87.096 426.193 87.72C426.193 88.104 426.097 88.512 425.905 88.944C425.041 90.912 423.769 93 422.089 95.208C419.689 98.328 417.289 99.888 414.889 99.888C412.633 99.552 410.905 98.664 409.705 97.224C408.505 95.736 407.521 94.056 406.753 92.184C405.505 89.64 404.257 88.368 403.009 88.368C400.849 88.368 398.737 91.44 396.673 97.584L395.233 102.552C394.897 103.56 394.441 104.544 393.865 105.504C393.337 106.464 392.473 106.992 391.273 107.088ZM436.293 127.608C435.141 127.608 433.941 127.128 432.693 126.168C430.629 124.44 428.997 121.944 427.797 118.68C425.301 111.96 424.053 103.128 424.053 92.184C424.053 88.584 424.389 83.208 425.061 76.056C426.789 65.16 428.061 58.128 428.877 54.96C427.869 55.056 423.909 56.136 416.997 58.2C410.085 60.216 405.693 61.224 403.821 61.224C402.285 61.224 401.517 60.648 401.517 59.496C401.517 58.584 401.877 57.744 402.597 56.976C403.269 56.16 404.109 55.728 405.117 55.68C405.837 55.68 406.197 55.968 406.197 56.544C406.197 57.024 406.029 57.552 405.693 58.128C406.221 58.08 414.117 56.328 429.381 52.872C430.053 49.848 430.725 47.76 431.397 46.608C431.445 46.176 431.733 45.36 432.261 44.16C432.837 42.912 433.557 42.288 434.421 42.288C435.333 42.288 435.789 42.792 435.789 43.8C435.789 44.184 435.693 44.664 435.501 45.24C434.445 48.648 433.917 50.808 433.917 51.72C433.917 51.864 433.965 51.936 434.061 51.936L439.533 50.856C445.149 49.608 450.285 48.72 454.941 48.192C461.901 47.136 467.757 46.608 472.509 46.608C473.949 46.608 475.917 46.704 478.413 46.896C481.197 47.04 483.693 47.904 485.901 49.488C486.765 50.208 487.197 51 487.197 51.864C487.197 52.776 486.813 53.472 486.045 53.952C485.853 54.096 485.661 54.168 485.469 54.168C485.085 54.168 484.893 54 484.893 53.664C484.941 53.472 485.013 53.256 485.109 53.016C485.253 52.728 485.325 52.44 485.325 52.152C485.325 51.048 483.597 50.088 480.141 49.272C476.445 48.648 472.773 48.336 469.125 48.336C461.589 48.336 450.381 49.92 435.501 53.088C434.781 53.232 434.253 53.4 433.917 53.592C433.389 53.928 432.069 60.744 429.957 74.04C429.189 79.944 428.805 86.568 428.805 93.912C428.805 102.312 429.981 110.016 432.333 117.024C433.773 121.296 435.429 123.552 437.301 123.792C439.173 123.792 441.261 120.792 443.565 114.792C444.813 111.432 445.605 109.08 445.941 107.736C446.757 105.24 447.861 99.72 449.253 91.176C449.349 90.168 449.541 88.992 449.829 87.648C450.117 86.832 450.693 86.424 451.557 86.424L452.061 86.496C452.637 86.592 452.925 87.024 452.925 87.792C452.925 88.704 452.661 89.88 452.133 91.32C451.605 92.712 450.837 95.952 449.829 101.04C447.429 113.376 444.405 121.488 440.757 125.376C439.413 126.864 437.925 127.608 436.293 127.608ZM453.672 88.728C454.68 88.728 455.784 88.104 456.984 86.856L458.136 85.488C459.624 83.616 460.368 81.336 460.368 78.648C460.368 76.728 459.888 75.768 458.928 75.768C458.064 75.768 457.128 76.512 456.12 78C454.296 80.736 453.192 84.312 452.808 88.728H453.672ZM458.784 108.024C458.496 108.024 457.872 107.952 456.912 107.808C456 107.712 454.92 107.112 453.672 106.008C450.6 103.272 449.064 98.952 449.064 93.048C449.064 87.816 450.168 83.4 452.376 79.8C454.68 75.912 456.816 73.968 458.784 73.968C459.744 73.968 460.512 74.472 461.088 75.48C461.664 76.44 461.952 77.616 461.952 79.008C461.952 79.632 461.856 80.664 461.664 82.104C461.52 83.256 460.584 84.912 458.856 87.072C457.128 89.184 455.376 90.24 453.6 90.24L452.664 90.168C452.568 91.08 452.52 91.968 452.52 92.832C452.52 97.008 453.528 100.224 455.544 102.48C456.6 103.68 457.8 104.28 459.144 104.28C460.008 104.28 460.92 104.016 461.88 103.488C463.752 102.288 465.408 100.656 466.848 98.592C468.336 96.48 469.92 93.96 471.6 91.032C472.752 88.968 473.52 87.696 473.904 87.216C474.096 86.88 474.384 86.712 474.768 86.712C475.152 86.712 475.344 87 475.344 87.576C475.344 88.056 475.08 88.8 474.552 89.808C471.768 94.848 469.8 98.28 468.648 100.104C466.92 102.792 465 104.928 462.888 106.512C461.496 107.52 460.128 108.024 458.784 108.024ZM476.069 107.088C473.765 106.752 472.613 103.608 472.613 97.656C472.613 96.312 472.685 94.824 472.829 93.192C473.741 83.064 475.757 78 478.877 78C480.077 78 480.677 78.696 480.677 80.088L480.533 81.744C479.909 84.72 479.357 88.92 478.877 94.344L478.301 98.376C478.301 98.568 478.325 98.664 478.373 98.664C478.469 98.664 478.781 98.064 479.309 96.864C482.237 89.616 485.261 85.992 488.381 85.992C489.005 85.992 489.821 86.256 490.829 86.784C491.885 87.264 493.181 88.848 494.717 91.536C496.589 94.848 498.509 96.504 500.477 96.504C501.053 96.504 501.749 96.288 502.565 95.856C503.381 95.376 504.245 94.512 505.157 93.264C506.117 91.968 506.981 90.672 507.749 89.376C508.181 88.656 508.565 88.032 508.901 87.504C509.285 86.976 509.669 86.712 510.053 86.712C510.677 86.76 510.989 87.096 510.989 87.72C510.989 88.104 510.893 88.512 510.701 88.944C509.837 90.912 508.565 93 506.885 95.208C504.485 98.328 502.085 99.888 499.685 99.888C497.429 99.552 495.701 98.664 494.501 97.224C493.301 95.736 492.317 94.056 491.549 92.184C490.301 89.64 489.053 88.368 487.805 88.368C485.645 88.368 483.533 91.44 481.469 97.584L480.029 102.552C479.693 103.56 479.237 104.544 478.661 105.504C478.133 106.464 477.269 106.992 476.069 107.088ZM512.162 100.68C515.858 95.256 517.946 89.496 518.426 83.4L518.57 81.888L518.498 81.816L518.354 81.888C517.298 83.088 516.338 84.888 515.474 87.288C514.61 89.64 513.89 92.064 513.314 94.56C512.738 97.008 512.354 99.048 512.162 100.68ZM524.186 80.736L524.618 80.448C531.818 75.744 538.61 66.888 544.994 53.88C548.018 47.736 549.53 42.192 549.53 37.248C549.53 35.76 549.338 34.512 548.954 33.504C548.33 31.824 547.322 30.984 545.93 30.984C545.402 30.984 544.442 31.248 543.05 31.776C541.658 32.304 539.474 34.776 536.498 39.192C535.202 41.16 534.122 43.056 533.258 44.88C529.754 51.984 527.378 58.776 526.13 65.256C525.458 68.904 524.81 74.064 524.186 80.736ZM536.642 118.176C532.034 118.176 527.81 114.984 523.97 108.6C521.474 104.712 519.89 100.608 519.218 96.288C518.834 94.032 518.57 92.904 518.426 92.904C518.33 92.904 518.066 93.576 517.634 94.92C516.146 100.008 514.442 103.656 512.522 105.864C511.754 106.776 510.914 107.232 510.002 107.232C509.282 107.232 508.514 106.896 507.698 106.224C506.738 105.072 506.258 103.152 506.258 100.464C506.258 97.488 506.93 93.576 508.274 88.728C509.33 84.888 511.058 81.456 513.458 78.432C514.706 76.992 516.122 76.272 517.706 76.272C518.042 76.272 518.354 76.296 518.642 76.344H518.93C519.266 72.6 520.466 67.512 522.53 61.08C526.13 49.8 530.954 40.92 537.002 34.44C540.122 31.176 542.93 29.544 545.426 29.544C549.17 29.544 551.042 32.16 551.042 37.392C551.042 39.648 550.682 41.856 549.962 44.016C546.602 55.008 541.226 65.112 533.834 74.328C530.714 78.216 527.69 81 524.762 82.68C524.33 82.68 524.114 83.736 524.114 85.848C524.114 87.24 524.21 88.872 524.402 90.744C525.17 97.464 526.85 103.416 529.442 108.6C531.794 113.4 534.386 115.8 537.218 115.8C541.154 115.8 544.874 111.792 548.378 103.776C550.778 98.4 552.338 93.6 553.058 89.376C553.058 88.896 553.202 88.392 553.49 87.864C553.922 87.144 554.522 86.784 555.29 86.784C555.962 86.784 556.298 87.192 556.298 88.008C556.298 89.304 555.626 91.896 554.282 95.784C551.93 102.504 549.194 108 546.074 112.272C543.242 116.208 540.098 118.176 536.642 118.176ZM602.189 143.448C601.997 143.448 601.757 143.352 601.469 143.16C601.229 143.016 600.989 142.896 600.749 142.8C600.509 142.752 600.269 142.728 600.029 142.728C599.789 142.728 599.405 142.776 598.877 142.872C597.437 143.208 595.973 143.376 594.485 143.376C593.381 143.376 592.397 143.16 591.533 142.728C590.717 142.296 590.117 141.744 589.733 141.072C589.397 140.4 589.229 139.704 589.229 138.984V138.696C589.901 135.288 591.485 133.584 593.981 133.584C594.893 133.584 595.589 133.8 596.069 134.232C596.309 134.376 596.429 134.592 596.429 134.88C596.429 135.312 596.021 135.744 595.205 136.176C594.005 136.608 593.405 137.208 593.405 137.976C593.405 139.032 594.293 139.56 596.069 139.56C597.269 139.56 598.493 139.32 599.741 138.84L599.669 135.672C600.101 130.68 600.749 126.36 601.613 122.712C602.141 119.832 602.597 116.928 602.981 114C603.269 110.688 603.557 101.472 603.845 86.352C604.037 77.232 604.253 71.376 604.493 68.784C604.685 66.576 604.925 64.44 605.213 62.376C605.741 58.488 606.773 56.256 608.309 55.68C608.789 55.44 609.557 55.32 610.613 55.32C612.533 55.32 613.493 56.736 613.493 59.568C613.493 61.728 612.821 65.256 611.477 70.152C610.901 72.312 610.445 74.256 610.109 75.984C610.061 76.512 609.989 77.016 609.893 77.496C608.405 85.368 607.013 95.448 605.717 107.736C605.477 110.376 605.165 113.088 604.781 115.872C603.773 123.024 603.269 128.424 603.269 132.072C603.269 133.752 603.341 135.408 603.485 137.04C606.269 135.408 609.413 132.936 612.917 129.624C616.469 126.36 619.301 123.408 621.413 120.768C622.325 119.616 623.165 118.632 623.933 117.816C625.613 115.944 627.341 113.784 629.117 111.336C629.645 110.52 630.173 109.776 630.701 109.104C631.901 107.664 633.701 105.024 636.101 101.184C640.709 94.176 644.837 86.52 648.485 78.216C653.765 66.072 656.405 55.248 656.405 45.744C656.405 31.824 650.813 24.744 639.629 24.504C636.509 24.504 633.389 24.912 630.269 25.728C618.317 28.752 607.781 36.456 598.661 48.84C595.349 53.544 593.045 58.008 591.749 62.232C591.749 62.376 591.821 62.472 591.965 62.52C592.781 62.952 593.189 63.504 593.189 64.176C593.189 64.848 592.829 65.424 592.109 65.904C591.389 66.336 590.645 66.552 589.877 66.552C588.533 66.552 587.861 65.376 587.861 63.024C587.861 59.04 590.525 53.496 595.853 46.392C603.629 35.976 612.893 28.776 623.645 24.792C629.021 22.776 634.109 21.768 638.909 21.768C649.517 21.768 656.165 26.928 658.853 37.248C659.381 39.552 659.645 41.928 659.645 44.376C659.645 52.248 658.709 59.256 656.837 65.4C654.437 73.368 651.221 81.168 647.189 88.8L640.493 100.464C638.237 104.112 635.093 108.576 631.061 113.856C627.029 119.184 623.597 123.288 620.765 126.168C620.189 126.696 619.757 127.152 619.469 127.536C619.229 127.92 617.381 129.768 613.925 133.08C612.005 134.856 609.893 136.536 607.589 138.12C605.477 139.56 604.301 140.592 604.061 141.216C603.293 142.704 602.669 143.448 602.189 143.448ZM661.094 88.728C662.102 88.728 663.206 88.104 664.406 86.856L665.558 85.488C667.046 83.616 667.79 81.336 667.79 78.648C667.79 76.728 667.31 75.768 666.35 75.768C665.486 75.768 664.55 76.512 663.542 78C661.718 80.736 660.614 84.312 660.23 88.728H661.094ZM666.206 108.024C665.918 108.024 665.294 107.952 664.334 107.808C663.422 107.712 662.342 107.112 661.094 106.008C658.022 103.272 656.486 98.952 656.486 93.048C656.486 87.816 657.59 83.4 659.798 79.8C662.102 75.912 664.238 73.968 666.206 73.968C667.166 73.968 667.934 74.472 668.51 75.48C669.086 76.44 669.374 77.616 669.374 79.008C669.374 79.632 669.278 80.664 669.086 82.104C668.942 83.256 668.006 84.912 666.278 87.072C664.55 89.184 662.798 90.24 661.022 90.24L660.086 90.168C659.99 91.08 659.942 91.968 659.942 92.832C659.942 97.008 660.95 100.224 662.966 102.48C664.022 103.68 665.222 104.28 666.566 104.28C667.43 104.28 668.342 104.016 669.302 103.488C671.174 102.288 672.83 100.656 674.27 98.592C675.758 96.48 677.342 93.96 679.022 91.032C680.174 88.968 680.942 87.696 681.326 87.216C681.518 86.88 681.806 86.712 682.19 86.712C682.574 86.712 682.766 87 682.766 87.576C682.766 88.056 682.502 88.8 681.974 89.808C679.19 94.848 677.222 98.28 676.07 100.104C674.342 102.792 672.422 104.928 670.31 106.512C668.918 107.52 667.55 108.024 666.206 108.024ZM689.971 117.96C687.859 117.96 686.011 115.8 684.427 111.48C681.979 104.28 680.707 97.176 680.611 90.168L680.827 86.208C681.163 82.128 682.411 79.92 684.571 79.584C685.675 79.584 686.347 79.8 686.587 80.232C686.875 80.664 687.019 81.264 687.019 82.032V82.464C686.923 85.728 686.875 88.704 686.875 91.392C686.875 103.584 688.003 111.096 690.259 113.928C690.499 114.12 690.763 114.216 691.051 114.216C691.867 113.784 692.659 112.56 693.427 110.544C694.771 106.944 695.995 102.216 697.099 96.36C698.059 92.424 698.587 89.208 698.683 86.712L698.611 85.344C698.611 81.744 699.307 79.944 700.699 79.944C701.131 79.944 701.347 80.496 701.347 81.6L701.275 83.04C701.275 85.056 701.803 86.976 702.859 88.8C703.915 90.576 705.499 91.464 707.611 91.464C708.715 91.464 709.963 91.224 711.355 90.744C712.747 90.264 714.163 89.52 715.603 88.512C716.131 88.224 716.659 87.84 717.187 87.36C717.715 86.88 718.195 86.64 718.627 86.64C719.299 86.64 719.635 87.024 719.635 87.792C719.635 88.896 717.619 90.552 713.587 92.76C711.091 94.2 708.787 94.92 706.675 94.92C705.091 94.92 703.651 94.416 702.355 93.408C701.587 92.784 701.059 92.256 700.771 91.824C700.531 91.344 700.219 90.888 699.835 90.456C699.403 93.48 698.899 96.528 698.323 99.6C698.083 100.56 697.867 101.616 697.675 102.768C695.995 112.896 693.427 117.96 689.971 117.96ZM721.351 88.728C722.359 88.728 723.463 88.104 724.663 86.856L725.815 85.488C727.303 83.616 728.047 81.336 728.047 78.648C728.047 76.728 727.567 75.768 726.607 75.768C725.743 75.768 724.807 76.512 723.799 78C721.975 80.736 720.871 84.312 720.487 88.728H721.351ZM726.463 108.024C726.175 108.024 725.551 107.952 724.591 107.808C723.679 107.712 722.599 107.112 721.351 106.008C718.279 103.272 716.743 98.952 716.743 93.048C716.743 87.816 717.847 83.4 720.055 79.8C722.359 75.912 724.495 73.968 726.463 73.968C727.423 73.968 728.191 74.472 728.767 75.48C729.343 76.44 729.631 77.616 729.631 79.008C729.631 79.632 729.535 80.664 729.343 82.104C729.199 83.256 728.263 84.912 726.535 87.072C724.807 89.184 723.055 90.24 721.279 90.24L720.343 90.168C720.247 91.08 720.199 91.968 720.199 92.832C720.199 97.008 721.207 100.224 723.223 102.48C724.279 103.68 725.479 104.28 726.823 104.28C727.687 104.28 728.599 104.016 729.559 103.488C731.431 102.288 733.087 100.656 734.527 98.592C736.015 96.48 737.599 93.96 739.279 91.032C740.431 88.968 741.199 87.696 741.583 87.216C741.775 86.88 742.063 86.712 742.447 86.712C742.831 86.712 743.023 87 743.023 87.576C743.023 88.056 742.759 88.8 742.231 89.808C739.447 94.848 737.479 98.28 736.327 100.104C734.599 102.792 732.679 104.928 730.567 106.512C729.175 107.52 727.807 108.024 726.463 108.024ZM744.181 85.92C744.997 85.104 746.581 82.632 748.933 78.504L750.733 75.48C752.317 72.36 754.357 68.04 756.853 62.52C759.349 57 761.125 52.8 762.181 49.92C763.861 45.408 765.229 40.608 766.285 35.52C766.525 33.744 766.645 32.616 766.645 32.136C766.645 30.408 766.213 29.544 765.349 29.544C764.773 29.544 763.957 30.024 762.901 30.984C760.597 33.048 758.269 36.072 755.917 40.056C754.381 42.6 752.437 46.728 750.085 52.44C747.109 60.072 745.213 68.52 744.397 77.784C744.205 79.896 744.109 81.888 744.109 83.76L744.181 85.92ZM751.813 111.84C747.925 111.84 745.045 108.192 743.173 100.896C741.973 96.24 741.373 90.456 741.373 83.544C741.373 74.04 743.149 64.32 746.701 54.384C750.061 44.928 754.309 37.464 759.445 31.992C761.989 29.112 764.077 27.672 765.709 27.672C767.149 27.672 767.869 28.944 767.869 31.488C767.869 34.8 766.813 39.6 764.701 45.888C763.309 50.064 760.453 57.216 756.133 67.344C752.821 74.976 750.061 81 747.853 85.416L744.397 91.536C744.397 93.792 744.997 96.864 746.197 100.752C747.877 106.176 749.989 108.888 752.533 108.888C753.733 108.744 754.885 108.072 755.989 106.872C758.053 104.712 759.685 102.072 760.885 98.952C763.573 92.616 765.109 89.04 765.493 88.224C766.213 87.12 766.885 86.568 767.509 86.568C767.845 86.568 768.205 86.712 768.589 87C768.733 87.144 768.805 87.312 768.805 87.504C768.805 87.888 768.637 88.44 768.301 89.16L768.229 89.52C765.205 96.624 762.637 101.784 760.525 105C757.693 109.368 754.789 111.648 751.813 111.84ZM771.806 100.824C771.902 100.776 772.19 100.344 772.67 99.528C773.198 98.376 773.702 96.528 774.182 93.984L770.942 93.408C770.75 94.656 770.654 95.856 770.654 97.008C770.654 97.68 770.678 98.496 770.726 99.456C770.822 100.368 771.182 100.824 771.806 100.824ZM774.254 91.824L774.398 91.032L774.47 89.952C774.47 87.984 774.014 85.968 773.102 83.904C773.006 84.48 772.598 85.944 771.878 88.296C771.446 89.352 771.206 90.096 771.158 90.528C771.158 90.768 771.206 90.984 771.302 91.176C771.398 91.32 772.382 91.536 774.254 91.824ZM770.294 105.144C769.478 105.144 768.614 104.832 767.702 104.208C766.31 102.816 765.614 100.512 765.614 97.296C765.614 96.096 765.71 94.944 765.902 93.84C766.142 92.688 766.262 91.824 766.262 91.248C766.262 90.528 766.142 89.904 765.902 89.376C765.71 88.8 765.614 88.248 765.614 87.72C765.614 86.568 766.142 85.296 767.198 83.904C768.734 81.984 770.318 81.024 771.95 81.024C772.43 81.024 773.078 81.216 773.894 81.6C774.71 81.936 775.502 83.208 776.27 85.416C776.798 87.192 777.062 88.872 777.062 90.456L776.99 92.256C779.63 92.208 782.438 91.728 785.414 90.816C788.39 89.856 791.054 88.656 793.406 87.216C794.414 86.736 795.23 86.496 795.854 86.496C796.67 86.496 797.078 86.808 797.078 87.432L796.862 88.08C796.574 89.088 793.118 90.528 786.494 92.4C782.942 93.408 779.702 93.912 776.774 93.912C776.39 97.992 775.502 101.016 774.11 102.984C772.958 104.424 771.686 105.144 770.294 105.144ZM803.166 99.456C804.462 98.592 806.118 97.536 808.134 96.288C808.566 95.712 809.094 94.92 809.718 93.912C809.718 93.816 809.766 93.696 809.862 93.552C810.582 92.544 811.326 91.296 812.094 89.808C812.862 88.32 813.246 87.144 813.246 86.28C813.246 86.136 813.222 85.968 813.174 85.776C813.126 85.536 812.814 85.416 812.238 85.416C811.086 85.416 809.622 86.76 807.846 89.448C806.502 91.464 805.398 93.456 804.534 95.424L803.166 99.456ZM795.75 144.168C794.742 144.168 794.142 143.4 793.95 141.864C793.614 138.072 793.446 134.184 793.446 130.2V121.848C793.35 118.68 793.302 115.536 793.302 112.416C793.302 104.976 793.614 97.608 794.238 90.312C795.15 79.656 796.878 74.136 799.422 73.752C800.382 73.752 800.91 74.232 801.006 75.192L801.078 76.272C801.078 77.952 800.502 83.664 799.35 93.408C798.582 99.312 798.03 105.432 797.694 111.768C797.694 114.744 797.766 116.28 797.91 116.376C798.054 116.376 798.198 115.944 798.342 115.08C799.062 108.936 800.574 102.912 802.878 97.008C804.078 93.552 805.806 90.336 808.062 87.36C809.694 85.152 811.374 84.048 813.102 84.048C814.398 84.048 815.046 84.912 815.046 86.64C815.046 88.848 814.47 91.056 813.318 93.264C821.478 88.704 826.206 86.424 827.502 86.424C828.222 86.424 828.582 86.832 828.582 87.648C828.582 87.888 828.534 88.2 828.438 88.584C828.39 88.92 827.958 89.232 827.142 89.52C821.382 91.248 816.462 93.216 812.382 95.424C811.566 97.104 810.606 98.664 809.502 100.104C807.726 102.456 805.998 103.632 804.318 103.632C803.55 103.632 802.782 103.368 802.014 102.84L801.294 105.36C799.806 111.12 798.87 118.296 798.486 126.888C798.006 133.896 797.766 138.072 797.766 139.416C797.814 139.8 797.838 140.232 797.838 140.712C797.838 141.144 797.766 141.888 797.622 142.944C797.478 143.76 796.854 144.168 795.75 144.168ZM829.54 113.784C826.756 113.784 825.196 111.624 824.86 107.304C824.812 106.392 824.788 105.384 824.788 104.28C824.788 98.232 825.556 91.584 827.092 84.336L827.236 83.4C828.1 79.512 828.916 76.896 829.684 75.552C830.452 74.16 831.34 73.464 832.348 73.464C833.212 73.464 833.812 73.8 834.148 74.472C834.484 75.096 834.652 76.08 834.652 77.424C834.652 78 834.244 83.088 833.428 92.688L834.796 90.6C836.668 87.288 838.54 85.632 840.412 85.632C842.092 85.632 843.508 87.624 844.66 91.608L846.388 95.856C846.724 96.528 847.036 96.864 847.324 96.864C848.428 96.864 849.964 95.136 851.932 91.68L853.012 89.88C854.116 88.344 855.292 87.576 856.54 87.576C857.452 87.576 858.412 87.984 859.42 88.8C860.188 89.52 861.028 90.48 861.94 91.68C864.004 94.512 865.54 95.928 866.548 95.928C867.556 95.928 869.02 94.392 870.94 91.32C872.86 88.2 874.228 86.64 875.044 86.64C875.572 86.64 875.836 86.952 875.836 87.576C875.836 87.816 875.788 88.08 875.692 88.368C874.876 89.664 874.348 90.552 874.108 91.032C872.812 93.48 871.444 95.4 870.004 96.792C868.804 97.992 867.676 98.592 866.62 98.592C864.604 98.592 862.036 96.408 858.916 92.04L857.62 90.384C857.572 90.384 857.548 90.36 857.548 90.312C857.116 89.784 856.732 89.52 856.396 89.52C856.252 89.52 856.06 89.616 855.82 89.808C854.764 90.672 853.732 92.16 852.724 94.272C852.052 95.712 851.26 97.008 850.348 98.16C849.436 99.264 848.116 99.864 846.388 99.96C844.228 99.96 842.548 98.016 841.348 94.128C841.108 93.408 840.748 92.016 840.268 89.952C840.172 89.664 840.076 89.4 839.98 89.16C839.932 88.872 839.812 88.728 839.62 88.728C839.476 88.728 839.26 88.872 838.972 89.16C837.1 91.464 835.708 94.968 834.796 99.672C834.364 101.016 834.004 102.864 833.716 105.216C833.236 110.736 831.844 113.592 829.54 113.784ZM877.867 88.728C878.875 88.728 879.979 88.104 881.179 86.856L882.331 85.488C883.819 83.616 884.563 81.336 884.563 78.648C884.563 76.728 884.083 75.768 883.123 75.768C882.259 75.768 881.323 76.512 880.315 78C878.491 80.736 877.387 84.312 877.003 88.728H877.867ZM882.979 108.024C882.691 108.024 882.067 107.952 881.107 107.808C880.195 107.712 879.115 107.112 877.867 106.008C874.795 103.272 873.259 98.952 873.259 93.048C873.259 87.816 874.363 83.4 876.571 79.8C878.875 75.912 881.011 73.968 882.979 73.968C883.939 73.968 884.707 74.472 885.283 75.48C885.859 76.44 886.147 77.616 886.147 79.008C886.147 79.632 886.051 80.664 885.859 82.104C885.715 83.256 884.779 84.912 883.051 87.072C881.323 89.184 879.571 90.24 877.795 90.24L876.859 90.168C876.763 91.08 876.715 91.968 876.715 92.832C876.715 97.008 877.723 100.224 879.739 102.48C880.795 103.68 881.995 104.28 883.339 104.28C884.203 104.28 885.115 104.016 886.075 103.488C887.947 102.288 889.603 100.656 891.043 98.592C892.531 96.48 894.115 93.96 895.795 91.032C896.947 88.968 897.715 87.696 898.099 87.216C898.291 86.88 898.579 86.712 898.963 86.712C899.347 86.712 899.539 87 899.539 87.576C899.539 88.056 899.275 88.8 898.747 89.808C895.963 94.848 893.995 98.28 892.843 100.104C891.115 102.792 889.195 104.928 887.083 106.512C885.691 107.52 884.323 108.024 882.979 108.024ZM900.265 107.088C897.961 106.752 896.809 103.608 896.809 97.656C896.809 96.312 896.881 94.824 897.025 93.192C897.937 83.064 899.953 78 903.073 78C904.273 78 904.873 78.696 904.873 80.088L904.729 81.744C904.105 84.72 903.553 88.92 903.073 94.344L902.497 98.376C902.497 98.568 902.521 98.664 902.569 98.664C902.665 98.664 902.977 98.064 903.505 96.864C906.433 89.616 909.457 85.992 912.577 85.992C913.201 85.992 914.017 86.256 915.025 86.784C916.081 87.264 917.377 88.848 918.913 91.536C920.785 94.848 922.705 96.504 924.673 96.504C925.249 96.504 925.945 96.288 926.761 95.856C927.577 95.376 928.441 94.512 929.353 93.264C930.313 91.968 931.177 90.672 931.945 89.376C932.377 88.656 932.761 88.032 933.097 87.504C933.481 86.976 933.865 86.712 934.249 86.712C934.873 86.76 935.185 87.096 935.185 87.72C935.185 88.104 935.089 88.512 934.897 88.944C934.033 90.912 932.761 93 931.081 95.208C928.681 98.328 926.281 99.888 923.881 99.888C921.625 99.552 919.897 98.664 918.697 97.224C917.497 95.736 916.513 94.056 915.745 92.184C914.497 89.64 913.249 88.368 912.001 88.368C909.841 88.368 907.729 91.44 905.665 97.584L904.225 102.552C903.889 103.56 903.433 104.544 902.857 105.504C902.329 106.464 901.465 106.992 900.265 107.088ZM945.285 127.608C944.133 127.608 942.933 127.128 941.685 126.168C939.621 124.44 937.989 121.944 936.789 118.68C934.293 111.96 933.045 103.128 933.045 92.184C933.045 88.584 933.381 83.208 934.053 76.056C935.781 65.16 937.053 58.128 937.869 54.96C936.861 55.056 932.901 56.136 925.989 58.2C919.077 60.216 914.685 61.224 912.813 61.224C911.277 61.224 910.509 60.648 910.509 59.496C910.509 58.584 910.869 57.744 911.589 56.976C912.261 56.16 913.101 55.728 914.109 55.68C914.829 55.68 915.189 55.968 915.189 56.544C915.189 57.024 915.021 57.552 914.685 58.128C915.213 58.08 923.109 56.328 938.373 52.872C939.045 49.848 939.717 47.76 940.389 46.608C940.437 46.176 940.725 45.36 941.253 44.16C941.829 42.912 942.549 42.288 943.413 42.288C944.325 42.288 944.781 42.792 944.781 43.8C944.781 44.184 944.685 44.664 944.493 45.24C943.437 48.648 942.909 50.808 942.909 51.72C942.909 51.864 942.957 51.936 943.053 51.936L948.525 50.856C954.141 49.608 959.277 48.72 963.933 48.192C970.893 47.136 976.749 46.608 981.501 46.608C982.941 46.608 984.909 46.704 987.405 46.896C990.189 47.04 992.685 47.904 994.893 49.488C995.757 50.208 996.189 51 996.189 51.864C996.189 52.776 995.805 53.472 995.037 53.952C994.845 54.096 994.653 54.168 994.461 54.168C994.077 54.168 993.885 54 993.885 53.664C993.933 53.472 994.005 53.256 994.101 53.016C994.245 52.728 994.317 52.44 994.317 52.152C994.317 51.048 992.589 50.088 989.133 49.272C985.437 48.648 981.765 48.336 978.117 48.336C970.581 48.336 959.373 49.92 944.493 53.088C943.773 53.232 943.245 53.4 942.909 53.592C942.381 53.928 941.061 60.744 938.949 74.04C938.181 79.944 937.797 86.568 937.797 93.912C937.797 102.312 938.973 110.016 941.325 117.024C942.765 121.296 944.421 123.552 946.293 123.792C948.165 123.792 950.253 120.792 952.557 114.792C953.805 111.432 954.597 109.08 954.933 107.736C955.749 105.24 956.853 99.72 958.245 91.176C958.341 90.168 958.533 88.992 958.821 87.648C959.109 86.832 959.685 86.424 960.549 86.424L961.053 86.496C961.629 86.592 961.917 87.024 961.917 87.792C961.917 88.704 961.653 89.88 961.125 91.32C960.597 92.712 959.829 95.952 958.821 101.04C956.421 113.376 953.397 121.488 949.749 125.376C948.405 126.864 946.917 127.608 945.285 127.608Z" fill="black"/>
</svg>
