<svg width="614" height="149" viewBox="0 0 614 149" fill="none" xmlns="http://www.w3.org/2000/svg">
<path d="M12.752 127.184C15.7813 127.184 18.8533 126.629 21.968 125.52C25.68 124.283 29.0293 122.789 32.016 121.04C38.544 117.157 44.432 112.613 49.68 107.408C57.5307 99.7707 61.6267 92.8373 61.968 86.608C61.968 82 59.4933 78.672 54.544 76.624C51.6427 75.5573 48.3573 75.024 44.688 75.024C40.8907 75.024 38.16 75.1307 36.496 75.344C35.1733 75.5573 31.824 76.3467 26.448 77.712L27.088 96.4L32.656 94.992C37.1787 93.7547 40.528 93.136 42.704 93.136H43.088C43.7707 93.136 44.112 93.456 44.112 94.096C44.112 94.9493 43.6427 95.3973 42.704 95.44C39.8453 95.5253 35.8133 95.9947 30.608 96.848C28.9013 97.2747 27.8133 97.5093 27.344 97.552C27.344 98.6613 27.3867 99.7707 27.472 100.88L27.408 102.736C27.408 103.419 27.4933 104.123 27.664 104.848C27.7493 105.275 27.792 105.701 27.792 106.128C27.792 106.64 27.728 107.067 27.6 107.408C27.088 108.517 26.32 109.072 25.296 109.072C23.376 109.072 22.416 107.408 22.416 104.08C22.416 103.269 22.544 101.691 22.8 99.344C21.7333 99.856 20.9867 100.197 20.56 100.368C20.176 100.539 19.5147 100.88 18.576 101.392C13.4987 104.08 9.46667 107.408 6.48 111.376C4.34667 114.235 3.28 116.923 3.28 119.44C3.28 120.165 3.36533 121.061 3.536 122.128C3.70667 123.195 4.53867 124.304 6.032 125.456C7.78133 126.608 10.0213 127.184 12.752 127.184ZM12.432 130.704C11.28 130.704 9.616 130.491 7.44 130.064C5.30667 129.68 3.49333 128.443 2 126.352C0.890667 124.731 0.336 122.896 0.336 120.848C0.336 120.123 0.464 118.843 0.72 117.008C0.933333 115.472 2.17067 113.253 4.432 110.352C7.71733 106.256 12.0693 102.885 17.488 100.24C19.3653 99.3013 20.6667 98.768 21.392 98.64C21.8613 98.512 22.2027 98.3627 22.416 98.192C22.9707 97.7227 23.3973 95.8027 23.696 92.432C24.336 84.752 24.656 79.824 24.656 77.648C24.2293 77.3493 23.8453 77.0293 23.504 76.688C23.1627 76.3467 22.992 75.8987 22.992 75.344C22.992 74.32 23.4187 73.4027 24.272 72.592C25.3813 71.6107 26.0427 69.8613 26.256 67.344C26.4267 65.5093 26.512 63.4613 26.512 61.2C26.512 58.64 26.384 55.2693 26.128 51.088C25.9147 48.6133 25.808 46.7573 25.808 45.52C25.808 40.2293 26.8747 37.584 29.008 37.584C30.0747 37.584 30.608 38.3733 30.608 39.952C30.608 41.0187 30.3947 42.384 29.968 44.048C29.4987 45.968 29.0507 49.3387 28.624 54.16C28.496 55.3547 28.4107 56.592 28.368 57.872C28.368 59.152 28.1973 61.5413 27.856 65.04C27.728 65.8933 27.6427 66.4907 27.6 66.832C27.5573 67.1733 27.4933 67.536 27.408 67.92C27.3653 68.2613 27.344 68.6453 27.344 69.072C27.344 69.2853 27.3867 69.392 27.472 69.392C28.0267 69.392 29.776 67.7067 32.72 64.336L33.936 63.056C39.952 56.016 44.7307 49.104 48.272 42.32C51.0027 37.1147 52.5387 32.6987 52.88 29.072L52.944 26.704C52.944 25.552 52.24 24.4 50.832 23.248C49.424 22.096 47.2693 21.52 44.368 21.52C43.1733 21.52 41.7867 21.648 40.208 21.904C34.576 22.8853 29.1147 25.36 23.824 29.328C18.3627 33.5093 14.2453 38.3307 11.472 43.792C9.85067 46.864 8.976 49.488 8.848 51.664C8.848 54.0107 9.616 55.6533 11.152 56.592C11.5787 56.848 11.792 57.2747 11.792 57.872C11.792 58.1707 11.728 58.5333 11.6 58.96C11.0027 59.472 10.5333 59.728 10.192 59.728C9.59467 59.728 9.04 59.6 8.528 59.344C7.632 58.832 6.97067 58.192 6.544 57.424C6.16 56.656 5.968 55.504 5.968 53.968C5.968 49.232 8.528 43.6853 13.648 37.328C15.824 34.7253 18.0427 32.5067 20.304 30.672C22.0107 29.392 23.7173 28.176 25.424 27.024C28.5813 24.9333 32.1653 23.248 36.176 21.968C39.76 20.8587 42.9173 20.304 45.648 20.304C46.7573 20.304 48.0587 20.4533 49.552 20.752C51.0453 21.0507 52.432 21.904 53.712 23.312C54.9493 24.976 55.568 27.0453 55.568 29.52C55.568 33.4453 54.224 38.032 51.536 43.28L48.144 49.68C47.504 50.6187 47.056 51.3653 46.8 51.92C44.9227 55.0347 42.4053 58.64 39.248 62.736L32.208 71.44C36.304 71.056 39.0347 70.864 40.4 70.864C43.0453 70.864 46.0533 71.1627 49.424 71.76C52.8373 72.3147 55.6747 73.232 57.936 74.512C62.7573 77.6267 65.168 81.7227 65.168 86.8C65.168 92.8587 61.9253 99.344 55.44 106.256C54.672 107.28 52.9867 109.029 50.384 111.504C43.0453 118.416 35.024 123.771 26.32 127.568C24.6133 128.293 23.184 128.805 22.032 129.104C18.3627 130.171 15.1627 130.704 12.432 130.704ZM75.154 81.04C75.8793 80.3147 77.2873 78.1173 79.378 74.448L80.978 71.76C82.386 68.9867 84.1993 65.1467 86.418 60.24C88.6367 55.3333 90.2153 51.6 91.154 49.04C92.6473 45.0293 93.8633 40.7627 94.802 36.24C95.0153 34.6613 95.122 33.6587 95.122 33.232C95.122 31.696 94.738 30.928 93.97 30.928C93.458 30.928 92.7327 31.3547 91.794 32.208C89.746 34.0427 87.6767 36.7307 85.586 40.272C84.2207 42.5333 82.4927 46.2027 80.402 51.28C77.7567 58.064 76.0713 65.5733 75.346 73.808C75.1753 75.6853 75.09 77.456 75.09 79.12L75.154 81.04ZM81.938 104.08C78.482 104.08 75.922 100.837 74.258 94.352C73.1913 90.2133 72.658 85.072 72.658 78.928C72.658 70.48 74.2367 61.84 77.394 53.008C80.3807 44.6027 84.1567 37.968 88.722 33.104C90.9833 30.544 92.8393 29.264 94.29 29.264C95.57 29.264 96.21 30.3947 96.21 32.656C96.21 35.6 95.2713 39.8667 93.394 45.456C92.1567 49.168 89.618 55.5253 85.778 64.528C82.834 71.312 80.3807 76.6667 78.418 80.592L75.346 86.032C75.346 88.0373 75.8793 90.768 76.946 94.224C78.4393 99.0453 80.3167 101.456 82.578 101.456C83.6447 101.328 84.6687 100.731 85.65 99.664C87.4847 97.744 88.9353 95.3973 90.002 92.624C92.3913 86.992 93.7567 83.8133 94.098 83.088C94.738 82.1067 95.3353 81.616 95.89 81.616C96.1887 81.616 96.5087 81.744 96.85 82C96.978 82.128 97.042 82.2773 97.042 82.448C97.042 82.7893 96.8927 83.28 96.594 83.92L96.53 84.24C93.842 90.5547 91.5593 95.1413 89.682 98C87.1647 101.883 84.5833 103.909 81.938 104.08ZM99.7095 94.288C99.7948 94.2453 100.051 93.8613 100.478 93.136C100.947 92.112 101.395 90.4693 101.822 88.208L98.9415 87.696C98.7708 88.8053 98.6855 89.872 98.6855 90.896C98.6855 91.4933 98.7068 92.2187 98.7495 93.072C98.8348 93.8827 99.1548 94.288 99.7095 94.288ZM101.885 86.288L102.014 85.584L102.078 84.624C102.078 82.8747 101.672 81.0827 100.862 79.248C100.776 79.76 100.414 81.0613 99.7735 83.152C99.3895 84.0907 99.1762 84.752 99.1335 85.136C99.1335 85.3493 99.1762 85.5413 99.2615 85.712C99.3468 85.84 100.222 86.032 101.885 86.288ZM98.3655 98.128C97.6402 98.128 96.8722 97.8507 96.0615 97.296C94.8242 96.0587 94.2055 94.0107 94.2055 91.152C94.2055 90.0853 94.2908 89.0613 94.4615 88.08C94.6748 87.056 94.7815 86.288 94.7815 85.776C94.7815 85.136 94.6748 84.5813 94.4615 84.112C94.2908 83.6 94.2055 83.1093 94.2055 82.64C94.2055 81.616 94.6748 80.4853 95.6135 79.248C96.9788 77.5413 98.3868 76.688 99.8375 76.688C100.264 76.688 100.84 76.8587 101.566 77.2C102.291 77.4987 102.995 78.6293 103.678 80.592C104.147 82.1707 104.382 83.664 104.382 85.072L104.318 86.672C106.664 86.6293 109.16 86.2027 111.806 85.392C114.451 84.5387 116.819 83.472 118.91 82.192C119.806 81.7653 120.531 81.552 121.086 81.552C121.811 81.552 122.174 81.8293 122.174 82.384L121.982 82.96C121.726 83.856 118.654 85.136 112.766 86.8C109.608 87.696 106.728 88.144 104.126 88.144C103.784 91.7707 102.995 94.4587 101.758 96.208C100.734 97.488 99.6028 98.128 98.3655 98.128ZM119.841 147.344C119.884 147.344 120.31 147.323 121.121 147.28C121.932 147.237 123.148 146.619 124.769 145.424C129.846 141.755 132.385 133.819 132.385 121.616C132.385 117.989 132.172 113.808 131.745 109.072C131.617 106.896 131.468 105.808 131.297 105.808C131.169 105.808 130.678 106.533 129.825 107.984C124.406 116.347 120.694 122.939 118.689 127.76C116.513 132.923 115.425 137.36 115.425 141.072C115.425 142.907 115.702 144.293 116.257 145.232C117.11 146.64 118.305 147.344 119.841 147.344ZM120.161 148.88C119.692 148.88 119.222 148.837 118.753 148.752C115.126 148.155 113.313 145.829 113.313 141.776C113.313 139.771 113.782 137.36 114.721 134.544C116.47 129.424 118.646 124.453 121.249 119.632C122.102 118.224 122.892 116.859 123.617 115.536C124.598 113.744 126.646 110.437 129.761 105.616C130.785 103.824 131.297 102.501 131.297 101.648L131.233 100.496C131.02 97.4667 130.913 94.096 130.913 90.384C130.913 88.1227 130.956 85.712 131.041 83.152C129.761 86.864 128.161 90.512 126.241 94.096C125.26 96.016 124.257 97.0613 123.233 97.232L122.401 97.296C120.438 97.296 119.18 95.632 118.625 92.304C118.582 91.8347 118.561 91.3227 118.561 90.768C118.561 86.8853 119.585 82.5547 121.633 77.776C123.041 74.832 124.598 72.7413 126.305 71.504C127.841 70.3947 129.121 69.84 130.145 69.84C131.212 69.84 132.044 70.096 132.641 70.608C133.238 71.0773 133.537 71.6107 133.537 72.208C133.537 73.5307 132.982 74.192 131.873 74.192L131.041 74.064C128.14 74.064 125.9 78.864 124.321 88.464C123.98 90.4693 123.788 91.856 123.745 92.624C123.745 93.1787 123.83 93.456 124.001 93.456C124.47 93.2853 125.089 92.24 125.857 90.32C128.716 83.8347 130.358 80.208 130.785 79.44C131.254 78.6293 131.638 78.0533 131.937 77.712C132.278 77.3707 132.769 77.2 133.409 77.2C134.049 77.2 134.476 77.52 134.689 78.16C134.945 79.056 135.073 80.6347 135.073 82.896C135.073 84.2187 135.03 85.8187 134.945 87.696C134.689 91.9627 134.561 95.4613 134.561 98.192C137.846 93.84 142.305 88.6347 147.937 82.576C148.492 81.9787 149.004 81.68 149.473 81.68C150.113 81.7227 150.433 82 150.433 82.512C150.433 83.1093 148.982 84.8373 146.081 87.696C141.9 91.6213 138.614 95.2693 136.225 98.64C136.097 98.896 135.905 99.152 135.649 99.408C135.009 100.091 134.625 101.157 134.497 102.608C134.412 103.589 134.369 104.891 134.369 106.512C134.369 108.432 134.433 110.8 134.561 113.616C134.732 116.432 134.817 118.992 134.817 121.296C134.817 125.093 134.476 128.955 133.793 132.88C133.409 135.184 132.513 137.829 131.105 140.816C129.526 144.016 127.564 146.235 125.217 147.472C123.468 148.411 121.782 148.88 120.161 148.88ZM276.891 139.28C273.179 139.28 269.381 133.008 265.499 120.464C264.176 116.155 263.344 113.019 263.003 111.056C262.789 109.819 262.619 108.987 262.491 108.56C260.315 97.1253 259.077 84.5813 258.779 70.928C258.779 61.584 259.184 54.9707 259.995 51.088C260.336 48.1013 260.613 46.0747 260.827 45.008C261.083 43.8987 261.296 42.4907 261.467 40.784C261.125 41.5947 259.995 44.5387 258.075 49.616C255.173 57.9787 252.955 64.2933 251.419 68.56C249.883 72.784 246.043 82.4693 239.899 97.616C240.709 97.616 241.563 97.5093 242.459 97.296C242.8 97.2107 245.104 96.8693 249.371 96.272C251.035 96.0587 252.933 95.9307 255.067 95.888C255.749 95.888 256.091 96.1227 256.091 96.592C256.091 96.8907 255.899 97.168 255.515 97.424C255.173 97.6373 252.955 98.1067 248.859 98.832L243.291 100.112C241.712 100.368 240.56 100.624 239.835 100.88C239.152 101.136 238.661 101.499 238.363 101.968C238.064 102.437 237.787 103.163 237.531 104.144C236.976 105.723 235.632 108.944 233.498 113.808C231.365 118.672 229.872 121.104 229.018 121.104C228.464 121.104 228.186 120.848 228.186 120.336C228.186 119.312 228.976 117.349 230.554 114.448C233.754 107.707 235.568 103.547 235.995 101.968C233.904 102.395 232.709 102.608 232.41 102.608C231.429 102.608 230.938 102.096 230.938 101.072C230.938 99.9627 232.496 99.088 235.611 98.448C236.379 98.3627 236.933 98.256 237.275 98.128C237.616 98.0427 237.915 97.616 238.171 96.848C238.427 96.08 238.704 95.3547 239.003 94.672C248.091 72.0587 253.744 57.296 255.963 50.384C260.315 38.3093 263.024 30.096 264.091 25.744C264.859 22.7573 265.755 21.264 266.779 21.264C266.864 21.264 267.056 21.3067 267.354 21.392C267.696 21.4773 267.973 21.7973 268.187 22.352C268.443 22.9067 268.571 23.44 268.571 23.952L265.819 40.4C265.435 42.192 265.093 44.0267 264.795 45.904C264.667 47.568 264.453 49.232 264.155 50.896C263.259 57.1253 262.704 61.4133 262.491 63.76C262.021 68.9653 261.787 74.064 261.787 79.056C261.787 82.9813 262 87.3547 262.427 92.176L262.555 93.008C263.024 98.768 263.792 103.931 264.859 108.496C266.821 116.944 269.125 123.685 271.771 128.72C273.776 132.773 275.397 135.056 276.635 135.568C276.72 135.397 276.891 135.312 277.147 135.312C278.299 135.568 278.875 136.251 278.875 137.36C278.875 137.957 278.661 138.427 278.235 138.768C277.808 139.109 277.36 139.28 276.891 139.28ZM270.363 14.736C270.789 14.736 271.259 14.5013 271.771 14.032C272.88 12.752 273.435 10.896 273.435 8.464C273.435 5.81866 272.923 4.09066 271.899 3.28C271.813 3.664 270.939 4.77333 269.275 6.60799C268.592 7.88799 268.251 9.27466 268.251 10.768C268.251 12.2613 268.613 13.4347 269.339 14.288C269.637 14.5867 269.979 14.736 270.363 14.736ZM269.722 17.04C267.675 17.04 266.139 15.8453 265.115 13.456C264.688 12.5173 264.475 11.4293 264.475 10.192C264.475 7.46133 265.157 5.11466 266.523 3.15199C267.717 1.40266 269.147 0.527992 270.811 0.527992C271.621 0.570661 272.347 1.04 272.987 1.936C274.224 3.72799 274.843 5.92533 274.843 8.52799C274.843 11.216 274.267 13.3707 273.115 14.992C272.176 16.3573 271.045 17.04 269.722 17.04ZM276.194 99.792C275.383 99.792 274.765 99.2587 274.338 98.192C273.954 97.168 273.762 95.376 273.762 92.816C273.762 90.7253 273.89 88.1013 274.146 84.944C274.615 79.312 275.575 76.496 277.026 76.496C277.41 76.496 277.751 76.6027 278.05 76.816C278.391 77.0293 278.562 77.8613 278.562 79.312C278.562 82.4693 278.391 86.8427 278.05 92.432C280.226 84.1547 283.426 77.9253 287.65 73.744C289.058 72.3787 290.53 71.696 292.066 71.696C292.919 71.696 293.645 71.9947 294.242 72.592C294.839 73.1467 295.138 73.808 295.138 74.576C295.138 75.6427 294.797 76.176 294.114 76.176C293.602 76.176 293.005 75.8133 292.322 75.088C291.81 74.5333 291.341 74.2347 290.914 74.192C290.658 74.192 290.338 74.2773 289.954 74.448C287.607 75.728 285.111 79.0347 282.466 84.368C281.442 86.3733 280.461 89.5733 279.522 93.968C278.882 97.8507 277.773 99.792 276.194 99.792ZM302.111 83.536C303.007 83.536 303.988 82.9813 305.055 81.872L306.079 80.656C307.402 78.992 308.063 76.9653 308.063 74.576C308.063 72.8693 307.636 72.016 306.783 72.016C306.015 72.016 305.183 72.6773 304.287 74C302.666 76.432 301.684 79.6107 301.343 83.536H302.111ZM306.655 100.688C306.399 100.688 305.844 100.624 304.991 100.496C304.18 100.411 303.22 99.8773 302.111 98.896C299.38 96.464 298.015 92.624 298.015 87.376C298.015 82.7253 298.996 78.8 300.959 75.6C303.007 72.144 304.906 70.416 306.655 70.416C307.508 70.416 308.191 70.864 308.703 71.76C309.215 72.6133 309.471 73.6587 309.471 74.896C309.471 75.4507 309.386 76.368 309.215 77.648C309.087 78.672 308.255 80.144 306.719 82.064C305.183 83.9413 303.626 84.88 302.047 84.88L301.215 84.816C301.13 85.6267 301.087 86.416 301.087 87.184C301.087 90.896 301.983 93.7547 303.775 95.76C304.714 96.8267 305.78 97.36 306.975 97.36C307.743 97.36 308.554 97.1253 309.407 96.656C311.071 95.5893 312.543 94.1387 313.823 92.304C315.146 90.4267 316.554 88.1867 318.047 85.584C319.071 83.7493 319.754 82.6187 320.095 82.192C320.266 81.8933 320.522 81.744 320.863 81.744C321.204 81.744 321.375 82 321.375 82.512C321.375 82.9387 321.14 83.6 320.671 84.496C318.196 88.976 316.447 92.0267 315.423 93.648C313.887 96.0373 312.18 97.936 310.303 99.344C309.066 100.24 307.85 100.688 306.655 100.688ZM351.217 105.808C348.742 105.808 347.355 103.888 347.056 100.048C347.014 99.2373 346.992 98.3413 346.992 97.36C346.992 91.984 347.675 86.0747 349.041 79.632L349.169 78.8C349.937 75.344 350.662 73.0187 351.345 71.824C352.027 70.5867 352.817 69.968 353.713 69.968C354.481 69.968 355.014 70.2667 355.312 70.864C355.611 71.4187 355.76 72.2933 355.76 73.488C355.76 74 355.398 78.5227 354.673 87.056L355.889 85.2C357.553 82.256 359.217 80.784 360.881 80.784C362.374 80.784 363.633 82.5547 364.657 86.096L366.193 89.872C366.491 90.4693 366.769 90.768 367.025 90.768C368.006 90.768 369.371 89.232 371.121 86.16L372.081 84.56C373.062 83.1947 374.107 82.512 375.217 82.512C376.027 82.512 376.881 82.8747 377.777 83.6C378.459 84.24 379.206 85.0933 380.017 86.16C381.851 88.6773 383.217 89.936 384.113 89.936C385.009 89.936 386.31 88.5707 388.017 85.84C389.723 83.0667 390.939 81.68 391.665 81.68C392.134 81.68 392.369 81.9573 392.369 82.512C392.369 82.7253 392.326 82.96 392.241 83.216C391.515 84.368 391.046 85.1573 390.833 85.584C389.681 87.76 388.465 89.4667 387.185 90.704C386.118 91.7707 385.115 92.304 384.177 92.304C382.385 92.304 380.102 90.3627 377.329 86.48L376.177 85.008C376.134 85.008 376.113 84.9867 376.113 84.944C375.729 84.4747 375.387 84.24 375.089 84.24C374.961 84.24 374.79 84.3253 374.577 84.496C373.638 85.264 372.721 86.5867 371.825 88.464C371.227 89.744 370.523 90.896 369.713 91.92C368.902 92.9013 367.729 93.4347 366.193 93.52C364.273 93.52 362.779 91.792 361.713 88.336C361.499 87.696 361.179 86.4587 360.753 84.624C360.667 84.368 360.582 84.1333 360.497 83.92C360.454 83.664 360.347 83.536 360.177 83.536C360.049 83.536 359.857 83.664 359.601 83.92C357.937 85.968 356.699 89.0827 355.889 93.264C355.505 94.4587 355.185 96.1013 354.929 98.192C354.502 103.099 353.265 105.637 351.217 105.808ZM395.71 94.288C395.795 94.2453 396.051 93.8613 396.478 93.136C396.947 92.112 397.395 90.4693 397.822 88.208L394.942 87.696C394.771 88.8053 394.686 89.872 394.686 90.896C394.686 91.4933 394.707 92.2187 394.75 93.072C394.835 93.8827 395.155 94.288 395.71 94.288ZM397.885 86.288L398.014 85.584L398.078 84.624C398.078 82.8747 397.672 81.0827 396.862 79.248C396.776 79.76 396.414 81.0613 395.774 83.152C395.39 84.0907 395.176 84.752 395.134 85.136C395.134 85.3493 395.176 85.5413 395.262 85.712C395.347 85.84 396.222 86.032 397.885 86.288ZM394.366 98.128C393.64 98.128 392.872 97.8507 392.062 97.296C390.824 96.0587 390.206 94.0107 390.206 91.152C390.206 90.0853 390.291 89.0613 390.462 88.08C390.675 87.056 390.782 86.288 390.782 85.776C390.782 85.136 390.675 84.5813 390.462 84.112C390.291 83.6 390.206 83.1093 390.206 82.64C390.206 81.616 390.675 80.4853 391.614 79.248C392.979 77.5413 394.387 76.688 395.838 76.688C396.264 76.688 396.84 76.8587 397.566 77.2C398.291 77.4987 398.995 78.6293 399.678 80.592C400.147 82.1707 400.382 83.664 400.382 85.072L400.318 86.672C402.664 86.6293 405.16 86.2027 407.806 85.392C410.451 84.5387 412.819 83.472 414.91 82.192C415.806 81.7653 416.531 81.552 417.086 81.552C417.811 81.552 418.174 81.8293 418.174 82.384L417.982 82.96C417.726 83.856 414.654 85.136 408.766 86.8C405.608 87.696 402.728 88.144 400.126 88.144C399.784 91.7707 398.995 94.4587 397.758 96.208C396.734 97.488 395.603 98.128 394.366 98.128ZM434.657 108.688C434.401 108.688 433.868 108.56 433.057 108.304C432.289 108.091 431.5 107.195 430.689 105.616C429.068 102.331 428.257 97.936 428.257 92.432C428.257 90.5973 428.342 88.6347 428.513 86.544C425.825 93.8827 423.244 97.552 420.769 97.552C419.788 97.552 418.998 97.296 418.401 96.784C416.524 95.0347 415.585 91.984 415.585 87.632C415.585 86.6933 415.628 85.6693 415.713 84.56C416.31 78.2027 417.612 75.024 419.617 75.024C420.598 75.1093 421.11 75.6427 421.153 76.624C421.11 77.2213 421.025 77.712 420.897 78.096C420.428 79.8453 420.044 82.3413 419.745 85.584C419.66 86.5653 419.617 87.4613 419.617 88.272C419.617 90.192 419.852 91.792 420.321 93.072C420.918 94.096 421.473 94.6293 421.985 94.672C423.137 94.2453 424.609 91.6213 426.401 86.8C427.51 83.8133 428.236 81.7227 428.577 80.528C428.833 79.6747 429.11 78.864 429.409 78.096C429.708 77.328 430.369 76.944 431.393 76.944C431.99 76.9867 432.289 77.4133 432.289 78.224V78.544C430.753 84.3467 429.985 89.1893 429.985 93.072C429.985 95.888 430.433 98.8533 431.329 101.968C432.225 105.083 433.484 106.64 435.105 106.64C436.556 106.341 437.9 104.272 439.137 100.432C440.161 97.1467 441.206 91.5147 442.273 83.536C442.486 82.2987 443.02 81.68 443.873 81.68C444.513 81.68 444.833 82.064 444.833 82.832C444.833 83.856 444.364 86.48 443.425 90.704C441.676 98.5547 439.862 103.867 437.985 106.64C436.833 108.005 435.724 108.688 434.657 108.688ZM444.52 99.856C442.472 99.5573 441.448 96.7627 441.448 91.472C441.448 90.2773 441.512 88.9547 441.64 87.504C442.451 78.5013 444.243 74 447.016 74C448.083 74 448.616 74.6187 448.616 75.856L448.488 77.328C447.933 79.9733 447.443 83.7067 447.016 88.528L446.504 92.112C446.504 92.2827 446.525 92.368 446.568 92.368C446.653 92.368 446.931 91.8347 447.4 90.768C450.003 84.3253 452.691 81.104 455.464 81.104C456.019 81.104 456.744 81.3387 457.64 81.808C458.579 82.2347 459.731 83.6427 461.096 86.032C462.76 88.976 464.467 90.448 466.216 90.448C466.728 90.448 467.347 90.256 468.072 89.872C468.797 89.4453 469.565 88.6773 470.376 87.568C471.229 86.416 471.997 85.264 472.68 84.112C473.064 83.472 473.405 82.9173 473.704 82.448C474.045 81.9787 474.387 81.744 474.728 81.744C475.283 81.7867 475.56 82.0853 475.56 82.64C475.56 82.9813 475.475 83.344 475.304 83.728C474.536 85.4773 473.405 87.3333 471.912 89.296C469.779 92.0693 467.645 93.456 465.512 93.456C463.507 93.1573 461.971 92.368 460.904 91.088C459.837 89.7653 458.963 88.272 458.28 86.608C457.171 84.3467 456.061 83.216 454.952 83.216C453.032 83.216 451.155 85.9467 449.32 91.408L448.04 95.824C447.741 96.72 447.336 97.5947 446.824 98.448C446.355 99.3013 445.587 99.7707 444.52 99.856ZM484.538 118.096C483.514 118.096 482.447 117.669 481.338 116.816C479.503 115.28 478.053 113.061 476.986 110.16C474.767 104.187 473.658 96.336 473.658 86.608C473.658 83.408 473.957 78.6293 474.554 72.272C476.09 62.5867 477.221 56.336 477.946 53.52C477.05 53.6053 473.53 54.5653 467.386 56.4C461.242 58.192 457.338 59.088 455.674 59.088C454.309 59.088 453.626 58.576 453.626 57.552C453.626 56.7413 453.946 55.9947 454.586 55.312C455.183 54.5867 455.93 54.2027 456.826 54.16C457.466 54.16 457.786 54.416 457.786 54.928C457.786 55.3547 457.637 55.824 457.338 56.336C457.807 56.2933 464.826 54.736 478.394 51.664C478.991 48.976 479.589 47.12 480.186 46.096C480.229 45.712 480.485 44.9867 480.954 43.92C481.466 42.8107 482.106 42.256 482.874 42.256C483.685 42.256 484.09 42.704 484.09 43.6C484.09 43.9413 484.005 44.368 483.834 44.88C482.895 47.9093 482.426 49.8293 482.426 50.64C482.426 50.768 482.469 50.832 482.554 50.832L487.418 49.872C492.41 48.7627 496.975 47.9733 501.114 47.504C507.301 46.5653 512.506 46.096 516.73 46.096C518.01 46.096 519.759 46.1813 521.978 46.352C524.453 46.48 526.671 47.248 528.634 48.656C529.402 49.296 529.786 50 529.786 50.768C529.786 51.5787 529.445 52.1973 528.762 52.624C528.591 52.752 528.421 52.816 528.25 52.816C527.909 52.816 527.738 52.6667 527.738 52.368C527.781 52.1973 527.845 52.0053 527.93 51.792C528.058 51.536 528.122 51.28 528.122 51.024C528.122 50.0427 526.586 49.1893 523.514 48.464C520.229 47.9093 516.965 47.632 513.722 47.632C507.023 47.632 497.061 49.04 483.834 51.856C483.194 51.984 482.725 52.1333 482.426 52.304C481.957 52.6027 480.783 58.6613 478.906 70.48C478.223 75.728 477.882 81.616 477.882 88.144C477.882 95.6107 478.927 102.459 481.018 108.688C482.298 112.485 483.77 114.491 485.434 114.704C487.098 114.704 488.954 112.037 491.002 106.704C492.111 103.717 492.815 101.627 493.114 100.432C493.839 98.2133 494.821 93.3067 496.058 85.712C496.143 84.816 496.314 83.7707 496.57 82.576C496.826 81.8507 497.338 81.488 498.106 81.488L498.554 81.552C499.066 81.6373 499.322 82.0213 499.322 82.704C499.322 83.5147 499.087 84.56 498.618 85.84C498.149 87.0773 497.466 89.9573 496.57 94.48C494.437 105.445 491.749 112.656 488.506 116.112C487.311 117.435 485.989 118.096 484.538 118.096ZM496.466 96.272C494.162 96.0587 493.01 94.672 493.01 92.112C493.01 89.68 493.714 87.184 495.122 84.624C496.189 82.576 497.17 81.04 498.066 80.016C500.711 77.0293 503.165 75.536 505.426 75.536C506.066 75.536 506.599 75.6853 507.026 75.984C507.837 76.4107 508.242 77.072 508.242 77.968C508.242 78.6507 508.029 79.1627 507.602 79.504C507.218 79.8027 506.727 80.1013 506.13 80.4C502.802 81.8933 500.221 84.5387 498.386 88.336C497.746 89.7013 497.277 91.3013 496.978 93.136C498.173 92.88 499.602 91.2587 501.266 88.272C501.949 87.12 502.631 86.0747 503.314 85.136C504.253 83.9413 505.17 83.344 506.066 83.344C507.175 83.344 508.519 84.5173 510.098 86.864C511.975 89.3813 513.447 90.64 514.514 90.64C517.543 90.64 520.381 87.9947 523.026 82.704C523.367 82.0213 523.794 81.68 524.306 81.68C524.818 81.68 525.074 81.8933 525.074 82.32C525.074 82.576 525.01 82.832 524.882 83.088C521.127 89.4453 517.799 92.624 514.898 92.624C514.685 92.624 514.173 92.56 513.362 92.432C512.594 92.304 511.677 91.728 510.61 90.704C509.543 89.6373 508.626 88.5493 507.858 87.44C507.09 86.288 506.386 85.456 505.746 84.944C505.149 85.6693 504.722 86.2667 504.466 86.736C504.253 87.1627 503.954 87.696 503.57 88.336C500.839 93.6267 498.471 96.272 496.466 96.272ZM530.26 60.688C529.322 60.688 528.853 60.176 528.853 59.152C528.853 58.5547 529.002 58.1493 529.301 57.936C529.727 57.5947 530.175 57.424 530.645 57.424C531.626 57.424 532.117 57.9787 532.117 59.088C532.117 59.6 531.925 60.0053 531.541 60.304C531.157 60.56 530.73 60.688 530.26 60.688ZM530.709 96.784C529.642 96.7413 528.554 96.3573 527.445 95.632C526.335 94.9067 525.397 93.8613 524.629 92.496C523.477 90.576 522.901 88.336 522.901 85.776C522.901 84.5813 522.965 83.344 523.093 82.064C523.221 80.5707 523.711 78.864 524.565 76.944C525.461 74.768 526.357 73.68 527.253 73.68C528.746 73.68 529.493 74.2347 529.493 75.344C529.493 75.8133 529.13 77.3067 528.405 79.824C527.893 82.0427 527.637 84.3253 527.637 86.672C527.637 88.5067 527.85 90.192 528.277 91.728C529.002 93.8187 529.962 94.864 531.157 94.864C532.351 94.864 533.61 93.9893 534.933 92.24C536.554 90.0213 537.834 87.568 538.773 84.88C539.37 82.7467 540.074 81.68 540.885 81.68C541.311 81.68 541.525 82 541.525 82.64C541.525 83.92 540.778 85.968 539.285 88.784C536.469 94.1173 533.61 96.784 530.709 96.784ZM541.708 99.856C539.66 99.5573 538.636 96.7627 538.636 91.472C538.636 90.2773 538.7 88.9547 538.828 87.504C539.638 78.5013 541.43 74 544.204 74C545.27 74 545.804 74.6187 545.804 75.856L545.676 77.328C545.121 79.9733 544.63 83.7067 544.204 88.528L543.692 92.112C543.692 92.2827 543.713 92.368 543.756 92.368C543.841 92.368 544.118 91.8347 544.588 90.768C547.19 84.3253 549.878 81.104 552.652 81.104C553.206 81.104 553.932 81.3387 554.828 81.808C555.766 82.2347 556.918 83.6427 558.284 86.032C559.948 88.976 561.654 90.448 563.404 90.448C563.916 90.448 564.534 90.256 565.26 89.872C565.985 89.4453 566.753 88.6773 567.564 87.568C568.417 86.416 569.185 85.264 569.868 84.112C570.252 83.472 570.593 82.9173 570.892 82.448C571.233 81.9787 571.574 81.744 571.916 81.744C572.47 81.7867 572.748 82.0853 572.748 82.64C572.748 82.9813 572.662 83.344 572.492 83.728C571.724 85.4773 570.593 87.3333 569.1 89.296C566.966 92.0693 564.833 93.456 562.7 93.456C560.694 93.1573 559.158 92.368 558.092 91.088C557.025 89.7653 556.15 88.272 555.468 86.608C554.358 84.3467 553.249 83.216 552.14 83.216C550.22 83.216 548.342 85.9467 546.508 91.408L545.228 95.824C544.929 96.72 544.524 97.5947 544.012 98.448C543.542 99.3013 542.774 99.7707 541.708 99.856ZM579.166 114C580.019 114 580.979 113.723 582.046 113.168C590.28 108.987 594.995 102.779 596.19 94.544C584.2 104.101 578.206 110.245 578.206 112.976C578.206 113.659 578.526 114 579.166 114ZM579.486 115.536C577.651 115.536 576.734 114.725 576.734 113.104C576.734 110.544 578.739 107.579 582.75 104.208C584.584 102.416 587.23 100.155 590.686 97.424C594.184 94.6933 596.019 93.2213 596.19 93.008V92.176C596.19 91.4933 595.742 90.7467 594.846 89.936C593.992 89.0827 592.499 88.656 590.366 88.656C589.086 88.656 587.72 88.784 586.27 89.04L581.47 90.32C577.544 91.5147 574.622 92.112 572.702 92.112C571.379 92.112 570.334 91.6853 569.566 90.832C568.797 89.9787 568.413 88.8907 568.413 87.568C568.925 81.7227 572.467 76.3253 579.038 71.376C581.683 69.4133 584.008 68.432 586.014 68.432C587.848 68.432 589.47 69.136 590.878 70.544C592.072 71.9093 592.67 73.552 592.67 75.472C592.499 78.0747 591.902 79.9093 590.878 80.976C590.323 81.5307 589.747 81.808 589.15 81.808C588.467 81.808 588.126 81.4027 588.126 80.592C588.126 80.0373 588.446 79.1413 589.086 77.904C589.896 76.1973 590.302 74.8107 590.302 73.744C590.302 71.696 589.32 70.672 587.358 70.672C585.31 70.928 583.283 72.144 581.278 74.32C579.272 76.496 577.523 78.928 576.03 81.616C574.536 84.2613 573.79 86.3307 573.79 87.824C573.79 88.6773 574.152 89.104 574.878 89.104C575.432 89.104 577.118 88.7627 579.934 88.08C584.158 87.056 587.614 86.544 590.302 86.544C590.643 86.544 591.411 86.5653 592.606 86.608C593.8 86.608 595.038 86.992 596.318 87.76C597.598 88.4853 598.408 89.616 598.75 91.152L611.358 82.192C611.998 81.808 612.51 81.616 612.894 81.616C613.448 81.616 613.726 81.8507 613.726 82.32C613.726 82.8747 613.406 83.344 612.766 83.728L598.878 92.624C598.622 97.9147 596.979 102.48 593.95 106.32C590.963 110.203 587.144 113.061 582.494 114.896C581.384 115.323 580.382 115.536 579.486 115.536Z" fill="black"/>
</svg>
