<svg width="151" height="129" viewBox="0 0 151 129" fill="none" xmlns="http://www.w3.org/2000/svg">
<path d="M12.752 107.184C15.7813 107.184 18.8533 106.629 21.968 105.52C25.68 104.283 29.0293 102.789 32.016 101.04C38.544 97.1573 44.432 92.6133 49.68 87.408C57.5307 79.7707 61.6267 72.8373 61.968 66.608C61.968 62 59.4933 58.672 54.544 56.624C51.6427 55.5573 48.3573 55.024 44.688 55.024C40.8907 55.024 38.16 55.1307 36.496 55.344C35.1733 55.5573 31.824 56.3467 26.448 57.712L27.088 76.4L32.656 74.992C37.1787 73.7547 40.528 73.136 42.704 73.136H43.088C43.7707 73.136 44.112 73.456 44.112 74.096C44.112 74.9493 43.6427 75.3973 42.704 75.44C39.8453 75.5253 35.8133 75.9947 30.608 76.848C28.9013 77.2747 27.8133 77.5093 27.344 77.552C27.344 78.6613 27.3867 79.7707 27.472 80.88L27.408 82.736C27.408 83.4187 27.4933 84.1227 27.664 84.848C27.7493 85.2747 27.792 85.7013 27.792 86.128C27.792 86.64 27.728 87.0667 27.6 87.408C27.088 88.5173 26.32 89.072 25.296 89.072C23.376 89.072 22.416 87.408 22.416 84.08C22.416 83.2693 22.544 81.6907 22.8 79.344C21.7333 79.856 20.9867 80.1973 20.56 80.368C20.176 80.5387 19.5147 80.88 18.576 81.392C13.4987 84.08 9.46667 87.408 6.48 91.376C4.34667 94.2347 3.28 96.9227 3.28 99.44C3.28 100.165 3.36533 101.061 3.536 102.128C3.70667 103.195 4.53867 104.304 6.032 105.456C7.78133 106.608 10.0213 107.184 12.752 107.184ZM12.432 110.704C11.28 110.704 9.616 110.491 7.44 110.064C5.30667 109.68 3.49333 108.443 2 106.352C0.890667 104.731 0.336 102.896 0.336 100.848C0.336 100.123 0.464 98.8427 0.72 97.008C0.933333 95.472 2.17067 93.2533 4.432 90.352C7.71733 86.256 12.0693 82.8853 17.488 80.24C19.3653 79.3013 20.6667 78.768 21.392 78.64C21.8613 78.512 22.2027 78.3627 22.416 78.192C22.9707 77.7227 23.3973 75.8027 23.696 72.432C24.336 64.752 24.656 59.824 24.656 57.648C24.2293 57.3493 23.8453 57.0293 23.504 56.688C23.1627 56.3467 22.992 55.8987 22.992 55.344C22.992 54.32 23.4187 53.4027 24.272 52.592C25.3813 51.6107 26.0427 49.8613 26.256 47.344C26.4267 45.5093 26.512 43.4613 26.512 41.2C26.512 38.64 26.384 35.2693 26.128 31.088C25.9147 28.6133 25.808 26.7573 25.808 25.52C25.808 20.2293 26.8747 17.584 29.008 17.584C30.0747 17.584 30.608 18.3733 30.608 19.952C30.608 21.0187 30.3947 22.384 29.968 24.048C29.4987 25.968 29.0507 29.3387 28.624 34.16C28.496 35.3547 28.4107 36.592 28.368 37.872C28.368 39.152 28.1973 41.5413 27.856 45.04C27.728 45.8933 27.6427 46.4907 27.6 46.832C27.5573 47.1733 27.4933 47.536 27.408 47.92C27.3653 48.2613 27.344 48.6453 27.344 49.072C27.344 49.2853 27.3867 49.392 27.472 49.392C28.0267 49.392 29.776 47.7067 32.72 44.336L33.936 43.056C39.952 36.016 44.7307 29.104 48.272 22.32C51.0027 17.1147 52.5387 12.6987 52.88 9.072L52.944 6.70399C52.944 5.552 52.24 4.4 50.832 3.24799C49.424 2.096 47.2693 1.52 44.368 1.52C43.1733 1.52 41.7867 1.648 40.208 1.904C34.576 2.88533 29.1147 5.36 23.824 9.328C18.3627 13.5093 14.2453 18.3307 11.472 23.792C9.85067 26.864 8.976 29.488 8.848 31.664C8.848 34.0107 9.616 35.6533 11.152 36.592C11.5787 36.848 11.792 37.2747 11.792 37.872C11.792 38.1707 11.728 38.5333 11.6 38.96C11.0027 39.472 10.5333 39.728 10.192 39.728C9.59467 39.728 9.04 39.6 8.528 39.344C7.632 38.832 6.97067 38.192 6.544 37.424C6.16 36.656 5.968 35.504 5.968 33.968C5.968 29.232 8.528 23.6853 13.648 17.328C15.824 14.7253 18.0427 12.5067 20.304 10.672C22.0107 9.392 23.7173 8.176 25.424 7.02399C28.5813 4.93333 32.1653 3.24799 36.176 1.96799C39.76 0.85866 42.9173 0.303993 45.648 0.303993C46.7573 0.303993 48.0587 0.453328 49.552 0.751999C51.0453 1.05066 52.432 1.904 53.712 3.312C54.9493 4.976 55.568 7.04533 55.568 9.52C55.568 13.4453 54.224 18.032 51.536 23.28L48.144 29.68C47.504 30.6187 47.056 31.3653 46.8 31.92C44.9227 35.0347 42.4053 38.64 39.248 42.736L32.208 51.44C36.304 51.056 39.0347 50.864 40.4 50.864C43.0453 50.864 46.0533 51.1627 49.424 51.76C52.8373 52.3147 55.6747 53.232 57.936 54.512C62.7573 57.6267 65.168 61.7227 65.168 66.8C65.168 72.8587 61.9253 79.344 55.44 86.256C54.672 87.28 52.9867 89.0293 50.384 91.504C43.0453 98.416 35.024 103.771 26.32 107.568C24.6133 108.293 23.184 108.805 22.032 109.104C18.3627 110.171 15.1627 110.704 12.432 110.704ZM75.154 61.04C75.8793 60.3147 77.2873 58.1173 79.378 54.448L80.978 51.76C82.386 48.9867 84.1993 45.1467 86.418 40.24C88.6367 35.3333 90.2153 31.6 91.154 29.04C92.6473 25.0293 93.8633 20.7627 94.802 16.24C95.0153 14.6613 95.122 13.6587 95.122 13.232C95.122 11.696 94.738 10.928 93.97 10.928C93.458 10.928 92.7327 11.3547 91.794 12.208C89.746 14.0427 87.6767 16.7307 85.586 20.272C84.2207 22.5333 82.4927 26.2027 80.402 31.28C77.7567 38.064 76.0713 45.5733 75.346 53.808C75.1753 55.6853 75.09 57.456 75.09 59.12L75.154 61.04ZM81.938 84.08C78.482 84.08 75.922 80.8373 74.258 74.352C73.1913 70.2133 72.658 65.072 72.658 58.928C72.658 50.48 74.2367 41.84 77.394 33.008C80.3807 24.6027 84.1567 17.968 88.722 13.104C90.9833 10.544 92.8393 9.264 94.29 9.264C95.57 9.264 96.21 10.3947 96.21 12.656C96.21 15.6 95.2713 19.8667 93.394 25.456C92.1567 29.168 89.618 35.5253 85.778 44.528C82.834 51.312 80.3807 56.6667 78.418 60.592L75.346 66.032C75.346 68.0373 75.8793 70.768 76.946 74.224C78.4393 79.0453 80.3167 81.456 82.578 81.456C83.6447 81.328 84.6687 80.7307 85.65 79.664C87.4847 77.744 88.9353 75.3973 90.002 72.624C92.3913 66.992 93.7567 63.8133 94.098 63.088C94.738 62.1067 95.3353 61.616 95.89 61.616C96.1887 61.616 96.5087 61.744 96.85 62C96.978 62.128 97.042 62.2773 97.042 62.448C97.042 62.7893 96.8927 63.28 96.594 63.92L96.53 64.24C93.842 70.5547 91.5593 75.1413 89.682 78C87.1647 81.8827 84.5833 83.9093 81.938 84.08ZM99.7095 74.288C99.7948 74.2453 100.051 73.8613 100.478 73.136C100.947 72.112 101.395 70.4693 101.822 68.208L98.9415 67.696C98.7708 68.8053 98.6855 69.872 98.6855 70.896C98.6855 71.4933 98.7068 72.2187 98.7495 73.072C98.8348 73.8827 99.1548 74.288 99.7095 74.288ZM101.885 66.288L102.014 65.584L102.078 64.624C102.078 62.8747 101.672 61.0827 100.862 59.248C100.776 59.76 100.414 61.0613 99.7735 63.152C99.3895 64.0907 99.1762 64.752 99.1335 65.136C99.1335 65.3493 99.1762 65.5413 99.2615 65.712C99.3468 65.84 100.222 66.032 101.885 66.288ZM98.3655 78.128C97.6402 78.128 96.8722 77.8507 96.0615 77.296C94.8242 76.0587 94.2055 74.0107 94.2055 71.152C94.2055 70.0853 94.2908 69.0613 94.4615 68.08C94.6748 67.056 94.7815 66.288 94.7815 65.776C94.7815 65.136 94.6748 64.5813 94.4615 64.112C94.2908 63.6 94.2055 63.1093 94.2055 62.64C94.2055 61.616 94.6748 60.4853 95.6135 59.248C96.9788 57.5413 98.3868 56.688 99.8375 56.688C100.264 56.688 100.84 56.8587 101.566 57.2C102.291 57.4987 102.995 58.6293 103.678 60.592C104.147 62.1707 104.382 63.664 104.382 65.072L104.318 66.672C106.664 66.6293 109.16 66.2027 111.806 65.392C114.451 64.5387 116.819 63.472 118.91 62.192C119.806 61.7653 120.531 61.552 121.086 61.552C121.811 61.552 122.174 61.8293 122.174 62.384L121.982 62.96C121.726 63.856 118.654 65.136 112.766 66.8C109.608 67.696 106.728 68.144 104.126 68.144C103.784 71.7707 102.995 74.4587 101.758 76.208C100.734 77.488 99.6028 78.128 98.3655 78.128ZM119.841 127.344C119.884 127.344 120.31 127.323 121.121 127.28C121.932 127.237 123.148 126.619 124.769 125.424C129.846 121.755 132.385 113.819 132.385 101.616C132.385 97.9893 132.172 93.808 131.745 89.072C131.617 86.896 131.468 85.808 131.297 85.808C131.169 85.808 130.678 86.5333 129.825 87.984C124.406 96.3467 120.694 102.939 118.689 107.76C116.513 112.923 115.425 117.36 115.425 121.072C115.425 122.907 115.702 124.293 116.257 125.232C117.11 126.64 118.305 127.344 119.841 127.344ZM120.161 128.88C119.692 128.88 119.222 128.837 118.753 128.752C115.126 128.155 113.313 125.829 113.313 121.776C113.313 119.771 113.782 117.36 114.721 114.544C116.47 109.424 118.646 104.453 121.249 99.632C122.102 98.224 122.892 96.8587 123.617 95.536C124.598 93.744 126.646 90.4373 129.761 85.616C130.785 83.824 131.297 82.5013 131.297 81.648L131.233 80.496C131.02 77.4667 130.913 74.096 130.913 70.384C130.913 68.1227 130.956 65.712 131.041 63.152C129.761 66.864 128.161 70.512 126.241 74.096C125.26 76.016 124.257 77.0613 123.233 77.232L122.401 77.296C120.438 77.296 119.18 75.632 118.625 72.304C118.582 71.8347 118.561 71.3227 118.561 70.768C118.561 66.8853 119.585 62.5547 121.633 57.776C123.041 54.832 124.598 52.7413 126.305 51.504C127.841 50.3947 129.121 49.84 130.145 49.84C131.212 49.84 132.044 50.096 132.641 50.608C133.238 51.0773 133.537 51.6107 133.537 52.208C133.537 53.5307 132.982 54.192 131.873 54.192L131.041 54.064C128.14 54.064 125.9 58.864 124.321 68.464C123.98 70.4693 123.788 71.856 123.745 72.624C123.745 73.1787 123.83 73.456 124.001 73.456C124.47 73.2853 125.089 72.24 125.857 70.32C128.716 63.8347 130.358 60.208 130.785 59.44C131.254 58.6293 131.638 58.0533 131.937 57.712C132.278 57.3707 132.769 57.2 133.409 57.2C134.049 57.2 134.476 57.52 134.689 58.16C134.945 59.056 135.073 60.6347 135.073 62.896C135.073 64.2187 135.03 65.8187 134.945 67.696C134.689 71.9627 134.561 75.4613 134.561 78.192C137.846 73.84 142.305 68.6347 147.937 62.576C148.492 61.9787 149.004 61.68 149.473 61.68C150.113 61.7227 150.433 62 150.433 62.512C150.433 63.1093 148.982 64.8373 146.081 67.696C141.9 71.6213 138.614 75.2693 136.225 78.64C136.097 78.896 135.905 79.152 135.649 79.408C135.009 80.0907 134.625 81.1573 134.497 82.608C134.412 83.5893 134.369 84.8907 134.369 86.512C134.369 88.432 134.433 90.8 134.561 93.616C134.732 96.432 134.817 98.992 134.817 101.296C134.817 105.093 134.476 108.955 133.793 112.88C133.409 115.184 132.513 117.829 131.105 120.816C129.526 124.016 127.564 126.235 125.217 127.472C123.468 128.411 121.782 128.88 120.161 128.88Z" fill="black"/>
</svg>
