<svg width="203" height="174" viewBox="0 0 203 174" fill="none" xmlns="http://www.w3.org/2000/svg">
<path d="M17.448 144.216C21.5187 144.216 25.6467 143.471 29.832 141.98C34.82 140.317 39.3207 138.311 43.334 135.96C52.106 130.743 60.018 124.637 67.07 117.642C77.6193 107.379 83.1233 98.0627 83.582 89.692C83.582 83.5 80.2567 79.028 73.606 76.276C69.7073 74.8427 65.2927 74.126 60.362 74.126C55.2593 74.126 51.59 74.2693 49.354 74.556C47.5767 74.8427 43.076 75.9033 35.852 77.738L36.712 102.85L44.194 100.958C50.2713 99.2953 54.772 98.464 57.696 98.464H58.212C59.1293 98.464 59.588 98.894 59.588 99.754C59.588 100.901 58.9573 101.503 57.696 101.56C53.8547 101.675 48.4367 102.305 41.442 103.452C39.1487 104.025 37.6867 104.341 37.056 104.398C37.056 105.889 37.1133 107.379 37.228 108.87L37.142 111.364C37.142 112.281 37.2567 113.227 37.486 114.202C37.6007 114.775 37.658 115.349 37.658 115.922C37.658 116.61 37.572 117.183 37.4 117.642C36.712 119.133 35.68 119.878 34.304 119.878C31.724 119.878 30.434 117.642 30.434 113.17C30.434 112.081 30.606 109.959 30.95 106.806C29.5167 107.494 28.5133 107.953 27.94 108.182C27.424 108.411 26.5353 108.87 25.274 109.558C18.4513 113.17 13.0333 117.642 9.02 122.974C6.15333 126.815 4.72 130.427 4.72 133.81C4.72 134.785 4.83467 135.989 5.064 137.422C5.29333 138.855 6.41133 140.346 8.418 141.894C10.7687 143.442 13.7787 144.216 17.448 144.216ZM17.018 148.946C15.47 148.946 13.234 148.659 10.31 148.086C7.44333 147.57 5.00667 145.907 3 143.098C1.50933 140.919 0.764 138.454 0.764 135.702C0.764 134.727 0.936 133.007 1.28 130.542C1.56667 128.478 3.22933 125.497 6.268 121.598C10.6827 116.094 16.5307 111.565 23.812 108.01C26.3347 106.749 28.0833 106.032 29.058 105.86C29.6887 105.688 30.1473 105.487 30.434 105.258C31.1793 104.627 31.7527 102.047 32.154 97.518C33.014 87.198 33.444 80.576 33.444 77.652C32.8707 77.2507 32.3547 76.8207 31.896 76.362C31.4373 75.9033 31.208 75.3013 31.208 74.556C31.208 73.18 31.7813 71.9473 32.928 70.858C34.4187 69.5393 35.3073 67.1887 35.594 63.806C35.8233 61.3407 35.938 58.5887 35.938 55.55C35.938 52.11 35.766 47.5807 35.422 41.962C35.1353 38.6367 34.992 36.1427 34.992 34.48C34.992 27.3707 36.4253 23.816 39.292 23.816C40.7253 23.816 41.442 24.8767 41.442 26.998C41.442 28.4313 41.1553 30.266 40.582 32.502C39.9513 35.082 39.3493 39.6113 38.776 46.09C38.604 47.6953 38.4893 49.358 38.432 51.078C38.432 52.798 38.2027 56.0087 37.744 60.71C37.572 61.8567 37.4573 62.6593 37.4 63.118C37.3427 63.5767 37.2567 64.064 37.142 64.58C37.0847 65.0387 37.056 65.5547 37.056 66.128C37.056 66.4147 37.1133 66.558 37.228 66.558C37.9733 66.558 40.324 64.2933 44.28 59.764L45.914 58.044C53.998 48.584 60.4193 39.296 65.178 30.18C68.8473 23.1853 70.9113 17.2513 71.37 12.378L71.456 9.19599C71.456 7.648 70.51 6.1 68.618 4.55199C66.726 3.00399 63.8307 2.23 59.932 2.23C58.3267 2.23 56.4633 2.402 54.342 2.746C46.774 4.06467 39.4353 7.39 32.326 12.722C24.9873 18.3407 19.4547 24.8193 15.728 32.158C13.5493 36.286 12.374 39.812 12.202 42.736C12.202 45.8893 13.234 48.0967 15.298 49.358C15.8713 49.702 16.158 50.2753 16.158 51.078C16.158 51.4793 16.072 51.9667 15.9 52.54C15.0973 53.228 14.4667 53.572 14.008 53.572C13.2053 53.572 12.46 53.4 11.772 53.056C10.568 52.368 9.67933 51.508 9.106 50.476C8.59 49.444 8.332 47.896 8.332 45.832C8.332 39.468 11.772 32.0147 18.652 23.472C21.576 19.9747 24.5573 16.9933 27.596 14.528C29.8893 12.808 32.1827 11.174 34.476 9.62599C38.7187 6.81666 43.5347 4.55199 48.924 2.83199C53.74 1.34132 57.9827 0.595991 61.652 0.595991C63.1427 0.595991 64.8913 0.79666 66.898 1.198C68.9047 1.59933 70.768 2.746 72.488 4.638C74.1507 6.874 74.982 9.65466 74.982 12.98C74.982 18.2547 73.176 24.418 69.564 31.47L65.006 40.07C64.146 41.3313 63.544 42.3347 63.2 43.08C60.6773 47.2653 57.2947 52.11 53.052 57.614L43.592 69.31C49.096 68.794 52.7653 68.536 54.6 68.536C58.1547 68.536 62.1967 68.9373 66.726 69.74C71.3127 70.4853 75.1253 71.718 78.164 73.438C84.6427 77.6233 87.882 83.1273 87.882 89.95C87.882 98.0913 83.5247 106.806 74.81 116.094C73.778 117.47 71.5133 119.821 68.016 123.146C58.1547 132.434 47.376 139.629 35.68 144.732C33.3867 145.707 31.466 146.395 29.918 146.796C24.9873 148.229 20.6873 148.946 17.018 148.946ZM101.301 82.21C102.275 81.2353 104.167 78.2827 106.977 73.352L109.127 69.74C111.019 66.0133 113.455 60.8533 116.437 54.26C119.418 47.6667 121.539 42.65 122.801 39.21C124.807 33.8207 126.441 28.0873 127.703 22.01C127.989 19.8887 128.133 18.5413 128.133 17.968C128.133 15.904 127.617 14.872 126.585 14.872C125.897 14.872 124.922 15.4453 123.661 16.592C120.909 19.0573 118.128 22.6693 115.319 27.428C113.484 30.4667 111.162 35.3973 108.353 42.22C104.798 51.336 102.533 61.4267 101.559 72.492C101.329 75.0147 101.215 77.394 101.215 79.63L101.301 82.21ZM110.417 113.17C105.773 113.17 102.333 108.813 100.097 100.098C98.6634 94.5367 97.9467 87.628 97.9467 79.372C97.9467 68.02 100.068 56.41 104.311 44.542C108.324 33.2473 113.398 24.332 119.533 17.796C122.571 14.356 125.065 12.636 127.015 12.636C128.735 12.636 129.595 14.1553 129.595 17.194C129.595 21.15 128.333 26.8833 125.811 34.394C124.148 39.382 120.737 47.9247 115.577 60.022C111.621 69.138 108.324 76.3333 105.687 81.608L101.559 88.918C101.559 91.6127 102.275 95.282 103.709 99.926C105.715 106.405 108.238 109.644 111.277 109.644C112.71 109.472 114.086 108.669 115.405 107.236C117.87 104.656 119.819 101.503 121.253 97.776C124.463 90.208 126.298 85.9367 126.757 84.962C127.617 83.6433 128.419 82.984 129.165 82.984C129.566 82.984 129.996 83.156 130.455 83.5C130.627 83.672 130.713 83.8727 130.713 84.102C130.713 84.5607 130.512 85.22 130.111 86.08L130.025 86.51C126.413 94.9953 123.345 101.159 120.823 105C117.44 110.217 113.971 112.941 110.417 113.17ZM134.297 100.012C134.412 99.9547 134.756 99.4387 135.329 98.464C135.96 97.088 136.562 94.8807 137.135 91.842L133.265 91.154C133.036 92.6447 132.921 94.078 132.921 95.454C132.921 96.2567 132.95 97.2313 133.007 98.378C133.122 99.4673 133.552 100.012 134.297 100.012ZM137.221 89.262L137.393 88.316L137.479 87.026C137.479 84.6753 136.934 82.2673 135.845 79.802C135.73 80.49 135.243 82.2387 134.383 85.048C133.867 86.3093 133.58 87.198 133.523 87.714C133.523 88.0007 133.58 88.2587 133.695 88.488C133.81 88.66 134.985 88.918 137.221 89.262ZM132.491 105.172C131.516 105.172 130.484 104.799 129.395 104.054C127.732 102.391 126.901 99.6393 126.901 95.798C126.901 94.3647 127.016 92.9887 127.245 91.67C127.532 90.294 127.675 89.262 127.675 88.574C127.675 87.714 127.532 86.9687 127.245 86.338C127.016 85.65 126.901 84.9907 126.901 84.36C126.901 82.984 127.532 81.4647 128.793 79.802C130.628 77.5087 132.52 76.362 134.469 76.362C135.042 76.362 135.816 76.5913 136.791 77.05C137.766 77.4513 138.712 78.9707 139.629 81.608C140.26 83.7293 140.575 85.736 140.575 87.628L140.489 89.778C143.642 89.7207 146.996 89.1473 150.551 88.058C154.106 86.9113 157.288 85.478 160.097 83.758C161.301 83.1847 162.276 82.898 163.021 82.898C163.996 82.898 164.483 83.2707 164.483 84.016L164.225 84.79C163.881 85.994 159.753 87.714 151.841 89.95C147.598 91.154 143.728 91.756 140.231 91.756C139.772 96.6293 138.712 100.241 137.049 102.592C135.673 104.312 134.154 105.172 132.491 105.172ZM161.349 171.306C161.406 171.306 161.98 171.277 163.069 171.22C164.158 171.163 165.792 170.331 167.971 168.726C174.794 163.795 178.205 153.131 178.205 136.734C178.205 131.861 177.918 126.242 177.345 119.878C177.173 116.954 176.972 115.492 176.743 115.492C176.571 115.492 175.912 116.467 174.765 118.416C167.484 129.653 162.496 138.511 159.801 144.99C156.877 151.927 155.415 157.89 155.415 162.878C155.415 165.343 155.788 167.207 156.533 168.468C157.68 170.36 159.285 171.306 161.349 171.306ZM161.779 173.37C161.148 173.37 160.518 173.313 159.887 173.198C155.014 172.395 152.577 169.271 152.577 163.824C152.577 161.129 153.208 157.89 154.469 154.106C156.82 147.226 159.744 140.547 163.241 134.068C164.388 132.176 165.448 130.341 166.423 128.564C167.742 126.156 170.494 121.713 174.679 115.234C176.055 112.826 176.743 111.049 176.743 109.902L176.657 108.354C176.37 104.283 176.227 99.754 176.227 94.766C176.227 91.7273 176.284 88.488 176.399 85.048C174.679 90.036 172.529 94.938 169.949 99.754C168.63 102.334 167.283 103.739 165.907 103.968L164.789 104.054C162.152 104.054 160.46 101.818 159.715 97.346C159.658 96.7153 159.629 96.0273 159.629 95.282C159.629 90.0647 161.005 84.2453 163.757 77.824C165.649 73.868 167.742 71.0587 170.035 69.396C172.099 67.9053 173.819 67.16 175.195 67.16C176.628 67.16 177.746 67.504 178.549 68.192C179.352 68.8227 179.753 69.5393 179.753 70.342C179.753 72.1193 179.008 73.008 177.517 73.008L176.399 72.836C172.5 72.836 169.49 79.286 167.369 92.186C166.91 94.8807 166.652 96.744 166.595 97.776C166.595 98.5213 166.71 98.894 166.939 98.894C167.57 98.6647 168.401 97.26 169.433 94.68C173.274 85.9653 175.482 81.092 176.055 80.06C176.686 78.9707 177.202 78.1967 177.603 77.738C178.062 77.2793 178.721 77.05 179.581 77.05C180.441 77.05 181.014 77.48 181.301 78.34C181.645 79.544 181.817 81.6653 181.817 84.704C181.817 86.4813 181.76 88.6313 181.645 91.154C181.301 96.8873 181.129 101.589 181.129 105.258C185.544 99.41 191.535 92.4153 199.103 84.274C199.848 83.4713 200.536 83.07 201.167 83.07C202.027 83.1273 202.457 83.5 202.457 84.188C202.457 84.9907 200.508 87.3127 196.609 91.154C190.99 96.4287 186.576 101.331 183.365 105.86C183.193 106.204 182.935 106.548 182.591 106.892C181.731 107.809 181.215 109.243 181.043 111.192C180.928 112.511 180.871 114.259 180.871 116.438C180.871 119.018 180.957 122.2 181.129 125.984C181.358 129.768 181.473 133.208 181.473 136.304C181.473 141.407 181.014 146.595 180.097 151.87C179.581 154.966 178.377 158.521 176.485 162.534C174.364 166.834 171.726 169.815 168.573 171.478C166.222 172.739 163.958 173.37 161.779 173.37Z" fill="black"/>
</svg>
