<svg width="609" height="129" viewBox="0 0 609 129" fill="none" xmlns="http://www.w3.org/2000/svg">
<path d="M12.752 107.184C15.7813 107.184 18.8533 106.629 21.968 105.52C25.68 104.283 29.0293 102.789 32.016 101.04C38.544 97.1573 44.432 92.6133 49.68 87.408C57.5307 79.7707 61.6267 72.8373 61.968 66.608C61.968 62 59.4933 58.672 54.544 56.624C51.6427 55.5573 48.3573 55.024 44.688 55.024C40.8907 55.024 38.16 55.1307 36.496 55.344C35.1733 55.5573 31.824 56.3467 26.448 57.712L27.088 76.4L32.656 74.992C37.1787 73.7547 40.528 73.136 42.704 73.136H43.088C43.7707 73.136 44.112 73.456 44.112 74.096C44.112 74.9493 43.6427 75.3973 42.704 75.44C39.8453 75.5253 35.8133 75.9947 30.608 76.848C28.9013 77.2747 27.8133 77.5093 27.344 77.552C27.344 78.6613 27.3867 79.7707 27.472 80.88L27.408 82.736C27.408 83.4187 27.4933 84.1227 27.664 84.848C27.7493 85.2747 27.792 85.7013 27.792 86.128C27.792 86.64 27.728 87.0667 27.6 87.408C27.088 88.5173 26.32 89.072 25.296 89.072C23.376 89.072 22.416 87.408 22.416 84.08C22.416 83.2693 22.544 81.6907 22.8 79.344C21.7333 79.856 20.9867 80.1973 20.56 80.368C20.176 80.5387 19.5147 80.88 18.576 81.392C13.4987 84.08 9.46667 87.408 6.48 91.376C4.34667 94.2347 3.28 96.9227 3.28 99.44C3.28 100.165 3.36533 101.061 3.536 102.128C3.70667 103.195 4.53867 104.304 6.032 105.456C7.78133 106.608 10.0213 107.184 12.752 107.184ZM12.432 110.704C11.28 110.704 9.616 110.491 7.44 110.064C5.30667 109.68 3.49333 108.443 2 106.352C0.890667 104.731 0.336 102.896 0.336 100.848C0.336 100.123 0.464 98.8427 0.72 97.008C0.933333 95.472 2.17067 93.2533 4.432 90.352C7.71733 86.256 12.0693 82.8853 17.488 80.24C19.3653 79.3013 20.6667 78.768 21.392 78.64C21.8613 78.512 22.2027 78.3627 22.416 78.192C22.9707 77.7227 23.3973 75.8027 23.696 72.432C24.336 64.752 24.656 59.824 24.656 57.648C24.2293 57.3493 23.8453 57.0293 23.504 56.688C23.1627 56.3467 22.992 55.8987 22.992 55.344C22.992 54.32 23.4187 53.4027 24.272 52.592C25.3813 51.6107 26.0427 49.8613 26.256 47.344C26.4267 45.5093 26.512 43.4613 26.512 41.2C26.512 38.64 26.384 35.2693 26.128 31.088C25.9147 28.6133 25.808 26.7573 25.808 25.52C25.808 20.2293 26.8747 17.584 29.008 17.584C30.0747 17.584 30.608 18.3733 30.608 19.952C30.608 21.0187 30.3947 22.384 29.968 24.048C29.4987 25.968 29.0507 29.3387 28.624 34.16C28.496 35.3547 28.4107 36.592 28.368 37.872C28.368 39.152 28.1973 41.5413 27.856 45.04C27.728 45.8933 27.6427 46.4907 27.6 46.832C27.5573 47.1733 27.4933 47.536 27.408 47.92C27.3653 48.2613 27.344 48.6453 27.344 49.072C27.344 49.2853 27.3867 49.392 27.472 49.392C28.0267 49.392 29.776 47.7067 32.72 44.336L33.936 43.056C39.952 36.016 44.7307 29.104 48.272 22.32C51.0027 17.1147 52.5387 12.6987 52.88 9.072L52.944 6.70399C52.944 5.552 52.24 4.4 50.832 3.24799C49.424 2.096 47.2693 1.52 44.368 1.52C43.1733 1.52 41.7867 1.648 40.208 1.904C34.576 2.88533 29.1147 5.36 23.824 9.328C18.3627 13.5093 14.2453 18.3307 11.472 23.792C9.85067 26.864 8.976 29.488 8.848 31.664C8.848 34.0107 9.616 35.6533 11.152 36.592C11.5787 36.848 11.792 37.2747 11.792 37.872C11.792 38.1707 11.728 38.5333 11.6 38.96C11.0027 39.472 10.5333 39.728 10.192 39.728C9.59467 39.728 9.04 39.6 8.528 39.344C7.632 38.832 6.97067 38.192 6.544 37.424C6.16 36.656 5.968 35.504 5.968 33.968C5.968 29.232 8.528 23.6853 13.648 17.328C15.824 14.7253 18.0427 12.5067 20.304 10.672C22.0107 9.392 23.7173 8.176 25.424 7.02399C28.5813 4.93333 32.1653 3.24799 36.176 1.96799C39.76 0.85866 42.9173 0.303993 45.648 0.303993C46.7573 0.303993 48.0587 0.453328 49.552 0.751999C51.0453 1.05066 52.432 1.904 53.712 3.312C54.9493 4.976 55.568 7.04533 55.568 9.52C55.568 13.4453 54.224 18.032 51.536 23.28L48.144 29.68C47.504 30.6187 47.056 31.3653 46.8 31.92C44.9227 35.0347 42.4053 38.64 39.248 42.736L32.208 51.44C36.304 51.056 39.0347 50.864 40.4 50.864C43.0453 50.864 46.0533 51.1627 49.424 51.76C52.8373 52.3147 55.6747 53.232 57.936 54.512C62.7573 57.6267 65.168 61.7227 65.168 66.8C65.168 72.8587 61.9253 79.344 55.44 86.256C54.672 87.28 52.9867 89.0293 50.384 91.504C43.0453 98.416 35.024 103.771 26.32 107.568C24.6133 108.293 23.184 108.805 22.032 109.104C18.3627 110.171 15.1627 110.704 12.432 110.704ZM75.154 61.04C75.8793 60.3147 77.2873 58.1173 79.378 54.448L80.978 51.76C82.386 48.9867 84.1993 45.1467 86.418 40.24C88.6367 35.3333 90.2153 31.6 91.154 29.04C92.6473 25.0293 93.8633 20.7627 94.802 16.24C95.0153 14.6613 95.122 13.6587 95.122 13.232C95.122 11.696 94.738 10.928 93.97 10.928C93.458 10.928 92.7327 11.3547 91.794 12.208C89.746 14.0427 87.6767 16.7307 85.586 20.272C84.2207 22.5333 82.4927 26.2027 80.402 31.28C77.7567 38.064 76.0713 45.5733 75.346 53.808C75.1753 55.6853 75.09 57.456 75.09 59.12L75.154 61.04ZM81.938 84.08C78.482 84.08 75.922 80.8373 74.258 74.352C73.1913 70.2133 72.658 65.072 72.658 58.928C72.658 50.48 74.2367 41.84 77.394 33.008C80.3807 24.6027 84.1567 17.968 88.722 13.104C90.9833 10.544 92.8393 9.264 94.29 9.264C95.57 9.264 96.21 10.3947 96.21 12.656C96.21 15.6 95.2713 19.8667 93.394 25.456C92.1567 29.168 89.618 35.5253 85.778 44.528C82.834 51.312 80.3807 56.6667 78.418 60.592L75.346 66.032C75.346 68.0373 75.8793 70.768 76.946 74.224C78.4393 79.0453 80.3167 81.456 82.578 81.456C83.6447 81.328 84.6687 80.7307 85.65 79.664C87.4847 77.744 88.9353 75.3973 90.002 72.624C92.3913 66.992 93.7567 63.8133 94.098 63.088C94.738 62.1067 95.3353 61.616 95.89 61.616C96.1887 61.616 96.5087 61.744 96.85 62C96.978 62.128 97.042 62.2773 97.042 62.448C97.042 62.7893 96.8927 63.28 96.594 63.92L96.53 64.24C93.842 70.5547 91.5593 75.1413 89.682 78C87.1647 81.8827 84.5833 83.9093 81.938 84.08ZM99.7095 74.288C99.7948 74.2453 100.051 73.8613 100.478 73.136C100.947 72.112 101.395 70.4693 101.822 68.208L98.9415 67.696C98.7708 68.8053 98.6855 69.872 98.6855 70.896C98.6855 71.4933 98.7068 72.2187 98.7495 73.072C98.8348 73.8827 99.1548 74.288 99.7095 74.288ZM101.885 66.288L102.014 65.584L102.078 64.624C102.078 62.8747 101.672 61.0827 100.862 59.248C100.776 59.76 100.414 61.0613 99.7735 63.152C99.3895 64.0907 99.1762 64.752 99.1335 65.136C99.1335 65.3493 99.1762 65.5413 99.2615 65.712C99.3468 65.84 100.222 66.032 101.885 66.288ZM98.3655 78.128C97.6402 78.128 96.8722 77.8507 96.0615 77.296C94.8242 76.0587 94.2055 74.0107 94.2055 71.152C94.2055 70.0853 94.2908 69.0613 94.4615 68.08C94.6748 67.056 94.7815 66.288 94.7815 65.776C94.7815 65.136 94.6748 64.5813 94.4615 64.112C94.2908 63.6 94.2055 63.1093 94.2055 62.64C94.2055 61.616 94.6748 60.4853 95.6135 59.248C96.9788 57.5413 98.3868 56.688 99.8375 56.688C100.264 56.688 100.84 56.8587 101.566 57.2C102.291 57.4987 102.995 58.6293 103.678 60.592C104.147 62.1707 104.382 63.664 104.382 65.072L104.318 66.672C106.664 66.6293 109.16 66.2027 111.806 65.392C114.451 64.5387 116.819 63.472 118.91 62.192C119.806 61.7653 120.531 61.552 121.086 61.552C121.811 61.552 122.174 61.8293 122.174 62.384L121.982 62.96C121.726 63.856 118.654 65.136 112.766 66.8C109.608 67.696 106.728 68.144 104.126 68.144C103.784 71.7707 102.995 74.4587 101.758 76.208C100.734 77.488 99.6028 78.128 98.3655 78.128ZM119.841 127.344C119.884 127.344 120.31 127.323 121.121 127.28C121.932 127.237 123.148 126.619 124.769 125.424C129.846 121.755 132.385 113.819 132.385 101.616C132.385 97.9893 132.172 93.808 131.745 89.072C131.617 86.896 131.468 85.808 131.297 85.808C131.169 85.808 130.678 86.5333 129.825 87.984C124.406 96.3467 120.694 102.939 118.689 107.76C116.513 112.923 115.425 117.36 115.425 121.072C115.425 122.907 115.702 124.293 116.257 125.232C117.11 126.64 118.305 127.344 119.841 127.344ZM120.161 128.88C119.692 128.88 119.222 128.837 118.753 128.752C115.126 128.155 113.313 125.829 113.313 121.776C113.313 119.771 113.782 117.36 114.721 114.544C116.47 109.424 118.646 104.453 121.249 99.632C122.102 98.224 122.892 96.8587 123.617 95.536C124.598 93.744 126.646 90.4373 129.761 85.616C130.785 83.824 131.297 82.5013 131.297 81.648L131.233 80.496C131.02 77.4667 130.913 74.096 130.913 70.384C130.913 68.1227 130.956 65.712 131.041 63.152C129.761 66.864 128.161 70.512 126.241 74.096C125.26 76.016 124.257 77.0613 123.233 77.232L122.401 77.296C120.438 77.296 119.18 75.632 118.625 72.304C118.582 71.8347 118.561 71.3227 118.561 70.768C118.561 66.8853 119.585 62.5547 121.633 57.776C123.041 54.832 124.598 52.7413 126.305 51.504C127.841 50.3947 129.121 49.84 130.145 49.84C131.212 49.84 132.044 50.096 132.641 50.608C133.238 51.0773 133.537 51.6107 133.537 52.208C133.537 53.5307 132.982 54.192 131.873 54.192L131.041 54.064C128.14 54.064 125.9 58.864 124.321 68.464C123.98 70.4693 123.788 71.856 123.745 72.624C123.745 73.1787 123.83 73.456 124.001 73.456C124.47 73.2853 125.089 72.24 125.857 70.32C128.716 63.8347 130.358 60.208 130.785 59.44C131.254 58.6293 131.638 58.0533 131.937 57.712C132.278 57.3707 132.769 57.2 133.409 57.2C134.049 57.2 134.476 57.52 134.689 58.16C134.945 59.056 135.073 60.6347 135.073 62.896C135.073 64.2187 135.03 65.8187 134.945 67.696C134.689 71.9627 134.561 75.4613 134.561 78.192C137.846 73.84 142.305 68.6347 147.937 62.576C148.492 61.9787 149.004 61.68 149.473 61.68C150.113 61.7227 150.433 62 150.433 62.512C150.433 63.1093 148.982 64.8373 146.081 67.696C141.9 71.6213 138.614 75.2693 136.225 78.64C136.097 78.896 135.905 79.152 135.649 79.408C135.009 80.0907 134.625 81.1573 134.497 82.608C134.412 83.5893 134.369 84.8907 134.369 86.512C134.369 88.432 134.433 90.8 134.561 93.616C134.732 96.432 134.817 98.992 134.817 101.296C134.817 105.093 134.476 108.955 133.793 112.88C133.409 115.184 132.513 117.829 131.105 120.816C129.526 124.016 127.564 126.235 125.217 127.472C123.468 128.411 121.782 128.88 120.161 128.88ZM234.843 111.856C236.293 111.771 238.043 111.28 240.091 110.384C242.693 109.232 244.379 108.315 245.147 107.632C244.293 107.632 241.883 108.336 237.915 109.744C235.525 110.768 234.309 111.429 234.267 111.728C234.267 111.813 234.459 111.856 234.843 111.856ZM233.05 114.352C231.386 114.352 230.554 113.883 230.554 112.944C230.554 110.725 235.248 108.336 244.635 105.776C246.341 105.435 247.749 104.901 248.859 104.176C249.968 103.493 251.099 102.021 252.251 99.76C256.261 92.4213 258.8 82.8213 259.867 70.96C260.208 47.7493 260.827 31.088 261.723 20.976C261.808 19.9093 261.915 19.0347 262.043 18.352C262.213 17.6267 262.341 16.8587 262.427 16.048C262.811 13.8293 263.408 12.6347 264.219 12.464C264.944 12.464 265.392 13.232 265.562 14.768V18.8C265.562 21.36 265.541 23.6213 265.499 25.584C264.859 40.0907 264.517 49.84 264.475 54.832C264.475 59.7813 264.368 63.472 264.155 65.904C263.003 79.2587 260.763 89.4773 257.435 96.56C256.411 98.7787 255.195 100.997 253.787 103.216C259.589 102.107 263.472 101.467 265.435 101.296L265.755 101.36C266.864 101.36 267.781 101.659 268.507 102.256C269.232 102.853 269.595 103.579 269.595 104.432C269.595 105.285 269.232 105.712 268.507 105.712C267.056 105.712 265.563 105.605 264.027 105.392C262.491 105.221 261.019 105.136 259.611 105.136C254.405 105.136 251.269 105.797 250.203 107.12C247.6 109.637 244.4 111.515 240.603 112.752C240.517 112.752 240.453 112.773 240.411 112.816C237.424 113.712 234.971 114.224 233.05 114.352ZM234.651 10.864H234.523C233.627 10.864 233.178 10.3733 233.178 9.392C233.178 8.79466 233.541 8.34666 234.267 8.048C235.035 7.74933 235.803 7.6 236.571 7.6C255.856 6.32 269.851 5.424 278.555 4.91199L287.579 4.71999L290.459 4.592C291.397 4.76266 291.867 5.21067 291.867 5.936C291.867 6.74667 290.992 7.55733 289.243 8.368C286.725 9.47733 284.144 10.16 281.499 10.416C280.475 10.416 279.963 9.92533 279.963 8.944C279.963 8.51733 280.048 8.00533 280.219 7.408C278.085 7.32266 275.867 7.28 273.562 7.28C268.912 7.28 263.92 7.45067 258.587 7.792C249.968 8.38933 242.608 9.37066 236.507 10.736C235.824 10.8213 235.205 10.864 234.651 10.864ZM284.416 94C285.269 94 286.229 93.7227 287.296 93.168C295.53 88.9867 300.245 82.7787 301.44 74.544C289.45 84.1013 283.456 90.2453 283.456 92.976C283.456 93.6587 283.776 94 284.416 94ZM284.736 95.536C282.901 95.536 281.984 94.7253 281.984 93.104C281.984 90.544 283.989 87.5787 288 84.208C289.834 82.416 292.48 80.1547 295.936 77.424C299.434 74.6933 301.269 73.2213 301.44 73.008V72.176C301.44 71.4933 300.992 70.7467 300.096 69.936C299.242 69.0827 297.749 68.656 295.616 68.656C294.336 68.656 292.97 68.784 291.52 69.04L286.72 70.32C282.794 71.5147 279.872 72.112 277.952 72.112C276.629 72.112 275.584 71.6853 274.816 70.832C274.047 69.9787 273.663 68.8907 273.663 67.568C274.175 61.7227 277.717 56.3253 284.288 51.376C286.933 49.4133 289.258 48.432 291.264 48.432C293.098 48.432 294.72 49.136 296.128 50.544C297.322 51.9093 297.92 53.552 297.92 55.472C297.749 58.0747 297.152 59.9093 296.128 60.976C295.573 61.5307 294.997 61.808 294.4 61.808C293.717 61.808 293.376 61.4027 293.376 60.592C293.376 60.0373 293.696 59.1413 294.336 57.904C295.146 56.1973 295.552 54.8107 295.552 53.744C295.552 51.696 294.57 50.672 292.608 50.672C290.56 50.928 288.533 52.144 286.528 54.32C284.522 56.496 282.773 58.928 281.28 61.616C279.786 64.2613 279.04 66.3307 279.04 67.824C279.04 68.6773 279.402 69.104 280.128 69.104C280.682 69.104 282.368 68.7627 285.184 68.08C289.408 67.056 292.864 66.544 295.552 66.544C295.893 66.544 296.661 66.5653 297.856 66.608C299.05 66.608 300.288 66.992 301.568 67.76C302.848 68.4853 303.658 69.616 304 71.152L316.608 62.192C317.248 61.808 317.76 61.616 318.144 61.616C318.698 61.616 318.976 61.8507 318.976 62.32C318.976 62.8747 318.656 63.344 318.016 63.728L304.128 72.624C303.872 77.9147 302.229 82.48 299.2 86.32C296.213 90.2027 292.394 93.0613 287.744 94.896C286.634 95.3227 285.632 95.536 284.736 95.536ZM320.029 61.04C320.754 60.3147 322.162 58.1173 324.253 54.448L325.853 51.76C327.261 48.9867 329.074 45.1467 331.293 40.24C333.512 35.3333 335.09 31.6 336.029 29.04C337.522 25.0293 338.738 20.7627 339.677 16.24C339.89 14.6613 339.997 13.6587 339.997 13.232C339.997 11.696 339.613 10.928 338.845 10.928C338.333 10.928 337.608 11.3547 336.669 12.208C334.621 14.0427 332.552 16.7307 330.461 20.272C329.096 22.5333 327.368 26.2027 325.277 31.28C322.632 38.064 320.946 45.5733 320.221 53.808C320.05 55.6853 319.965 57.456 319.965 59.12L320.029 61.04ZM326.813 84.08C323.357 84.08 320.797 80.8373 319.133 74.352C318.066 70.2133 317.533 65.072 317.533 58.928C317.533 50.48 319.112 41.84 322.269 33.008C325.256 24.6027 329.032 17.968 333.597 13.104C335.858 10.544 337.714 9.264 339.165 9.264C340.445 9.264 341.085 10.3947 341.085 12.656C341.085 15.6 340.146 19.8667 338.269 25.456C337.032 29.168 334.493 35.5253 330.653 44.528C327.709 51.312 325.256 56.6667 323.293 60.592L320.221 66.032C320.221 68.0373 320.754 70.768 321.821 74.224C323.314 79.0453 325.192 81.456 327.453 81.456C328.52 81.328 329.544 80.7307 330.525 79.664C332.36 77.744 333.81 75.3973 334.877 72.624C337.266 66.992 338.632 63.8133 338.973 63.088C339.613 62.1067 340.21 61.616 340.765 61.616C341.064 61.616 341.384 61.744 341.725 62C341.853 62.128 341.917 62.2773 341.917 62.448C341.917 62.7893 341.768 63.28 341.469 63.92L341.405 64.24C338.717 70.5547 336.434 75.1413 334.557 78C332.04 81.8827 329.458 83.9093 326.813 84.08ZM339.529 76.272C337.225 76.0587 336.072 74.672 336.072 72.112C336.072 69.68 336.776 67.184 338.184 64.624C339.251 62.576 340.233 61.04 341.129 60.016C343.774 57.0293 346.227 55.536 348.489 55.536C349.129 55.536 349.662 55.6853 350.089 55.984C350.899 56.4107 351.305 57.072 351.305 57.968C351.305 58.6507 351.091 59.1627 350.665 59.504C350.281 59.8027 349.79 60.1013 349.193 60.4C345.865 61.8933 343.283 64.5387 341.449 68.336C340.809 69.7013 340.339 71.3013 340.041 73.136C341.235 72.88 342.665 71.2587 344.329 68.272C345.011 67.12 345.694 66.0747 346.377 65.136C347.315 63.9413 348.233 63.344 349.129 63.344C350.238 63.344 351.582 64.5173 353.161 66.864C355.038 69.3813 356.51 70.64 357.577 70.64C360.606 70.64 363.443 67.9947 366.089 62.704C366.43 62.0213 366.857 61.68 367.369 61.68C367.881 61.68 368.137 61.8933 368.137 62.32C368.137 62.576 368.073 62.832 367.945 63.088C364.19 69.4453 360.862 72.624 357.961 72.624C357.747 72.624 357.235 72.56 356.425 72.432C355.657 72.304 354.739 71.728 353.673 70.704C352.606 69.6373 351.689 68.5493 350.921 67.44C350.153 66.288 349.449 65.456 348.809 64.944C348.211 65.6693 347.785 66.2667 347.529 66.736C347.315 67.1627 347.017 67.696 346.633 68.336C343.902 73.6267 341.534 76.272 339.529 76.272ZM441.176 120.88C440.45 120.88 439.896 120.432 439.512 119.536C439.128 118.64 438.936 116.571 438.936 113.328C438.936 110.725 439.064 107.355 439.32 103.216L439.512 97.776C439.554 95.6853 440.066 89.7547 441.048 79.984C441.56 74.7787 444.141 58.608 448.792 31.472C449.688 26.0107 450.648 21.616 451.672 18.288C453.506 11.4187 454.424 7.23733 454.424 5.744C454.424 4.67733 454.189 4.144 453.72 4.144C453.208 4.144 452.674 4.31466 452.12 4.656C449.005 6.704 446.168 10.3947 443.608 15.728C441.261 20.592 438.552 27.888 435.48 37.616C433.304 44.6133 431.618 50.3947 430.424 54.96L424.408 78.832C423.341 82.7573 422.104 85.296 420.696 86.448C419.842 87.1307 418.69 87.472 417.24 87.472C414.509 87.2587 412.013 82.7573 409.752 73.968C407.618 65.8613 406.061 57.328 405.08 48.368C404.568 44.272 403.778 36.912 402.712 26.288C401.176 30.8107 400.173 35.5253 399.704 40.432C398.552 49.648 397.976 57.7973 397.976 64.88C397.976 75.376 399 85.4453 401.048 95.088C401.602 99.3973 402.264 101.552 403.032 101.552C403.8 101.552 404.184 102.021 404.184 102.96C404.184 103.557 403.97 104.24 403.544 105.008C403.16 105.648 402.648 105.968 402.008 105.968C400.557 105.968 399.341 104.389 398.36 101.232C396.397 94.4907 395.416 83.6533 395.416 68.72L395.48 62.32C395.693 52.72 396.802 42.8853 398.808 32.816C398.85 32.0907 399.085 30.8747 399.512 29.168C400.365 25.5413 401.517 23.5787 402.968 23.28C404.248 23.28 405.122 23.856 405.592 25.008C406.53 26.7573 407.49 33.008 408.472 43.76C409.325 54.768 411.181 64.624 414.04 73.328C415.832 78.7467 417.325 81.7333 418.52 82.288C420.269 79.1307 423.106 71.216 427.032 58.544C428.226 54.4907 430.744 46.8533 434.584 35.632C438.082 25.392 441.048 18.0107 443.48 13.488C445.613 9.73333 447.682 6.91733 449.688 5.03999C451.437 3.33333 452.973 2.48 454.296 2.48C456.088 2.48 456.984 4.29333 456.984 7.92C456.984 10.9493 455.938 17.5413 453.848 27.696C449.154 48.7733 446.21 66.1813 445.016 79.92C444.589 84.8693 444.376 92.5707 444.376 103.024C444.504 104.176 444.568 105.371 444.568 106.608L444.504 109.488L444.568 111.536L444.376 117.488C444.205 119.749 443.138 120.88 441.176 120.88ZM474.032 88.688C473.776 88.688 473.243 88.56 472.432 88.304C471.664 88.0907 470.875 87.1947 470.064 85.616C468.443 82.3307 467.632 77.936 467.632 72.432C467.632 70.5973 467.717 68.6347 467.888 66.544C465.2 73.8827 462.619 77.552 460.144 77.552C459.163 77.552 458.373 77.296 457.776 76.784C455.899 75.0347 454.96 71.984 454.96 67.632C454.96 66.6933 455.003 65.6693 455.088 64.56C455.685 58.2027 456.987 55.024 458.992 55.024C459.973 55.1093 460.485 55.6427 460.528 56.624C460.485 57.2213 460.4 57.712 460.272 58.096C459.803 59.8453 459.419 62.3413 459.12 65.584C459.035 66.5653 458.992 67.4613 458.992 68.272C458.992 70.192 459.227 71.792 459.696 73.072C460.293 74.096 460.848 74.6293 461.36 74.672C462.512 74.2453 463.984 71.6213 465.776 66.8C466.885 63.8133 467.611 61.7227 467.952 60.528C468.208 59.6747 468.485 58.864 468.784 58.096C469.083 57.328 469.744 56.944 470.768 56.944C471.365 56.9867 471.664 57.4133 471.664 58.224V58.544C470.128 64.3467 469.36 69.1893 469.36 73.072C469.36 75.888 469.808 78.8533 470.704 81.968C471.6 85.0827 472.859 86.64 474.48 86.64C475.931 86.3413 477.275 84.272 478.512 80.432C479.536 77.1467 480.581 71.5147 481.648 63.536C481.861 62.2987 482.395 61.68 483.248 61.68C483.888 61.68 484.208 62.064 484.208 62.832C484.208 63.856 483.739 66.48 482.8 70.704C481.051 78.5547 479.237 83.8667 477.36 86.64C476.208 88.0053 475.099 88.688 474.032 88.688ZM470.327 127.024C470.37 127.024 470.796 127.003 471.607 126.96C472.418 126.917 473.634 126.299 475.255 125.104C480.375 121.435 482.935 113.584 482.935 101.552C482.935 97.8827 482.7 93.616 482.231 88.752C482.146 86.576 482.018 85.488 481.847 85.488C481.719 85.488 481.207 86.2133 480.311 87.664C474.935 96.0267 471.223 102.619 469.175 107.44C467.042 112.603 465.975 117.04 465.975 120.752C465.975 122.587 466.252 123.973 466.807 124.912C467.618 126.32 468.791 127.024 470.327 127.024ZM470.711 128.56C470.242 128.56 469.751 128.517 469.239 128.432C465.612 127.835 463.799 125.509 463.799 121.456C463.799 119.579 464.29 117.168 465.271 114.224C466.978 109.104 469.154 104.133 471.799 99.312L474.103 95.216C475.042 93.5093 477.09 90.2027 480.247 85.296C481.314 83.504 481.847 82.224 481.847 81.456C481.847 81.072 481.804 80.6453 481.719 80.176C481.591 77.9573 481.527 75.4187 481.527 72.56C481.527 68.848 481.676 62.96 481.975 54.896C482.103 53.7013 482.316 52.7413 482.615 52.016C482.914 51.248 483.468 50.864 484.279 50.864C484.919 50.864 485.346 51.2053 485.559 51.888C485.772 52.528 485.879 54.0427 485.879 56.432C485.879 59.0347 485.751 62.6827 485.495 67.376C485.239 71.6427 485.09 75.1413 485.047 77.872C488.332 73.52 492.748 68.3787 498.295 62.448C498.892 61.8507 499.426 61.552 499.895 61.552C500.492 61.5947 500.791 61.8507 500.791 62.32C500.791 62.96 499.404 64.6453 496.631 67.376C492.45 71.3013 489.164 74.9493 486.775 78.32L486.199 79.088C485.516 79.7707 485.111 80.8373 484.983 82.288C484.898 83.2693 484.855 84.528 484.855 86.064C484.855 87.984 484.919 90.3733 485.047 93.232C485.218 96.304 485.303 99.0347 485.303 101.424C485.303 103.515 485.218 105.328 485.047 106.864C484.919 108.4 484.663 110.299 484.279 112.56C483.895 114.864 483.02 117.509 481.655 120.496C480.034 123.696 478.071 125.915 475.767 127.152C474.018 128.091 472.332 128.56 470.711 128.56ZM484.023 41.136C483.298 41.136 482.935 40.6027 482.935 39.536C482.935 38.384 483.575 37.7867 484.855 37.744C485.026 37.744 485.282 37.808 485.623 37.936C486.007 38.0213 486.242 38.4693 486.327 39.28C486.284 39.664 486.092 40.0267 485.751 40.368C485.196 40.88 484.62 41.136 484.023 41.136ZM502.111 63.536C503.007 63.536 503.988 62.9813 505.055 61.872L506.079 60.656C507.402 58.992 508.063 56.9653 508.063 54.576C508.063 52.8693 507.636 52.016 506.783 52.016C506.015 52.016 505.183 52.6773 504.287 54C502.666 56.432 501.684 59.6107 501.343 63.536H502.111ZM506.655 80.688C506.399 80.688 505.844 80.624 504.991 80.496C504.18 80.4107 503.22 79.8773 502.111 78.896C499.38 76.464 498.015 72.624 498.015 67.376C498.015 62.7253 498.996 58.8 500.959 55.6C503.007 52.144 504.906 50.416 506.655 50.416C507.508 50.416 508.191 50.864 508.703 51.76C509.215 52.6133 509.471 53.6587 509.471 54.896C509.471 55.4507 509.386 56.368 509.215 57.648C509.087 58.672 508.255 60.144 506.719 62.064C505.183 63.9413 503.626 64.88 502.047 64.88L501.215 64.816C501.13 65.6267 501.087 66.416 501.087 67.184C501.087 70.896 501.983 73.7547 503.775 75.76C504.714 76.8267 505.78 77.36 506.975 77.36C507.743 77.36 508.554 77.1253 509.407 76.656C511.071 75.5893 512.543 74.1387 513.823 72.304C515.146 70.4267 516.554 68.1867 518.047 65.584C519.071 63.7493 519.754 62.6187 520.095 62.192C520.266 61.8933 520.522 61.744 520.863 61.744C521.204 61.744 521.375 62 521.375 62.512C521.375 62.9387 521.14 63.6 520.671 64.496C518.196 68.976 516.447 72.0267 515.423 73.648C513.887 76.0373 512.18 77.936 510.303 79.344C509.066 80.24 507.85 80.688 506.655 80.688ZM521.444 79.792C520.633 79.792 520.015 79.2587 519.588 78.192C519.204 77.168 519.012 75.376 519.012 72.816C519.012 70.7253 519.14 68.1013 519.396 64.944C519.865 59.312 520.825 56.496 522.276 56.496C522.66 56.496 523.001 56.6027 523.3 56.816C523.641 57.0293 523.812 57.8613 523.812 59.312C523.812 62.4693 523.641 66.8427 523.3 72.432C525.476 64.1547 528.676 57.9253 532.9 53.744C534.308 52.3787 535.78 51.696 537.316 51.696C538.169 51.696 538.895 51.9947 539.492 52.592C540.089 53.1467 540.388 53.808 540.388 54.576C540.388 55.6427 540.047 56.176 539.364 56.176C538.852 56.176 538.255 55.8133 537.572 55.088C537.06 54.5333 536.591 54.2347 536.164 54.192C535.908 54.192 535.588 54.2773 535.204 54.448C532.857 55.728 530.361 59.0347 527.716 64.368C526.692 66.3733 525.711 69.5733 524.772 73.968C524.132 77.8507 523.023 79.792 521.444 79.792ZM547.361 63.536C548.257 63.536 549.238 62.9813 550.305 61.872L551.329 60.656C552.652 58.992 553.313 56.9653 553.313 54.576C553.313 52.8693 552.886 52.016 552.033 52.016C551.265 52.016 550.433 52.6773 549.537 54C547.916 56.432 546.934 59.6107 546.593 63.536H547.361ZM551.905 80.688C551.649 80.688 551.094 80.624 550.241 80.496C549.43 80.4107 548.47 79.8773 547.361 78.896C544.63 76.464 543.265 72.624 543.265 67.376C543.265 62.7253 544.246 58.8 546.209 55.6C548.257 52.144 550.156 50.416 551.905 50.416C552.758 50.416 553.441 50.864 553.953 51.76C554.465 52.6133 554.721 53.6587 554.721 54.896C554.721 55.4507 554.636 56.368 554.465 57.648C554.337 58.672 553.505 60.144 551.969 62.064C550.433 63.9413 548.876 64.88 547.297 64.88L546.465 64.816C546.38 65.6267 546.337 66.416 546.337 67.184C546.337 70.896 547.233 73.7547 549.025 75.76C549.964 76.8267 551.03 77.36 552.225 77.36C552.993 77.36 553.804 77.1253 554.657 76.656C556.321 75.5893 557.793 74.1387 559.073 72.304C560.396 70.4267 561.804 68.1867 563.297 65.584C564.321 63.7493 565.004 62.6187 565.345 62.192C565.516 61.8933 565.772 61.744 566.113 61.744C566.454 61.744 566.625 62 566.625 62.512C566.625 62.9387 566.39 63.6 565.921 64.496C563.446 68.976 561.697 72.0267 560.673 73.648C559.137 76.0373 557.43 77.936 555.553 79.344C554.316 80.24 553.1 80.688 551.905 80.688ZM573.478 94C574.331 94 575.291 93.7227 576.358 93.168C584.593 88.9867 589.307 82.7787 590.502 74.544C578.513 84.1013 572.518 90.2453 572.518 92.976C572.518 93.6587 572.838 94 573.478 94ZM573.798 95.536C571.963 95.536 571.046 94.7253 571.046 93.104C571.046 90.544 573.051 87.5787 577.062 84.208C578.897 82.416 581.542 80.1547 584.998 77.424C588.497 74.6933 590.331 73.2213 590.502 73.008V72.176C590.502 71.4933 590.054 70.7467 589.158 69.936C588.305 69.0827 586.811 68.656 584.678 68.656C583.398 68.656 582.033 68.784 580.582 69.04L575.782 70.32C571.857 71.5147 568.934 72.112 567.014 72.112C565.691 72.112 564.646 71.6853 563.878 70.832C563.11 69.9787 562.726 68.8907 562.726 67.568C563.238 61.7227 566.779 56.3253 573.35 51.376C575.995 49.4133 578.321 48.432 580.326 48.432C582.161 48.432 583.782 49.136 585.19 50.544C586.385 51.9093 586.982 53.552 586.982 55.472C586.811 58.0747 586.214 59.9093 585.19 60.976C584.635 61.5307 584.059 61.808 583.462 61.808C582.779 61.808 582.438 61.4027 582.438 60.592C582.438 60.0373 582.758 59.1413 583.398 57.904C584.209 56.1973 584.614 54.8107 584.614 53.744C584.614 51.696 583.633 50.672 581.67 50.672C579.622 50.928 577.595 52.144 575.59 54.32C573.585 56.496 571.835 58.928 570.342 61.616C568.849 64.2613 568.102 66.3307 568.102 67.824C568.102 68.6773 568.465 69.104 569.19 69.104C569.745 69.104 571.43 68.7627 574.246 68.08C578.47 67.056 581.926 66.544 584.614 66.544C584.955 66.544 585.723 66.5653 586.918 66.608C588.113 66.608 589.35 66.992 590.63 67.76C591.91 68.4853 592.721 69.616 593.062 71.152L605.67 62.192C606.31 61.808 606.822 61.616 607.206 61.616C607.761 61.616 608.038 61.8507 608.038 62.32C608.038 62.8747 607.718 63.344 607.078 63.728L593.19 72.624C592.934 77.9147 591.291 82.48 588.262 86.32C585.275 90.2027 581.457 93.0613 576.806 94.896C575.697 95.3227 574.694 95.536 573.798 95.536Z" fill="black"/>
</svg>
