<svg width="826" height="200" viewBox="0 0 826 200" fill="none" xmlns="http://www.w3.org/2000/svg">
<path d="M17.448 170.216C21.5187 170.216 25.6467 169.471 29.832 167.98C34.82 166.317 39.3207 164.311 43.334 161.96C52.106 156.743 60.018 150.637 67.07 143.642C77.6193 133.379 83.1233 124.063 83.582 115.692C83.582 109.5 80.2567 105.028 73.606 102.276C69.7073 100.843 65.2927 100.126 60.362 100.126C55.2593 100.126 51.59 100.269 49.354 100.556C47.5767 100.843 43.076 101.903 35.852 103.738L36.712 128.85L44.194 126.958C50.2713 125.295 54.772 124.464 57.696 124.464H58.212C59.1293 124.464 59.588 124.894 59.588 125.754C59.588 126.901 58.9573 127.503 57.696 127.56C53.8547 127.675 48.4367 128.305 41.442 129.452C39.1487 130.025 37.6867 130.341 37.056 130.398C37.056 131.889 37.1133 133.379 37.228 134.87L37.142 137.364C37.142 138.281 37.2567 139.227 37.486 140.202C37.6007 140.775 37.658 141.349 37.658 141.922C37.658 142.61 37.572 143.183 37.4 143.642C36.712 145.133 35.68 145.878 34.304 145.878C31.724 145.878 30.434 143.642 30.434 139.17C30.434 138.081 30.606 135.959 30.95 132.806C29.5167 133.494 28.5133 133.953 27.94 134.182C27.424 134.411 26.5353 134.87 25.274 135.558C18.4513 139.17 13.0333 143.642 9.02 148.974C6.15333 152.815 4.72 156.427 4.72 159.81C4.72 160.785 4.83467 161.989 5.064 163.422C5.29333 164.855 6.41133 166.346 8.418 167.894C10.7687 169.442 13.7787 170.216 17.448 170.216ZM17.018 174.946C15.47 174.946 13.234 174.659 10.31 174.086C7.44333 173.57 5.00667 171.907 3 169.098C1.50933 166.919 0.764 164.454 0.764 161.702C0.764 160.727 0.936 159.007 1.28 156.542C1.56667 154.478 3.22933 151.497 6.268 147.598C10.6827 142.094 16.5307 137.565 23.812 134.01C26.3347 132.749 28.0833 132.032 29.058 131.86C29.6887 131.688 30.1473 131.487 30.434 131.258C31.1793 130.627 31.7527 128.047 32.154 123.518C33.014 113.198 33.444 106.576 33.444 103.652C32.8707 103.251 32.3547 102.821 31.896 102.362C31.4373 101.903 31.208 101.301 31.208 100.556C31.208 99.18 31.7813 97.9473 32.928 96.858C34.4187 95.5393 35.3073 93.1887 35.594 89.806C35.8233 87.3407 35.938 84.5887 35.938 81.55C35.938 78.11 35.766 73.5807 35.422 67.962C35.1353 64.6367 34.992 62.1427 34.992 60.48C34.992 53.3707 36.4253 49.816 39.292 49.816C40.7253 49.816 41.442 50.8767 41.442 52.998C41.442 54.4313 41.1553 56.266 40.582 58.502C39.9513 61.082 39.3493 65.6113 38.776 72.09C38.604 73.6953 38.4893 75.358 38.432 77.078C38.432 78.798 38.2027 82.0087 37.744 86.71C37.572 87.8567 37.4573 88.6593 37.4 89.118C37.3427 89.5767 37.2567 90.064 37.142 90.58C37.0847 91.0387 37.056 91.5547 37.056 92.128C37.056 92.4147 37.1133 92.558 37.228 92.558C37.9733 92.558 40.324 90.2933 44.28 85.764L45.914 84.044C53.998 74.584 60.4193 65.296 65.178 56.18C68.8473 49.1853 70.9113 43.2513 71.37 38.378L71.456 35.196C71.456 33.648 70.51 32.1 68.618 30.552C66.726 29.004 63.8307 28.23 59.932 28.23C58.3267 28.23 56.4633 28.402 54.342 28.746C46.774 30.0647 39.4353 33.39 32.326 38.722C24.9873 44.3407 19.4547 50.8193 15.728 58.158C13.5493 62.286 12.374 65.812 12.202 68.736C12.202 71.8893 13.234 74.0967 15.298 75.358C15.8713 75.702 16.158 76.2753 16.158 77.078C16.158 77.4793 16.072 77.9667 15.9 78.54C15.0973 79.228 14.4667 79.572 14.008 79.572C13.2053 79.572 12.46 79.4 11.772 79.056C10.568 78.368 9.67933 77.508 9.106 76.476C8.59 75.444 8.332 73.896 8.332 71.832C8.332 65.468 11.772 58.0147 18.652 49.472C21.576 45.9747 24.5573 42.9933 27.596 40.528C29.8893 38.808 32.1827 37.174 34.476 35.626C38.7187 32.8167 43.5347 30.552 48.924 28.832C53.74 27.3413 57.9827 26.596 61.652 26.596C63.1427 26.596 64.8913 26.7967 66.898 27.198C68.9047 27.5993 70.768 28.746 72.488 30.638C74.1507 32.874 74.982 35.6547 74.982 38.98C74.982 44.2547 73.176 50.418 69.564 57.47L65.006 66.07C64.146 67.3313 63.544 68.3347 63.2 69.08C60.6773 73.2653 57.2947 78.11 53.052 83.614L43.592 95.31C49.096 94.794 52.7653 94.536 54.6 94.536C58.1547 94.536 62.1967 94.9373 66.726 95.74C71.3127 96.4853 75.1253 97.718 78.164 99.438C84.6427 103.623 87.882 109.127 87.882 115.95C87.882 124.091 83.5247 132.806 74.81 142.094C73.778 143.47 71.5133 145.821 68.016 149.146C58.1547 158.434 47.376 165.629 35.68 170.732C33.3867 171.707 31.466 172.395 29.918 172.796C24.9873 174.229 20.6873 174.946 17.018 174.946ZM101.301 108.21C102.275 107.235 104.167 104.283 106.977 99.352L109.127 95.74C111.019 92.0133 113.455 86.8533 116.437 80.26C119.418 73.6667 121.539 68.65 122.801 65.21C124.807 59.8207 126.441 54.0873 127.703 48.01C127.989 45.8887 128.133 44.5413 128.133 43.968C128.133 41.904 127.617 40.872 126.585 40.872C125.897 40.872 124.922 41.4453 123.661 42.592C120.909 45.0573 118.128 48.6693 115.319 53.428C113.484 56.4667 111.162 61.3973 108.353 68.22C104.798 77.336 102.533 87.4267 101.559 98.492C101.329 101.015 101.215 103.394 101.215 105.63L101.301 108.21ZM110.417 139.17C105.773 139.17 102.333 134.813 100.097 126.098C98.6634 120.537 97.9467 113.628 97.9467 105.372C97.9467 94.02 100.068 82.41 104.311 70.542C108.324 59.2473 113.398 50.332 119.533 43.796C122.571 40.356 125.065 38.636 127.015 38.636C128.735 38.636 129.595 40.1553 129.595 43.194C129.595 47.15 128.333 52.8833 125.811 60.394C124.148 65.382 120.737 73.9247 115.577 86.022C111.621 95.138 108.324 102.333 105.687 107.608L101.559 114.918C101.559 117.613 102.275 121.282 103.709 125.926C105.715 132.405 108.238 135.644 111.277 135.644C112.71 135.472 114.086 134.669 115.405 133.236C117.87 130.656 119.819 127.503 121.253 123.776C124.463 116.208 126.298 111.937 126.757 110.962C127.617 109.643 128.419 108.984 129.165 108.984C129.566 108.984 129.996 109.156 130.455 109.5C130.627 109.672 130.713 109.873 130.713 110.102C130.713 110.561 130.512 111.22 130.111 112.08L130.025 112.51C126.413 120.995 123.345 127.159 120.823 131C117.44 136.217 113.971 138.941 110.417 139.17ZM134.297 126.012C134.412 125.955 134.756 125.439 135.329 124.464C135.96 123.088 136.562 120.881 137.135 117.842L133.265 117.154C133.036 118.645 132.921 120.078 132.921 121.454C132.921 122.257 132.95 123.231 133.007 124.378C133.122 125.467 133.552 126.012 134.297 126.012ZM137.221 115.262L137.393 114.316L137.479 113.026C137.479 110.675 136.934 108.267 135.845 105.802C135.73 106.49 135.243 108.239 134.383 111.048C133.867 112.309 133.58 113.198 133.523 113.714C133.523 114.001 133.58 114.259 133.695 114.488C133.81 114.66 134.985 114.918 137.221 115.262ZM132.491 131.172C131.516 131.172 130.484 130.799 129.395 130.054C127.732 128.391 126.901 125.639 126.901 121.798C126.901 120.365 127.016 118.989 127.245 117.67C127.532 116.294 127.675 115.262 127.675 114.574C127.675 113.714 127.532 112.969 127.245 112.338C127.016 111.65 126.901 110.991 126.901 110.36C126.901 108.984 127.532 107.465 128.793 105.802C130.628 103.509 132.52 102.362 134.469 102.362C135.042 102.362 135.816 102.591 136.791 103.05C137.766 103.451 138.712 104.971 139.629 107.608C140.26 109.729 140.575 111.736 140.575 113.628L140.489 115.778C143.642 115.721 146.996 115.147 150.551 114.058C154.106 112.911 157.288 111.478 160.097 109.758C161.301 109.185 162.276 108.898 163.021 108.898C163.996 108.898 164.483 109.271 164.483 110.016L164.225 110.79C163.881 111.994 159.753 113.714 151.841 115.95C147.598 117.154 143.728 117.756 140.231 117.756C139.772 122.629 138.712 126.241 137.049 128.592C135.673 130.312 134.154 131.172 132.491 131.172ZM161.349 197.306C161.406 197.306 161.98 197.277 163.069 197.22C164.158 197.163 165.792 196.331 167.971 194.726C174.794 189.795 178.205 179.131 178.205 162.734C178.205 157.861 177.918 152.242 177.345 145.878C177.173 142.954 176.972 141.492 176.743 141.492C176.571 141.492 175.912 142.467 174.765 144.416C167.484 155.653 162.496 164.511 159.801 170.99C156.877 177.927 155.415 183.89 155.415 188.878C155.415 191.343 155.788 193.207 156.533 194.468C157.68 196.36 159.285 197.306 161.349 197.306ZM161.779 199.37C161.148 199.37 160.518 199.313 159.887 199.198C155.014 198.395 152.577 195.271 152.577 189.824C152.577 187.129 153.208 183.89 154.469 180.106C156.82 173.226 159.744 166.547 163.241 160.068C164.388 158.176 165.448 156.341 166.423 154.564C167.742 152.156 170.494 147.713 174.679 141.234C176.055 138.826 176.743 137.049 176.743 135.902L176.657 134.354C176.37 130.283 176.227 125.754 176.227 120.766C176.227 117.727 176.284 114.488 176.399 111.048C174.679 116.036 172.529 120.938 169.949 125.754C168.63 128.334 167.283 129.739 165.907 129.968L164.789 130.054C162.152 130.054 160.46 127.818 159.715 123.346C159.658 122.715 159.629 122.027 159.629 121.282C159.629 116.065 161.005 110.245 163.757 103.824C165.649 99.868 167.742 97.0587 170.035 95.396C172.099 93.9053 173.819 93.16 175.195 93.16C176.628 93.16 177.746 93.504 178.549 94.192C179.352 94.8227 179.753 95.5393 179.753 96.342C179.753 98.1193 179.008 99.008 177.517 99.008L176.399 98.836C172.5 98.836 169.49 105.286 167.369 118.186C166.91 120.881 166.652 122.744 166.595 123.776C166.595 124.521 166.71 124.894 166.939 124.894C167.57 124.665 168.401 123.26 169.433 120.68C173.274 111.965 175.482 107.092 176.055 106.06C176.686 104.971 177.202 104.197 177.603 103.738C178.062 103.279 178.721 103.05 179.581 103.05C180.441 103.05 181.014 103.48 181.301 104.34C181.645 105.544 181.817 107.665 181.817 110.704C181.817 112.481 181.76 114.631 181.645 117.154C181.301 122.887 181.129 127.589 181.129 131.258C185.544 125.41 191.535 118.415 199.103 110.274C199.848 109.471 200.536 109.07 201.167 109.07C202.027 109.127 202.457 109.5 202.457 110.188C202.457 110.991 200.508 113.313 196.609 117.154C190.99 122.429 186.576 127.331 183.365 131.86C183.193 132.204 182.935 132.548 182.591 132.892C181.731 133.809 181.215 135.243 181.043 137.192C180.928 138.511 180.871 140.259 180.871 142.438C180.871 145.018 180.957 148.2 181.129 151.984C181.358 155.768 181.473 159.208 181.473 162.304C181.473 167.407 181.014 172.595 180.097 177.87C179.581 180.966 178.377 184.521 176.485 188.534C174.364 192.834 171.726 195.815 168.573 197.478C166.222 198.739 163.958 199.37 161.779 199.37ZM372.384 186.47C367.396 186.47 362.293 178.042 357.076 161.186C355.299 155.395 354.181 151.181 353.722 148.544C353.435 146.881 353.206 145.763 353.034 145.19C350.11 129.825 348.447 112.969 348.046 94.622C348.046 82.066 348.591 73.1793 349.68 67.962C350.139 63.9487 350.511 61.2253 350.798 59.792C351.142 58.3013 351.429 56.4093 351.658 54.116C351.199 55.2053 349.68 59.1613 347.1 65.984C343.201 77.2213 340.22 85.7067 338.156 91.44C336.092 97.116 330.932 110.131 322.676 130.484C323.765 130.484 324.912 130.341 326.116 130.054C326.575 129.939 329.671 129.481 335.404 128.678C337.64 128.391 340.191 128.219 343.058 128.162C343.975 128.162 344.434 128.477 344.434 129.108C344.434 129.509 344.176 129.882 343.66 130.226C343.201 130.513 340.22 131.143 334.716 132.118L327.234 133.838C325.113 134.182 323.565 134.526 322.59 134.87C321.673 135.214 321.013 135.701 320.612 136.332C320.211 136.963 319.838 137.937 319.494 139.256C318.749 141.377 316.943 145.706 314.076 152.242C311.209 158.778 309.203 162.046 308.056 162.046C307.311 162.046 306.938 161.702 306.938 161.014C306.938 159.638 307.999 157.001 310.12 153.102C314.42 144.043 316.857 138.453 317.43 136.332C314.621 136.905 313.015 137.192 312.614 137.192C311.295 137.192 310.636 136.504 310.636 135.128C310.636 133.637 312.729 132.462 316.914 131.602C317.946 131.487 318.691 131.344 319.15 131.172C319.609 131.057 320.01 130.484 320.354 129.452C320.698 128.42 321.071 127.445 321.472 126.528C333.684 96.1413 341.281 76.304 344.262 67.016C350.11 50.7907 353.751 39.754 355.184 33.906C356.216 29.8927 357.42 27.886 358.796 27.886C358.911 27.886 359.169 27.9433 359.57 28.058C360.029 28.1727 360.401 28.6027 360.688 29.348C361.032 30.0933 361.204 30.81 361.204 31.498L357.506 53.6C356.99 56.008 356.531 58.4733 356.13 60.996C355.958 63.232 355.671 65.468 355.27 67.704C354.066 76.0747 353.321 81.8367 353.034 84.99C352.403 91.9847 352.088 98.836 352.088 105.544C352.088 110.819 352.375 116.695 352.948 123.174L353.12 124.292C353.751 132.032 354.783 138.969 356.216 145.104C358.853 156.456 361.949 165.515 365.504 172.28C368.199 177.727 370.377 180.794 372.04 181.482C372.155 181.253 372.384 181.138 372.728 181.138C374.276 181.482 375.05 182.399 375.05 183.89C375.05 184.693 374.763 185.323 374.19 185.782C373.617 186.241 373.015 186.47 372.384 186.47ZM363.612 19.114C364.185 19.114 364.816 18.7987 365.504 18.168C366.995 16.448 367.74 13.954 367.74 10.686C367.74 7.13133 367.052 4.80933 365.676 3.72C365.561 4.236 364.386 5.72666 362.15 8.19199C361.233 9.91199 360.774 11.7753 360.774 13.782C360.774 15.7887 361.261 17.3653 362.236 18.512C362.637 18.9133 363.096 19.114 363.612 19.114ZM362.752 22.21C360 22.21 357.936 20.6047 356.56 17.394C355.987 16.1327 355.7 14.6707 355.7 13.008C355.7 9.33866 356.617 6.18532 358.452 3.54799C360.057 1.19732 361.978 0.0219896 364.214 0.0219896C365.303 0.0793256 366.278 0.709994 367.138 1.914C368.801 4.32199 369.632 7.27466 369.632 10.772C369.632 14.384 368.858 17.2793 367.31 19.458C366.049 21.2927 364.529 22.21 362.752 22.21ZM371.448 133.408C370.359 133.408 369.528 132.691 368.954 131.258C368.438 129.882 368.18 127.474 368.18 124.034C368.18 121.225 368.352 117.699 368.696 113.456C369.327 105.888 370.617 102.104 372.566 102.104C373.082 102.104 373.541 102.247 373.942 102.534C374.401 102.821 374.63 103.939 374.63 105.888C374.63 110.131 374.401 116.007 373.942 123.518C376.866 112.395 381.166 104.025 386.842 98.406C388.734 96.5713 390.712 95.654 392.776 95.654C393.923 95.654 394.898 96.0553 395.7 96.858C396.503 97.6033 396.904 98.492 396.904 99.524C396.904 100.957 396.446 101.674 395.528 101.674C394.84 101.674 394.038 101.187 393.12 100.212C392.432 99.4667 391.802 99.0653 391.228 99.008C390.884 99.008 390.454 99.1227 389.938 99.352C386.785 101.072 383.431 105.515 379.876 112.682C378.5 115.377 377.182 119.677 375.92 125.582C375.06 130.799 373.57 133.408 371.448 133.408ZM406.274 111.564C407.478 111.564 408.797 110.819 410.23 109.328L411.606 107.694C413.383 105.458 414.272 102.735 414.272 99.524C414.272 97.2307 413.699 96.084 412.552 96.084C411.52 96.084 410.402 96.9727 409.198 98.75C407.019 102.018 405.701 106.289 405.242 111.564H406.274ZM412.38 134.612C412.036 134.612 411.291 134.526 410.144 134.354C409.055 134.239 407.765 133.523 406.274 132.204C402.605 128.936 400.77 123.776 400.77 116.724C400.77 110.475 402.089 105.2 404.726 100.9C407.478 96.256 410.029 93.934 412.38 93.934C413.527 93.934 414.444 94.536 415.132 95.74C415.82 96.8867 416.164 98.2913 416.164 99.954C416.164 100.699 416.049 101.932 415.82 103.652C415.648 105.028 414.53 107.006 412.466 109.586C410.402 112.109 408.309 113.37 406.188 113.37L405.07 113.284C404.955 114.373 404.898 115.434 404.898 116.466C404.898 121.454 406.102 125.295 408.51 127.99C409.771 129.423 411.205 130.14 412.81 130.14C413.842 130.14 414.931 129.825 416.078 129.194C418.314 127.761 420.292 125.811 422.012 123.346C423.789 120.823 425.681 117.813 427.688 114.316C429.064 111.851 429.981 110.331 430.44 109.758C430.669 109.357 431.013 109.156 431.472 109.156C431.931 109.156 432.16 109.5 432.16 110.188C432.16 110.761 431.845 111.65 431.214 112.854C427.889 118.874 425.538 122.973 424.162 125.152C422.098 128.363 419.805 130.914 417.282 132.806C415.619 134.01 413.985 134.612 412.38 134.612ZM472.26 141.492C468.934 141.492 467.071 138.912 466.67 133.752C466.612 132.663 466.584 131.459 466.584 130.14C466.584 122.916 467.501 114.975 469.336 106.318L469.508 105.2C470.54 100.556 471.514 97.4313 472.432 95.826C473.349 94.1633 474.41 93.332 475.614 93.332C476.646 93.332 477.362 93.7333 477.764 94.536C478.165 95.2813 478.366 96.4567 478.366 98.062C478.366 98.75 477.878 104.827 476.904 116.294L478.538 113.8C480.774 109.844 483.01 107.866 485.246 107.866C487.252 107.866 488.944 110.245 490.32 115.004L492.384 120.078C492.785 120.881 493.158 121.282 493.502 121.282C494.82 121.282 496.655 119.218 499.006 115.09L500.296 112.94C501.614 111.105 503.019 110.188 504.51 110.188C505.599 110.188 506.746 110.675 507.95 111.65C508.867 112.51 509.87 113.657 510.96 115.09C513.425 118.473 515.26 120.164 516.464 120.164C517.668 120.164 519.416 118.329 521.71 114.66C524.003 110.933 525.637 109.07 526.612 109.07C527.242 109.07 527.558 109.443 527.558 110.188C527.558 110.475 527.5 110.79 527.386 111.134C526.411 112.682 525.78 113.743 525.494 114.316C523.946 117.24 522.312 119.533 520.592 121.196C519.158 122.629 517.811 123.346 516.55 123.346C514.142 123.346 511.074 120.737 507.348 115.52L505.8 113.542C505.742 113.542 505.714 113.513 505.714 113.456C505.198 112.825 504.739 112.51 504.338 112.51C504.166 112.51 503.936 112.625 503.65 112.854C502.388 113.886 501.156 115.663 499.952 118.186C499.149 119.906 498.203 121.454 497.114 122.83C496.024 124.149 494.448 124.865 492.384 124.98C489.804 124.98 487.797 122.658 486.364 118.014C486.077 117.154 485.647 115.491 485.074 113.026C484.959 112.682 484.844 112.367 484.73 112.08C484.672 111.736 484.529 111.564 484.3 111.564C484.128 111.564 483.87 111.736 483.526 112.08C481.29 114.832 479.627 119.017 478.538 124.636C478.022 126.241 477.592 128.449 477.248 131.258C476.674 137.851 475.012 141.263 472.26 141.492ZM532.047 126.012C532.162 125.955 532.506 125.439 533.079 124.464C533.71 123.088 534.312 120.881 534.885 117.842L531.015 117.154C530.786 118.645 530.671 120.078 530.671 121.454C530.671 122.257 530.7 123.231 530.757 124.378C530.872 125.467 531.302 126.012 532.047 126.012ZM534.971 115.262L535.143 114.316L535.229 113.026C535.229 110.675 534.684 108.267 533.595 105.802C533.48 106.49 532.993 108.239 532.133 111.048C531.617 112.309 531.33 113.198 531.273 113.714C531.273 114.001 531.33 114.259 531.445 114.488C531.56 114.66 532.735 114.918 534.971 115.262ZM530.241 131.172C529.266 131.172 528.234 130.799 527.145 130.054C525.482 128.391 524.651 125.639 524.651 121.798C524.651 120.365 524.766 118.989 524.995 117.67C525.282 116.294 525.425 115.262 525.425 114.574C525.425 113.714 525.282 112.969 524.995 112.338C524.766 111.65 524.651 110.991 524.651 110.36C524.651 108.984 525.282 107.465 526.543 105.802C528.378 103.509 530.27 102.362 532.219 102.362C532.792 102.362 533.566 102.591 534.541 103.05C535.516 103.451 536.462 104.971 537.379 107.608C538.01 109.729 538.325 111.736 538.325 113.628L538.239 115.778C541.392 115.721 544.746 115.147 548.301 114.058C551.856 112.911 555.038 111.478 557.847 109.758C559.051 109.185 560.026 108.898 560.771 108.898C561.746 108.898 562.233 109.271 562.233 110.016L561.975 110.79C561.631 111.994 557.503 113.714 549.591 115.95C545.348 117.154 541.478 117.756 537.981 117.756C537.522 122.629 536.462 126.241 534.799 128.592C533.423 130.312 531.904 131.172 530.241 131.172ZM584.383 145.362C584.039 145.362 583.322 145.19 582.233 144.846C581.201 144.559 580.14 143.355 579.051 141.234C576.872 136.819 575.783 130.914 575.783 123.518C575.783 121.053 575.898 118.415 576.127 115.606C572.515 125.467 569.046 130.398 565.721 130.398C564.402 130.398 563.342 130.054 562.539 129.366C560.016 127.015 558.755 122.916 558.755 117.068C558.755 115.807 558.812 114.431 558.927 112.94C559.73 104.397 561.478 100.126 564.173 100.126C565.492 100.241 566.18 100.957 566.237 102.276C566.18 103.079 566.065 103.738 565.893 104.254C565.262 106.605 564.746 109.959 564.345 114.316C564.23 115.635 564.173 116.839 564.173 117.928C564.173 120.508 564.488 122.658 565.119 124.378C565.922 125.754 566.667 126.471 567.355 126.528C568.903 125.955 570.881 122.429 573.289 115.95C574.78 111.937 575.754 109.127 576.213 107.522C576.557 106.375 576.93 105.286 577.331 104.254C577.732 103.222 578.621 102.706 579.997 102.706C580.8 102.763 581.201 103.337 581.201 104.426V104.856C579.137 112.653 578.105 119.161 578.105 124.378C578.105 128.162 578.707 132.147 579.911 136.332C581.115 140.517 582.806 142.61 584.985 142.61C586.934 142.209 588.74 139.428 590.403 134.268C591.779 129.853 593.184 122.285 594.617 111.564C594.904 109.901 595.62 109.07 596.767 109.07C597.627 109.07 598.057 109.586 598.057 110.618C598.057 111.994 597.426 115.52 596.165 121.196C593.814 131.745 591.378 138.883 588.855 142.61C587.307 144.445 585.816 145.362 584.383 145.362ZM597.636 133.494C594.884 133.093 593.508 129.337 593.508 122.228C593.508 120.623 593.594 118.845 593.766 116.896C594.856 104.799 597.264 98.75 600.99 98.75C602.424 98.75 603.14 99.5813 603.14 101.244L602.968 103.222C602.223 106.777 601.564 111.793 600.99 118.272L600.302 123.088C600.302 123.317 600.331 123.432 600.388 123.432C600.503 123.432 600.876 122.715 601.506 121.282C605.004 112.625 608.616 108.296 612.342 108.296C613.088 108.296 614.062 108.611 615.266 109.242C616.528 109.815 618.076 111.707 619.91 114.918C622.146 118.874 624.44 120.852 626.79 120.852C627.478 120.852 628.31 120.594 629.284 120.078C630.259 119.505 631.291 118.473 632.38 116.982C633.527 115.434 634.559 113.886 635.476 112.338C635.992 111.478 636.451 110.733 636.852 110.102C637.311 109.471 637.77 109.156 638.228 109.156C638.974 109.213 639.346 109.615 639.346 110.36C639.346 110.819 639.232 111.306 639.002 111.822C637.97 114.173 636.451 116.667 634.444 119.304C631.578 123.031 628.711 124.894 625.844 124.894C623.15 124.493 621.086 123.432 619.652 121.712C618.219 119.935 617.044 117.928 616.126 115.692C614.636 112.653 613.145 111.134 611.654 111.134C609.074 111.134 606.552 114.803 604.086 122.142L602.366 128.076C601.965 129.28 601.42 130.455 600.732 131.602C600.102 132.749 599.07 133.379 597.636 133.494ZM651.41 158.004C650.034 158.004 648.601 157.431 647.11 156.284C644.645 154.22 642.696 151.239 641.262 147.34C638.281 139.313 636.79 128.764 636.79 115.692C636.79 111.392 637.192 104.971 637.994 96.428C640.058 83.4133 641.578 75.014 642.552 71.23C641.348 71.3447 636.618 72.6347 628.362 75.1C620.106 77.508 614.86 78.712 612.624 78.712C610.79 78.712 609.872 78.024 609.872 76.648C609.872 75.5587 610.302 74.5553 611.162 73.638C611.965 72.6633 612.968 72.1473 614.172 72.09C615.032 72.09 615.462 72.434 615.462 73.122C615.462 73.6953 615.262 74.326 614.86 75.014C615.491 74.9567 624.922 72.864 643.154 68.736C643.957 65.124 644.76 62.63 645.562 61.254C645.62 60.738 645.964 59.7633 646.594 58.33C647.282 56.8393 648.142 56.094 649.174 56.094C650.264 56.094 650.808 56.696 650.808 57.9C650.808 58.3587 650.694 58.932 650.464 59.62C649.203 63.6907 648.572 66.2707 648.572 67.36C648.572 67.532 648.63 67.618 648.744 67.618L655.28 66.328C661.988 64.8373 668.123 63.7767 673.684 63.146C681.998 61.8847 688.992 61.254 694.668 61.254C696.388 61.254 698.739 61.3687 701.72 61.598C705.046 61.77 708.027 62.802 710.664 64.694C711.696 65.554 712.212 66.5 712.212 67.532C712.212 68.6213 711.754 69.4527 710.836 70.026C710.607 70.198 710.378 70.284 710.148 70.284C709.69 70.284 709.46 70.0833 709.46 69.682C709.518 69.4527 709.604 69.1947 709.718 68.908C709.89 68.564 709.976 68.22 709.976 67.876C709.976 66.5573 707.912 65.4107 703.784 64.436C699.37 63.6907 694.984 63.318 690.626 63.318C681.625 63.318 668.238 65.21 650.464 68.994C649.604 69.166 648.974 69.3667 648.572 69.596C647.942 69.9973 646.365 78.1387 643.842 94.02C642.925 101.072 642.466 108.984 642.466 117.756C642.466 127.789 643.871 136.991 646.68 145.362C648.4 150.465 650.378 153.159 652.614 153.446C654.85 153.446 657.344 149.863 660.096 142.696C661.587 138.683 662.533 135.873 662.934 134.268C663.909 131.287 665.228 124.693 666.89 114.488C667.005 113.284 667.234 111.879 667.578 110.274C667.922 109.299 668.61 108.812 669.642 108.812L670.244 108.898C670.932 109.013 671.276 109.529 671.276 110.446C671.276 111.535 670.961 112.94 670.33 114.66C669.7 116.323 668.782 120.193 667.578 126.27C664.712 141.005 661.1 150.694 656.742 155.338C655.137 157.115 653.36 158.004 651.41 158.004ZM667.439 128.678C664.343 128.391 662.795 126.528 662.795 123.088C662.795 119.82 663.741 116.466 665.633 113.026C667.066 110.274 668.385 108.21 669.589 106.834C673.143 102.821 676.44 100.814 679.479 100.814C680.339 100.814 681.055 101.015 681.629 101.416C682.718 101.989 683.263 102.878 683.263 104.082C683.263 104.999 682.976 105.687 682.403 106.146C681.887 106.547 681.227 106.949 680.425 107.35C675.953 109.357 672.484 112.911 670.019 118.014C669.159 119.849 668.528 121.999 668.127 124.464C669.732 124.12 671.653 121.941 673.889 117.928C674.806 116.38 675.723 114.975 676.641 113.714C677.902 112.109 679.135 111.306 680.339 111.306C681.829 111.306 683.635 112.883 685.757 116.036C688.279 119.419 690.257 121.11 691.691 121.11C695.761 121.11 699.574 117.555 703.129 110.446C703.587 109.529 704.161 109.07 704.849 109.07C705.537 109.07 705.881 109.357 705.881 109.93C705.881 110.274 705.795 110.618 705.623 110.962C700.577 119.505 696.105 123.776 692.207 123.776C691.92 123.776 691.232 123.69 690.143 123.518C689.111 123.346 687.878 122.572 686.445 121.196C685.011 119.763 683.779 118.301 682.747 116.81C681.715 115.262 680.769 114.144 679.909 113.456C679.106 114.431 678.533 115.233 678.189 115.864C677.902 116.437 677.501 117.154 676.985 118.014C673.315 125.123 670.133 128.678 667.439 128.678ZM712.85 80.862C711.589 80.862 710.958 80.174 710.958 78.798C710.958 77.9953 711.159 77.4507 711.56 77.164C712.133 76.7053 712.735 76.476 713.366 76.476C714.685 76.476 715.344 77.2213 715.344 78.712C715.344 79.4 715.086 79.9447 714.57 80.346C714.054 80.69 713.481 80.862 712.85 80.862ZM713.452 129.366C712.019 129.309 710.557 128.793 709.066 127.818C707.575 126.843 706.314 125.439 705.282 123.604C703.734 121.024 702.96 118.014 702.96 114.574C702.96 112.969 703.046 111.306 703.218 109.586C703.39 107.579 704.049 105.286 705.196 102.706C706.4 99.782 707.604 98.32 708.808 98.32C710.815 98.32 711.818 99.0653 711.818 100.556C711.818 101.187 711.331 103.193 710.356 106.576C709.668 109.557 709.324 112.625 709.324 115.778C709.324 118.243 709.611 120.508 710.184 122.572C711.159 125.381 712.449 126.786 714.054 126.786C715.659 126.786 717.351 125.611 719.128 123.26C721.307 120.279 723.027 116.982 724.288 113.37C725.091 110.503 726.037 109.07 727.126 109.07C727.699 109.07 727.986 109.5 727.986 110.36C727.986 112.08 726.983 114.832 724.976 118.616C721.192 125.783 717.351 129.366 713.452 129.366ZM728.232 133.494C725.48 133.093 724.104 129.337 724.104 122.228C724.104 120.623 724.19 118.845 724.362 116.896C725.451 104.799 727.859 98.75 731.586 98.75C733.019 98.75 733.736 99.5813 733.736 101.244L733.564 103.222C732.819 106.777 732.159 111.793 731.586 118.272L730.898 123.088C730.898 123.317 730.927 123.432 730.984 123.432C731.099 123.432 731.471 122.715 732.102 121.282C735.599 112.625 739.211 108.296 742.938 108.296C743.683 108.296 744.658 108.611 745.862 109.242C747.123 109.815 748.671 111.707 750.506 114.918C752.742 118.874 755.035 120.852 757.386 120.852C758.074 120.852 758.905 120.594 759.88 120.078C760.855 119.505 761.887 118.473 762.976 116.982C764.123 115.434 765.155 113.886 766.072 112.338C766.588 111.478 767.047 110.733 767.448 110.102C767.907 109.471 768.365 109.156 768.824 109.156C769.569 109.213 769.942 109.615 769.942 110.36C769.942 110.819 769.827 111.306 769.598 111.822C768.566 114.173 767.047 116.667 765.04 119.304C762.173 123.031 759.307 124.894 756.44 124.894C753.745 124.493 751.681 123.432 750.248 121.712C748.815 119.935 747.639 117.928 746.722 115.692C745.231 112.653 743.741 111.134 742.25 111.134C739.67 111.134 737.147 114.803 734.682 122.142L732.962 128.076C732.561 129.28 732.016 130.455 731.328 131.602C730.697 132.749 729.665 133.379 728.232 133.494ZM778.566 152.5C779.713 152.5 781.003 152.127 782.436 151.382C793.501 145.763 799.837 137.421 801.442 126.356C785.331 139.199 777.276 147.455 777.276 151.124C777.276 152.041 777.706 152.5 778.566 152.5ZM778.996 154.564C776.531 154.564 775.298 153.475 775.298 151.296C775.298 147.856 777.993 143.871 783.382 139.342C785.847 136.934 789.402 133.895 794.046 130.226C798.747 126.557 801.213 124.579 801.442 124.292V123.174C801.442 122.257 800.84 121.253 799.636 120.164C798.489 119.017 796.483 118.444 793.616 118.444C791.896 118.444 790.061 118.616 788.112 118.96L781.662 120.68C776.387 122.285 772.46 123.088 769.88 123.088C768.103 123.088 766.698 122.515 765.666 121.368C764.634 120.221 764.118 118.759 764.118 116.982C764.806 109.127 769.565 101.875 778.394 95.224C781.949 92.5867 785.073 91.268 787.768 91.268C790.233 91.268 792.412 92.214 794.304 94.106C795.909 95.9407 796.712 98.148 796.712 100.728C796.483 104.225 795.68 106.691 794.304 108.124C793.559 108.869 792.785 109.242 791.982 109.242C791.065 109.242 790.606 108.697 790.606 107.608C790.606 106.863 791.036 105.659 791.896 103.996C792.985 101.703 793.53 99.8393 793.53 98.406C793.53 95.654 792.211 94.278 789.574 94.278C786.822 94.622 784.099 96.256 781.404 99.18C778.709 102.104 776.359 105.372 774.352 108.984C772.345 112.539 771.342 115.319 771.342 117.326C771.342 118.473 771.829 119.046 772.804 119.046C773.549 119.046 775.814 118.587 779.598 117.67C785.274 116.294 789.918 115.606 793.53 115.606C793.989 115.606 795.021 115.635 796.626 115.692C798.231 115.692 799.894 116.208 801.614 117.24C803.334 118.215 804.423 119.734 804.882 121.798L821.824 109.758C822.684 109.242 823.372 108.984 823.888 108.984C824.633 108.984 825.006 109.299 825.006 109.93C825.006 110.675 824.576 111.306 823.716 111.822L805.054 123.776C804.71 130.885 802.503 137.02 798.432 142.18C794.419 147.397 789.287 151.239 783.038 153.704C781.547 154.277 780.2 154.564 778.996 154.564Z" fill="black"/>
</svg>
