<svg width="136" height="74" viewBox="0 0 136 74" fill="none" xmlns="http://www.w3.org/2000/svg">
<path d="M12.276 46.952L12.348 46.016C12.444 45.032 12.504 43.988 12.528 42.884C12.6 41.348 12.756 39.32 12.996 36.8C12.396 36.896 10.98 37.316 8.748 38.06C6.9 38.732 5.352 39.2 4.104 39.464C3.504 39.584 3.204 39.716 3.204 39.86C3.204 39.956 3.396 40.076 3.78 40.22C5.364 40.94 6.816 41.828 8.136 42.884C8.592 43.244 9.972 44.6 12.276 46.952ZM31.68 28.448C32.88 28.112 34.524 26.864 36.612 24.704C39.156 22.088 40.836 19.016 41.652 15.488C42.18 13.184 42.564 10.784 42.804 8.288C42.924 8 42.984 7.304 42.984 6.2C42.984 4.064 42.696 2.516 42.12 1.556C41.928 1.22 41.688 1.052 41.4 1.052C41.112 1.052 40.668 1.316 40.068 1.844C39.492 2.348 38.544 4.28 37.224 7.64C36.768 8.624 36.096 10.484 35.208 13.22C33.6 18.092 32.424 23.168 31.68 28.448ZM29.664 73.628C29.304 73.628 28.98 73.484 28.692 73.196C27.732 72.14 27.156 70.136 26.964 67.184C26.844 65.528 26.784 63.776 26.784 61.928C26.784 56.384 27.048 50.564 27.576 44.468C27.984 39.716 28.344 36.596 28.656 35.108C28.896 33.86 29.1 32.42 29.268 30.788C25.044 32.468 22.056 33.596 20.304 34.172C17.616 35.012 16.116 35.528 15.804 35.72C15.732 35.768 15.636 36.536 15.516 38.024C15.084 42.92 14.868 46.556 14.868 48.932C14.868 50.324 14.94 51.284 15.084 51.812C15.828 53.228 16.2 54.608 16.2 55.952C16.2 56.168 16.188 56.384 16.164 56.6C16.164 56.84 16.104 57.188 15.984 57.644C15.888 58.1 15.42 58.34 14.58 58.364C13.092 58.172 12.348 55.7 12.348 50.948V50.552C12.348 50.216 12.324 49.88 12.276 49.544C12.252 49.232 11.988 48.728 11.484 48.032C10.5 46.352 8.988 44.744 6.948 43.208C5.58 42.152 4.14 41.384 2.628 40.904C2.556 40.904 2.436 40.88 2.268 40.832C2.1 40.784 1.872 40.724 1.584 40.652C0.84 40.46 0.432 40.244 0.36 40.004C0.384 39.788 0.432 39.644 0.504 39.572C0.696 39.428 0.984 39.32 1.368 39.248C3.36 38.744 5.496 38.144 7.776 37.448C10.68 36.416 12.408 35.864 12.96 35.792C13.392 32.24 13.656 30.272 13.752 29.888C13.896 29.312 14.004 28.664 14.076 27.944C14.34 26 14.796 23.564 15.444 20.636C16.332 16.628 17.244 13.304 18.18 10.664C18.876 8.912 19.62 8.036 20.412 8.036C20.94 8.084 21.204 8.42 21.204 9.044C21.204 9.38 20.892 10.832 20.268 13.4C17.868 23.576 16.404 30.644 15.876 34.604C16.476 34.532 18.204 33.98 21.06 32.948C25.428 31.46 28.116 30.44 29.124 29.888C29.46 29.672 29.652 29.3 29.7 28.772C29.772 27.86 29.964 26.696 30.276 25.28L30.636 23.624C31.308 20.384 32.1 17.336 33.012 14.48C33.876 11.768 35.028 8.924 36.468 5.948C38.316 2.132 39.948 0.223997 41.364 0.223997C42.156 0.271996 42.756 1.052 43.164 2.564C43.404 3.476 43.524 4.664 43.524 6.128C43.524 10.328 42.792 14.42 41.328 18.404C40.104 21.62 38.316 24.296 35.964 26.432C33.996 28.256 32.472 29.3 31.392 29.564C31.224 30.908 30.984 32.54 30.672 34.46C30.456 35.876 30.24 37.784 30.024 40.184L29.844 44.144C29.532 47.6 29.376 50.972 29.376 54.26C29.376 57.284 29.508 60.236 29.772 63.116C30.204 66.836 30.444 69.08 30.492 69.848C30.54 70.616 30.624 71.324 30.744 71.972C30.792 72.092 30.816 72.236 30.816 72.404V72.548C30.816 73.268 30.432 73.628 29.664 73.628ZM39.9434 23.012C39.4154 23.012 39.1514 22.724 39.1514 22.148C39.1514 21.812 39.2354 21.584 39.4034 21.464C39.6434 21.272 39.8954 21.176 40.1594 21.176C40.7114 21.176 40.9874 21.488 40.9874 22.112C40.9874 22.4 40.8794 22.628 40.6634 22.796C40.4474 22.94 40.2074 23.012 39.9434 23.012ZM40.1954 43.316C39.5954 43.292 38.9834 43.076 38.3594 42.668C37.7354 42.26 37.2074 41.672 36.7754 40.904C36.1274 39.824 35.8034 38.564 35.8034 37.124C35.8034 36.452 35.8394 35.756 35.9114 35.036C35.9834 34.196 36.2594 33.236 36.7394 32.156C37.2434 30.932 37.7474 30.32 38.2514 30.32C39.0914 30.32 39.5114 30.632 39.5114 31.256C39.5114 31.52 39.3074 32.36 38.8994 33.776C38.6114 35.024 38.4674 36.308 38.4674 37.628C38.4674 38.66 38.5874 39.608 38.8274 40.472C39.2354 41.648 39.7754 42.236 40.4474 42.236C41.1194 42.236 41.8274 41.744 42.5714 40.76C43.4834 39.512 44.2034 38.132 44.7314 36.62C45.0674 35.42 45.4634 34.82 45.9194 34.82C46.1594 34.82 46.2794 35 46.2794 35.36C46.2794 36.08 45.8594 37.232 45.0194 38.816C43.4354 41.816 41.8274 43.316 40.1954 43.316ZM67.5214 55.304C66.9454 55.304 66.3454 55.064 65.7214 54.584C64.6894 53.72 63.8734 52.472 63.2734 50.84C62.0254 47.48 61.4014 43.064 61.4014 37.592C61.4014 35.792 61.5694 33.104 61.9054 29.528C62.7694 24.08 63.4054 20.564 63.8134 18.98C63.3094 19.028 61.3294 19.568 57.8734 20.6C54.4174 21.608 52.2214 22.112 51.2854 22.112C50.5174 22.112 50.1334 21.824 50.1334 21.248C50.1334 20.792 50.3134 20.372 50.6734 19.988C51.0094 19.58 51.4294 19.364 51.9334 19.34C52.2934 19.34 52.4734 19.484 52.4734 19.772C52.4734 20.012 52.3894 20.276 52.2214 20.564C52.4854 20.54 56.4334 19.664 64.0654 17.936C64.4014 16.424 64.7374 15.38 65.0734 14.804C65.0974 14.588 65.2414 14.18 65.5054 13.58C65.7934 12.956 66.1534 12.644 66.5854 12.644C67.0414 12.644 67.2694 12.896 67.2694 13.4C67.2694 13.592 67.2214 13.832 67.1254 14.12C66.5974 15.824 66.3334 16.904 66.3334 17.36C66.3334 17.432 66.3574 17.468 66.4054 17.468L69.1414 16.928C71.9494 16.304 74.5174 15.86 76.8454 15.596C80.3254 15.068 83.2534 14.804 85.6294 14.804C86.3494 14.804 87.3334 14.852 88.5814 14.948C89.9734 15.02 91.2214 15.452 92.3254 16.244C92.7574 16.604 92.9734 17 92.9734 17.432C92.9734 17.888 92.7814 18.236 92.3974 18.476C92.3014 18.548 92.2054 18.584 92.1094 18.584C91.9174 18.584 91.8214 18.5 91.8214 18.332C91.8454 18.236 91.8814 18.128 91.9294 18.008C92.0014 17.864 92.0374 17.72 92.0374 17.576C92.0374 17.024 91.1734 16.544 89.4454 16.136C87.5974 15.824 85.7614 15.668 83.9374 15.668C80.1694 15.668 74.5654 16.46 67.1254 18.044C66.7654 18.116 66.5014 18.2 66.3334 18.296C66.0694 18.464 65.4094 21.872 64.3534 28.52C63.9694 31.472 63.7774 34.784 63.7774 38.456C63.7774 42.656 64.3654 46.508 65.5414 50.012C66.2614 52.148 67.0894 53.276 68.0254 53.396C68.9614 53.396 70.0054 51.896 71.1574 48.896C71.7814 47.216 72.1774 46.04 72.3454 45.368C72.7534 44.12 73.3054 41.36 74.0014 37.088C74.0494 36.584 74.1454 35.996 74.2894 35.324C74.4334 34.916 74.7214 34.712 75.1534 34.712L75.4054 34.748C75.6934 34.796 75.8374 35.012 75.8374 35.396C75.8374 35.852 75.7054 36.44 75.4414 37.16C75.1774 37.856 74.7934 39.476 74.2894 42.02C73.0894 48.188 71.5774 52.244 69.7534 54.188C69.0814 54.932 68.3374 55.304 67.5214 55.304ZM76.8949 33.236C77.3029 32.348 77.7709 31.472 78.2989 30.608C79.4749 28.592 80.7709 26.036 82.1869 22.94C82.9789 21.068 83.7589 19.22 84.5269 17.396C85.3189 15.548 85.9549 13.496 86.4349 11.24C86.6509 10.064 86.7589 9.104 86.7589 8.36C86.7589 7.016 86.4229 6.344 85.7509 6.344C84.8629 6.344 83.8429 7.412 82.6909 9.548C81.6829 11.492 80.7469 13.928 79.8829 16.856C79.0189 19.784 78.3829 22.34 77.9749 24.524C77.2309 29.684 76.8589 32.336 76.8589 32.48L76.8949 33.236ZM75.8869 47.6C74.5909 47.6 73.9429 45.608 73.9429 41.624C73.9669 39.752 74.0869 37.508 74.3029 34.892C75.1909 24.668 77.2549 16.52 80.4949 10.448C81.1909 9.08 82.1149 7.832 83.2669 6.704C84.1069 5.888 84.8749 5.48 85.5709 5.48C86.0029 5.48 86.4109 5.696 86.7949 6.128C87.1789 6.56 87.3709 7.304 87.3709 8.36C87.3709 10.904 86.5309 14.276 84.8509 18.476C84.5149 19.436 83.7589 21.224 82.5829 23.84C82.0069 25.088 81.2029 26.888 80.1709 29.24C79.1389 31.592 78.1909 33.368 77.3269 34.568C76.7989 35.24 76.5349 36.008 76.5349 36.872C76.5349 39.392 76.5829 40.832 76.6789 41.192C76.8229 40.928 76.9189 40.688 76.9669 40.472C78.2629 36.608 79.7029 34.676 81.2869 34.676C81.5509 34.676 81.9349 34.772 82.4389 34.964C82.9429 35.132 83.6389 35.888 84.5269 37.232C85.6069 38.84 86.5309 39.644 87.2989 39.644C88.1149 39.644 88.9549 38.684 89.8189 36.764C90.3709 35.468 90.8509 34.82 91.2589 34.82C91.5229 34.82 91.6549 34.976 91.6549 35.288C91.6549 35.408 91.5829 35.732 91.4389 36.26C91.1269 37.316 90.6109 38.348 89.8909 39.356C89.0509 40.556 88.1629 41.156 87.2269 41.156C86.1229 41.084 85.2349 40.712 84.5629 40.04C83.9149 39.368 83.3509 38.576 82.8709 37.664C82.2229 36.536 81.6109 35.972 81.0349 35.972C79.9549 35.972 78.9829 37.568 78.1189 40.76C77.5429 42.8 77.2189 44.648 77.1469 46.304C77.0509 47.168 76.6309 47.6 75.8869 47.6ZM92.4882 35.864C92.9922 35.864 93.5442 35.552 94.1442 34.928L94.7202 34.244C95.4642 33.308 95.8362 32.168 95.8362 30.824C95.8362 29.864 95.5962 29.384 95.1162 29.384C94.6842 29.384 94.2162 29.756 93.7122 30.5C92.8002 31.868 92.2482 33.656 92.0562 35.864H92.4882ZM95.0442 45.512C94.9002 45.512 94.5882 45.476 94.1082 45.404C93.6522 45.356 93.1122 45.056 92.4882 44.504C90.9522 43.136 90.1842 40.976 90.1842 38.024C90.1842 35.408 90.7362 33.2 91.8402 31.4C92.9922 29.456 94.0602 28.484 95.0442 28.484C95.5242 28.484 95.9082 28.736 96.1962 29.24C96.4842 29.72 96.6282 30.308 96.6282 31.004C96.6282 31.316 96.5802 31.832 96.4842 32.552C96.4122 33.128 95.9442 33.956 95.0802 35.036C94.2162 36.092 93.3402 36.62 92.4522 36.62L91.9842 36.584C91.9362 37.04 91.9122 37.484 91.9122 37.916C91.9122 40.004 92.4162 41.612 93.4242 42.74C93.9522 43.34 94.5522 43.64 95.2242 43.64C95.6562 43.64 96.1122 43.508 96.5922 43.244C97.5282 42.644 98.3562 41.828 99.0762 40.796C99.8202 39.74 100.612 38.48 101.452 37.016C102.028 35.984 102.412 35.348 102.604 35.108C102.7 34.94 102.844 34.856 103.036 34.856C103.228 34.856 103.324 35 103.324 35.288C103.324 35.528 103.192 35.9 102.928 36.404C101.536 38.924 100.552 40.64 99.9762 41.552C99.1122 42.896 98.1522 43.964 97.0962 44.756C96.4002 45.26 95.7162 45.512 95.0442 45.512ZM103.363 45.008C102.907 45.008 102.559 44.708 102.319 44.108C102.103 43.532 101.995 42.524 101.995 41.084C101.995 39.908 102.067 38.432 102.211 36.656C102.475 33.488 103.015 31.904 103.831 31.904C104.047 31.904 104.239 31.964 104.407 32.084C104.599 32.204 104.695 32.672 104.695 33.488C104.695 35.264 104.599 37.724 104.407 40.868C105.631 36.212 107.431 32.708 109.807 30.356C110.599 29.588 111.427 29.204 112.291 29.204C112.771 29.204 113.179 29.372 113.515 29.708C113.851 30.02 114.019 30.392 114.019 30.824C114.019 31.424 113.827 31.724 113.443 31.724C113.155 31.724 112.819 31.52 112.435 31.112C112.147 30.8 111.883 30.632 111.643 30.608C111.499 30.608 111.319 30.656 111.103 30.752C109.783 31.472 108.379 33.332 106.891 36.332C106.315 37.46 105.763 39.26 105.235 41.732C104.875 43.916 104.251 45.008 103.363 45.008ZM117.941 35.864C118.445 35.864 118.997 35.552 119.597 34.928L120.173 34.244C120.917 33.308 121.289 32.168 121.289 30.824C121.289 29.864 121.049 29.384 120.569 29.384C120.137 29.384 119.669 29.756 119.165 30.5C118.253 31.868 117.701 33.656 117.509 35.864H117.941ZM120.497 45.512C120.353 45.512 120.041 45.476 119.561 45.404C119.105 45.356 118.565 45.056 117.941 44.504C116.405 43.136 115.637 40.976 115.637 38.024C115.637 35.408 116.189 33.2 117.293 31.4C118.445 29.456 119.513 28.484 120.497 28.484C120.977 28.484 121.361 28.736 121.649 29.24C121.937 29.72 122.081 30.308 122.081 31.004C122.081 31.316 122.033 31.832 121.937 32.552C121.865 33.128 121.397 33.956 120.533 35.036C119.669 36.092 118.793 36.62 117.905 36.62L117.437 36.584C117.389 37.04 117.365 37.484 117.365 37.916C117.365 40.004 117.869 41.612 118.877 42.74C119.405 43.34 120.005 43.64 120.677 43.64C121.109 43.64 121.565 43.508 122.045 43.244C122.981 42.644 123.809 41.828 124.529 40.796C125.273 39.74 126.065 38.48 126.905 37.016C127.481 35.984 127.865 35.348 128.057 35.108C128.153 34.94 128.297 34.856 128.489 34.856C128.681 34.856 128.777 35 128.777 35.288C128.777 35.528 128.645 35.9 128.381 36.404C126.989 38.924 126.005 40.64 125.429 41.552C124.565 42.896 123.605 43.964 122.549 44.756C121.853 45.26 121.169 45.512 120.497 45.512ZM130.292 50.624C129.356 50.624 128.888 49.388 128.888 46.916L128.924 45.26L128.96 44.576C128.984 44.072 129.032 43.58 129.104 43.1C129.152 42.86 129.2 42.476 129.248 41.948C129.296 39.668 129.368 37.496 129.464 35.432C129.584 33.368 129.692 31.304 129.788 29.24C129.98 22.256 130.628 16.16 131.732 10.952C132.068 9.488 132.452 8.504 132.884 8C133.172 7.592 133.568 7.388 134.072 7.388C134.912 7.388 135.332 7.94 135.332 9.044C135.332 9.716 135.08 10.976 134.576 12.824C134.336 13.64 134.144 14.408 134 15.128C132.2 23.936 131.12 32.672 130.76 41.336C130.616 42.584 130.544 44.264 130.544 46.376C130.544 47.24 130.568 47.936 130.616 48.464C130.64 48.536 130.652 48.632 130.652 48.752V48.788C130.652 48.86 130.724 48.932 130.868 49.004C131.18 49.1 131.336 49.268 131.336 49.508C131.336 49.796 131.216 50.048 130.976 50.264C130.76 50.504 130.532 50.624 130.292 50.624ZM129.5 58.76H129.356C128.972 58.76 128.66 58.544 128.42 58.112C128.18 57.704 128.06 57.236 128.06 56.708C128.06 56.372 128.096 56.072 128.168 55.808C128.24 55.568 128.564 55.364 129.14 55.196C129.548 55.268 129.824 55.82 129.968 56.852C130.016 57.164 130.04 57.452 130.04 57.716C130.04 58.028 130.004 58.28 129.932 58.472C129.812 58.616 129.668 58.712 129.5 58.76Z" fill="black"/>
</svg>
