<svg width="327" height="300" viewBox="0 0 327 300" fill="none" xmlns="http://www.w3.org/2000/svg">
<path d="M20.952 126.456C15.672 126.456 11.112 123.6 7.272 117.888C5.928 115.824 4.872 113.592 4.104 111.192C1.56 103.56 0.288 95.496 0.288 87C0.288 75.72 2.52 62.376 6.984 46.968C9.096 39.624 11.616 32.64 14.544 26.016C18.912 16.032 23.664 8.856 28.8 4.488C31.824 1.896 34.8 0.599997 37.728 0.599997C40.992 0.599997 43.56 2.424 45.432 6.07199C47.64 10.296 48.744 15.24 48.744 20.904C48.744 22.2 48.672 23.496 48.528 24.792C48.384 26.04 48.24 27.264 48.096 28.464C47.952 29.664 47.616 31.32 47.088 33.432C46.56 35.496 45.984 37.176 45.36 38.472C44.976 38.952 44.616 39.192 44.28 39.192C44.04 39.192 43.92 39.024 43.92 38.688L44.064 37.392C45.792 30.864 46.656 25.536 46.656 21.408C46.656 16.608 45.696 12 43.776 7.584C41.904 4.656 39.888 3.192 37.728 3.192C34.512 3.192 31.08 5.76 27.432 10.896C23.208 16.992 19.488 24.408 16.272 33.144C10.752 48.12 7.392 62.496 6.192 76.272C6 78.528 5.904 80.856 5.904 83.256C5.904 87.72 6.456 92.52 7.56 97.656C10.968 113.496 16.44 121.416 23.976 121.416C28.872 121.416 34.32 116.328 40.32 106.152C42.336 102.648 44.496 98.208 46.8 92.832C48.048 90 49.128 87.264 50.04 84.624C52.536 77.568 54.792 72.576 56.808 69.648C57.24 69.072 57.72 68.784 58.248 68.784C59.064 68.784 59.472 69.192 59.472 70.008C59.472 70.824 59.184 71.52 58.608 72.096C57.216 73.584 54.936 78.408 51.768 86.568C48.84 93.672 46.44 99.36 44.568 103.632C42.072 109.008 39.096 113.832 35.64 118.104C30.984 123.672 26.088 126.456 20.952 126.456ZM61.6101 65.472C62.4261 63.696 63.3621 61.944 64.4181 60.216C66.7701 56.184 69.3621 51.072 72.1941 44.88C73.7781 41.136 75.3381 37.44 76.8741 33.792C78.4581 30.096 79.7301 25.992 80.6901 21.48C81.1221 19.128 81.3381 17.208 81.3381 15.72C81.3381 13.032 80.6661 11.688 79.3221 11.688C77.5461 11.688 75.5061 13.824 73.2021 18.096C71.1861 21.984 69.3141 26.856 67.5861 32.712C65.8581 38.568 64.5861 43.68 63.7701 48.048C62.2821 58.368 61.5381 63.672 61.5381 63.96L61.6101 65.472ZM59.5941 94.2C57.0021 94.2 55.7061 90.216 55.7061 82.248C55.7541 78.504 55.9941 74.016 56.4261 68.784C58.2021 48.336 62.3301 32.04 68.8101 19.896C70.2021 17.16 72.0501 14.664 74.3541 12.408C76.0341 10.776 77.5701 9.96 78.9621 9.96C79.8261 9.96 80.6421 10.392 81.4101 11.256C82.1781 12.12 82.5621 13.608 82.5621 15.72C82.5621 20.808 80.8821 27.552 77.5221 35.952C76.8501 37.872 75.3381 41.448 72.9861 46.68C71.8341 49.176 70.2261 52.776 68.1621 57.48C66.0981 62.184 64.2021 65.736 62.4741 68.136C61.4181 69.48 60.8901 71.016 60.8901 72.744C60.8901 77.784 60.9861 80.664 61.1781 81.384C61.4661 80.856 61.6581 80.376 61.7541 79.944C64.3461 72.216 67.2261 68.352 70.3941 68.352C70.9221 68.352 71.6901 68.544 72.6981 68.928C73.7061 69.264 75.0981 70.776 76.8741 73.464C79.0341 76.68 80.8821 78.288 82.4181 78.288C84.0501 78.288 85.7301 76.368 87.4581 72.528C88.5621 69.936 89.5221 68.64 90.3381 68.64C90.8661 68.64 91.1301 68.952 91.1301 69.576C91.1301 69.816 90.9861 70.464 90.6981 71.52C90.0741 73.632 89.0421 75.696 87.6021 77.712C85.9221 80.112 84.1461 81.312 82.2741 81.312C80.0661 81.168 78.2901 80.424 76.9461 79.08C75.6501 77.736 74.5221 76.152 73.5621 74.328C72.2661 72.072 71.0421 70.944 69.8901 70.944C67.7301 70.944 65.7861 74.136 64.0581 80.52C62.9061 84.6 62.2581 88.296 62.1141 91.608C61.9221 93.336 61.0821 94.2 59.5941 94.2ZM90.7808 89.016C89.8688 89.016 89.1728 88.416 88.6928 87.216C88.2608 86.064 88.0448 84.048 88.0448 81.168C88.0448 78.816 88.1888 75.864 88.4768 72.312C89.0048 65.976 90.0848 62.808 91.7168 62.808C92.1488 62.808 92.5328 62.928 92.8688 63.168C93.2528 63.408 93.4448 64.344 93.4448 65.976C93.4448 69.528 93.2528 74.448 92.8688 80.736C95.3168 71.424 98.9168 64.416 103.669 59.712C105.253 58.176 106.909 57.408 108.637 57.408C109.597 57.408 110.413 57.744 111.085 58.416C111.757 59.04 112.093 59.784 112.093 60.648C112.093 61.848 111.709 62.448 110.941 62.448C110.365 62.448 109.693 62.04 108.925 61.224C108.349 60.6 107.821 60.264 107.341 60.216C107.053 60.216 106.693 60.312 106.261 60.504C103.621 61.944 100.813 65.664 97.8368 71.664C96.6848 73.92 95.5808 77.52 94.5248 82.464C93.8048 86.832 92.5568 89.016 90.7808 89.016ZM124.113 45.024C123.057 45.024 122.529 44.448 122.529 43.296C122.529 42.624 122.697 42.168 123.033 41.928C123.513 41.544 124.017 41.352 124.545 41.352C125.649 41.352 126.201 41.976 126.201 43.224C126.201 43.8 125.985 44.256 125.553 44.592C125.121 44.88 124.641 45.024 124.113 45.024ZM124.617 85.632C123.417 85.584 122.193 85.152 120.945 84.336C119.697 83.52 118.641 82.344 117.777 80.808C116.481 78.648 115.833 76.128 115.833 73.248C115.833 71.904 115.905 70.512 116.049 69.072C116.193 67.392 116.745 65.472 117.705 63.312C118.713 60.864 119.721 59.64 120.729 59.64C122.409 59.64 123.249 60.264 123.249 61.512C123.249 62.04 122.841 63.72 122.025 66.552C121.449 69.048 121.161 71.616 121.161 74.256C121.161 76.32 121.401 78.216 121.881 79.944C122.697 82.296 123.777 83.472 125.121 83.472C126.465 83.472 127.881 82.488 129.369 80.52C131.193 78.024 132.633 75.264 133.689 72.24C134.361 69.84 135.153 68.64 136.065 68.64C136.545 68.64 136.785 69 136.785 69.72C136.785 71.16 135.945 73.464 134.265 76.632C131.097 82.632 127.881 85.632 124.617 85.632ZM143.975 105C144.935 105 146.015 104.688 147.215 104.064C156.479 99.36 161.783 92.376 163.127 83.112C149.639 93.864 142.895 100.776 142.895 103.848C142.895 104.616 143.255 105 143.975 105ZM144.335 106.728C142.271 106.728 141.239 105.816 141.239 103.992C141.239 101.112 143.495 97.776 148.007 93.984C150.071 91.968 153.047 89.424 156.935 86.352C160.871 83.28 162.935 81.624 163.127 81.384V80.448C163.127 79.68 162.623 78.84 161.615 77.928C160.655 76.968 158.975 76.488 156.575 76.488C155.135 76.488 153.599 76.632 151.967 76.92L146.567 78.36C142.151 79.704 138.863 80.376 136.703 80.376C135.215 80.376 134.039 79.896 133.175 78.936C132.311 77.976 131.879 76.752 131.879 75.264C132.455 68.688 136.439 62.616 143.831 57.048C146.807 54.84 149.423 53.736 151.679 53.736C153.743 53.736 155.567 54.528 157.151 56.112C158.495 57.648 159.167 59.496 159.167 61.656C158.975 64.584 158.303 66.648 157.151 67.848C156.527 68.472 155.879 68.784 155.207 68.784C154.439 68.784 154.055 68.328 154.055 67.416C154.055 66.792 154.415 65.784 155.135 64.392C156.047 62.472 156.503 60.912 156.503 59.712C156.503 57.408 155.399 56.256 153.191 56.256C150.887 56.544 148.607 57.912 146.351 60.36C144.095 62.808 142.127 65.544 140.447 68.568C138.767 71.544 137.927 73.872 137.927 75.552C137.927 76.512 138.335 76.992 139.151 76.992C139.775 76.992 141.671 76.608 144.839 75.84C149.591 74.688 153.479 74.112 156.503 74.112C156.887 74.112 157.751 74.136 159.095 74.184C160.439 74.184 161.831 74.616 163.271 75.48C164.711 76.296 165.623 77.568 166.007 79.296L180.191 69.216C180.911 68.784 181.487 68.568 181.919 68.568C182.543 68.568 182.855 68.832 182.855 69.36C182.855 69.984 182.495 70.512 181.775 70.944L166.151 80.952C165.863 86.904 164.015 92.04 160.607 96.36C157.247 100.728 152.951 103.944 147.719 106.008C146.471 106.488 145.343 106.728 144.335 106.728ZM193.472 109.608C192.32 109.608 191.12 109.128 189.872 108.168C187.808 106.44 186.176 103.944 184.976 100.68C182.48 93.96 181.232 85.128 181.232 74.184C181.232 70.584 181.568 65.208 182.24 58.056C183.968 47.16 185.24 40.128 186.056 36.96C185.048 37.056 181.088 38.136 174.176 40.2C167.264 42.216 162.872 43.224 161 43.224C159.464 43.224 158.696 42.648 158.696 41.496C158.696 40.584 159.056 39.744 159.776 38.976C160.448 38.16 161.288 37.728 162.296 37.68C163.016 37.68 163.376 37.968 163.376 38.544C163.376 39.024 163.208 39.552 162.872 40.128C163.4 40.08 171.296 38.328 186.56 34.872C187.232 31.848 187.904 29.76 188.576 28.608C188.624 28.176 188.912 27.36 189.44 26.16C190.016 24.912 190.736 24.288 191.6 24.288C192.512 24.288 192.968 24.792 192.968 25.8C192.968 26.184 192.872 26.664 192.68 27.24C191.624 30.648 191.096 32.808 191.096 33.72C191.096 33.864 191.144 33.936 191.24 33.936L196.712 32.856C202.328 31.608 207.464 30.72 212.12 30.192C219.08 29.136 224.936 28.608 229.688 28.608C231.128 28.608 233.096 28.704 235.592 28.896C238.376 29.04 240.872 29.904 243.08 31.488C243.944 32.208 244.376 33 244.376 33.864C244.376 34.776 243.992 35.472 243.224 35.952C243.032 36.096 242.84 36.168 242.648 36.168C242.264 36.168 242.072 36 242.072 35.664C242.12 35.472 242.192 35.256 242.288 35.016C242.432 34.728 242.504 34.44 242.504 34.152C242.504 33.048 240.776 32.088 237.32 31.272C233.624 30.648 229.952 30.336 226.304 30.336C218.768 30.336 207.56 31.92 192.68 35.088C191.96 35.232 191.432 35.4 191.096 35.592C190.568 35.928 189.248 42.744 187.136 56.04C186.368 61.944 185.984 68.568 185.984 75.912C185.984 84.312 187.16 92.016 189.512 99.024C190.952 103.296 192.608 105.552 194.48 105.792C196.352 105.792 198.44 102.792 200.744 96.792C201.992 93.432 202.784 91.08 203.12 89.736C203.936 87.24 205.04 81.72 206.432 73.176C206.528 72.168 206.72 70.992 207.008 69.648C207.296 68.832 207.872 68.424 208.736 68.424L209.24 68.496C209.816 68.592 210.104 69.024 210.104 69.792C210.104 70.704 209.84 71.88 209.312 73.32C208.784 74.712 208.016 77.952 207.008 83.04C204.608 95.376 201.584 103.488 197.936 107.376C196.592 108.864 195.104 109.608 193.472 109.608ZM215.027 45.024C213.971 45.024 213.443 44.448 213.443 43.296C213.443 42.624 213.611 42.168 213.947 41.928C214.427 41.544 214.931 41.352 215.459 41.352C216.563 41.352 217.115 41.976 217.115 43.224C217.115 43.8 216.899 44.256 216.467 44.592C216.035 44.88 215.555 45.024 215.027 45.024ZM215.531 85.632C214.331 85.584 213.107 85.152 211.859 84.336C210.611 83.52 209.555 82.344 208.691 80.808C207.395 78.648 206.747 76.128 206.747 73.248C206.747 71.904 206.819 70.512 206.963 69.072C207.107 67.392 207.659 65.472 208.619 63.312C209.627 60.864 210.635 59.64 211.643 59.64C213.323 59.64 214.163 60.264 214.163 61.512C214.163 62.04 213.755 63.72 212.939 66.552C212.363 69.048 212.075 71.616 212.075 74.256C212.075 76.32 212.315 78.216 212.795 79.944C213.611 82.296 214.691 83.472 216.035 83.472C217.379 83.472 218.795 82.488 220.283 80.52C222.107 78.024 223.547 75.264 224.603 72.24C225.275 69.84 226.067 68.64 226.979 68.64C227.459 68.64 227.699 69 227.699 69.72C227.699 71.16 226.859 73.464 225.179 76.632C222.011 82.632 218.795 85.632 215.531 85.632ZM227.905 89.088C225.601 88.752 224.449 85.608 224.449 79.656C224.449 78.312 224.521 76.824 224.665 75.192C225.577 65.064 227.593 60 230.713 60C231.913 60 232.513 60.696 232.513 62.088L232.369 63.744C231.745 66.72 231.193 70.92 230.713 76.344L230.137 80.376C230.137 80.568 230.161 80.664 230.209 80.664C230.305 80.664 230.617 80.064 231.145 78.864C234.073 71.616 237.097 67.992 240.217 67.992C240.841 67.992 241.657 68.256 242.665 68.784C243.721 69.264 245.017 70.848 246.553 73.536C248.425 76.848 250.345 78.504 252.313 78.504C252.889 78.504 253.585 78.288 254.401 77.856C255.217 77.376 256.081 76.512 256.993 75.264C257.953 73.968 258.817 72.672 259.585 71.376C260.017 70.656 260.401 70.032 260.737 69.504C261.121 68.976 261.505 68.712 261.889 68.712C262.513 68.76 262.825 69.096 262.825 69.72C262.825 70.104 262.729 70.512 262.537 70.944C261.673 72.912 260.401 75 258.721 77.208C256.321 80.328 253.921 81.888 251.521 81.888C249.265 81.552 247.537 80.664 246.337 79.224C245.137 77.736 244.153 76.056 243.385 74.184C242.137 71.64 240.889 70.368 239.641 70.368C237.481 70.368 235.369 73.44 233.305 79.584L231.865 84.552C231.529 85.56 231.073 86.544 230.497 87.504C229.969 88.464 229.105 88.992 227.905 89.088ZM260.47 85.056C257.878 84.816 256.582 83.256 256.582 80.376C256.582 77.64 257.374 74.832 258.958 71.952C260.158 69.648 261.262 67.92 262.27 66.768C265.246 63.408 268.006 61.728 270.55 61.728C271.27 61.728 271.87 61.896 272.35 62.232C273.262 62.712 273.718 63.456 273.718 64.464C273.718 65.232 273.478 65.808 272.998 66.192C272.566 66.528 272.014 66.864 271.342 67.2C267.598 68.88 264.694 71.856 262.63 76.128C261.91 77.664 261.382 79.464 261.046 81.528C262.39 81.24 263.998 79.416 265.87 76.056C266.638 74.76 267.406 73.584 268.174 72.528C269.23 71.184 270.262 70.512 271.27 70.512C272.518 70.512 274.03 71.832 275.806 74.472C277.918 77.304 279.574 78.72 280.774 78.72C284.182 78.72 287.374 75.744 290.35 69.792C290.734 69.024 291.214 68.64 291.79 68.64C292.366 68.64 292.654 68.88 292.654 69.36C292.654 69.648 292.582 69.936 292.438 70.224C288.214 77.376 284.47 80.952 281.206 80.952C280.966 80.952 280.39 80.88 279.478 80.736C278.614 80.592 277.582 79.944 276.382 78.792C275.182 77.592 274.15 76.368 273.286 75.12C272.422 73.824 271.63 72.888 270.91 72.312C270.238 73.128 269.758 73.8 269.47 74.328C269.23 74.808 268.894 75.408 268.462 76.128C265.39 82.08 262.726 85.056 260.47 85.056Z" fill="black"/>
<path d="M94.543 295H93.7578L90.9453 285.953L90.8984 285.332L90.8516 285.953L88.0391 295H87.2422L83.2344 283H84.6992L87.5586 292.07L87.6055 292.691L87.6523 292.07L90.4648 283H91.332L94.1328 292.07L94.1797 292.691L94.2266 292.07L97.0859 283H98.5508L94.543 295ZM108.254 291.707C108.254 292.191 108.16 292.648 107.973 293.078C107.793 293.508 107.543 293.883 107.223 294.203C106.902 294.523 106.527 294.777 106.098 294.965C105.668 295.145 105.211 295.234 104.727 295.234H103.766C103.281 295.234 102.824 295.145 102.395 294.965C101.965 294.777 101.59 294.523 101.27 294.203C100.949 293.883 100.695 293.508 100.508 293.078C100.328 292.648 100.238 292.191 100.238 291.707V286.293C100.238 285.809 100.328 285.352 100.508 284.922C100.695 284.492 100.949 284.117 101.27 283.797C101.59 283.477 101.965 283.227 102.395 283.047C102.824 282.859 103.281 282.766 103.766 282.766H104.727C105.211 282.766 105.668 282.859 106.098 283.047C106.527 283.227 106.902 283.477 107.223 283.797C107.543 284.117 107.793 284.492 107.973 284.922C108.16 285.352 108.254 285.809 108.254 286.293V289.117H101.68V291.789C101.68 292.078 101.734 292.352 101.844 292.609C101.953 292.859 102.102 293.078 102.289 293.266C102.477 293.453 102.695 293.602 102.945 293.711C103.203 293.82 103.477 293.875 103.766 293.875H104.727C105.016 293.875 105.285 293.82 105.535 293.711C105.793 293.602 106.016 293.453 106.203 293.266C106.391 293.078 106.539 292.859 106.648 292.609C106.758 292.352 106.812 292.078 106.812 291.789V290.992L108.254 291.227V291.707ZM106.812 286.211C106.812 285.922 106.758 285.652 106.648 285.402C106.539 285.145 106.391 284.922 106.203 284.734C106.016 284.547 105.793 284.398 105.535 284.289C105.285 284.18 105.016 284.125 104.727 284.125H103.766C103.477 284.125 103.203 284.18 102.945 284.289C102.695 284.398 102.477 284.547 102.289 284.734C102.102 284.922 101.953 285.145 101.844 285.402C101.734 285.652 101.68 285.922 101.68 286.211V287.992H106.812V286.211ZM119.152 291.707C119.152 292.191 119.059 292.648 118.871 293.078C118.691 293.508 118.441 293.883 118.121 294.203C117.801 294.523 117.426 294.777 116.996 294.965C116.566 295.145 116.109 295.234 115.625 295.234H114.664C114.18 295.234 113.723 295.145 113.293 294.965C112.863 294.777 112.488 294.523 112.168 294.203C111.848 293.883 111.594 293.508 111.406 293.078C111.227 292.648 111.137 292.191 111.137 291.707V278.195H112.578V284.008C112.906 283.617 113.301 283.312 113.762 283.094C114.223 282.875 114.723 282.766 115.262 282.766H115.625C116.109 282.766 116.566 282.859 116.996 283.047C117.426 283.227 117.801 283.477 118.121 283.797C118.441 284.117 118.691 284.492 118.871 284.922C119.059 285.352 119.152 285.809 119.152 286.293V291.707ZM117.711 286.211C117.711 285.922 117.656 285.652 117.547 285.402C117.438 285.145 117.289 284.922 117.102 284.734C116.914 284.547 116.691 284.398 116.434 284.289C116.184 284.18 115.914 284.125 115.625 284.125H114.664C114.375 284.125 114.102 284.18 113.844 284.289C113.594 284.398 113.375 284.547 113.188 284.734C113 284.922 112.852 285.145 112.742 285.402C112.633 285.652 112.578 285.922 112.578 286.211V291.789C112.578 292.078 112.633 292.352 112.742 292.609C112.852 292.859 113 293.078 113.188 293.266C113.375 293.453 113.594 293.602 113.844 293.711C114.102 293.82 114.375 293.875 114.664 293.875H115.625C115.914 293.875 116.184 293.82 116.434 293.711C116.691 293.602 116.914 293.453 117.102 293.266C117.289 293.078 117.438 292.859 117.547 292.609C117.656 292.352 117.711 292.078 117.711 291.789V286.211ZM135.102 295L134.305 293.781C133.977 294.227 133.566 294.582 133.074 294.848C132.582 295.105 132.043 295.234 131.457 295.234H131.094C130.609 295.234 130.152 295.145 129.723 294.965C129.293 294.777 128.918 294.523 128.598 294.203C128.277 293.883 128.023 293.508 127.836 293.078C127.656 292.648 127.566 292.191 127.566 291.707V286.293C127.566 285.809 127.656 285.352 127.836 284.922C128.023 284.492 128.277 284.117 128.598 283.797C128.918 283.477 129.293 283.227 129.723 283.047C130.152 282.859 130.609 282.766 131.094 282.766H131.457C131.996 282.766 132.496 282.875 132.957 283.094C133.418 283.312 133.812 283.617 134.141 284.008V278.195H135.582V295H135.102ZM134.141 286.211C134.141 285.922 134.086 285.652 133.977 285.402C133.867 285.145 133.719 284.922 133.531 284.734C133.344 284.547 133.121 284.398 132.863 284.289C132.613 284.18 132.344 284.125 132.055 284.125H131.094C130.805 284.125 130.531 284.18 130.273 284.289C130.023 284.398 129.805 284.547 129.617 284.734C129.43 284.922 129.281 285.145 129.172 285.402C129.062 285.652 129.008 285.922 129.008 286.211V291.789C129.008 292.078 129.062 292.352 129.172 292.609C129.281 292.859 129.43 293.078 129.617 293.266C129.805 293.453 130.023 293.602 130.273 293.711C130.531 293.82 130.805 293.875 131.094 293.875H132.055C132.344 293.875 132.613 293.82 132.863 293.711C133.121 293.602 133.344 293.453 133.531 293.266C133.719 293.078 133.867 292.859 133.977 292.609C134.086 292.352 134.141 292.078 134.141 291.789V286.211ZM146.48 291.707C146.48 292.191 146.387 292.648 146.199 293.078C146.02 293.508 145.77 293.883 145.449 294.203C145.129 294.523 144.754 294.777 144.324 294.965C143.895 295.145 143.438 295.234 142.953 295.234H141.992C141.508 295.234 141.051 295.145 140.621 294.965C140.191 294.777 139.816 294.523 139.496 294.203C139.176 293.883 138.922 293.508 138.734 293.078C138.555 292.648 138.465 292.191 138.465 291.707V286.293C138.465 285.809 138.555 285.352 138.734 284.922C138.922 284.492 139.176 284.117 139.496 283.797C139.816 283.477 140.191 283.227 140.621 283.047C141.051 282.859 141.508 282.766 141.992 282.766H142.953C143.438 282.766 143.895 282.859 144.324 283.047C144.754 283.227 145.129 283.477 145.449 283.797C145.77 284.117 146.02 284.492 146.199 284.922C146.387 285.352 146.48 285.809 146.48 286.293V289.117H139.906V291.789C139.906 292.078 139.961 292.352 140.07 292.609C140.18 292.859 140.328 293.078 140.516 293.266C140.703 293.453 140.922 293.602 141.172 293.711C141.43 293.82 141.703 293.875 141.992 293.875H142.953C143.242 293.875 143.512 293.82 143.762 293.711C144.02 293.602 144.242 293.453 144.43 293.266C144.617 293.078 144.766 292.859 144.875 292.609C144.984 292.352 145.039 292.078 145.039 291.789V290.992L146.48 291.227V291.707ZM145.039 286.211C145.039 285.922 144.984 285.652 144.875 285.402C144.766 285.145 144.617 284.922 144.43 284.734C144.242 284.547 144.02 284.398 143.762 284.289C143.512 284.18 143.242 284.125 142.953 284.125H141.992C141.703 284.125 141.43 284.18 141.172 284.289C140.922 284.398 140.703 284.547 140.516 284.734C140.328 284.922 140.18 285.145 140.07 285.402C139.961 285.652 139.906 285.922 139.906 286.211V287.992H145.039V286.211ZM153.125 295H152.41L148.156 283H149.598L152.727 292.094L152.773 292.715L152.82 292.094L155.938 283H157.379L153.125 295ZM167.082 291.707C167.082 292.191 166.988 292.648 166.801 293.078C166.621 293.508 166.371 293.883 166.051 294.203C165.73 294.523 165.355 294.777 164.926 294.965C164.496 295.145 164.039 295.234 163.555 295.234H162.594C162.109 295.234 161.652 295.145 161.223 294.965C160.793 294.777 160.418 294.523 160.098 294.203C159.777 293.883 159.523 293.508 159.336 293.078C159.156 292.648 159.066 292.191 159.066 291.707V286.293C159.066 285.809 159.156 285.352 159.336 284.922C159.523 284.492 159.777 284.117 160.098 283.797C160.418 283.477 160.793 283.227 161.223 283.047C161.652 282.859 162.109 282.766 162.594 282.766H163.555C164.039 282.766 164.496 282.859 164.926 283.047C165.355 283.227 165.73 283.477 166.051 283.797C166.371 284.117 166.621 284.492 166.801 284.922C166.988 285.352 167.082 285.809 167.082 286.293V289.117H160.508V291.789C160.508 292.078 160.562 292.352 160.672 292.609C160.781 292.859 160.93 293.078 161.117 293.266C161.305 293.453 161.523 293.602 161.773 293.711C162.031 293.82 162.305 293.875 162.594 293.875H163.555C163.844 293.875 164.113 293.82 164.363 293.711C164.621 293.602 164.844 293.453 165.031 293.266C165.219 293.078 165.367 292.859 165.477 292.609C165.586 292.352 165.641 292.078 165.641 291.789V290.992L167.082 291.227V291.707ZM165.641 286.211C165.641 285.922 165.586 285.652 165.477 285.402C165.367 285.145 165.219 284.922 165.031 284.734C164.844 284.547 164.621 284.398 164.363 284.289C164.113 284.18 163.844 284.125 163.555 284.125H162.594C162.305 284.125 162.031 284.18 161.773 284.289C161.523 284.398 161.305 284.547 161.117 284.734C160.93 284.922 160.781 285.145 160.672 285.402C160.562 285.652 160.508 285.922 160.508 286.211V287.992H165.641V286.211ZM170.445 295V278.195H171.887V295H170.445ZM183.043 291.707C183.043 292.191 182.949 292.648 182.762 293.078C182.582 293.508 182.332 293.883 182.012 294.203C181.691 294.523 181.316 294.777 180.887 294.965C180.457 295.145 180 295.234 179.516 295.234H178.555C178.07 295.234 177.613 295.145 177.184 294.965C176.754 294.777 176.379 294.523 176.059 294.203C175.738 293.883 175.484 293.508 175.297 293.078C175.117 292.648 175.027 292.191 175.027 291.707V286.293C175.027 285.809 175.117 285.352 175.297 284.922C175.484 284.492 175.738 284.117 176.059 283.797C176.379 283.477 176.754 283.227 177.184 283.047C177.613 282.859 178.07 282.766 178.555 282.766H179.516C180 282.766 180.457 282.859 180.887 283.047C181.316 283.227 181.691 283.477 182.012 283.797C182.332 284.117 182.582 284.492 182.762 284.922C182.949 285.352 183.043 285.809 183.043 286.293V291.707ZM181.602 286.211C181.602 285.922 181.547 285.652 181.438 285.402C181.328 285.145 181.18 284.922 180.992 284.734C180.805 284.547 180.582 284.398 180.324 284.289C180.074 284.18 179.805 284.125 179.516 284.125H178.555C178.266 284.125 177.992 284.18 177.734 284.289C177.484 284.398 177.266 284.547 177.078 284.734C176.891 284.922 176.742 285.145 176.633 285.402C176.523 285.652 176.469 285.922 176.469 286.211V291.789C176.469 292.078 176.523 292.352 176.633 292.609C176.742 292.859 176.891 293.078 177.078 293.266C177.266 293.453 177.484 293.602 177.734 293.711C177.992 293.82 178.266 293.875 178.555 293.875H179.516C179.805 293.875 180.074 293.82 180.324 293.711C180.582 293.602 180.805 293.453 180.992 293.266C181.18 293.078 181.328 292.859 181.438 292.609C181.547 292.352 181.602 292.078 181.602 291.789V286.211ZM193.941 291.707C193.941 292.191 193.848 292.648 193.66 293.078C193.48 293.508 193.23 293.883 192.91 294.203C192.59 294.523 192.215 294.777 191.785 294.965C191.355 295.145 190.898 295.234 190.414 295.234H190.051C189.512 295.234 189.012 295.125 188.551 294.906C188.09 294.688 187.695 294.383 187.367 293.992V299.805H185.926V283H186.406L187.191 284.219C187.52 283.773 187.93 283.422 188.422 283.164C188.922 282.898 189.465 282.766 190.051 282.766H190.414C190.898 282.766 191.355 282.859 191.785 283.047C192.215 283.227 192.59 283.477 192.91 283.797C193.23 284.117 193.48 284.492 193.66 284.922C193.848 285.352 193.941 285.809 193.941 286.293V291.707ZM192.5 286.211C192.5 285.922 192.445 285.652 192.336 285.402C192.227 285.145 192.078 284.922 191.891 284.734C191.703 284.547 191.48 284.398 191.223 284.289C190.973 284.18 190.703 284.125 190.414 284.125H189.453C189.164 284.125 188.891 284.18 188.633 284.289C188.383 284.398 188.164 284.547 187.977 284.734C187.789 284.922 187.641 285.145 187.531 285.402C187.422 285.652 187.367 285.922 187.367 286.211V291.789C187.367 292.078 187.422 292.352 187.531 292.609C187.641 292.859 187.789 293.078 187.977 293.266C188.164 293.453 188.383 293.602 188.633 293.711C188.891 293.82 189.164 293.875 189.453 293.875H190.414C190.703 293.875 190.973 293.82 191.223 293.711C191.48 293.602 191.703 293.453 191.891 293.266C192.078 293.078 192.227 292.859 192.336 292.609C192.445 292.352 192.5 292.078 192.5 291.789V286.211ZM209.492 295V286.211C209.492 285.922 209.438 285.652 209.328 285.402C209.219 285.145 209.07 284.922 208.883 284.734C208.695 284.547 208.473 284.398 208.215 284.289C207.965 284.18 207.695 284.125 207.406 284.125H206.691C206.402 284.125 206.129 284.18 205.871 284.289C205.621 284.398 205.398 284.547 205.203 284.734C205.016 284.922 204.867 285.145 204.758 285.402C204.648 285.652 204.594 285.922 204.594 286.211V295H203.164V286.211C203.164 285.922 203.109 285.652 203 285.402C202.891 285.145 202.738 284.922 202.543 284.734C202.355 284.547 202.133 284.398 201.875 284.289C201.625 284.18 201.355 284.125 201.066 284.125H200.352C200.062 284.125 199.789 284.18 199.531 284.289C199.281 284.398 199.062 284.547 198.875 284.734C198.688 284.922 198.539 285.145 198.43 285.402C198.32 285.652 198.266 285.922 198.266 286.211V295H196.824V283H197.305L198.09 284.219C198.418 283.773 198.828 283.422 199.32 283.164C199.82 282.898 200.363 282.766 200.949 282.766H201.066C201.746 282.766 202.359 282.934 202.906 283.27C203.453 283.605 203.875 284.051 204.172 284.605C204.32 284.332 204.504 284.082 204.723 283.855C204.941 283.629 205.184 283.438 205.449 283.281C205.715 283.117 206.004 282.992 206.316 282.906C206.629 282.812 206.953 282.766 207.289 282.766H207.406C207.891 282.766 208.348 282.859 208.777 283.047C209.207 283.227 209.582 283.477 209.902 283.797C210.223 284.117 210.473 284.492 210.652 284.922C210.84 285.352 210.934 285.809 210.934 286.293V295H209.492ZM221.832 291.707C221.832 292.191 221.738 292.648 221.551 293.078C221.371 293.508 221.121 293.883 220.801 294.203C220.48 294.523 220.105 294.777 219.676 294.965C219.246 295.145 218.789 295.234 218.305 295.234H217.344C216.859 295.234 216.402 295.145 215.973 294.965C215.543 294.777 215.168 294.523 214.848 294.203C214.527 293.883 214.273 293.508 214.086 293.078C213.906 292.648 213.816 292.191 213.816 291.707V286.293C213.816 285.809 213.906 285.352 214.086 284.922C214.273 284.492 214.527 284.117 214.848 283.797C215.168 283.477 215.543 283.227 215.973 283.047C216.402 282.859 216.859 282.766 217.344 282.766H218.305C218.789 282.766 219.246 282.859 219.676 283.047C220.105 283.227 220.48 283.477 220.801 283.797C221.121 284.117 221.371 284.492 221.551 284.922C221.738 285.352 221.832 285.809 221.832 286.293V289.117H215.258V291.789C215.258 292.078 215.312 292.352 215.422 292.609C215.531 292.859 215.68 293.078 215.867 293.266C216.055 293.453 216.273 293.602 216.523 293.711C216.781 293.82 217.055 293.875 217.344 293.875H218.305C218.594 293.875 218.863 293.82 219.113 293.711C219.371 293.602 219.594 293.453 219.781 293.266C219.969 293.078 220.117 292.859 220.227 292.609C220.336 292.352 220.391 292.078 220.391 291.789V290.992L221.832 291.227V291.707ZM220.391 286.211C220.391 285.922 220.336 285.652 220.227 285.402C220.117 285.145 219.969 284.922 219.781 284.734C219.594 284.547 219.371 284.398 219.113 284.289C218.863 284.18 218.594 284.125 218.305 284.125H217.344C217.055 284.125 216.781 284.18 216.523 284.289C216.273 284.398 216.055 284.547 215.867 284.734C215.68 284.922 215.531 285.145 215.422 285.402C215.312 285.652 215.258 285.922 215.258 286.211V287.992H220.391V286.211ZM231.289 295V286.211C231.289 285.922 231.234 285.652 231.125 285.402C231.016 285.145 230.867 284.922 230.68 284.734C230.492 284.547 230.27 284.398 230.012 284.289C229.762 284.18 229.492 284.125 229.203 284.125H228.242C227.953 284.125 227.68 284.18 227.422 284.289C227.172 284.398 226.953 284.547 226.766 284.734C226.578 284.922 226.43 285.145 226.32 285.402C226.211 285.652 226.156 285.922 226.156 286.211V295H224.715V283H225.195L225.98 284.219C226.309 283.773 226.719 283.422 227.211 283.164C227.711 282.898 228.254 282.766 228.84 282.766H229.203C229.688 282.766 230.145 282.859 230.574 283.047C231.004 283.227 231.379 283.477 231.699 283.797C232.02 284.117 232.27 284.492 232.449 284.922C232.637 285.352 232.73 285.809 232.73 286.293V295H231.289ZM239.984 295C239.547 295 239.133 294.918 238.742 294.754C238.359 294.59 238.023 294.363 237.734 294.074C237.453 293.785 237.227 293.449 237.055 293.066C236.891 292.684 236.809 292.273 236.809 291.836V284.371H234.652V283H236.809V280.117L238.25 279.883V283H241.297V284.371H238.25V291.906C238.25 292.148 238.293 292.375 238.379 292.586C238.473 292.789 238.598 292.969 238.754 293.125C238.91 293.281 239.094 293.406 239.305 293.5C239.516 293.586 239.742 293.629 239.984 293.629H241.297V295H239.984ZM260.844 295.234C260.164 295.234 259.57 295.09 259.062 294.801C258.562 294.512 258.164 294.121 257.867 293.629C257.477 294.121 256.996 294.512 256.426 294.801C255.855 295.09 255.238 295.234 254.574 295.234H253.859C253.289 295.234 252.75 295.129 252.242 294.918C251.742 294.699 251.305 294.402 250.93 294.027C250.555 293.652 250.258 293.215 250.039 292.715C249.828 292.215 249.723 291.68 249.723 291.109V290.195C249.723 289.797 249.773 289.418 249.875 289.059C249.984 288.691 250.137 288.352 250.332 288.039C250.527 287.727 250.758 287.445 251.023 287.195C251.289 286.938 251.586 286.723 251.914 286.551C251.586 286.379 251.289 286.168 251.023 285.918C250.758 285.66 250.527 285.375 250.332 285.062C250.137 284.75 249.984 284.414 249.875 284.055C249.773 283.688 249.723 283.305 249.723 282.906V282.086C249.723 281.516 249.828 280.98 250.039 280.48C250.258 279.98 250.555 279.543 250.93 279.168C251.305 278.793 251.742 278.5 252.242 278.289C252.75 278.07 253.289 277.961 253.859 277.961H254.574C255.145 277.961 255.68 278.07 256.18 278.289C256.68 278.5 257.117 278.793 257.492 279.168C257.867 279.543 258.16 279.98 258.371 280.48C258.59 280.98 258.699 281.516 258.699 282.086V282.203L257.188 282.449V282.086C257.188 281.711 257.117 281.363 256.977 281.043C256.836 280.715 256.645 280.43 256.402 280.188C256.16 279.945 255.875 279.754 255.547 279.613C255.227 279.473 254.879 279.402 254.504 279.402H253.93C253.555 279.402 253.203 279.473 252.875 279.613C252.555 279.754 252.27 279.945 252.02 280.188C251.777 280.43 251.586 280.715 251.445 281.043C251.305 281.363 251.234 281.711 251.234 282.086V283.141C251.234 283.516 251.305 283.867 251.445 284.195C251.586 284.516 251.777 284.801 252.02 285.051C252.27 285.293 252.555 285.484 252.875 285.625C253.203 285.766 253.555 285.836 253.93 285.836H257.188V284.301L258.699 284.055V285.812H261.031V287.242H258.699V291.285C258.715 291.637 258.77 291.965 258.863 292.27C258.957 292.574 259.094 292.844 259.273 293.078C259.461 293.305 259.691 293.484 259.965 293.617C260.238 293.742 260.555 293.805 260.914 293.805H261.266L261.055 295.234H260.844ZM254.504 293.805C254.863 293.805 255.203 293.738 255.523 293.605C255.844 293.473 256.121 293.289 256.355 293.055C256.598 292.82 256.793 292.547 256.941 292.234C257.09 291.922 257.172 291.586 257.188 291.227V287.277H253.93C253.555 287.277 253.203 287.348 252.875 287.488C252.555 287.629 252.27 287.82 252.02 288.062C251.777 288.305 251.586 288.59 251.445 288.918C251.305 289.238 251.234 289.586 251.234 289.961V291.109C251.234 291.484 251.305 291.836 251.445 292.164C251.586 292.484 251.777 292.77 252.02 293.02C252.27 293.262 252.555 293.453 252.875 293.594C253.203 293.734 253.555 293.805 253.93 293.805H254.504ZM277.461 295L276.664 293.781C276.336 294.227 275.926 294.582 275.434 294.848C274.941 295.105 274.402 295.234 273.816 295.234H273.453C272.969 295.234 272.512 295.145 272.082 294.965C271.652 294.777 271.277 294.523 270.957 294.203C270.637 293.883 270.383 293.508 270.195 293.078C270.016 292.648 269.926 292.191 269.926 291.707V286.293C269.926 285.809 270.016 285.352 270.195 284.922C270.383 284.492 270.637 284.117 270.957 283.797C271.277 283.477 271.652 283.227 272.082 283.047C272.512 282.859 272.969 282.766 273.453 282.766H273.816C274.355 282.766 274.855 282.875 275.316 283.094C275.777 283.312 276.172 283.617 276.5 284.008V278.195H277.941V295H277.461ZM276.5 286.211C276.5 285.922 276.445 285.652 276.336 285.402C276.227 285.145 276.078 284.922 275.891 284.734C275.703 284.547 275.48 284.398 275.223 284.289C274.973 284.18 274.703 284.125 274.414 284.125H273.453C273.164 284.125 272.891 284.18 272.633 284.289C272.383 284.398 272.164 284.547 271.977 284.734C271.789 284.922 271.641 285.145 271.531 285.402C271.422 285.652 271.367 285.922 271.367 286.211V291.789C271.367 292.078 271.422 292.352 271.531 292.609C271.641 292.859 271.789 293.078 271.977 293.266C272.164 293.453 272.383 293.602 272.633 293.711C272.891 293.82 273.164 293.875 273.453 293.875H274.414C274.703 293.875 274.973 293.82 275.223 293.711C275.48 293.602 275.703 293.453 275.891 293.266C276.078 293.078 276.227 292.859 276.336 292.609C276.445 292.352 276.5 292.078 276.5 291.789V286.211ZM288.84 291.707C288.84 292.191 288.746 292.648 288.559 293.078C288.379 293.508 288.129 293.883 287.809 294.203C287.488 294.523 287.113 294.777 286.684 294.965C286.254 295.145 285.797 295.234 285.312 295.234H284.352C283.867 295.234 283.41 295.145 282.98 294.965C282.551 294.777 282.176 294.523 281.855 294.203C281.535 293.883 281.281 293.508 281.094 293.078C280.914 292.648 280.824 292.191 280.824 291.707V286.293C280.824 285.809 280.914 285.352 281.094 284.922C281.281 284.492 281.535 284.117 281.855 283.797C282.176 283.477 282.551 283.227 282.98 283.047C283.41 282.859 283.867 282.766 284.352 282.766H285.312C285.797 282.766 286.254 282.859 286.684 283.047C287.113 283.227 287.488 283.477 287.809 283.797C288.129 284.117 288.379 284.492 288.559 284.922C288.746 285.352 288.84 285.809 288.84 286.293V289.117H282.266V291.789C282.266 292.078 282.32 292.352 282.43 292.609C282.539 292.859 282.688 293.078 282.875 293.266C283.062 293.453 283.281 293.602 283.531 293.711C283.789 293.82 284.062 293.875 284.352 293.875H285.312C285.602 293.875 285.871 293.82 286.121 293.711C286.379 293.602 286.602 293.453 286.789 293.266C286.977 293.078 287.125 292.859 287.234 292.609C287.344 292.352 287.398 292.078 287.398 291.789V290.992L288.84 291.227V291.707ZM287.398 286.211C287.398 285.922 287.344 285.652 287.234 285.402C287.125 285.145 286.977 284.922 286.789 284.734C286.602 284.547 286.379 284.398 286.121 284.289C285.871 284.18 285.602 284.125 285.312 284.125H284.352C284.062 284.125 283.789 284.18 283.531 284.289C283.281 284.398 283.062 284.547 282.875 284.734C282.688 284.922 282.539 285.145 282.43 285.402C282.32 285.652 282.266 285.922 282.266 286.211V287.992H287.398V286.211ZM299.973 291.953C299.973 292.438 299.875 292.883 299.68 293.289C299.484 293.688 299.219 294.031 298.883 294.32C298.547 294.609 298.156 294.836 297.711 295C297.273 295.156 296.812 295.234 296.328 295.234H295.367C294.883 295.234 294.418 295.145 293.973 294.965C293.535 294.777 293.148 294.523 292.812 294.203C292.484 293.883 292.219 293.508 292.016 293.078C291.82 292.648 291.723 292.191 291.723 291.707V291.227L293.164 290.992V291.789C293.164 292.078 293.223 292.352 293.34 292.609C293.465 292.859 293.629 293.078 293.832 293.266C294.035 293.453 294.27 293.602 294.535 293.711C294.801 293.82 295.078 293.875 295.367 293.875H296.328C296.617 293.875 296.895 293.832 297.16 293.746C297.426 293.66 297.66 293.539 297.863 293.383C298.074 293.219 298.238 293.023 298.355 292.797C298.48 292.57 298.543 292.312 298.543 292.023C298.543 291.594 298.449 291.242 298.262 290.969C298.074 290.695 297.824 290.469 297.512 290.289C297.207 290.102 296.855 289.949 296.457 289.832C296.066 289.707 295.664 289.586 295.25 289.469C294.836 289.344 294.43 289.203 294.031 289.047C293.641 288.891 293.289 288.688 292.977 288.438C292.672 288.18 292.426 287.859 292.238 287.477C292.051 287.094 291.957 286.617 291.957 286.047C291.957 285.562 292.051 285.121 292.238 284.723C292.426 284.316 292.68 283.969 293 283.68C293.32 283.391 293.691 283.168 294.113 283.012C294.543 282.848 295 282.766 295.484 282.766H296.328C296.812 282.766 297.27 282.859 297.699 283.047C298.129 283.227 298.504 283.477 298.824 283.797C299.145 284.117 299.395 284.492 299.574 284.922C299.762 285.352 299.855 285.809 299.855 286.293V286.34L298.414 286.574V286.211C298.414 285.922 298.359 285.652 298.25 285.402C298.141 285.145 297.992 284.922 297.805 284.734C297.617 284.547 297.395 284.398 297.137 284.289C296.887 284.18 296.617 284.125 296.328 284.125H295.484C295.195 284.125 294.922 284.168 294.664 284.254C294.414 284.34 294.195 284.465 294.008 284.629C293.82 284.785 293.672 284.977 293.562 285.203C293.453 285.43 293.398 285.688 293.398 285.977C293.398 286.391 293.492 286.73 293.68 286.996C293.867 287.254 294.113 287.473 294.418 287.652C294.73 287.832 295.082 287.984 295.473 288.109C295.871 288.227 296.273 288.352 296.68 288.484C297.094 288.609 297.496 288.754 297.887 288.918C298.285 289.082 298.637 289.293 298.941 289.551C299.254 289.809 299.504 290.133 299.691 290.523C299.879 290.906 299.973 291.383 299.973 291.953ZM303.102 280.117V278.195H304.777V280.117H303.102ZM303.219 295V283H304.66V295H303.219ZM316.168 296.512C316.168 296.996 316.074 297.441 315.887 297.848C315.707 298.254 315.457 298.602 315.137 298.891C314.816 299.18 314.441 299.402 314.012 299.559C313.582 299.723 313.125 299.805 312.641 299.805H312.043C311.559 299.805 311.102 299.723 310.672 299.559C310.242 299.402 309.867 299.18 309.547 298.891C309.227 298.602 308.973 298.254 308.785 297.848C308.605 297.441 308.516 296.996 308.516 296.512V296.465C308.516 295.996 308.602 295.566 308.773 295.176C308.945 294.785 309.18 294.445 309.477 294.156C309.102 293.93 308.801 293.625 308.574 293.242C308.355 292.852 308.246 292.422 308.246 291.953C308.246 291.531 308.336 291.141 308.516 290.781C308.695 290.414 308.941 290.117 309.254 289.891C308.879 289.562 308.582 289.168 308.363 288.707C308.145 288.246 308.035 287.742 308.035 287.195V286.293C308.035 285.809 308.125 285.352 308.305 284.922C308.492 284.492 308.746 284.117 309.066 283.797C309.387 283.477 309.762 283.227 310.191 283.047C310.621 282.859 311.078 282.766 311.562 282.766H312.16C312.746 282.766 313.285 282.898 313.777 283.164C314.277 283.422 314.691 283.773 315.02 284.219L315.805 283H316.285V287.195C316.285 287.68 316.191 288.137 316.004 288.566C315.824 288.996 315.574 289.371 315.254 289.691C314.934 290.012 314.559 290.266 314.129 290.453C313.699 290.633 313.242 290.723 312.758 290.723H310.672C310.508 290.723 310.352 290.758 310.203 290.828C310.055 290.891 309.922 290.977 309.805 291.086C309.695 291.195 309.609 291.328 309.547 291.484C309.484 291.633 309.453 291.789 309.453 291.953C309.453 292.117 309.484 292.273 309.547 292.422C309.609 292.57 309.695 292.703 309.805 292.82C309.922 292.93 310.055 293.016 310.203 293.078C310.352 293.141 310.508 293.172 310.672 293.172H312.641C313.125 293.172 313.582 293.254 314.012 293.418C314.441 293.574 314.816 293.797 315.137 294.086C315.457 294.375 315.707 294.723 315.887 295.129C316.074 295.535 316.168 295.98 316.168 296.465V296.512ZM314.855 286.211C314.855 285.922 314.801 285.652 314.691 285.402C314.582 285.145 314.43 284.922 314.234 284.734C314.047 284.547 313.824 284.398 313.566 284.289C313.316 284.18 313.047 284.125 312.758 284.125H311.562C311.273 284.125 311 284.18 310.742 284.289C310.492 284.398 310.273 284.547 310.086 284.734C309.898 284.922 309.75 285.145 309.641 285.402C309.531 285.652 309.477 285.922 309.477 286.211V287.277C309.477 287.566 309.531 287.84 309.641 288.098C309.75 288.348 309.898 288.566 310.086 288.754C310.273 288.941 310.492 289.09 310.742 289.199C311 289.309 311.273 289.363 311.562 289.363H312.758C313.047 289.363 313.316 289.309 313.566 289.199C313.824 289.09 314.047 288.941 314.234 288.754C314.43 288.566 314.582 288.348 314.691 288.098C314.801 287.84 314.855 287.566 314.855 287.277V286.211ZM314.797 296.395C314.797 296.105 314.742 295.844 314.633 295.609C314.523 295.383 314.375 295.191 314.188 295.035C314 294.879 313.777 294.758 313.52 294.672C313.27 294.586 313 294.543 312.711 294.543H311.973C311.684 294.543 311.41 294.586 311.152 294.672C310.902 294.758 310.684 294.879 310.496 295.035C310.309 295.191 310.16 295.383 310.051 295.609C309.941 295.844 309.887 296.105 309.887 296.395V296.582C309.887 296.871 309.941 297.129 310.051 297.355C310.16 297.582 310.309 297.773 310.496 297.93C310.684 298.094 310.902 298.219 311.152 298.305C311.41 298.391 311.684 298.434 311.973 298.434H312.711C313 298.434 313.27 298.391 313.52 298.305C313.777 298.219 314 298.094 314.188 297.93C314.375 297.773 314.523 297.582 314.633 297.355C314.742 297.129 314.797 296.871 314.797 296.582V296.395ZM325.508 295V286.211C325.508 285.922 325.453 285.652 325.344 285.402C325.234 285.145 325.086 284.922 324.898 284.734C324.711 284.547 324.488 284.398 324.23 284.289C323.98 284.18 323.711 284.125 323.422 284.125H322.461C322.172 284.125 321.898 284.18 321.641 284.289C321.391 284.398 321.172 284.547 320.984 284.734C320.797 284.922 320.648 285.145 320.539 285.402C320.43 285.652 320.375 285.922 320.375 286.211V295H318.934V283H319.414L320.199 284.219C320.527 283.773 320.938 283.422 321.43 283.164C321.93 282.898 322.473 282.766 323.059 282.766H323.422C323.906 282.766 324.363 282.859 324.793 283.047C325.223 283.227 325.598 283.477 325.918 283.797C326.238 284.117 326.488 284.492 326.668 284.922C326.855 285.352 326.949 285.809 326.949 286.293V295H325.508Z" fill="black"/>
<path d="M75.952 243.456C70.672 243.456 66.112 240.6 62.272 234.888C60.928 232.824 59.872 230.592 59.104 228.192C56.56 220.56 55.288 212.496 55.288 204C55.288 192.72 57.52 179.376 61.984 163.968C64.096 156.624 66.616 149.64 69.544 143.016C73.912 133.032 78.664 125.856 83.8 121.488C86.824 118.896 89.8 117.6 92.728 117.6C95.992 117.6 98.56 119.424 100.432 123.072C102.64 127.296 103.744 132.24 103.744 137.904C103.744 139.2 103.672 140.496 103.528 141.792C103.384 143.04 103.24 144.264 103.096 145.464C102.952 146.664 102.616 148.32 102.088 150.432C101.56 152.496 100.984 154.176 100.36 155.472C99.976 155.952 99.616 156.192 99.28 156.192C99.04 156.192 98.92 156.024 98.92 155.688L99.064 154.392C100.792 147.864 101.656 142.536 101.656 138.408C101.656 133.608 100.696 129 98.776 124.584C96.904 121.656 94.888 120.192 92.728 120.192C89.512 120.192 86.08 122.76 82.432 127.896C78.208 133.992 74.488 141.408 71.272 150.144C65.752 165.12 62.392 179.496 61.192 193.272C61 195.528 60.904 197.856 60.904 200.256C60.904 204.72 61.456 209.52 62.56 214.656C65.968 230.496 71.44 238.416 78.976 238.416C83.872 238.416 89.32 233.328 95.32 223.152C97.336 219.648 99.496 215.208 101.8 209.832C103.048 207 104.128 204.264 105.04 201.624C107.536 194.568 109.792 189.576 111.808 186.648C112.24 186.072 112.72 185.784 113.248 185.784C114.064 185.784 114.472 186.192 114.472 187.008C114.472 187.824 114.184 188.52 113.608 189.096C112.216 190.584 109.936 195.408 106.768 203.568C103.84 210.672 101.44 216.36 99.568 220.632C97.072 226.008 94.096 230.832 90.64 235.104C85.984 240.672 81.088 243.456 75.952 243.456ZM115.242 187.728C116.25 187.728 117.354 187.104 118.554 185.856L119.706 184.488C121.194 182.616 121.938 180.336 121.938 177.648C121.938 175.728 121.458 174.768 120.498 174.768C119.634 174.768 118.698 175.512 117.69 177C115.866 179.736 114.762 183.312 114.378 187.728H115.242ZM120.354 207.024C120.066 207.024 119.442 206.952 118.482 206.808C117.57 206.712 116.49 206.112 115.242 205.008C112.17 202.272 110.634 197.952 110.634 192.048C110.634 186.816 111.738 182.4 113.946 178.8C116.25 174.912 118.386 172.968 120.354 172.968C121.314 172.968 122.082 173.472 122.658 174.48C123.234 175.44 123.522 176.616 123.522 178.008C123.522 178.632 123.426 179.664 123.234 181.104C123.09 182.256 122.154 183.912 120.426 186.072C118.698 188.184 116.946 189.24 115.17 189.24L114.234 189.168C114.138 190.08 114.09 190.968 114.09 191.832C114.09 196.008 115.098 199.224 117.114 201.48C118.17 202.68 119.37 203.28 120.714 203.28C121.578 203.28 122.49 203.016 123.45 202.488C125.322 201.288 126.978 199.656 128.418 197.592C129.906 195.48 131.49 192.96 133.17 190.032C134.322 187.968 135.09 186.696 135.474 186.216C135.666 185.88 135.954 185.712 136.338 185.712C136.722 185.712 136.914 186 136.914 186.576C136.914 187.056 136.65 187.8 136.122 188.808C133.338 193.848 131.37 197.28 130.218 199.104C128.49 201.792 126.57 203.928 124.458 205.512C123.066 206.52 121.698 207.024 120.354 207.024ZM143.76 198.456C145.056 197.592 146.712 196.536 148.728 195.288C149.16 194.712 149.688 193.92 150.312 192.912C150.312 192.816 150.36 192.696 150.456 192.552C151.176 191.544 151.92 190.296 152.688 188.808C153.456 187.32 153.84 186.144 153.84 185.28C153.84 185.136 153.816 184.968 153.768 184.776C153.72 184.536 153.408 184.416 152.832 184.416C151.68 184.416 150.216 185.76 148.44 188.448C147.096 190.464 145.992 192.456 145.128 194.424L143.76 198.456ZM136.344 243.168C135.336 243.168 134.736 242.4 134.544 240.864C134.208 237.072 134.04 233.184 134.04 229.2V220.848C133.944 217.68 133.896 214.536 133.896 211.416C133.896 203.976 134.208 196.608 134.832 189.312C135.744 178.656 137.472 173.136 140.016 172.752C140.976 172.752 141.504 173.232 141.6 174.192L141.672 175.272C141.672 176.952 141.096 182.664 139.944 192.408C139.176 198.312 138.624 204.432 138.288 210.768C138.288 213.744 138.36 215.28 138.504 215.376C138.648 215.376 138.792 214.944 138.936 214.08C139.656 207.936 141.168 201.912 143.472 196.008C144.672 192.552 146.4 189.336 148.656 186.36C150.288 184.152 151.968 183.048 153.696 183.048C154.992 183.048 155.64 183.912 155.64 185.64C155.64 187.848 155.064 190.056 153.912 192.264C162.072 187.704 166.8 185.424 168.096 185.424C168.816 185.424 169.176 185.832 169.176 186.648C169.176 186.888 169.128 187.2 169.032 187.584C168.984 187.92 168.552 188.232 167.736 188.52C161.976 190.248 157.056 192.216 152.976 194.424C152.16 196.104 151.2 197.664 150.096 199.104C148.32 201.456 146.592 202.632 144.912 202.632C144.144 202.632 143.376 202.368 142.608 201.84L141.888 204.36C140.4 210.12 139.464 217.296 139.08 225.888C138.6 232.896 138.36 237.072 138.36 238.416C138.408 238.8 138.432 239.232 138.432 239.712C138.432 240.144 138.36 240.888 138.216 241.944C138.072 242.76 137.448 243.168 136.344 243.168ZM171.07 187.728C172.078 187.728 173.182 187.104 174.382 185.856L175.534 184.488C177.022 182.616 177.766 180.336 177.766 177.648C177.766 175.728 177.286 174.768 176.326 174.768C175.462 174.768 174.526 175.512 173.518 177C171.694 179.736 170.59 183.312 170.206 187.728H171.07ZM176.182 207.024C175.894 207.024 175.27 206.952 174.31 206.808C173.398 206.712 172.318 206.112 171.07 205.008C167.998 202.272 166.462 197.952 166.462 192.048C166.462 186.816 167.566 182.4 169.774 178.8C172.078 174.912 174.214 172.968 176.182 172.968C177.142 172.968 177.91 173.472 178.486 174.48C179.062 175.44 179.35 176.616 179.35 178.008C179.35 178.632 179.254 179.664 179.062 181.104C178.918 182.256 177.982 183.912 176.254 186.072C174.526 188.184 172.774 189.24 170.998 189.24L170.062 189.168C169.966 190.08 169.918 190.968 169.918 191.832C169.918 196.008 170.926 199.224 172.942 201.48C173.998 202.68 175.198 203.28 176.542 203.28C177.406 203.28 178.318 203.016 179.278 202.488C181.15 201.288 182.806 199.656 184.246 197.592C185.734 195.48 187.318 192.96 188.998 190.032C190.15 187.968 190.918 186.696 191.302 186.216C191.494 185.88 191.782 185.712 192.166 185.712C192.55 185.712 192.742 186 192.742 186.576C192.742 187.056 192.478 187.8 191.95 188.808C189.166 193.848 187.198 197.28 186.046 199.104C184.318 201.792 182.398 203.928 180.286 205.512C178.894 206.52 177.526 207.024 176.182 207.024ZM194.404 199.68C198.1 194.256 200.188 188.496 200.668 182.4L200.812 180.888L200.74 180.816L200.596 180.888C199.54 182.088 198.58 183.888 197.716 186.288C196.852 188.64 196.132 191.064 195.556 193.56C194.98 196.008 194.596 198.048 194.404 199.68ZM206.428 179.736L206.86 179.448C214.06 174.744 220.852 165.888 227.236 152.88C230.26 146.736 231.772 141.192 231.772 136.248C231.772 134.76 231.58 133.512 231.196 132.504C230.572 130.824 229.564 129.984 228.172 129.984C227.644 129.984 226.684 130.248 225.292 130.776C223.9 131.304 221.716 133.776 218.74 138.192C217.444 140.16 216.364 142.056 215.5 143.88C211.996 150.984 209.62 157.776 208.372 164.256C207.7 167.904 207.052 173.064 206.428 179.736ZM218.884 217.176C214.276 217.176 210.052 213.984 206.212 207.6C203.716 203.712 202.132 199.608 201.46 195.288C201.076 193.032 200.812 191.904 200.668 191.904C200.572 191.904 200.308 192.576 199.876 193.92C198.388 199.008 196.684 202.656 194.764 204.864C193.996 205.776 193.156 206.232 192.244 206.232C191.524 206.232 190.756 205.896 189.94 205.224C188.98 204.072 188.5 202.152 188.5 199.464C188.5 196.488 189.172 192.576 190.516 187.728C191.572 183.888 193.3 180.456 195.7 177.432C196.948 175.992 198.364 175.272 199.948 175.272C200.284 175.272 200.596 175.296 200.884 175.344H201.172C201.508 171.6 202.708 166.512 204.772 160.08C208.372 148.8 213.196 139.92 219.244 133.44C222.364 130.176 225.172 128.544 227.668 128.544C231.412 128.544 233.284 131.16 233.284 136.392C233.284 138.648 232.924 140.856 232.204 143.016C228.844 154.008 223.468 164.112 216.076 173.328C212.956 177.216 209.932 180 207.004 181.68C206.572 181.68 206.356 182.736 206.356 184.848C206.356 186.24 206.452 187.872 206.644 189.744C207.412 196.464 209.092 202.416 211.684 207.6C214.036 212.4 216.628 214.8 219.46 214.8C223.396 214.8 227.116 210.792 230.62 202.776C233.02 197.4 234.58 192.6 235.3 188.376C235.3 187.896 235.444 187.392 235.732 186.864C236.164 186.144 236.764 185.784 237.532 185.784C238.204 185.784 238.54 186.192 238.54 187.008C238.54 188.304 237.868 190.896 236.524 194.784C234.172 201.504 231.436 207 228.316 211.272C225.484 215.208 222.34 217.176 218.884 217.176ZM235.313 202.056C232.721 201.816 231.425 200.256 231.425 197.376C231.425 194.64 232.217 191.832 233.801 188.952C235.001 186.648 236.105 184.92 237.113 183.768C240.089 180.408 242.849 178.728 245.393 178.728C246.113 178.728 246.713 178.896 247.193 179.232C248.105 179.712 248.561 180.456 248.561 181.464C248.561 182.232 248.321 182.808 247.841 183.192C247.409 183.528 246.857 183.864 246.185 184.2C242.441 185.88 239.537 188.856 237.473 193.128C236.753 194.664 236.225 196.464 235.889 198.528C237.233 198.24 238.841 196.416 240.713 193.056C241.481 191.76 242.249 190.584 243.017 189.528C244.073 188.184 245.105 187.512 246.113 187.512C247.361 187.512 248.873 188.832 250.649 191.472C252.761 194.304 254.417 195.72 255.617 195.72C259.025 195.72 262.217 192.744 265.193 186.792C265.577 186.024 266.057 185.64 266.633 185.64C267.209 185.64 267.497 185.88 267.497 186.36C267.497 186.648 267.425 186.936 267.281 187.224C263.057 194.376 259.313 197.952 256.049 197.952C255.809 197.952 255.233 197.88 254.321 197.736C253.457 197.592 252.425 196.944 251.225 195.792C250.025 194.592 248.993 193.368 248.129 192.12C247.265 190.824 246.473 189.888 245.753 189.312C245.081 190.128 244.601 190.8 244.313 191.328C244.073 191.808 243.737 192.408 243.305 193.128C240.233 199.08 237.569 202.056 235.313 202.056Z" fill="black"/>
</svg>
