<svg width="391" height="303" viewBox="0 0 391 303" fill="none" xmlns="http://www.w3.org/2000/svg">
<path d="M27.936 168.608C20.896 168.608 14.816 164.8 9.696 157.184C7.904 154.432 6.496 151.456 5.472 148.256C2.08 138.08 0.384 127.328 0.384 116C0.384 100.96 3.36 83.168 9.312 62.624C12.128 52.832 15.488 43.52 19.392 34.688C25.216 21.376 31.552 11.808 38.4 5.984C42.432 2.528 46.4 0.799995 50.304 0.799995C54.656 0.799995 58.08 3.23199 60.576 8.09599C63.52 13.728 64.992 20.32 64.992 27.872C64.992 29.6 64.896 31.328 64.704 33.056C64.512 34.72 64.32 36.352 64.128 37.952C63.936 39.552 63.488 41.76 62.784 44.576C62.08 47.328 61.312 49.568 60.48 51.296C59.968 51.936 59.488 52.256 59.04 52.256C58.72 52.256 58.56 52.032 58.56 51.584L58.752 49.856C61.056 41.152 62.208 34.048 62.208 28.544C62.208 22.144 60.928 16 58.368 10.112C55.872 6.208 53.184 4.256 50.304 4.256C46.016 4.256 41.44 7.68 36.576 14.528C30.944 22.656 25.984 32.544 21.696 44.192C14.336 64.16 9.856 83.328 8.256 101.696C8 104.704 7.872 107.808 7.872 111.008C7.872 116.96 8.608 123.36 10.08 130.208C14.624 151.328 21.92 161.888 31.968 161.888C38.496 161.888 45.76 155.104 53.76 141.536C56.448 136.864 59.328 130.944 62.4 123.776C64.064 120 65.504 116.352 66.72 112.832C70.048 103.424 73.056 96.768 75.744 92.864C76.32 92.096 76.96 91.712 77.664 91.712C78.752 91.712 79.296 92.256 79.296 93.344C79.296 94.432 78.912 95.36 78.144 96.128C76.288 98.112 73.248 104.544 69.024 115.424C65.12 124.896 61.92 132.48 59.424 138.176C56.096 145.344 52.128 151.776 47.52 157.472C41.312 164.896 34.784 168.608 27.936 168.608ZM82.1468 87.296C83.2348 84.928 84.4828 82.592 85.8907 80.288C89.0268 74.912 92.4828 68.096 96.2588 59.84C98.3708 54.848 100.451 49.92 102.499 45.056C104.611 40.128 106.307 34.656 107.587 28.64C108.163 25.504 108.451 22.944 108.451 20.96C108.451 17.376 107.555 15.584 105.763 15.584C103.395 15.584 100.675 18.432 97.6028 24.128C94.9148 29.312 92.4188 35.808 90.1148 43.616C87.8108 51.424 86.1148 58.24 85.0268 64.064C83.0428 77.824 82.0508 84.896 82.0508 85.28L82.1468 87.296ZM79.4588 125.6C76.0028 125.6 74.2748 120.288 74.2748 109.664C74.3388 104.672 74.6588 98.688 75.2348 91.712C77.6028 64.448 83.1068 42.72 91.7468 26.528C93.6028 22.88 96.0668 19.552 99.1388 16.544C101.379 14.368 103.427 13.28 105.283 13.28C106.435 13.28 107.523 13.856 108.547 15.008C109.571 16.16 110.083 18.144 110.083 20.96C110.083 27.744 107.843 36.736 103.363 47.936C102.467 50.496 100.451 55.264 97.3148 62.24C95.7788 65.568 93.6348 70.368 90.8828 76.64C88.1308 82.912 85.6028 87.648 83.2988 90.848C81.8908 92.64 81.1868 94.688 81.1868 96.992C81.1868 103.712 81.3148 107.552 81.5708 108.512C81.9548 107.808 82.2108 107.168 82.3388 106.592C85.7948 96.288 89.6348 91.136 93.8588 91.136C94.5628 91.136 95.5868 91.392 96.9308 91.904C98.2748 92.352 100.131 94.368 102.499 97.952C105.379 102.24 107.843 104.384 109.891 104.384C112.067 104.384 114.307 101.824 116.611 96.704C118.083 93.248 119.363 91.52 120.451 91.52C121.155 91.52 121.507 91.936 121.507 92.768C121.507 93.088 121.315 93.952 120.931 95.36C120.099 98.176 118.723 100.928 116.803 103.616C114.563 106.816 112.195 108.416 109.699 108.416C106.755 108.224 104.387 107.232 102.595 105.44C100.867 103.648 99.3628 101.536 98.0828 99.104C96.3548 96.096 94.7228 94.592 93.1868 94.592C90.3068 94.592 87.7148 98.848 85.4108 107.36C83.8748 112.8 83.0108 117.728 82.8188 122.144C82.5628 124.448 81.4428 125.6 79.4588 125.6ZM121.041 118.688C119.825 118.688 118.897 117.888 118.257 116.288C117.681 114.752 117.393 112.064 117.393 108.224C117.393 105.088 117.585 101.152 117.969 96.416C118.673 87.968 120.113 83.744 122.289 83.744C122.865 83.744 123.377 83.904 123.825 84.224C124.337 84.544 124.593 85.792 124.593 87.968C124.593 92.704 124.337 99.264 123.825 107.648C127.089 95.232 131.889 85.888 138.225 79.616C140.337 77.568 142.545 76.544 144.849 76.544C146.129 76.544 147.217 76.992 148.113 77.888C149.009 78.72 149.457 79.712 149.457 80.864C149.457 82.464 148.945 83.264 147.921 83.264C147.153 83.264 146.257 82.72 145.233 81.632C144.465 80.8 143.761 80.352 143.121 80.288C142.737 80.288 142.257 80.416 141.681 80.672C138.161 82.592 134.417 87.552 130.449 95.552C128.913 98.56 127.441 103.36 126.033 109.952C125.073 115.776 123.409 118.688 121.041 118.688ZM165.484 60.032C164.077 60.032 163.373 59.264 163.373 57.728C163.373 56.832 163.597 56.224 164.045 55.904C164.685 55.392 165.357 55.136 166.061 55.136C167.533 55.136 168.269 55.968 168.269 57.632C168.269 58.4 167.981 59.008 167.405 59.456C166.829 59.84 166.189 60.032 165.484 60.032ZM166.157 114.176C164.557 114.112 162.925 113.536 161.261 112.448C159.597 111.36 158.189 109.792 157.037 107.744C155.309 104.864 154.445 101.504 154.445 97.664C154.445 95.872 154.541 94.016 154.733 92.096C154.925 89.856 155.661 87.296 156.941 84.416C158.285 81.152 159.629 79.52 160.973 79.52C163.213 79.52 164.333 80.352 164.333 82.016C164.333 82.72 163.789 84.96 162.701 88.736C161.933 92.064 161.549 95.488 161.549 99.008C161.549 101.76 161.869 104.288 162.509 106.592C163.597 109.728 165.037 111.296 166.829 111.296C168.621 111.296 170.509 109.984 172.493 107.36C174.925 104.032 176.845 100.352 178.253 96.32C179.149 93.12 180.205 91.52 181.421 91.52C182.061 91.52 182.381 92 182.381 92.96C182.381 94.88 181.261 97.952 179.021 102.176C174.797 110.176 170.509 114.176 166.157 114.176ZM191.967 140C193.247 140 194.687 139.584 196.287 138.752C208.639 132.48 215.711 123.168 217.503 110.816C199.519 125.152 190.527 134.368 190.527 138.464C190.527 139.488 191.007 140 191.967 140ZM192.447 142.304C189.695 142.304 188.319 141.088 188.319 138.656C188.319 134.816 191.327 130.368 197.343 125.312C200.095 122.624 204.063 119.232 209.247 115.136C214.495 111.04 217.247 108.832 217.503 108.512V107.264C217.503 106.24 216.831 105.12 215.487 103.904C214.207 102.624 211.967 101.984 208.767 101.984C206.847 101.984 204.799 102.176 202.623 102.56L195.423 104.48C189.535 106.272 185.151 107.168 182.271 107.168C180.287 107.168 178.719 106.528 177.567 105.248C176.415 103.968 175.839 102.336 175.839 100.352C176.607 91.584 181.919 83.488 191.775 76.064C195.743 73.12 199.231 71.648 202.239 71.648C204.991 71.648 207.423 72.704 209.535 74.816C211.327 76.864 212.223 79.328 212.223 82.208C211.967 86.112 211.071 88.864 209.535 90.464C208.703 91.296 207.839 91.712 206.943 91.712C205.919 91.712 205.407 91.104 205.407 89.888C205.407 89.056 205.887 87.712 206.847 85.856C208.063 83.296 208.671 81.216 208.671 79.616C208.671 76.544 207.199 75.008 204.255 75.008C201.183 75.392 198.143 77.216 195.135 80.48C192.127 83.744 189.503 87.392 187.263 91.424C185.023 95.392 183.903 98.496 183.903 100.736C183.903 102.016 184.447 102.656 185.535 102.656C186.367 102.656 188.895 102.144 193.119 101.12C199.455 99.584 204.639 98.816 208.671 98.816C209.183 98.816 210.335 98.848 212.127 98.912C213.919 98.912 215.775 99.488 217.695 100.64C219.615 101.728 220.831 103.424 221.343 105.728L240.255 92.288C241.215 91.712 241.983 91.424 242.559 91.424C243.391 91.424 243.807 91.776 243.807 92.48C243.807 93.312 243.327 94.016 242.367 94.592L221.535 107.936C221.151 115.872 218.687 122.72 214.143 128.48C209.663 134.304 203.935 138.592 196.959 141.344C195.295 141.984 193.791 142.304 192.447 142.304ZM257.963 146.144C256.427 146.144 254.827 145.504 253.163 144.224C250.411 141.92 248.235 138.592 246.635 134.24C243.307 125.28 241.643 113.504 241.643 98.912C241.643 94.112 242.091 86.944 242.987 77.408C245.291 62.88 246.987 53.504 248.075 49.28C246.731 49.408 241.451 50.848 232.235 53.6C223.019 56.288 217.163 57.632 214.667 57.632C212.619 57.632 211.595 56.864 211.595 55.328C211.595 54.112 212.075 52.992 213.035 51.968C213.931 50.88 215.051 50.304 216.395 50.24C217.355 50.24 217.835 50.624 217.835 51.392C217.835 52.032 217.611 52.736 217.163 53.504C217.867 53.44 228.395 51.104 248.747 46.496C249.643 42.464 250.539 39.68 251.435 38.144C251.499 37.568 251.883 36.48 252.587 34.88C253.355 33.216 254.315 32.384 255.467 32.384C256.683 32.384 257.291 33.056 257.291 34.4C257.291 34.912 257.163 35.552 256.907 36.32C255.499 40.864 254.795 43.744 254.795 44.96C254.795 45.152 254.859 45.248 254.987 45.248L262.283 43.808C269.771 42.144 276.619 40.96 282.827 40.256C292.107 38.848 299.915 38.144 306.251 38.144C308.171 38.144 310.795 38.272 314.123 38.528C317.835 38.72 321.163 39.872 324.107 41.984C325.259 42.944 325.835 44 325.835 45.152C325.835 46.368 325.323 47.296 324.299 47.936C324.043 48.128 323.787 48.224 323.531 48.224C323.019 48.224 322.763 48 322.763 47.552C322.827 47.296 322.923 47.008 323.051 46.688C323.243 46.304 323.339 45.92 323.339 45.536C323.339 44.064 321.035 42.784 316.427 41.696C311.499 40.864 306.603 40.448 301.739 40.448C291.691 40.448 276.747 42.56 256.907 46.784C255.947 46.976 255.243 47.2 254.795 47.456C254.091 47.904 252.331 56.992 249.515 74.72C248.491 82.592 247.979 91.424 247.979 101.216C247.979 112.416 249.547 122.688 252.683 132.032C254.603 137.728 256.811 140.736 259.307 141.056C261.803 141.056 264.587 137.056 267.659 129.056C269.323 124.576 270.379 121.44 270.827 119.648C271.915 116.32 273.387 108.96 275.243 97.568C275.371 96.224 275.627 94.656 276.011 92.864C276.395 91.776 277.163 91.232 278.315 91.232L278.987 91.328C279.755 91.456 280.139 92.032 280.139 93.056C280.139 94.272 279.787 95.84 279.083 97.76C278.379 99.616 277.355 103.936 276.011 110.72C272.811 127.168 268.779 137.984 263.915 143.168C262.123 145.152 260.139 146.144 257.963 146.144ZM286.703 60.032C285.295 60.032 284.591 59.264 284.591 57.728C284.591 56.832 284.815 56.224 285.263 55.904C285.903 55.392 286.575 55.136 287.279 55.136C288.751 55.136 289.487 55.968 289.487 57.632C289.487 58.4 289.199 59.008 288.623 59.456C288.047 59.84 287.407 60.032 286.703 60.032ZM287.375 114.176C285.775 114.112 284.143 113.536 282.479 112.448C280.815 111.36 279.407 109.792 278.255 107.744C276.527 104.864 275.663 101.504 275.663 97.664C275.663 95.872 275.759 94.016 275.951 92.096C276.143 89.856 276.879 87.296 278.159 84.416C279.503 81.152 280.847 79.52 282.191 79.52C284.431 79.52 285.551 80.352 285.551 82.016C285.551 82.72 285.007 84.96 283.919 88.736C283.151 92.064 282.767 95.488 282.767 99.008C282.767 101.76 283.087 104.288 283.727 106.592C284.815 109.728 286.255 111.296 288.047 111.296C289.839 111.296 291.727 109.984 293.711 107.36C296.143 104.032 298.063 100.352 299.471 96.32C300.367 93.12 301.423 91.52 302.639 91.52C303.279 91.52 303.599 92 303.599 92.96C303.599 94.88 302.479 97.952 300.239 102.176C296.015 110.176 291.727 114.176 287.375 114.176ZM303.874 118.784C300.802 118.336 299.266 114.144 299.266 106.208C299.266 104.416 299.362 102.432 299.554 100.256C300.77 86.752 303.458 80 307.618 80C309.218 80 310.018 80.928 310.018 82.784L309.826 84.992C308.994 88.96 308.258 94.56 307.618 101.792L306.85 107.168C306.85 107.424 306.882 107.552 306.946 107.552C307.074 107.552 307.49 106.752 308.194 105.152C312.098 95.488 316.13 90.656 320.29 90.656C321.122 90.656 322.21 91.008 323.554 91.712C324.962 92.352 326.69 94.464 328.738 98.048C331.234 102.464 333.794 104.672 336.418 104.672C337.186 104.672 338.114 104.384 339.202 103.808C340.29 103.168 341.442 102.016 342.658 100.352C343.938 98.624 345.09 96.896 346.114 95.168C346.69 94.208 347.202 93.376 347.65 92.672C348.162 91.968 348.674 91.616 349.186 91.616C350.018 91.68 350.434 92.128 350.434 92.96C350.434 93.472 350.306 94.016 350.05 94.592C348.898 97.216 347.202 100 344.962 102.944C341.762 107.104 338.562 109.184 335.362 109.184C332.354 108.736 330.05 107.552 328.45 105.632C326.85 103.648 325.538 101.408 324.514 98.912C322.85 95.52 321.186 93.824 319.522 93.824C316.642 93.824 313.826 97.92 311.074 106.112L309.154 112.736C308.706 114.08 308.098 115.392 307.33 116.672C306.626 117.952 305.474 118.656 303.874 118.784ZM347.293 113.408C343.837 113.088 342.109 111.008 342.109 107.168C342.109 103.52 343.165 99.776 345.277 95.936C346.877 92.864 348.349 90.56 349.693 89.024C353.661 84.544 357.341 82.304 360.733 82.304C361.693 82.304 362.493 82.528 363.133 82.976C364.349 83.616 364.957 84.608 364.957 85.952C364.957 86.976 364.637 87.744 363.997 88.256C363.421 88.704 362.685 89.152 361.789 89.6C356.797 91.84 352.925 95.808 350.173 101.504C349.213 103.552 348.509 105.952 348.061 108.704C349.853 108.32 351.997 105.888 354.493 101.408C355.517 99.68 356.541 98.112 357.565 96.704C358.973 94.912 360.349 94.016 361.693 94.016C363.357 94.016 365.373 95.776 367.741 99.296C370.557 103.072 372.765 104.96 374.365 104.96C378.909 104.96 383.165 100.992 387.133 93.056C387.645 92.032 388.285 91.52 389.053 91.52C389.821 91.52 390.205 91.84 390.205 92.48C390.205 92.864 390.109 93.248 389.917 93.632C384.285 103.168 379.293 107.936 374.941 107.936C374.621 107.936 373.853 107.84 372.637 107.648C371.485 107.456 370.109 106.592 368.509 105.056C366.909 103.456 365.533 101.824 364.381 100.16C363.229 98.432 362.173 97.184 361.213 96.416C360.317 97.504 359.677 98.4 359.293 99.104C358.973 99.744 358.525 100.544 357.949 101.504C353.853 109.44 350.301 113.408 347.293 113.408Z" fill="black"/>
<path d="M134.936 302.608C127.896 302.608 121.816 298.8 116.696 291.184C114.904 288.432 113.496 285.456 112.472 282.256C109.08 272.08 107.384 261.328 107.384 250C107.384 234.96 110.36 217.168 116.312 196.624C119.128 186.832 122.488 177.52 126.392 168.688C132.216 155.376 138.552 145.808 145.4 139.984C149.432 136.528 153.4 134.8 157.304 134.8C161.656 134.8 165.08 137.232 167.576 142.096C170.52 147.728 171.992 154.32 171.992 161.872C171.992 163.6 171.896 165.328 171.704 167.056C171.512 168.72 171.32 170.352 171.128 171.952C170.936 173.552 170.488 175.76 169.784 178.576C169.08 181.328 168.312 183.568 167.48 185.296C166.968 185.936 166.488 186.256 166.04 186.256C165.72 186.256 165.56 186.032 165.56 185.584L165.752 183.856C168.056 175.152 169.208 168.048 169.208 162.544C169.208 156.144 167.928 150 165.368 144.112C162.872 140.208 160.184 138.256 157.304 138.256C153.016 138.256 148.44 141.68 143.576 148.528C137.944 156.656 132.984 166.544 128.696 178.192C121.336 198.16 116.856 217.328 115.256 235.696C115 238.704 114.872 241.808 114.872 245.008C114.872 250.96 115.608 257.36 117.08 264.208C121.624 285.328 128.92 295.888 138.968 295.888C145.496 295.888 152.76 289.104 160.76 275.536C163.448 270.864 166.328 264.944 169.4 257.776C171.064 254 172.504 250.352 173.72 246.832C177.048 237.424 180.056 230.768 182.744 226.864C183.32 226.096 183.96 225.712 184.664 225.712C185.752 225.712 186.296 226.256 186.296 227.344C186.296 228.432 185.912 229.36 185.144 230.128C183.288 232.112 180.248 238.544 176.024 249.424C172.12 258.896 168.92 266.48 166.424 272.176C163.096 279.344 159.128 285.776 154.52 291.472C148.312 298.896 141.784 302.608 134.936 302.608ZM187.323 228.304C188.667 228.304 190.139 227.472 191.739 225.808L193.275 223.984C195.259 221.488 196.251 218.448 196.251 214.864C196.251 212.304 195.611 211.024 194.331 211.024C193.179 211.024 191.931 212.016 190.587 214C188.155 217.648 186.683 222.416 186.171 228.304H187.323ZM194.139 254.032C193.755 254.032 192.923 253.936 191.643 253.744C190.427 253.616 188.987 252.816 187.323 251.344C183.227 247.696 181.179 241.936 181.179 234.064C181.179 227.088 182.651 221.2 185.595 216.4C188.667 211.216 191.515 208.624 194.139 208.624C195.419 208.624 196.443 209.296 197.211 210.64C197.979 211.92 198.363 213.488 198.363 215.344C198.363 216.176 198.235 217.552 197.979 219.472C197.787 221.008 196.539 223.216 194.235 226.096C191.931 228.912 189.595 230.32 187.227 230.32L185.979 230.224C185.851 231.44 185.787 232.624 185.787 233.776C185.787 239.344 187.131 243.632 189.819 246.64C191.227 248.24 192.827 249.04 194.619 249.04C195.771 249.04 196.987 248.688 198.267 247.984C200.763 246.384 202.971 244.208 204.891 241.456C206.875 238.64 208.987 235.28 211.227 231.376C212.763 228.624 213.787 226.928 214.299 226.288C214.555 225.84 214.939 225.616 215.451 225.616C215.963 225.616 216.219 226 216.219 226.768C216.219 227.408 215.867 228.4 215.163 229.744C211.451 236.464 208.827 241.04 207.291 243.472C204.987 247.056 202.427 249.904 199.611 252.016C197.755 253.36 195.931 254.032 194.139 254.032ZM225.346 242.608C227.074 241.456 229.282 240.048 231.97 238.384C232.546 237.616 233.25 236.56 234.082 235.216C234.082 235.088 234.146 234.928 234.274 234.736C235.234 233.392 236.226 231.728 237.25 229.744C238.274 227.76 238.786 226.192 238.786 225.04C238.786 224.848 238.754 224.624 238.69 224.368C238.626 224.048 238.21 223.888 237.442 223.888C235.906 223.888 233.954 225.68 231.586 229.264C229.794 231.952 228.322 234.608 227.17 237.232L225.346 242.608ZM215.458 302.224C214.114 302.224 213.314 301.2 213.058 299.152C212.61 294.096 212.386 288.912 212.386 283.6V272.464C212.258 268.24 212.194 264.048 212.194 259.888C212.194 249.968 212.61 240.144 213.442 230.416C214.658 216.208 216.962 208.848 220.354 208.336C221.634 208.336 222.338 208.976 222.466 210.256L222.562 211.696C222.562 213.936 221.794 221.552 220.258 234.544C219.234 242.416 218.498 250.576 218.05 259.024C218.05 262.992 218.146 265.04 218.338 265.168C218.53 265.168 218.722 264.592 218.914 263.44C219.874 255.248 221.89 247.216 224.962 239.344C226.562 234.736 228.866 230.448 231.874 226.48C234.05 223.536 236.29 222.064 238.594 222.064C240.322 222.064 241.186 223.216 241.186 225.52C241.186 228.464 240.418 231.408 238.882 234.352C249.762 228.272 256.066 225.232 257.794 225.232C258.754 225.232 259.234 225.776 259.234 226.864C259.234 227.184 259.17 227.6 259.042 228.112C258.978 228.56 258.402 228.976 257.314 229.36C249.634 231.664 243.074 234.288 237.634 237.232C236.546 239.472 235.266 241.552 233.794 243.472C231.426 246.608 229.122 248.176 226.882 248.176C225.858 248.176 224.834 247.824 223.81 247.12L222.85 250.48C220.866 258.16 219.618 267.728 219.106 279.184C218.466 288.528 218.146 294.096 218.146 295.888C218.21 296.4 218.242 296.976 218.242 297.616C218.242 298.192 218.146 299.184 217.954 300.592C217.762 301.68 216.93 302.224 215.458 302.224ZM261.76 228.304C263.104 228.304 264.576 227.472 266.176 225.808L267.712 223.984C269.696 221.488 270.688 218.448 270.688 214.864C270.688 212.304 270.048 211.024 268.768 211.024C267.616 211.024 266.368 212.016 265.024 214C262.592 217.648 261.12 222.416 260.608 228.304H261.76ZM268.576 254.032C268.192 254.032 267.36 253.936 266.08 253.744C264.864 253.616 263.424 252.816 261.76 251.344C257.664 247.696 255.616 241.936 255.616 234.064C255.616 227.088 257.088 221.2 260.032 216.4C263.104 211.216 265.952 208.624 268.576 208.624C269.856 208.624 270.88 209.296 271.648 210.64C272.416 211.92 272.8 213.488 272.8 215.344C272.8 216.176 272.672 217.552 272.416 219.472C272.224 221.008 270.976 223.216 268.672 226.096C266.368 228.912 264.032 230.32 261.664 230.32L260.416 230.224C260.288 231.44 260.224 232.624 260.224 233.776C260.224 239.344 261.568 243.632 264.256 246.64C265.664 248.24 267.264 249.04 269.056 249.04C270.208 249.04 271.424 248.688 272.704 247.984C275.2 246.384 277.408 244.208 279.328 241.456C281.312 238.64 283.424 235.28 285.664 231.376C287.2 228.624 288.224 226.928 288.736 226.288C288.992 225.84 289.376 225.616 289.888 225.616C290.4 225.616 290.656 226 290.656 226.768C290.656 227.408 290.304 228.4 289.6 229.744C285.888 236.464 283.264 241.04 281.728 243.472C279.424 247.056 276.864 249.904 274.048 252.016C272.192 253.36 270.368 254.032 268.576 254.032ZM292.872 244.24C297.8 237.008 300.584 229.328 301.224 221.2L301.416 219.184L301.32 219.088L301.128 219.184C299.72 220.784 298.44 223.184 297.288 226.384C296.136 229.52 295.176 232.752 294.408 236.08C293.64 239.344 293.128 242.064 292.872 244.24ZM308.904 217.648L309.48 217.264C319.08 210.992 328.136 199.184 336.648 181.84C340.68 173.648 342.696 166.256 342.696 159.664C342.696 157.68 342.44 156.016 341.928 154.672C341.096 152.432 339.752 151.312 337.896 151.312C337.192 151.312 335.912 151.664 334.056 152.368C332.2 153.072 329.288 156.368 325.32 162.256C323.592 164.88 322.152 167.408 321 169.84C316.328 179.312 313.16 188.368 311.496 197.008C310.6 201.872 309.736 208.752 308.904 217.648ZM325.512 267.568C319.368 267.568 313.736 263.312 308.616 254.8C305.288 249.616 303.176 244.144 302.28 238.384C301.768 235.376 301.416 233.872 301.224 233.872C301.096 233.872 300.744 234.768 300.168 236.56C298.184 243.344 295.912 248.208 293.352 251.152C292.328 252.368 291.208 252.976 289.992 252.976C289.032 252.976 288.008 252.528 286.92 251.632C285.64 250.096 285 247.536 285 243.952C285 239.984 285.896 234.768 287.688 228.304C289.096 223.184 291.4 218.608 294.6 214.576C296.264 212.656 298.152 211.696 300.264 211.696C300.712 211.696 301.128 211.728 301.512 211.792H301.896C302.344 206.8 303.944 200.016 306.696 191.44C311.496 176.4 317.928 164.56 325.992 155.92C330.152 151.568 333.896 149.392 337.224 149.392C342.216 149.392 344.712 152.88 344.712 159.856C344.712 162.864 344.232 165.808 343.272 168.688C338.792 183.344 331.624 196.816 321.768 209.104C317.608 214.288 313.576 218 309.672 220.24C309.096 220.24 308.808 221.648 308.808 224.464C308.808 226.32 308.936 228.496 309.192 230.992C310.216 239.952 312.456 247.888 315.912 254.8C319.048 261.2 322.504 264.4 326.28 264.4C331.528 264.4 336.488 259.056 341.16 248.368C344.36 241.2 346.44 234.8 347.4 229.168C347.4 228.528 347.592 227.856 347.976 227.152C348.552 226.192 349.352 225.712 350.376 225.712C351.272 225.712 351.72 226.256 351.72 227.344C351.72 229.072 350.824 232.528 349.032 237.712C345.896 246.672 342.248 254 338.088 259.696C334.312 264.944 330.12 267.568 325.512 267.568ZM347.418 247.408C343.962 247.088 342.234 245.008 342.234 241.168C342.234 237.52 343.29 233.776 345.402 229.936C347.002 226.864 348.474 224.56 349.818 223.024C353.786 218.544 357.466 216.304 360.858 216.304C361.818 216.304 362.618 216.528 363.258 216.976C364.474 217.616 365.082 218.608 365.082 219.952C365.082 220.976 364.762 221.744 364.122 222.256C363.546 222.704 362.81 223.152 361.914 223.6C356.922 225.84 353.05 229.808 350.298 235.504C349.338 237.552 348.634 239.952 348.186 242.704C349.978 242.32 352.122 239.888 354.618 235.408C355.642 233.68 356.666 232.112 357.69 230.704C359.098 228.912 360.474 228.016 361.818 228.016C363.482 228.016 365.498 229.776 367.866 233.296C370.682 237.072 372.89 238.96 374.49 238.96C379.034 238.96 383.29 234.992 387.258 227.056C387.77 226.032 388.41 225.52 389.178 225.52C389.946 225.52 390.33 225.84 390.33 226.48C390.33 226.864 390.234 227.248 390.042 227.632C384.41 237.168 379.418 241.936 375.066 241.936C374.746 241.936 373.978 241.84 372.762 241.648C371.61 241.456 370.234 240.592 368.634 239.056C367.034 237.456 365.658 235.824 364.506 234.16C363.354 232.432 362.298 231.184 361.338 230.416C360.442 231.504 359.802 232.4 359.418 233.104C359.098 233.744 358.65 234.544 358.074 235.504C353.978 243.44 350.426 247.408 347.418 247.408Z" fill="black"/>
</svg>
