<svg width="293" height="244" viewBox="0 0 293 244" fill="none" xmlns="http://www.w3.org/2000/svg">
<path d="M20.952 126.456C15.672 126.456 11.112 123.6 7.272 117.888C5.928 115.824 4.872 113.592 4.104 111.192C1.56 103.56 0.288 95.496 0.288 87C0.288 75.72 2.52 62.376 6.984 46.968C9.096 39.624 11.616 32.64 14.544 26.016C18.912 16.032 23.664 8.856 28.8 4.488C31.824 1.896 34.8 0.599997 37.728 0.599997C40.992 0.599997 43.56 2.424 45.432 6.07199C47.64 10.296 48.744 15.24 48.744 20.904C48.744 22.2 48.672 23.496 48.528 24.792C48.384 26.04 48.24 27.264 48.096 28.464C47.952 29.664 47.616 31.32 47.088 33.432C46.56 35.496 45.984 37.176 45.36 38.472C44.976 38.952 44.616 39.192 44.28 39.192C44.04 39.192 43.92 39.024 43.92 38.688L44.064 37.392C45.792 30.864 46.656 25.536 46.656 21.408C46.656 16.608 45.696 12 43.776 7.584C41.904 4.656 39.888 3.192 37.728 3.192C34.512 3.192 31.08 5.76 27.432 10.896C23.208 16.992 19.488 24.408 16.272 33.144C10.752 48.12 7.392 62.496 6.192 76.272C6 78.528 5.904 80.856 5.904 83.256C5.904 87.72 6.456 92.52 7.56 97.656C10.968 113.496 16.44 121.416 23.976 121.416C28.872 121.416 34.32 116.328 40.32 106.152C42.336 102.648 44.496 98.208 46.8 92.832C48.048 90 49.128 87.264 50.04 84.624C52.536 77.568 54.792 72.576 56.808 69.648C57.24 69.072 57.72 68.784 58.248 68.784C59.064 68.784 59.472 69.192 59.472 70.008C59.472 70.824 59.184 71.52 58.608 72.096C57.216 73.584 54.936 78.408 51.768 86.568C48.84 93.672 46.44 99.36 44.568 103.632C42.072 109.008 39.096 113.832 35.64 118.104C30.984 123.672 26.088 126.456 20.952 126.456ZM61.6101 65.472C62.4261 63.696 63.3621 61.944 64.4181 60.216C66.7701 56.184 69.3621 51.072 72.1941 44.88C73.7781 41.136 75.3381 37.44 76.8741 33.792C78.4581 30.096 79.7301 25.992 80.6901 21.48C81.1221 19.128 81.3381 17.208 81.3381 15.72C81.3381 13.032 80.6661 11.688 79.3221 11.688C77.5461 11.688 75.5061 13.824 73.2021 18.096C71.1861 21.984 69.3141 26.856 67.5861 32.712C65.8581 38.568 64.5861 43.68 63.7701 48.048C62.2821 58.368 61.5381 63.672 61.5381 63.96L61.6101 65.472ZM59.5941 94.2C57.0021 94.2 55.7061 90.216 55.7061 82.248C55.7541 78.504 55.9941 74.016 56.4261 68.784C58.2021 48.336 62.3301 32.04 68.8101 19.896C70.2021 17.16 72.0501 14.664 74.3541 12.408C76.0341 10.776 77.5701 9.96 78.9621 9.96C79.8261 9.96 80.6421 10.392 81.4101 11.256C82.1781 12.12 82.5621 13.608 82.5621 15.72C82.5621 20.808 80.8821 27.552 77.5221 35.952C76.8501 37.872 75.3381 41.448 72.9861 46.68C71.8341 49.176 70.2261 52.776 68.1621 57.48C66.0981 62.184 64.2021 65.736 62.4741 68.136C61.4181 69.48 60.8901 71.016 60.8901 72.744C60.8901 77.784 60.9861 80.664 61.1781 81.384C61.4661 80.856 61.6581 80.376 61.7541 79.944C64.3461 72.216 67.2261 68.352 70.3941 68.352C70.9221 68.352 71.6901 68.544 72.6981 68.928C73.7061 69.264 75.0981 70.776 76.8741 73.464C79.0341 76.68 80.8821 78.288 82.4181 78.288C84.0501 78.288 85.7301 76.368 87.4581 72.528C88.5621 69.936 89.5221 68.64 90.3381 68.64C90.8661 68.64 91.1301 68.952 91.1301 69.576C91.1301 69.816 90.9861 70.464 90.6981 71.52C90.0741 73.632 89.0421 75.696 87.6021 77.712C85.9221 80.112 84.1461 81.312 82.2741 81.312C80.0661 81.168 78.2901 80.424 76.9461 79.08C75.6501 77.736 74.5221 76.152 73.5621 74.328C72.2661 72.072 71.0421 70.944 69.8901 70.944C67.7301 70.944 65.7861 74.136 64.0581 80.52C62.9061 84.6 62.2581 88.296 62.1141 91.608C61.9221 93.336 61.0821 94.2 59.5941 94.2ZM90.7808 89.016C89.8688 89.016 89.1728 88.416 88.6928 87.216C88.2608 86.064 88.0448 84.048 88.0448 81.168C88.0448 78.816 88.1888 75.864 88.4768 72.312C89.0048 65.976 90.0848 62.808 91.7168 62.808C92.1488 62.808 92.5328 62.928 92.8688 63.168C93.2528 63.408 93.4448 64.344 93.4448 65.976C93.4448 69.528 93.2528 74.448 92.8688 80.736C95.3168 71.424 98.9168 64.416 103.669 59.712C105.253 58.176 106.909 57.408 108.637 57.408C109.597 57.408 110.413 57.744 111.085 58.416C111.757 59.04 112.093 59.784 112.093 60.648C112.093 61.848 111.709 62.448 110.941 62.448C110.365 62.448 109.693 62.04 108.925 61.224C108.349 60.6 107.821 60.264 107.341 60.216C107.053 60.216 106.693 60.312 106.261 60.504C103.621 61.944 100.813 65.664 97.8368 71.664C96.6848 73.92 95.5808 77.52 94.5248 82.464C93.8048 86.832 92.5568 89.016 90.7808 89.016ZM124.113 45.024C123.057 45.024 122.529 44.448 122.529 43.296C122.529 42.624 122.697 42.168 123.033 41.928C123.513 41.544 124.017 41.352 124.545 41.352C125.649 41.352 126.201 41.976 126.201 43.224C126.201 43.8 125.985 44.256 125.553 44.592C125.121 44.88 124.641 45.024 124.113 45.024ZM124.617 85.632C123.417 85.584 122.193 85.152 120.945 84.336C119.697 83.52 118.641 82.344 117.777 80.808C116.481 78.648 115.833 76.128 115.833 73.248C115.833 71.904 115.905 70.512 116.049 69.072C116.193 67.392 116.745 65.472 117.705 63.312C118.713 60.864 119.721 59.64 120.729 59.64C122.409 59.64 123.249 60.264 123.249 61.512C123.249 62.04 122.841 63.72 122.025 66.552C121.449 69.048 121.161 71.616 121.161 74.256C121.161 76.32 121.401 78.216 121.881 79.944C122.697 82.296 123.777 83.472 125.121 83.472C126.465 83.472 127.881 82.488 129.369 80.52C131.193 78.024 132.633 75.264 133.689 72.24C134.361 69.84 135.153 68.64 136.065 68.64C136.545 68.64 136.785 69 136.785 69.72C136.785 71.16 135.945 73.464 134.265 76.632C131.097 82.632 127.881 85.632 124.617 85.632ZM143.975 105C144.935 105 146.015 104.688 147.215 104.064C156.479 99.36 161.783 92.376 163.127 83.112C149.639 93.864 142.895 100.776 142.895 103.848C142.895 104.616 143.255 105 143.975 105ZM144.335 106.728C142.271 106.728 141.239 105.816 141.239 103.992C141.239 101.112 143.495 97.776 148.007 93.984C150.071 91.968 153.047 89.424 156.935 86.352C160.871 83.28 162.935 81.624 163.127 81.384V80.448C163.127 79.68 162.623 78.84 161.615 77.928C160.655 76.968 158.975 76.488 156.575 76.488C155.135 76.488 153.599 76.632 151.967 76.92L146.567 78.36C142.151 79.704 138.863 80.376 136.703 80.376C135.215 80.376 134.039 79.896 133.175 78.936C132.311 77.976 131.879 76.752 131.879 75.264C132.455 68.688 136.439 62.616 143.831 57.048C146.807 54.84 149.423 53.736 151.679 53.736C153.743 53.736 155.567 54.528 157.151 56.112C158.495 57.648 159.167 59.496 159.167 61.656C158.975 64.584 158.303 66.648 157.151 67.848C156.527 68.472 155.879 68.784 155.207 68.784C154.439 68.784 154.055 68.328 154.055 67.416C154.055 66.792 154.415 65.784 155.135 64.392C156.047 62.472 156.503 60.912 156.503 59.712C156.503 57.408 155.399 56.256 153.191 56.256C150.887 56.544 148.607 57.912 146.351 60.36C144.095 62.808 142.127 65.544 140.447 68.568C138.767 71.544 137.927 73.872 137.927 75.552C137.927 76.512 138.335 76.992 139.151 76.992C139.775 76.992 141.671 76.608 144.839 75.84C149.591 74.688 153.479 74.112 156.503 74.112C156.887 74.112 157.751 74.136 159.095 74.184C160.439 74.184 161.831 74.616 163.271 75.48C164.711 76.296 165.623 77.568 166.007 79.296L180.191 69.216C180.911 68.784 181.487 68.568 181.919 68.568C182.543 68.568 182.855 68.832 182.855 69.36C182.855 69.984 182.495 70.512 181.775 70.944L166.151 80.952C165.863 86.904 164.015 92.04 160.607 96.36C157.247 100.728 152.951 103.944 147.719 106.008C146.471 106.488 145.343 106.728 144.335 106.728ZM193.472 109.608C192.32 109.608 191.12 109.128 189.872 108.168C187.808 106.44 186.176 103.944 184.976 100.68C182.48 93.96 181.232 85.128 181.232 74.184C181.232 70.584 181.568 65.208 182.24 58.056C183.968 47.16 185.24 40.128 186.056 36.96C185.048 37.056 181.088 38.136 174.176 40.2C167.264 42.216 162.872 43.224 161 43.224C159.464 43.224 158.696 42.648 158.696 41.496C158.696 40.584 159.056 39.744 159.776 38.976C160.448 38.16 161.288 37.728 162.296 37.68C163.016 37.68 163.376 37.968 163.376 38.544C163.376 39.024 163.208 39.552 162.872 40.128C163.4 40.08 171.296 38.328 186.56 34.872C187.232 31.848 187.904 29.76 188.576 28.608C188.624 28.176 188.912 27.36 189.44 26.16C190.016 24.912 190.736 24.288 191.6 24.288C192.512 24.288 192.968 24.792 192.968 25.8C192.968 26.184 192.872 26.664 192.68 27.24C191.624 30.648 191.096 32.808 191.096 33.72C191.096 33.864 191.144 33.936 191.24 33.936L196.712 32.856C202.328 31.608 207.464 30.72 212.12 30.192C219.08 29.136 224.936 28.608 229.688 28.608C231.128 28.608 233.096 28.704 235.592 28.896C238.376 29.04 240.872 29.904 243.08 31.488C243.944 32.208 244.376 33 244.376 33.864C244.376 34.776 243.992 35.472 243.224 35.952C243.032 36.096 242.84 36.168 242.648 36.168C242.264 36.168 242.072 36 242.072 35.664C242.12 35.472 242.192 35.256 242.288 35.016C242.432 34.728 242.504 34.44 242.504 34.152C242.504 33.048 240.776 32.088 237.32 31.272C233.624 30.648 229.952 30.336 226.304 30.336C218.768 30.336 207.56 31.92 192.68 35.088C191.96 35.232 191.432 35.4 191.096 35.592C190.568 35.928 189.248 42.744 187.136 56.04C186.368 61.944 185.984 68.568 185.984 75.912C185.984 84.312 187.16 92.016 189.512 99.024C190.952 103.296 192.608 105.552 194.48 105.792C196.352 105.792 198.44 102.792 200.744 96.792C201.992 93.432 202.784 91.08 203.12 89.736C203.936 87.24 205.04 81.72 206.432 73.176C206.528 72.168 206.72 70.992 207.008 69.648C207.296 68.832 207.872 68.424 208.736 68.424L209.24 68.496C209.816 68.592 210.104 69.024 210.104 69.792C210.104 70.704 209.84 71.88 209.312 73.32C208.784 74.712 208.016 77.952 207.008 83.04C204.608 95.376 201.584 103.488 197.936 107.376C196.592 108.864 195.104 109.608 193.472 109.608ZM215.027 45.024C213.971 45.024 213.443 44.448 213.443 43.296C213.443 42.624 213.611 42.168 213.947 41.928C214.427 41.544 214.931 41.352 215.459 41.352C216.563 41.352 217.115 41.976 217.115 43.224C217.115 43.8 216.899 44.256 216.467 44.592C216.035 44.88 215.555 45.024 215.027 45.024ZM215.531 85.632C214.331 85.584 213.107 85.152 211.859 84.336C210.611 83.52 209.555 82.344 208.691 80.808C207.395 78.648 206.747 76.128 206.747 73.248C206.747 71.904 206.819 70.512 206.963 69.072C207.107 67.392 207.659 65.472 208.619 63.312C209.627 60.864 210.635 59.64 211.643 59.64C213.323 59.64 214.163 60.264 214.163 61.512C214.163 62.04 213.755 63.72 212.939 66.552C212.363 69.048 212.075 71.616 212.075 74.256C212.075 76.32 212.315 78.216 212.795 79.944C213.611 82.296 214.691 83.472 216.035 83.472C217.379 83.472 218.795 82.488 220.283 80.52C222.107 78.024 223.547 75.264 224.603 72.24C225.275 69.84 226.067 68.64 226.979 68.64C227.459 68.64 227.699 69 227.699 69.72C227.699 71.16 226.859 73.464 225.179 76.632C222.011 82.632 218.795 85.632 215.531 85.632ZM227.905 89.088C225.601 88.752 224.449 85.608 224.449 79.656C224.449 78.312 224.521 76.824 224.665 75.192C225.577 65.064 227.593 60 230.713 60C231.913 60 232.513 60.696 232.513 62.088L232.369 63.744C231.745 66.72 231.193 70.92 230.713 76.344L230.137 80.376C230.137 80.568 230.161 80.664 230.209 80.664C230.305 80.664 230.617 80.064 231.145 78.864C234.073 71.616 237.097 67.992 240.217 67.992C240.841 67.992 241.657 68.256 242.665 68.784C243.721 69.264 245.017 70.848 246.553 73.536C248.425 76.848 250.345 78.504 252.313 78.504C252.889 78.504 253.585 78.288 254.401 77.856C255.217 77.376 256.081 76.512 256.993 75.264C257.953 73.968 258.817 72.672 259.585 71.376C260.017 70.656 260.401 70.032 260.737 69.504C261.121 68.976 261.505 68.712 261.889 68.712C262.513 68.76 262.825 69.096 262.825 69.72C262.825 70.104 262.729 70.512 262.537 70.944C261.673 72.912 260.401 75 258.721 77.208C256.321 80.328 253.921 81.888 251.521 81.888C249.265 81.552 247.537 80.664 246.337 79.224C245.137 77.736 244.153 76.056 243.385 74.184C242.137 71.64 240.889 70.368 239.641 70.368C237.481 70.368 235.369 73.44 233.305 79.584L231.865 84.552C231.529 85.56 231.073 86.544 230.497 87.504C229.969 88.464 229.105 88.992 227.905 89.088ZM260.47 85.056C257.878 84.816 256.582 83.256 256.582 80.376C256.582 77.64 257.374 74.832 258.958 71.952C260.158 69.648 261.262 67.92 262.27 66.768C265.246 63.408 268.006 61.728 270.55 61.728C271.27 61.728 271.87 61.896 272.35 62.232C273.262 62.712 273.718 63.456 273.718 64.464C273.718 65.232 273.478 65.808 272.998 66.192C272.566 66.528 272.014 66.864 271.342 67.2C267.598 68.88 264.694 71.856 262.63 76.128C261.91 77.664 261.382 79.464 261.046 81.528C262.39 81.24 263.998 79.416 265.87 76.056C266.638 74.76 267.406 73.584 268.174 72.528C269.23 71.184 270.262 70.512 271.27 70.512C272.518 70.512 274.03 71.832 275.806 74.472C277.918 77.304 279.574 78.72 280.774 78.72C284.182 78.72 287.374 75.744 290.35 69.792C290.734 69.024 291.214 68.64 291.79 68.64C292.366 68.64 292.654 68.88 292.654 69.36C292.654 69.648 292.582 69.936 292.438 70.224C288.214 77.376 284.47 80.952 281.206 80.952C280.966 80.952 280.39 80.88 279.478 80.736C278.614 80.592 277.582 79.944 276.382 78.792C275.182 77.592 274.15 76.368 273.286 75.12C272.422 73.824 271.63 72.888 270.91 72.312C270.238 73.128 269.758 73.8 269.47 74.328C269.23 74.808 268.894 75.408 268.462 76.128C265.39 82.08 262.726 85.056 260.47 85.056Z" fill="black"/>
<path d="M75.952 243.456C70.672 243.456 66.112 240.6 62.272 234.888C60.928 232.824 59.872 230.592 59.104 228.192C56.56 220.56 55.288 212.496 55.288 204C55.288 192.72 57.52 179.376 61.984 163.968C64.096 156.624 66.616 149.64 69.544 143.016C73.912 133.032 78.664 125.856 83.8 121.488C86.824 118.896 89.8 117.6 92.728 117.6C95.992 117.6 98.56 119.424 100.432 123.072C102.64 127.296 103.744 132.24 103.744 137.904C103.744 139.2 103.672 140.496 103.528 141.792C103.384 143.04 103.24 144.264 103.096 145.464C102.952 146.664 102.616 148.32 102.088 150.432C101.56 152.496 100.984 154.176 100.36 155.472C99.976 155.952 99.616 156.192 99.28 156.192C99.04 156.192 98.92 156.024 98.92 155.688L99.064 154.392C100.792 147.864 101.656 142.536 101.656 138.408C101.656 133.608 100.696 129 98.776 124.584C96.904 121.656 94.888 120.192 92.728 120.192C89.512 120.192 86.08 122.76 82.432 127.896C78.208 133.992 74.488 141.408 71.272 150.144C65.752 165.12 62.392 179.496 61.192 193.272C61 195.528 60.904 197.856 60.904 200.256C60.904 204.72 61.456 209.52 62.56 214.656C65.968 230.496 71.44 238.416 78.976 238.416C83.872 238.416 89.32 233.328 95.32 223.152C97.336 219.648 99.496 215.208 101.8 209.832C103.048 207 104.128 204.264 105.04 201.624C107.536 194.568 109.792 189.576 111.808 186.648C112.24 186.072 112.72 185.784 113.248 185.784C114.064 185.784 114.472 186.192 114.472 187.008C114.472 187.824 114.184 188.52 113.608 189.096C112.216 190.584 109.936 195.408 106.768 203.568C103.84 210.672 101.44 216.36 99.568 220.632C97.072 226.008 94.096 230.832 90.64 235.104C85.984 240.672 81.088 243.456 75.952 243.456ZM115.242 187.728C116.25 187.728 117.354 187.104 118.554 185.856L119.706 184.488C121.194 182.616 121.938 180.336 121.938 177.648C121.938 175.728 121.458 174.768 120.498 174.768C119.634 174.768 118.698 175.512 117.69 177C115.866 179.736 114.762 183.312 114.378 187.728H115.242ZM120.354 207.024C120.066 207.024 119.442 206.952 118.482 206.808C117.57 206.712 116.49 206.112 115.242 205.008C112.17 202.272 110.634 197.952 110.634 192.048C110.634 186.816 111.738 182.4 113.946 178.8C116.25 174.912 118.386 172.968 120.354 172.968C121.314 172.968 122.082 173.472 122.658 174.48C123.234 175.44 123.522 176.616 123.522 178.008C123.522 178.632 123.426 179.664 123.234 181.104C123.09 182.256 122.154 183.912 120.426 186.072C118.698 188.184 116.946 189.24 115.17 189.24L114.234 189.168C114.138 190.08 114.09 190.968 114.09 191.832C114.09 196.008 115.098 199.224 117.114 201.48C118.17 202.68 119.37 203.28 120.714 203.28C121.578 203.28 122.49 203.016 123.45 202.488C125.322 201.288 126.978 199.656 128.418 197.592C129.906 195.48 131.49 192.96 133.17 190.032C134.322 187.968 135.09 186.696 135.474 186.216C135.666 185.88 135.954 185.712 136.338 185.712C136.722 185.712 136.914 186 136.914 186.576C136.914 187.056 136.65 187.8 136.122 188.808C133.338 193.848 131.37 197.28 130.218 199.104C128.49 201.792 126.57 203.928 124.458 205.512C123.066 206.52 121.698 207.024 120.354 207.024ZM143.76 198.456C145.056 197.592 146.712 196.536 148.728 195.288C149.16 194.712 149.688 193.92 150.312 192.912C150.312 192.816 150.36 192.696 150.456 192.552C151.176 191.544 151.92 190.296 152.688 188.808C153.456 187.32 153.84 186.144 153.84 185.28C153.84 185.136 153.816 184.968 153.768 184.776C153.72 184.536 153.408 184.416 152.832 184.416C151.68 184.416 150.216 185.76 148.44 188.448C147.096 190.464 145.992 192.456 145.128 194.424L143.76 198.456ZM136.344 243.168C135.336 243.168 134.736 242.4 134.544 240.864C134.208 237.072 134.04 233.184 134.04 229.2V220.848C133.944 217.68 133.896 214.536 133.896 211.416C133.896 203.976 134.208 196.608 134.832 189.312C135.744 178.656 137.472 173.136 140.016 172.752C140.976 172.752 141.504 173.232 141.6 174.192L141.672 175.272C141.672 176.952 141.096 182.664 139.944 192.408C139.176 198.312 138.624 204.432 138.288 210.768C138.288 213.744 138.36 215.28 138.504 215.376C138.648 215.376 138.792 214.944 138.936 214.08C139.656 207.936 141.168 201.912 143.472 196.008C144.672 192.552 146.4 189.336 148.656 186.36C150.288 184.152 151.968 183.048 153.696 183.048C154.992 183.048 155.64 183.912 155.64 185.64C155.64 187.848 155.064 190.056 153.912 192.264C162.072 187.704 166.8 185.424 168.096 185.424C168.816 185.424 169.176 185.832 169.176 186.648C169.176 186.888 169.128 187.2 169.032 187.584C168.984 187.92 168.552 188.232 167.736 188.52C161.976 190.248 157.056 192.216 152.976 194.424C152.16 196.104 151.2 197.664 150.096 199.104C148.32 201.456 146.592 202.632 144.912 202.632C144.144 202.632 143.376 202.368 142.608 201.84L141.888 204.36C140.4 210.12 139.464 217.296 139.08 225.888C138.6 232.896 138.36 237.072 138.36 238.416C138.408 238.8 138.432 239.232 138.432 239.712C138.432 240.144 138.36 240.888 138.216 241.944C138.072 242.76 137.448 243.168 136.344 243.168ZM171.07 187.728C172.078 187.728 173.182 187.104 174.382 185.856L175.534 184.488C177.022 182.616 177.766 180.336 177.766 177.648C177.766 175.728 177.286 174.768 176.326 174.768C175.462 174.768 174.526 175.512 173.518 177C171.694 179.736 170.59 183.312 170.206 187.728H171.07ZM176.182 207.024C175.894 207.024 175.27 206.952 174.31 206.808C173.398 206.712 172.318 206.112 171.07 205.008C167.998 202.272 166.462 197.952 166.462 192.048C166.462 186.816 167.566 182.4 169.774 178.8C172.078 174.912 174.214 172.968 176.182 172.968C177.142 172.968 177.91 173.472 178.486 174.48C179.062 175.44 179.35 176.616 179.35 178.008C179.35 178.632 179.254 179.664 179.062 181.104C178.918 182.256 177.982 183.912 176.254 186.072C174.526 188.184 172.774 189.24 170.998 189.24L170.062 189.168C169.966 190.08 169.918 190.968 169.918 191.832C169.918 196.008 170.926 199.224 172.942 201.48C173.998 202.68 175.198 203.28 176.542 203.28C177.406 203.28 178.318 203.016 179.278 202.488C181.15 201.288 182.806 199.656 184.246 197.592C185.734 195.48 187.318 192.96 188.998 190.032C190.15 187.968 190.918 186.696 191.302 186.216C191.494 185.88 191.782 185.712 192.166 185.712C192.55 185.712 192.742 186 192.742 186.576C192.742 187.056 192.478 187.8 191.95 188.808C189.166 193.848 187.198 197.28 186.046 199.104C184.318 201.792 182.398 203.928 180.286 205.512C178.894 206.52 177.526 207.024 176.182 207.024ZM194.404 199.68C198.1 194.256 200.188 188.496 200.668 182.4L200.812 180.888L200.74 180.816L200.596 180.888C199.54 182.088 198.58 183.888 197.716 186.288C196.852 188.64 196.132 191.064 195.556 193.56C194.98 196.008 194.596 198.048 194.404 199.68ZM206.428 179.736L206.86 179.448C214.06 174.744 220.852 165.888 227.236 152.88C230.26 146.736 231.772 141.192 231.772 136.248C231.772 134.76 231.58 133.512 231.196 132.504C230.572 130.824 229.564 129.984 228.172 129.984C227.644 129.984 226.684 130.248 225.292 130.776C223.9 131.304 221.716 133.776 218.74 138.192C217.444 140.16 216.364 142.056 215.5 143.88C211.996 150.984 209.62 157.776 208.372 164.256C207.7 167.904 207.052 173.064 206.428 179.736ZM218.884 217.176C214.276 217.176 210.052 213.984 206.212 207.6C203.716 203.712 202.132 199.608 201.46 195.288C201.076 193.032 200.812 191.904 200.668 191.904C200.572 191.904 200.308 192.576 199.876 193.92C198.388 199.008 196.684 202.656 194.764 204.864C193.996 205.776 193.156 206.232 192.244 206.232C191.524 206.232 190.756 205.896 189.94 205.224C188.98 204.072 188.5 202.152 188.5 199.464C188.5 196.488 189.172 192.576 190.516 187.728C191.572 183.888 193.3 180.456 195.7 177.432C196.948 175.992 198.364 175.272 199.948 175.272C200.284 175.272 200.596 175.296 200.884 175.344H201.172C201.508 171.6 202.708 166.512 204.772 160.08C208.372 148.8 213.196 139.92 219.244 133.44C222.364 130.176 225.172 128.544 227.668 128.544C231.412 128.544 233.284 131.16 233.284 136.392C233.284 138.648 232.924 140.856 232.204 143.016C228.844 154.008 223.468 164.112 216.076 173.328C212.956 177.216 209.932 180 207.004 181.68C206.572 181.68 206.356 182.736 206.356 184.848C206.356 186.24 206.452 187.872 206.644 189.744C207.412 196.464 209.092 202.416 211.684 207.6C214.036 212.4 216.628 214.8 219.46 214.8C223.396 214.8 227.116 210.792 230.62 202.776C233.02 197.4 234.58 192.6 235.3 188.376C235.3 187.896 235.444 187.392 235.732 186.864C236.164 186.144 236.764 185.784 237.532 185.784C238.204 185.784 238.54 186.192 238.54 187.008C238.54 188.304 237.868 190.896 236.524 194.784C234.172 201.504 231.436 207 228.316 211.272C225.484 215.208 222.34 217.176 218.884 217.176ZM235.313 202.056C232.721 201.816 231.425 200.256 231.425 197.376C231.425 194.64 232.217 191.832 233.801 188.952C235.001 186.648 236.105 184.92 237.113 183.768C240.089 180.408 242.849 178.728 245.393 178.728C246.113 178.728 246.713 178.896 247.193 179.232C248.105 179.712 248.561 180.456 248.561 181.464C248.561 182.232 248.321 182.808 247.841 183.192C247.409 183.528 246.857 183.864 246.185 184.2C242.441 185.88 239.537 188.856 237.473 193.128C236.753 194.664 236.225 196.464 235.889 198.528C237.233 198.24 238.841 196.416 240.713 193.056C241.481 191.76 242.249 190.584 243.017 189.528C244.073 188.184 245.105 187.512 246.113 187.512C247.361 187.512 248.873 188.832 250.649 191.472C252.761 194.304 254.417 195.72 255.617 195.72C259.025 195.72 262.217 192.744 265.193 186.792C265.577 186.024 266.057 185.64 266.633 185.64C267.209 185.64 267.497 185.88 267.497 186.36C267.497 186.648 267.425 186.936 267.281 187.224C263.057 194.376 259.313 197.952 256.049 197.952C255.809 197.952 255.233 197.88 254.321 197.736C253.457 197.592 252.425 196.944 251.225 195.792C250.025 194.592 248.993 193.368 248.129 192.12C247.265 190.824 246.473 189.888 245.753 189.312C245.081 190.128 244.601 190.8 244.313 191.328C244.073 191.808 243.737 192.408 243.305 193.128C240.233 199.08 237.569 202.056 235.313 202.056Z" fill="black"/>
</svg>
