<svg width="305" height="178" viewBox="0 0 305 178" fill="none" xmlns="http://www.w3.org/2000/svg">
<path d="M25.068 152.312C24.4373 152.312 23.8067 152.025 23.176 151.452C21.972 150.535 21.37 148.901 21.37 146.55C21.37 144.715 21.7713 141.849 22.574 137.95C24.294 127.974 25.154 115.475 25.154 100.454C25.154 94.95 25.068 88.328 24.896 80.588L17.844 80.416L17.672 80.33C12.684 79.642 9.27267 78.8107 7.438 77.836C6.234 77.2053 5.632 76.3167 5.632 75.17C5.632 73.3927 6.86467 72.504 9.33 72.504C10.0753 72.504 10.878 72.7333 11.738 73.192C14.49 74.6827 18.8187 75.6573 24.724 76.116C24.896 72.7333 24.982 69.8667 24.982 67.516L24.896 64.42C24.7813 61.2093 24.724 58.3713 24.724 55.906C24.724 51.8927 24.8673 48.768 25.154 46.532C25.67 43.6653 27.2753 42.232 29.97 42.232C32.6647 42.232 34.012 43.7513 34.012 46.79C34.012 48.2807 33.668 52.2367 32.98 58.658C31.6613 69.322 31.002 75.3133 31.002 76.632C31.174 76.8613 31.5753 76.976 32.206 76.976C38.6847 76.976 44.6187 76.6893 50.008 76.116C54.3653 75.7147 59.0953 74.7113 64.198 73.106C74.518 69.7233 83.3473 65.2513 90.686 59.69L95.76 55.648C100.347 51.9787 104.303 47.4493 107.628 42.06C110.953 36.6133 112.616 31.482 112.616 26.666C112.616 24.774 112.301 22.538 111.67 19.958C111.097 17.722 109.319 15.142 106.338 12.218C105.765 11.702 105.105 11.186 104.36 10.67C95.9893 5.28066 84.1213 2.58599 68.756 2.58599C52.0147 2.58599 36.8213 6.91466 23.176 15.572C20.424 17.4067 17.758 19.7 15.178 22.452C9.502 28.5293 6.664 33.976 6.664 38.792C6.664 41.544 7.63867 44.2387 9.588 46.876C10.964 48.6533 11.7093 50.3447 11.824 51.95C11.824 54.186 10.878 55.3327 8.986 55.39C6.00467 54.874 3.71133 52.2367 2.106 47.478C1.18867 44.9553 0.73 42.5473 0.73 40.254C0.73 36.0113 2.39267 31.5393 5.718 26.838C7.55267 24.2007 9.98933 21.6207 13.028 19.098C14.748 17.4353 16.7833 15.8587 19.134 14.368C33.238 5.36666 49.6353 0.865995 68.326 0.865995C77.098 0.865995 85.2967 1.898 92.922 3.962C98.8273 5.56733 103.758 7.88933 107.714 10.928C112.874 15.228 115.454 20.4167 115.454 26.494C115.454 29.762 114.68 33.3453 113.132 37.244C110.609 43.0347 107.198 48.1373 102.898 52.552C92.062 63.8467 78.216 71.8733 61.36 76.632C52.4733 79.212 43.558 80.502 34.614 80.502L30.572 80.588C30.3427 81.276 30.1707 82.824 30.056 85.232C29.368 98.5907 28.938 109.312 28.766 117.396C28.766 126.627 28.8233 133.134 28.938 136.918C29.282 140.243 29.454 142.823 29.454 144.658C29.454 149.703 27.992 152.255 25.068 152.312ZM71.1748 112.408C70.0854 112.408 69.2541 111.691 68.6808 110.258C68.1648 108.882 67.9068 106.474 67.9068 103.034C67.9068 100.225 68.0788 96.6987 68.4228 92.456C69.0534 84.888 70.3434 81.104 72.2928 81.104C72.8088 81.104 73.2674 81.2473 73.6688 81.534C74.1274 81.8207 74.3568 82.9387 74.3568 84.888C74.3568 89.1307 74.1274 95.0073 73.6688 102.518C76.5928 91.3953 80.8928 83.0247 86.5688 77.406C88.4608 75.5713 90.4388 74.654 92.5027 74.654C93.6494 74.654 94.6241 75.0553 95.4268 75.858C96.2294 76.6033 96.6308 77.492 96.6308 78.524C96.6308 79.9573 96.1721 80.674 95.2548 80.674C94.5668 80.674 93.7641 80.1867 92.8468 79.212C92.1588 78.4667 91.5281 78.0653 90.9548 78.008C90.6108 78.008 90.1808 78.1227 89.6648 78.352C86.5114 80.072 83.1574 84.5153 79.6028 91.682C78.2268 94.3767 76.9081 98.6767 75.6468 104.582C74.7868 109.799 73.2961 112.408 71.1748 112.408ZM108.065 105.012C108.179 104.955 108.523 104.439 109.097 103.464C109.727 102.088 110.329 99.8807 110.903 96.842L107.033 96.154C106.803 97.6447 106.689 99.078 106.689 100.454C106.689 101.257 106.717 102.231 106.775 103.378C106.889 104.467 107.319 105.012 108.065 105.012ZM110.989 94.262L111.161 93.316L111.247 92.026C111.247 89.6753 110.702 87.2673 109.613 84.802C109.498 85.49 109.011 87.2387 108.151 90.048C107.635 91.3093 107.348 92.198 107.291 92.714C107.291 93.0007 107.348 93.2587 107.463 93.488C107.577 93.66 108.753 93.918 110.989 94.262ZM106.259 110.172C105.284 110.172 104.252 109.799 103.163 109.054C101.5 107.391 100.669 104.639 100.669 100.798C100.669 99.3647 100.783 97.9887 101.013 96.67C101.299 95.294 101.443 94.262 101.443 93.574C101.443 92.714 101.299 91.9687 101.013 91.338C100.783 90.65 100.669 89.9907 100.669 89.36C100.669 87.984 101.299 86.4647 102.561 84.802C104.395 82.5087 106.287 81.362 108.237 81.362C108.81 81.362 109.584 81.5913 110.559 82.05C111.533 82.4513 112.479 83.9707 113.397 86.608C114.027 88.7293 114.343 90.736 114.343 92.628L114.257 94.778C117.41 94.7207 120.764 94.1473 124.319 93.058C127.873 91.9113 131.055 90.478 133.865 88.758C135.069 88.1847 136.043 87.898 136.789 87.898C137.763 87.898 138.251 88.2707 138.251 89.016L137.993 89.79C137.649 90.994 133.521 92.714 125.609 94.95C121.366 96.154 117.496 96.756 113.999 96.756C113.54 101.629 112.479 105.241 110.817 107.592C109.441 109.312 107.921 110.172 106.259 110.172ZM119.98 175.876C120.038 175.876 120.611 175.847 121.7 175.79C122.79 175.733 124.424 174.901 126.602 173.296C133.482 168.365 136.922 157.816 136.922 141.648C136.922 136.717 136.607 130.984 135.976 124.448C135.862 121.524 135.69 120.062 135.46 120.062C135.288 120.062 134.6 121.037 133.396 122.986C126.172 134.223 121.184 143.081 118.432 149.56C115.566 156.497 114.132 162.46 114.132 167.448C114.132 169.913 114.505 171.777 115.25 173.038C116.34 174.93 117.916 175.876 119.98 175.876ZM120.496 177.94C119.866 177.94 119.206 177.883 118.518 177.768C113.645 176.965 111.208 173.841 111.208 168.394C111.208 165.871 111.868 162.632 113.186 158.676C115.48 151.796 118.404 145.117 121.958 138.638L125.054 133.134C126.316 130.841 129.068 126.397 133.31 119.804C134.744 117.396 135.46 115.676 135.46 114.644C135.46 114.128 135.403 113.555 135.288 112.924C135.116 109.943 135.03 106.531 135.03 102.69C135.03 97.702 135.231 89.79 135.632 78.954C135.804 77.3487 136.091 76.0587 136.492 75.084C136.894 74.052 137.639 73.536 138.728 73.536C139.588 73.536 140.162 73.9947 140.448 74.912C140.735 75.772 140.878 77.8073 140.878 81.018C140.878 84.5153 140.706 89.4173 140.362 95.724C140.018 101.457 139.818 106.159 139.76 109.828C144.175 103.98 150.109 97.0713 157.562 89.102C158.365 88.2993 159.082 87.898 159.712 87.898C160.515 87.9553 160.916 88.2993 160.916 88.93C160.916 89.79 159.053 92.0547 155.326 95.724C149.708 100.999 145.293 105.901 142.082 110.43L141.308 111.462C140.391 112.379 139.846 113.813 139.674 115.762C139.56 117.081 139.502 118.772 139.502 120.836C139.502 123.416 139.588 126.627 139.76 130.468C139.99 134.596 140.104 138.265 140.104 141.476C140.104 144.285 139.99 146.722 139.76 148.786C139.588 150.85 139.244 153.401 138.728 156.44C138.212 159.536 137.037 163.091 135.202 167.104C133.024 171.404 130.386 174.385 127.29 176.048C124.94 177.309 122.675 177.94 120.496 177.94ZM138.384 60.464C137.41 60.464 136.922 59.7473 136.922 58.314C136.922 56.766 137.782 55.9633 139.502 55.906C139.732 55.906 140.076 55.992 140.534 56.164C141.05 56.2787 141.366 56.8807 141.48 57.97C141.423 58.486 141.165 58.9733 140.706 59.432C139.961 60.12 139.187 60.464 138.384 60.464ZM162.69 90.564C163.894 90.564 165.213 89.8187 166.646 88.328L168.022 86.694C169.8 84.458 170.688 81.7347 170.688 78.524C170.688 76.2307 170.115 75.084 168.968 75.084C167.936 75.084 166.818 75.9727 165.614 77.75C163.436 81.018 162.117 85.2893 161.658 90.564H162.69ZM168.796 113.612C168.452 113.612 167.707 113.526 166.56 113.354C165.471 113.239 164.181 112.523 162.69 111.204C159.021 107.936 157.186 102.776 157.186 95.724C157.186 89.4747 158.505 84.2 161.142 79.9C163.894 75.256 166.446 72.934 168.796 72.934C169.943 72.934 170.86 73.536 171.548 74.74C172.236 75.8867 172.58 77.2913 172.58 78.954C172.58 79.6993 172.466 80.932 172.236 82.652C172.064 84.028 170.946 86.006 168.882 88.586C166.818 91.1087 164.726 92.37 162.604 92.37L161.486 92.284C161.372 93.3733 161.314 94.434 161.314 95.466C161.314 100.454 162.518 104.295 164.926 106.99C166.188 108.423 167.621 109.14 169.226 109.14C170.258 109.14 171.348 108.825 172.494 108.194C174.73 106.761 176.708 104.811 178.428 102.346C180.206 99.8233 182.098 96.8133 184.104 93.316C185.48 90.8507 186.398 89.3313 186.856 88.758C187.086 88.3567 187.43 88.156 187.888 88.156C188.347 88.156 188.576 88.5 188.576 89.188C188.576 89.7613 188.261 90.65 187.63 91.854C184.305 97.874 181.954 101.973 180.578 104.152C178.514 107.363 176.221 109.914 173.698 111.806C172.036 113.01 170.402 113.612 168.796 113.612ZM195.549 114.3C191.306 114.3 188.325 111.376 186.605 105.528C185.86 103.292 185.487 100.855 185.487 98.218C185.487 90.994 187.465 83.7127 191.421 76.374C193.485 72.4753 195.864 69.752 198.559 68.204C199.476 67.6307 200.422 67.344 201.397 67.344C203.289 67.344 204.866 68.1467 206.127 69.752C207.732 71.9307 208.535 74.052 208.535 76.116C208.535 77.492 208.105 78.8393 207.245 80.158C206.672 80.9607 205.984 81.362 205.181 81.362C203.977 81.362 203.232 80.244 202.945 78.008C202.486 75.6573 201.684 73.9087 200.537 72.762C197.441 74.31 194.632 78.18 192.109 84.372C190.045 89.2453 189.013 94.004 189.013 98.648C189.013 100.712 189.242 102.661 189.701 104.496C191.02 109.312 193.342 111.72 196.667 111.72C202.114 111.72 207.79 105.184 213.695 92.112C214.784 89.4173 215.874 88.07 216.963 88.07C217.88 88.07 218.339 88.414 218.339 89.102L218.253 89.704C214.354 95.8387 212.376 99.0207 212.319 99.25C209.28 103.894 206.786 107.248 204.837 109.312C201.741 112.637 198.645 114.3 195.549 114.3ZM230.535 137.004C229.159 137.004 227.726 136.431 226.235 135.284C223.77 133.22 221.821 130.239 220.387 126.34C217.406 118.313 215.915 107.764 215.915 94.692C215.915 90.392 216.317 83.9707 217.119 75.428C219.183 62.4133 220.703 54.014 221.677 50.23C220.473 50.3447 215.743 51.6347 207.487 54.1C199.231 56.508 193.985 57.712 191.749 57.712C189.915 57.712 188.997 57.024 188.997 55.648C188.997 54.5587 189.427 53.5553 190.287 52.638C191.09 51.6633 192.093 51.1473 193.297 51.09C194.157 51.09 194.587 51.434 194.587 52.122C194.587 52.6953 194.387 53.326 193.985 54.014C194.616 53.9567 204.047 51.864 222.279 47.736C223.082 44.124 223.885 41.63 224.687 40.254C224.745 39.738 225.089 38.7633 225.719 37.33C226.407 35.8393 227.267 35.094 228.299 35.094C229.389 35.094 229.933 35.696 229.933 36.9C229.933 37.3587 229.819 37.932 229.589 38.62C228.328 42.6907 227.697 45.2707 227.697 46.36C227.697 46.532 227.755 46.618 227.869 46.618L234.405 45.328C241.113 43.8373 247.248 42.7767 252.809 42.146C261.123 40.8847 268.117 40.254 273.793 40.254C275.513 40.254 277.864 40.3687 280.845 40.598C284.171 40.77 287.152 41.802 289.789 43.694C290.821 44.554 291.337 45.5 291.337 46.532C291.337 47.6213 290.879 48.4527 289.961 49.026C289.732 49.198 289.503 49.284 289.273 49.284C288.815 49.284 288.585 49.0833 288.585 48.682C288.643 48.4527 288.729 48.1947 288.843 47.908C289.015 47.564 289.101 47.22 289.101 46.876C289.101 45.5573 287.037 44.4107 282.909 43.436C278.495 42.6907 274.109 42.318 269.751 42.318C260.75 42.318 247.363 44.21 229.589 47.994C228.729 48.166 228.099 48.3667 227.697 48.596C227.067 48.9973 225.49 57.1387 222.967 73.02C222.05 80.072 221.591 87.984 221.591 96.756C221.591 106.789 222.996 115.991 225.805 124.362C227.525 129.465 229.503 132.159 231.739 132.446C233.975 132.446 236.469 128.863 239.221 121.696C240.712 117.683 241.658 114.873 242.059 113.268C243.034 110.287 244.353 103.693 246.015 93.488C246.13 92.284 246.359 90.8793 246.703 89.274C247.047 88.2993 247.735 87.812 248.767 87.812L249.369 87.898C250.057 88.0127 250.401 88.5287 250.401 89.446C250.401 90.5353 250.086 91.94 249.455 93.66C248.825 95.3227 247.907 99.1927 246.703 105.27C243.837 120.005 240.225 129.694 235.867 134.338C234.262 136.115 232.485 137.004 230.535 137.004ZM258.002 131.5C259.148 131.5 260.438 131.127 261.872 130.382C272.937 124.763 279.272 116.421 280.878 105.356C264.767 118.199 256.712 126.455 256.712 130.124C256.712 131.041 257.142 131.5 258.002 131.5ZM258.432 133.564C255.966 133.564 254.734 132.475 254.734 130.296C254.734 126.856 257.428 122.871 262.818 118.342C265.283 115.934 268.838 112.895 273.482 109.226C278.183 105.557 280.648 103.579 280.878 103.292V102.174C280.878 101.257 280.276 100.253 279.072 99.164C277.925 98.0173 275.918 97.444 273.052 97.444C271.332 97.444 269.497 97.616 267.548 97.96L261.098 99.68C255.823 101.285 251.896 102.088 249.316 102.088C247.538 102.088 246.134 101.515 245.102 100.368C244.07 99.2213 243.554 97.7593 243.554 95.982C244.242 88.1273 249 80.8747 257.83 74.224C261.384 71.5867 264.509 70.268 267.204 70.268C269.669 70.268 271.848 71.214 273.74 73.106C275.345 74.9407 276.148 77.148 276.148 79.728C275.918 83.2253 275.116 85.6907 273.74 87.124C272.994 87.8693 272.22 88.242 271.418 88.242C270.5 88.242 270.042 87.6973 270.042 86.608C270.042 85.8627 270.472 84.6587 271.332 82.996C272.421 80.7027 272.966 78.8393 272.966 77.406C272.966 74.654 271.647 73.278 269.01 73.278C266.258 73.622 263.534 75.256 260.84 78.18C258.145 81.104 255.794 84.372 253.788 87.984C251.781 91.5387 250.778 94.3193 250.778 96.326C250.778 97.4727 251.265 98.046 252.24 98.046C252.985 98.046 255.25 97.5873 259.034 96.67C264.71 95.294 269.354 94.606 272.966 94.606C273.424 94.606 274.456 94.6347 276.062 94.692C277.667 94.692 279.33 95.208 281.05 96.24C282.77 97.2147 283.859 98.734 284.318 100.798L301.26 88.758C302.12 88.242 302.808 87.984 303.324 87.984C304.069 87.984 304.442 88.2993 304.442 88.93C304.442 89.6753 304.012 90.306 303.152 90.822L284.49 102.776C284.146 109.885 281.938 116.02 277.868 121.18C273.854 126.397 268.723 130.239 262.474 132.704C260.983 133.277 259.636 133.564 258.432 133.564Z" fill="black"/>
</svg>
