<svg width="385" height="84" viewBox="0 0 385 84" fill="none" xmlns="http://www.w3.org/2000/svg">
<path d="M41.376 83.808H41.232C37.936 83.488 35.136 80.768 32.832 75.648C31.008 71.68 29.536 66.816 28.416 61.056C27.232 55.136 26.4 48.928 25.92 42.432C25.632 37.632 25.184 34.448 24.576 32.88C23.328 33.808 22.256 34.96 21.36 36.336C18.608 40.816 16.368 45.696 14.64 50.976C12.88 56.064 11.584 60.32 10.752 63.744C9.632 68.224 8.688 71.376 7.92 73.2C6.896 75.632 5.856 76.848 4.8 76.848C3.712 76.848 2.832 75.248 2.16 72.048C1.104 67.088 0.576 61.2 0.576 54.384C0.576 44.944 1.28 36.528 2.688 29.136C3.808 23.184 4.496 19.824 4.752 19.056C6.096 12.688 7.632 7.648 9.36 3.936C10.128 2.208 11.088 1.344 12.24 1.344C13.456 1.344 14.064 2.032 14.064 3.408C14.064 4.336 13.824 5.488 13.344 6.864C13.12 7.408 12.976 8.048 12.912 8.784C12.848 9.488 12.672 10.192 12.384 10.896C11.84 11.824 11.44 12.752 11.184 13.68C7.664 25.04 5.456 35.872 4.56 46.176C4.08 51.776 3.824 57.424 3.792 63.12C3.792 66.608 4.016 69.44 4.464 71.616C4.72 72.896 5.008 73.6 5.328 73.728C5.776 73.312 6.736 70.576 8.208 65.52C12.176 51.536 16.624 41.04 21.552 34.032C22.736 32.304 23.808 31.44 24.768 31.44L25.344 31.488C26.624 31.712 27.568 36.08 28.176 44.592C28.72 53.328 30.112 61.504 32.352 69.12C33.696 73.44 35.216 76.576 36.912 78.528C38.544 80.192 39.984 81.024 41.232 81.024C41.296 81.024 41.648 80.992 42.288 80.928C42.96 80.896 43.76 80.256 44.688 79.008C48.016 74.56 50.368 64.304 51.744 48.24C52.896 35.344 53.472 26.368 53.472 21.312V20.928C53.152 12.8 52.512 7.584 51.552 5.27999C50.72 3.296 50.304 2.112 50.304 1.72799C50.304 0.991995 50.784 0.543995 51.744 0.383995H51.984C54.384 0.383995 55.584 5.472 55.584 15.648C55.584 21.376 55.072 30.064 54.048 41.712C53.44 48.432 53.072 52.192 52.944 52.992C52.688 54.784 52.48 56.64 52.32 58.56C51.488 67.968 49.936 74.768 47.664 78.96C45.904 82.192 43.808 83.808 41.376 83.808ZM63.0364 43.152C63.7084 43.152 64.4444 42.736 65.2444 41.904L66.0124 40.992C67.0044 39.744 67.5004 38.224 67.5004 36.432C67.5004 35.152 67.1804 34.512 66.5404 34.512C65.9644 34.512 65.3404 35.008 64.6684 36C63.4524 37.824 62.7164 40.208 62.4604 43.152H63.0364ZM66.4444 56.016C66.2524 56.016 65.8364 55.968 65.1964 55.872C64.5884 55.808 63.8684 55.408 63.0364 54.672C60.9884 52.848 59.9644 49.968 59.9644 46.032C59.9644 42.544 60.7004 39.6 62.1724 37.2C63.7084 34.608 65.1324 33.312 66.4444 33.312C67.0844 33.312 67.5964 33.648 67.9804 34.32C68.3644 34.96 68.5564 35.744 68.5564 36.672C68.5564 37.088 68.4924 37.776 68.3644 38.736C68.2684 39.504 67.6444 40.608 66.4924 42.048C65.3404 43.456 64.1724 44.16 62.9884 44.16L62.3644 44.112C62.3004 44.72 62.2684 45.312 62.2684 45.888C62.2684 48.672 62.9404 50.816 64.2844 52.32C64.9884 53.12 65.7884 53.52 66.6844 53.52C67.2604 53.52 67.8684 53.344 68.5084 52.992C69.7564 52.192 70.8604 51.104 71.8204 49.728C72.8124 48.32 73.8684 46.64 74.9884 44.688C75.7564 43.312 76.2684 42.464 76.5244 42.144C76.6524 41.92 76.8444 41.808 77.1004 41.808C77.3564 41.808 77.4844 42 77.4844 42.384C77.4844 42.704 77.3084 43.2 76.9564 43.872C75.1004 47.232 73.7884 49.52 73.0204 50.736C71.8684 52.528 70.5884 53.952 69.1804 55.008C68.2524 55.68 67.3404 56.016 66.4444 56.016ZM84.9761 67.488C86.3521 67.488 87.8401 66.944 89.4401 65.856C91.5841 64.256 93.0241 62.304 93.7601 60C94.4961 57.696 94.9121 55.76 95.0081 54.192C95.1361 52.624 95.2001 51.392 95.2001 50.496C95.2001 49.632 95.1521 49.104 95.0561 48.912C94.5441 49.232 94.0801 49.504 93.6641 49.728C90.2401 51.552 87.0081 54.128 83.9681 57.456C81.6961 59.92 80.4801 62.032 80.3201 63.792C80.3201 64.016 80.3361 64.448 80.3681 65.088C80.4001 65.76 81.1201 66.4 82.5281 67.008C83.3601 67.328 84.1761 67.488 84.9761 67.488ZM84.2561 68.64C83.9681 68.64 83.3761 68.592 82.4801 68.496C81.6161 68.432 80.7041 68 79.7441 67.2C78.9441 66.528 78.5441 65.552 78.5441 64.272V63.696C78.9921 61.36 80.0641 59.232 81.7601 57.312C84.4481 54.336 88.4481 51.376 93.7601 48.432C94.4641 48.048 94.8481 47.792 94.9121 47.664C94.9121 46.896 94.8641 46.304 94.7681 45.888C94.0641 42.208 92.7201 40.368 90.7361 40.368C89.5201 40.368 87.9361 41.024 85.9841 42.336C82.7201 44.672 80.3041 48.032 78.7361 52.416C78.1921 54.528 77.8081 55.936 77.5841 56.64C77.1681 57.728 76.6561 58.272 76.0481 58.272C75.5361 58.272 75.2801 57.808 75.2801 56.88L75.5201 53.424C75.9041 49.168 76.2401 45.056 76.5281 41.088C76.8481 36.064 77.6481 29.76 78.9281 22.176C80.7201 11.52 82.8321 6.192 85.2641 6.192C86.2561 6.192 86.7521 6.544 86.7521 7.248V7.392C84.0321 13.056 82.0161 20.128 80.7041 28.608C79.0081 39.52 77.9521 47.36 77.5361 52.128C78.0801 50.528 78.9281 48.8 80.0801 46.944C81.3281 44.992 82.6081 43.392 83.9201 42.144C86.6401 39.68 88.9921 38.448 90.9761 38.448C91.6481 38.448 92.4481 38.64 93.3761 39.024C94.5921 39.696 95.5521 41.248 96.2561 43.68L97.0241 46.464L100.624 44.88C102.736 44.048 104.896 43.072 107.104 41.952C107.392 41.824 107.632 41.76 107.824 41.76C108.144 41.76 108.304 41.984 108.304 42.432C108.304 42.88 106.56 43.776 103.072 45.12C100.672 46.08 98.7201 46.944 97.2161 47.712L97.2641 49.104C97.2641 50.032 97.2161 50.992 97.1201 51.984C97.0561 52.496 96.9441 53.376 96.7841 54.624C96.6561 55.904 96.2401 57.504 95.5361 59.424C94.8641 61.344 93.8881 63.056 92.6081 64.56C91.3281 66.096 89.6321 67.264 87.5201 68.064C86.4641 68.448 85.3761 68.64 84.2561 68.64ZM130.998 51.12C133.462 47.504 134.854 43.664 135.174 39.6L135.27 38.592L135.222 38.544L135.126 38.592C134.422 39.392 133.782 40.592 133.206 42.192C132.63 43.76 132.15 45.376 131.766 47.04C131.382 48.672 131.126 50.032 130.998 51.12ZM139.014 37.824L139.302 37.632C144.102 34.496 148.63 28.592 152.886 19.92C154.902 15.824 155.91 12.128 155.91 8.832C155.91 7.84 155.782 7.008 155.526 6.336C155.11 5.216 154.438 4.656 153.51 4.656C153.158 4.656 152.518 4.832 151.59 5.184C150.662 5.536 149.206 7.184 147.222 10.128C146.358 11.44 145.638 12.704 145.062 13.92C142.726 18.656 141.142 23.184 140.31 27.504C139.862 29.936 139.43 33.376 139.014 37.824ZM147.318 62.784C144.246 62.784 141.43 60.656 138.87 56.4C137.206 53.808 136.15 51.072 135.702 48.192C135.446 46.688 135.27 45.936 135.174 45.936C135.11 45.936 134.934 46.384 134.646 47.28C133.654 50.672 132.518 53.104 131.238 54.576C130.726 55.184 130.166 55.488 129.558 55.488C129.078 55.488 128.566 55.264 128.022 54.816C127.382 54.048 127.062 52.768 127.062 50.976C127.062 48.992 127.51 46.384 128.406 43.152C129.11 40.592 130.262 38.304 131.862 36.288C132.694 35.328 133.638 34.848 134.694 34.848C134.918 34.848 135.126 34.864 135.318 34.896H135.51C135.734 32.4 136.534 29.008 137.91 24.72C140.31 17.2 143.526 11.28 147.558 6.96C149.638 4.784 151.51 3.696 153.174 3.696C155.67 3.696 156.918 5.44 156.918 8.928C156.918 10.432 156.678 11.904 156.198 13.344C153.958 20.672 150.374 27.408 145.446 33.552C143.366 36.144 141.35 38 139.398 39.12C139.11 39.12 138.966 39.824 138.966 41.232C138.966 42.16 139.03 43.248 139.158 44.496C139.67 48.976 140.79 52.944 142.518 56.4C144.086 59.6 145.814 61.2 147.702 61.2C150.326 61.2 152.806 58.528 155.142 53.184C156.742 49.6 157.782 46.4 158.262 43.584C158.262 43.264 158.358 42.928 158.55 42.576C158.838 42.096 159.238 41.856 159.75 41.856C160.198 41.856 160.422 42.128 160.422 42.672C160.422 43.536 159.974 45.264 159.078 47.856C157.51 52.336 155.686 56 153.606 58.848C151.718 61.472 149.622 62.784 147.318 62.784ZM160.911 43.152C161.583 43.152 162.319 42.736 163.119 41.904L163.887 40.992C164.879 39.744 165.375 38.224 165.375 36.432C165.375 35.152 165.055 34.512 164.415 34.512C163.839 34.512 163.215 35.008 162.543 36C161.327 37.824 160.591 40.208 160.335 43.152H160.911ZM164.319 56.016C164.127 56.016 163.711 55.968 163.071 55.872C162.463 55.808 161.743 55.408 160.911 54.672C158.863 52.848 157.839 49.968 157.839 46.032C157.839 42.544 158.575 39.6 160.047 37.2C161.583 34.608 163.007 33.312 164.319 33.312C164.959 33.312 165.471 33.648 165.855 34.32C166.239 34.96 166.431 35.744 166.431 36.672C166.431 37.088 166.367 37.776 166.239 38.736C166.143 39.504 165.519 40.608 164.367 42.048C163.215 43.456 162.047 44.16 160.863 44.16L160.239 44.112C160.175 44.72 160.143 45.312 160.143 45.888C160.143 48.672 160.815 50.816 162.159 52.32C162.863 53.12 163.663 53.52 164.559 53.52C165.135 53.52 165.743 53.344 166.383 52.992C167.631 52.192 168.735 51.104 169.695 49.728C170.687 48.32 171.743 46.64 172.863 44.688C173.631 43.312 174.143 42.464 174.399 42.144C174.527 41.92 174.719 41.808 174.975 41.808C175.231 41.808 175.359 42 175.359 42.384C175.359 42.704 175.183 43.2 174.831 43.872C172.975 47.232 171.663 49.52 170.895 50.736C169.743 52.528 168.463 53.952 167.055 55.008C166.127 55.68 165.215 56.016 164.319 56.016ZM180.163 62.64C178.755 62.64 177.523 61.2 176.467 58.32C174.835 53.52 173.987 48.784 173.923 44.112L174.067 41.472C174.291 38.752 175.123 37.28 176.563 37.056C177.299 37.056 177.747 37.2 177.907 37.488C178.099 37.776 178.195 38.176 178.195 38.688V38.976C178.131 41.152 178.099 43.136 178.099 44.928C178.099 53.056 178.851 58.064 180.355 59.952C180.515 60.08 180.691 60.144 180.883 60.144C181.427 59.856 181.955 59.04 182.467 57.696C183.363 55.296 184.179 52.144 184.915 48.24C185.555 45.616 185.907 43.472 185.971 41.808L185.923 40.896C185.923 38.496 186.387 37.296 187.315 37.296C187.603 37.296 187.747 37.664 187.747 38.4L187.699 39.36C187.699 40.704 188.051 41.984 188.755 43.2C189.459 44.384 190.515 44.976 191.923 44.976C192.659 44.976 193.491 44.816 194.419 44.496C195.347 44.176 196.291 43.68 197.251 43.008C197.603 42.816 197.955 42.56 198.307 42.24C198.659 41.92 198.979 41.76 199.267 41.76C199.715 41.76 199.939 42.016 199.939 42.528C199.939 43.264 198.595 44.368 195.907 45.84C194.243 46.8 192.707 47.28 191.299 47.28C190.243 47.28 189.283 46.944 188.419 46.272C187.907 45.856 187.555 45.504 187.363 45.216C187.203 44.896 186.995 44.592 186.739 44.304C186.451 46.32 186.115 48.352 185.731 50.4C185.571 51.04 185.427 51.744 185.299 52.512C184.179 59.264 182.467 62.64 180.163 62.64ZM201.083 43.152C201.755 43.152 202.491 42.736 203.291 41.904L204.059 40.992C205.051 39.744 205.547 38.224 205.547 36.432C205.547 35.152 205.227 34.512 204.587 34.512C204.011 34.512 203.387 35.008 202.715 36C201.499 37.824 200.763 40.208 200.507 43.152H201.083ZM204.491 56.016C204.299 56.016 203.883 55.968 203.243 55.872C202.635 55.808 201.915 55.408 201.083 54.672C199.035 52.848 198.011 49.968 198.011 46.032C198.011 42.544 198.747 39.6 200.219 37.2C201.755 34.608 203.179 33.312 204.491 33.312C205.131 33.312 205.643 33.648 206.027 34.32C206.411 34.96 206.603 35.744 206.603 36.672C206.603 37.088 206.539 37.776 206.411 38.736C206.315 39.504 205.691 40.608 204.539 42.048C203.387 43.456 202.219 44.16 201.035 44.16L200.411 44.112C200.347 44.72 200.315 45.312 200.315 45.888C200.315 48.672 200.987 50.816 202.331 52.32C203.035 53.12 203.835 53.52 204.731 53.52C205.307 53.52 205.915 53.344 206.555 52.992C207.803 52.192 208.907 51.104 209.867 49.728C210.859 48.32 211.915 46.64 213.035 44.688C213.803 43.312 214.315 42.464 214.571 42.144C214.699 41.92 214.891 41.808 215.147 41.808C215.403 41.808 215.531 42 215.531 42.384C215.531 42.704 215.355 43.2 215.003 43.872C213.147 47.232 211.835 49.52 211.067 50.736C209.915 52.528 208.635 53.952 207.227 55.008C206.299 55.68 205.387 56.016 204.491 56.016ZM216.303 41.28C216.847 40.736 217.903 39.088 219.471 36.336L220.671 34.32C221.727 32.24 223.087 29.36 224.751 25.68C226.415 22 227.599 19.2 228.303 17.28C229.423 14.272 230.335 11.072 231.039 7.68C231.199 6.496 231.279 5.744 231.279 5.424C231.279 4.272 230.991 3.696 230.415 3.696C230.031 3.696 229.487 4.016 228.783 4.656C227.247 6.032 225.695 8.048 224.127 10.704C223.103 12.4 221.807 15.152 220.239 18.96C218.255 24.048 216.991 29.68 216.447 35.856C216.319 37.264 216.255 38.592 216.255 39.84L216.303 41.28ZM221.391 58.56C218.799 58.56 216.879 56.128 215.631 51.264C214.831 48.16 214.431 44.304 214.431 39.696C214.431 33.36 215.615 26.88 217.983 20.256C220.223 13.952 223.055 8.976 226.479 5.328C228.175 3.408 229.567 2.448 230.655 2.448C231.615 2.448 232.095 3.296 232.095 4.992C232.095 7.2 231.391 10.4 229.983 14.592C229.055 17.376 227.151 22.144 224.271 28.896C222.063 33.984 220.223 38 218.751 40.944L216.447 45.024C216.447 46.528 216.847 48.576 217.647 51.168C218.767 54.784 220.175 56.592 221.871 56.592C222.671 56.496 223.439 56.048 224.175 55.248C225.551 53.808 226.639 52.048 227.439 49.968C229.231 45.744 230.255 43.36 230.511 42.816C230.991 42.08 231.439 41.712 231.855 41.712C232.079 41.712 232.319 41.808 232.575 42C232.671 42.096 232.719 42.208 232.719 42.336C232.719 42.592 232.607 42.96 232.383 43.44L232.335 43.68C230.319 48.416 228.607 51.856 227.199 54C225.311 56.912 223.375 58.432 221.391 58.56ZM234.72 51.216C234.784 51.184 234.976 50.896 235.296 50.352C235.648 49.584 235.984 48.352 236.304 46.656L234.144 46.272C234.016 47.104 233.952 47.904 233.952 48.672C233.952 49.12 233.968 49.664 234 50.304C234.064 50.912 234.304 51.216 234.72 51.216ZM236.352 45.216L236.448 44.688L236.496 43.968C236.496 42.656 236.192 41.312 235.584 39.936C235.52 40.32 235.248 41.296 234.768 42.864C234.48 43.568 234.32 44.064 234.288 44.352C234.288 44.512 234.32 44.656 234.384 44.784C234.448 44.88 235.104 45.024 236.352 45.216ZM233.712 54.096C233.168 54.096 232.592 53.888 231.984 53.472C231.056 52.544 230.592 51.008 230.592 48.864C230.592 48.064 230.656 47.296 230.784 46.56C230.944 45.792 231.024 45.216 231.024 44.832C231.024 44.352 230.944 43.936 230.784 43.584C230.656 43.2 230.592 42.832 230.592 42.48C230.592 41.712 230.944 40.864 231.648 39.936C232.672 38.656 233.728 38.016 234.816 38.016C235.136 38.016 235.568 38.144 236.112 38.4C236.656 38.624 237.184 39.472 237.696 40.944C238.048 42.128 238.224 43.248 238.224 44.304L238.176 45.504C239.936 45.472 241.808 45.152 243.792 44.544C245.776 43.904 247.552 43.104 249.12 42.144C249.792 41.824 250.336 41.664 250.752 41.664C251.296 41.664 251.568 41.872 251.568 42.288L251.424 42.72C251.232 43.392 248.928 44.352 244.512 45.6C242.144 46.272 239.984 46.608 238.032 46.608C237.776 49.328 237.184 51.344 236.256 52.656C235.488 53.616 234.64 54.096 233.712 54.096ZM255.626 50.304C256.49 49.728 257.594 49.024 258.938 48.192C259.226 47.808 259.578 47.28 259.994 46.608C259.994 46.544 260.026 46.464 260.09 46.368C260.57 45.696 261.066 44.864 261.578 43.872C262.09 42.88 262.346 42.096 262.346 41.52C262.346 41.424 262.33 41.312 262.298 41.184C262.266 41.024 262.058 40.944 261.674 40.944C260.906 40.944 259.93 41.84 258.746 43.632C257.85 44.976 257.114 46.304 256.538 47.616L255.626 50.304ZM250.682 80.112C250.01 80.112 249.61 79.6 249.482 78.576C249.258 76.048 249.146 73.456 249.146 70.8V65.232C249.082 63.12 249.05 61.024 249.05 58.944C249.05 53.984 249.258 49.072 249.674 44.208C250.282 37.104 251.434 33.424 253.13 33.168C253.77 33.168 254.122 33.488 254.186 34.128L254.234 34.848C254.234 35.968 253.85 39.776 253.082 46.272C252.57 50.208 252.202 54.288 251.978 58.512C251.978 60.496 252.026 61.52 252.122 61.584C252.218 61.584 252.314 61.296 252.41 60.72C252.89 56.624 253.898 52.608 255.434 48.672C256.234 46.368 257.386 44.224 258.89 42.24C259.978 40.768 261.098 40.032 262.25 40.032C263.114 40.032 263.546 40.608 263.546 41.76C263.546 43.232 263.162 44.704 262.394 46.176C267.834 43.136 270.986 41.616 271.85 41.616C272.33 41.616 272.57 41.888 272.57 42.432C272.57 42.592 272.538 42.8 272.474 43.056C272.442 43.28 272.154 43.488 271.61 43.68C267.77 44.832 264.49 46.144 261.77 47.616C261.226 48.736 260.586 49.776 259.85 50.736C258.666 52.304 257.514 53.088 256.394 53.088C255.882 53.088 255.37 52.912 254.858 52.56L254.378 54.24C253.386 58.08 252.762 62.864 252.506 68.592C252.186 73.264 252.026 76.048 252.026 76.944C252.058 77.2 252.074 77.488 252.074 77.808C252.074 78.096 252.026 78.592 251.93 79.296C251.834 79.84 251.418 80.112 250.682 80.112ZM273.209 59.856C271.353 59.856 270.313 58.416 270.089 55.536C270.057 54.928 270.041 54.256 270.041 53.52C270.041 49.488 270.553 45.056 271.577 40.224L271.673 39.6C272.249 37.008 272.793 35.264 273.305 34.368C273.817 33.44 274.409 32.976 275.081 32.976C275.657 32.976 276.057 33.2 276.281 33.648C276.505 34.064 276.617 34.72 276.617 35.616C276.617 36 276.345 39.392 275.801 45.792L276.713 44.4C277.961 42.192 279.209 41.088 280.457 41.088C281.577 41.088 282.521 42.416 283.289 45.072L284.441 47.904C284.665 48.352 284.873 48.576 285.065 48.576C285.801 48.576 286.825 47.424 288.137 45.12L288.857 43.92C289.593 42.896 290.377 42.384 291.209 42.384C291.817 42.384 292.457 42.656 293.129 43.2C293.641 43.68 294.201 44.32 294.809 45.12C296.185 47.008 297.209 47.952 297.881 47.952C298.553 47.952 299.529 46.928 300.809 44.88C302.089 42.8 303.001 41.76 303.545 41.76C303.897 41.76 304.073 41.968 304.073 42.384C304.073 42.544 304.041 42.72 303.977 42.912C303.433 43.776 303.081 44.368 302.921 44.688C302.057 46.32 301.145 47.6 300.185 48.528C299.385 49.328 298.633 49.728 297.929 49.728C296.585 49.728 294.873 48.272 292.793 45.36L291.929 44.256C291.897 44.256 291.881 44.24 291.881 44.208C291.593 43.856 291.337 43.68 291.113 43.68C291.017 43.68 290.889 43.744 290.729 43.872C290.025 44.448 289.337 45.44 288.665 46.848C288.217 47.808 287.689 48.672 287.081 49.44C286.473 50.176 285.593 50.576 284.441 50.64C283.001 50.64 281.881 49.344 281.081 46.752C280.921 46.272 280.681 45.344 280.361 43.968C280.297 43.776 280.233 43.6 280.169 43.44C280.137 43.248 280.057 43.152 279.929 43.152C279.833 43.152 279.689 43.248 279.497 43.44C278.249 44.976 277.321 47.312 276.713 50.448C276.425 51.344 276.185 52.576 275.993 54.144C275.673 57.824 274.745 59.728 273.209 59.856ZM305.427 43.152C306.099 43.152 306.835 42.736 307.635 41.904L308.403 40.992C309.395 39.744 309.891 38.224 309.891 36.432C309.891 35.152 309.571 34.512 308.931 34.512C308.355 34.512 307.731 35.008 307.059 36C305.843 37.824 305.107 40.208 304.851 43.152H305.427ZM308.835 56.016C308.643 56.016 308.227 55.968 307.587 55.872C306.979 55.808 306.259 55.408 305.427 54.672C303.379 52.848 302.355 49.968 302.355 46.032C302.355 42.544 303.091 39.6 304.563 37.2C306.099 34.608 307.523 33.312 308.835 33.312C309.475 33.312 309.987 33.648 310.371 34.32C310.755 34.96 310.947 35.744 310.947 36.672C310.947 37.088 310.883 37.776 310.755 38.736C310.659 39.504 310.035 40.608 308.883 42.048C307.731 43.456 306.563 44.16 305.379 44.16L304.755 44.112C304.691 44.72 304.659 45.312 304.659 45.888C304.659 48.672 305.331 50.816 306.675 52.32C307.379 53.12 308.179 53.52 309.075 53.52C309.651 53.52 310.259 53.344 310.899 52.992C312.147 52.192 313.251 51.104 314.211 49.728C315.203 48.32 316.259 46.64 317.379 44.688C318.147 43.312 318.659 42.464 318.915 42.144C319.043 41.92 319.235 41.808 319.491 41.808C319.747 41.808 319.875 42 319.875 42.384C319.875 42.704 319.699 43.2 319.347 43.872C317.491 47.232 316.179 49.52 315.411 50.736C314.259 52.528 312.979 53.952 311.571 55.008C310.643 55.68 309.731 56.016 308.835 56.016ZM320.359 55.392C318.823 55.168 318.055 53.072 318.055 49.104C318.055 48.208 318.103 47.216 318.199 46.128C318.807 39.376 320.151 36 322.231 36C323.031 36 323.431 36.464 323.431 37.392L323.335 38.496C322.919 40.48 322.551 43.28 322.231 46.896L321.847 49.584C321.847 49.712 321.863 49.776 321.895 49.776C321.959 49.776 322.167 49.376 322.519 48.576C324.471 43.744 326.487 41.328 328.567 41.328C328.983 41.328 329.527 41.504 330.199 41.856C330.903 42.176 331.767 43.232 332.791 45.024C334.039 47.232 335.319 48.336 336.631 48.336C337.015 48.336 337.479 48.192 338.023 47.904C338.567 47.584 339.143 47.008 339.751 46.176C340.391 45.312 340.967 44.448 341.479 43.584C341.767 43.104 342.023 42.688 342.247 42.336C342.503 41.984 342.759 41.808 343.015 41.808C343.431 41.84 343.639 42.064 343.639 42.48C343.639 42.736 343.575 43.008 343.447 43.296C342.871 44.608 342.023 46 340.903 47.472C339.303 49.552 337.703 50.592 336.103 50.592C334.599 50.368 333.447 49.776 332.647 48.816C331.847 47.824 331.191 46.704 330.679 45.456C329.847 43.76 329.015 42.912 328.183 42.912C326.743 42.912 325.335 44.96 323.959 49.056L322.999 52.368C322.775 53.04 322.471 53.696 322.087 54.336C321.735 54.976 321.159 55.328 320.359 55.392ZM350.372 69.072C349.604 69.072 348.804 68.752 347.972 68.112C346.596 66.96 345.508 65.296 344.708 63.12C343.044 58.64 342.212 52.752 342.212 45.456C342.212 43.056 342.436 39.472 342.884 34.704C344.036 27.44 344.884 22.752 345.428 20.64C344.756 20.704 342.116 21.424 337.508 22.8C332.9 24.144 329.972 24.816 328.724 24.816C327.7 24.816 327.188 24.432 327.188 23.664C327.188 23.056 327.428 22.496 327.908 21.984C328.356 21.44 328.916 21.152 329.588 21.12C330.068 21.12 330.308 21.312 330.308 21.696C330.308 22.016 330.196 22.368 329.972 22.752C330.324 22.72 335.588 21.552 345.764 19.248C346.212 17.232 346.66 15.84 347.108 15.072C347.14 14.784 347.332 14.24 347.684 13.44C348.068 12.608 348.548 12.192 349.124 12.192C349.732 12.192 350.036 12.528 350.036 13.2C350.036 13.456 349.972 13.776 349.844 14.16C349.14 16.432 348.788 17.872 348.788 18.48C348.788 18.576 348.82 18.624 348.884 18.624L352.532 17.904C356.276 17.072 359.7 16.48 362.804 16.128C367.444 15.424 371.348 15.072 374.516 15.072C375.476 15.072 376.788 15.136 378.452 15.264C380.308 15.36 381.972 15.936 383.444 16.992C384.02 17.472 384.308 18 384.308 18.576C384.308 19.184 384.052 19.648 383.54 19.968C383.412 20.064 383.284 20.112 383.156 20.112C382.9 20.112 382.772 20 382.772 19.776C382.804 19.648 382.852 19.504 382.916 19.344C383.012 19.152 383.06 18.96 383.06 18.768C383.06 18.032 381.908 17.392 379.604 16.848C377.14 16.432 374.692 16.224 372.26 16.224C367.236 16.224 359.764 17.28 349.844 19.392C349.364 19.488 349.012 19.6 348.788 19.728C348.436 19.952 347.556 24.496 346.148 33.36C345.636 37.296 345.38 41.712 345.38 46.608C345.38 52.208 346.164 57.344 347.732 62.016C348.692 64.864 349.796 66.368 351.044 66.528C352.292 66.528 353.684 64.528 355.22 60.528C356.052 58.288 356.58 56.72 356.804 55.824C357.348 54.16 358.084 50.48 359.012 44.784C359.076 44.112 359.204 43.328 359.396 42.432C359.588 41.888 359.972 41.616 360.548 41.616L360.884 41.664C361.268 41.728 361.46 42.016 361.46 42.528C361.46 43.136 361.284 43.92 360.932 44.88C360.58 45.808 360.068 47.968 359.396 51.36C357.796 59.584 355.78 64.992 353.348 67.584C352.452 68.576 351.46 69.072 350.372 69.072Z" fill="black"/>
</svg>
