<svg width="526" height="151" viewBox="0 0 526 151" fill="none" xmlns="http://www.w3.org/2000/svg">
<path d="M73.132 150.406H72.874C66.9687 149.833 61.952 144.959 57.824 135.786C54.556 128.677 51.9187 119.962 49.912 109.642C47.7907 99.0353 46.3 87.9127 45.44 76.274C44.924 67.674 44.1213 61.9693 43.032 59.16C40.796 60.8227 38.8753 62.8867 37.27 65.352C32.3393 73.3787 28.326 82.122 25.23 91.582C22.0767 100.698 19.7547 108.323 18.264 114.458C16.2573 122.485 14.566 128.132 13.19 131.4C11.3553 135.757 9.492 137.936 7.6 137.936C5.65067 137.936 4.074 135.069 2.87 129.336C0.978 120.449 0.032 109.9 0.032 97.688C0.032 80.7747 1.29333 65.696 3.816 52.452C5.82267 41.788 7.05533 35.768 7.514 34.392C9.922 22.9827 12.674 13.9527 15.77 7.30199C17.146 4.206 18.866 2.658 20.93 2.658C23.1087 2.658 24.198 3.89067 24.198 6.356C24.198 8.01866 23.768 10.0827 22.908 12.548C22.5067 13.5227 22.2487 14.6693 22.134 15.988C22.0193 17.2493 21.704 18.5107 21.188 19.772C20.2133 21.4347 19.4967 23.0973 19.038 24.76C12.7313 45.1133 8.77533 64.5207 7.17 82.982C6.31 93.0153 5.85133 103.135 5.794 113.34C5.794 119.589 6.19533 124.663 6.998 128.562C7.45667 130.855 7.97267 132.117 8.546 132.346C9.34867 131.601 11.0687 126.699 13.706 117.64C20.8153 92.5853 28.7847 73.78 37.614 61.224C39.7353 58.128 41.656 56.58 43.376 56.58L44.408 56.666C46.7013 57.0673 48.3927 64.8933 49.482 80.144C50.4567 95.796 52.9507 110.445 56.964 124.09C59.372 131.83 62.0953 137.449 65.134 140.946C68.058 143.927 70.638 145.418 72.874 145.418C72.9887 145.418 73.6193 145.361 74.766 145.246C75.97 145.189 77.4033 144.042 79.066 141.806C85.0287 133.837 89.2427 115.461 91.708 86.68C93.772 63.5747 94.804 47.4927 94.804 38.434V37.746C94.2307 23.1833 93.084 13.838 91.364 9.70999C89.8733 6.15533 89.128 4.034 89.128 3.34599C89.128 2.02732 89.988 1.22466 91.708 0.937991H92.138C96.438 0.937991 98.588 10.054 98.588 28.286C98.588 38.5487 97.6707 54.1147 95.836 74.984C94.7467 87.024 94.0873 93.7607 93.858 95.194C93.3993 98.4047 93.0267 101.73 92.74 105.17C91.2493 122.026 88.4687 134.209 84.398 141.72C81.2447 147.511 77.4893 150.406 73.132 150.406ZM114.004 92.012C114.119 91.9547 114.463 91.4387 115.036 90.464C115.667 89.088 116.269 86.8807 116.842 83.842L112.972 83.154C112.743 84.6447 112.628 86.078 112.628 87.454C112.628 88.2567 112.657 89.2313 112.714 90.378C112.829 91.4673 113.259 92.012 114.004 92.012ZM116.928 81.262L117.1 80.316L117.186 79.026C117.186 76.6753 116.642 74.2673 115.552 71.802C115.438 72.49 114.95 74.2387 114.09 77.048C113.574 78.3093 113.288 79.198 113.23 79.714C113.23 80.0007 113.288 80.2587 113.402 80.488C113.517 80.66 114.692 80.918 116.928 81.262ZM112.198 97.172C111.224 97.172 110.192 96.7993 109.102 96.054C107.44 94.3913 106.608 91.6393 106.608 87.798C106.608 86.3647 106.723 84.9887 106.952 83.67C107.239 82.294 107.382 81.262 107.382 80.574C107.382 79.714 107.239 78.9687 106.952 78.338C106.723 77.65 106.608 76.9907 106.608 76.36C106.608 74.984 107.239 73.4647 108.5 71.802C110.335 69.5087 112.227 68.362 114.176 68.362C114.75 68.362 115.524 68.5913 116.498 69.05C117.473 69.4513 118.419 70.9707 119.336 73.608C119.967 75.7293 120.282 77.736 120.282 79.628L120.196 81.778C123.35 81.7207 126.704 81.1473 130.258 80.058C133.813 78.9113 136.995 77.478 139.804 75.758C141.008 75.1847 141.983 74.898 142.728 74.898C143.703 74.898 144.19 75.2707 144.19 76.016L143.932 76.79C143.588 77.994 139.46 79.714 131.548 81.95C127.306 83.154 123.436 83.756 119.938 83.756C119.48 88.6293 118.419 92.2413 116.756 94.592C115.38 96.312 113.861 97.172 112.198 97.172ZM143.378 99.408C142.289 99.408 141.457 98.6913 140.884 97.258C140.368 95.882 140.11 93.474 140.11 90.034C140.11 87.2247 140.282 83.6987 140.626 79.456C141.257 71.888 142.547 68.104 144.496 68.104C145.012 68.104 145.471 68.2473 145.872 68.534C146.331 68.8207 146.56 69.9387 146.56 71.888C146.56 76.1307 146.331 82.0073 145.872 89.518C148.796 78.3953 153.096 70.0247 158.772 64.406C160.664 62.5713 162.642 61.654 164.706 61.654C165.853 61.654 166.827 62.0553 167.63 62.858C168.433 63.6033 168.834 64.492 168.834 65.524C168.834 66.9573 168.375 67.674 167.458 67.674C166.77 67.674 165.967 67.1867 165.05 66.212C164.362 65.4667 163.731 65.0653 163.158 65.008C162.814 65.008 162.384 65.1227 161.868 65.352C158.715 67.072 155.361 71.5153 151.806 78.682C150.43 81.3767 149.111 85.6767 147.85 91.582C146.99 96.7993 145.499 99.408 143.378 99.408ZM177.774 69.738C178.29 69.6233 179.781 66.4987 182.246 60.364C182.303 60.364 182.332 60.3353 182.332 60.278C185.199 53.914 187.693 47.4927 189.814 41.014C190.502 38.7207 191.161 36.7713 191.792 35.166C196.321 21.6927 198.586 13.0067 198.586 9.10799C198.586 8.82133 198.557 8.36266 198.5 7.73199C198.5 7.10133 198.357 6.47066 198.07 5.83999C197.783 5.20933 197.325 4.89399 196.694 4.89399C192.279 4.89399 188.209 11.946 184.482 26.05C183.163 31.21 182.131 35.7967 181.386 39.81C180.182 45.2567 179.15 52.882 178.29 62.686C178.061 65.094 177.889 67.4447 177.774 69.738ZM177.43 101.214H176.914C174.621 101.214 173.331 99.15 173.044 95.022C172.929 93.99 172.872 92.872 172.872 91.668C172.872 89.8333 172.987 87.7407 173.216 85.39C171.897 85.218 171.238 84.788 171.238 84.1C171.238 83.2973 171.897 82.6667 173.216 82.208C173.789 71.9453 174.277 65.4093 174.678 62.6L176.226 50.732C178.519 36.284 181.931 23.814 186.46 13.322C187.492 10.9713 188.868 8.67799 190.588 6.44199C192.709 3.74733 194.831 2.4 196.952 2.4C199.36 2.4 200.564 4.32067 200.564 8.162C200.564 12.1753 198.901 19.4853 195.576 30.092C189.556 50.3307 183.937 64.492 178.72 72.576C177.688 73.8947 177.172 76.102 177.172 79.198C177.172 79.5993 177.201 79.8 177.258 79.8C177.602 79.8 178.749 79.112 180.698 77.736C185.686 74.0667 189.413 70.3973 191.878 66.728C192.853 64.836 193.885 63.89 194.974 63.89C196.006 63.89 196.522 64.4633 196.522 65.61C196.522 67.158 194.401 69.8527 190.158 73.694C183.794 79.37 179.523 82.6953 177.344 83.67C179.351 85.5047 183.364 86.422 189.384 86.422C191.047 86.422 193.082 86.1353 195.49 85.562C199.446 84.702 204.119 81.5773 209.508 76.188C210.139 75.5 210.741 75.156 211.314 75.156C211.543 75.156 211.801 75.2133 212.088 75.328C212.375 75.3853 212.518 75.7007 212.518 76.274C212.518 77.822 210.454 79.8287 206.326 82.294C206.269 82.294 206.24 82.3227 206.24 82.38C200.105 86.4507 194.401 88.486 189.126 88.486C189.069 88.486 187.664 88.486 184.912 88.486C182.217 88.4287 179.695 87.7693 177.344 86.508C177.344 87.4827 177.487 89.604 177.774 92.872C178.003 95.3947 178.29 96.742 178.634 96.914C178.978 97.086 179.408 97.172 179.924 97.172C180.383 97.4013 180.612 97.7453 180.612 98.204C180.555 98.7773 180.211 99.3793 179.58 100.01C178.949 100.641 178.233 101.042 177.43 101.214ZM291.468 78.08C291.64 78.08 291.726 77.1053 291.726 75.156C291.726 72.5187 291.325 70.2253 290.522 68.276C289.891 66.9573 289.117 66.298 288.2 66.298C287.225 66.298 286.595 67.33 286.308 69.394V70.168C286.308 72.2893 287.139 74.1813 288.802 75.844C290.293 77.3347 291.181 78.08 291.468 78.08ZM252.596 113.254H252.166C250.045 113.254 248.439 110.703 247.35 105.6C246.834 102.676 246.576 99.494 246.576 96.054C246.576 93.8753 246.691 91.582 246.92 89.174C247.723 79.9433 249.07 73.092 250.962 68.62C251.994 66.212 253.169 65.008 254.488 65.008C255.921 65.008 256.638 66.04 256.638 68.104C256.638 69.824 256.38 71.4867 255.864 73.092C253.227 83.0107 251.908 92.012 251.908 100.096C251.908 102.561 252.051 104.597 252.338 106.202C252.625 107.865 252.997 108.753 253.456 108.868C253.8 108.696 254.717 106.976 256.208 103.708C256.896 102.217 257.957 98.8347 259.39 93.56C260.823 88.228 262.285 83.068 263.776 78.08C264.407 76.532 265.324 75.758 266.528 75.758C267.445 75.758 268.047 76.4747 268.334 77.908C268.735 83.1827 269.911 89.174 271.86 95.882C274.268 104.138 277.106 108.409 280.374 108.696C283.699 108.696 286.652 103.823 289.232 94.076C290.149 90.292 290.809 86.1927 291.21 81.778V81.692C291.21 81.4627 291.009 81.2333 290.608 81.004C286.251 78.8253 284.072 75.6147 284.072 71.372C284.072 69.0213 284.617 67.1867 285.706 65.868C286.623 65.008 287.455 64.578 288.2 64.578C289.232 64.578 290.121 65.1513 290.866 66.298C292.701 68.878 293.618 72.5187 293.618 77.22L293.532 79.198C293.991 79.542 295.338 79.7427 297.574 79.8C301.53 79.8 304.798 78.854 307.378 76.962C308.869 75.758 310.13 75.156 311.162 75.156C311.735 75.156 312.022 75.3853 312.022 75.844C312.022 76.5893 311.305 77.478 309.872 78.51C305.285 81.2047 301.129 82.552 297.402 82.552C295.739 82.552 294.277 82.4087 293.016 82.122C292.844 82.638 292.701 83.4407 292.586 84.53C292.07 88.142 291.439 91.668 290.694 95.108C289.949 98.548 288.659 101.959 286.824 105.342C284.645 109.241 282.323 111.19 279.858 111.19C278.425 111.19 276.848 110.416 275.128 108.868C270.771 104.052 267.761 95.452 266.098 83.068C265.983 80.832 265.84 79.714 265.668 79.714L265.152 81.52C262.687 91.8973 261.024 98.4333 260.164 101.128C257.355 109.212 254.832 113.254 252.596 113.254ZM317.819 46.862C316.557 46.862 315.927 46.174 315.927 44.798C315.927 43.9953 316.127 43.4507 316.529 43.164C317.102 42.7053 317.704 42.476 318.335 42.476C319.653 42.476 320.313 43.2213 320.313 44.712C320.313 45.4 320.055 45.9447 319.539 46.346C319.023 46.69 318.449 46.862 317.819 46.862ZM318.421 95.366C316.987 95.3087 315.525 94.7927 314.035 93.818C312.544 92.8433 311.283 91.4387 310.251 89.604C308.703 87.024 307.929 84.014 307.929 80.574C307.929 78.9687 308.015 77.306 308.187 75.586C308.359 73.5793 309.018 71.286 310.165 68.706C311.369 65.782 312.573 64.32 313.777 64.32C315.783 64.32 316.787 65.0653 316.787 66.556C316.787 67.1867 316.299 69.1933 315.325 72.576C314.637 75.5573 314.293 78.6247 314.293 81.778C314.293 84.2433 314.579 86.508 315.153 88.572C316.127 91.3813 317.417 92.786 319.023 92.786C320.628 92.786 322.319 91.6107 324.097 89.26C326.275 86.2787 327.995 82.982 329.257 79.37C330.059 76.5033 331.005 75.07 332.095 75.07C332.668 75.07 332.955 75.5 332.955 76.36C332.955 78.08 331.951 80.832 329.945 84.616C326.161 91.7827 322.319 95.366 318.421 95.366ZM344.983 124.004C343.607 124.004 342.173 123.431 340.683 122.284C338.217 120.22 336.268 117.239 334.835 113.34C331.853 105.313 330.363 94.764 330.363 81.692C330.363 77.392 330.764 70.9707 331.567 62.428C333.631 49.4133 335.15 41.014 336.125 37.23C334.921 37.3447 330.191 38.6347 321.935 41.1C313.679 43.508 308.433 44.712 306.197 44.712C304.362 44.712 303.445 44.024 303.445 42.648C303.445 41.5587 303.875 40.5553 304.735 39.638C305.537 38.6633 306.541 38.1473 307.745 38.09C308.605 38.09 309.035 38.434 309.035 39.122C309.035 39.6953 308.834 40.326 308.433 41.014C309.063 40.9567 318.495 38.864 336.727 34.736C337.529 31.124 338.332 28.63 339.135 27.254C339.192 26.738 339.536 25.7633 340.167 24.33C340.855 22.8393 341.715 22.094 342.747 22.094C343.836 22.094 344.381 22.696 344.381 23.9C344.381 24.3587 344.266 24.932 344.037 25.62C342.775 29.6907 342.145 32.2707 342.145 33.36C342.145 33.532 342.202 33.618 342.317 33.618L348.853 32.328C355.561 30.8373 361.695 29.7767 367.257 29.146C375.57 27.8847 382.565 27.254 388.241 27.254C389.961 27.254 392.311 27.3687 395.293 27.598C398.618 27.77 401.599 28.802 404.237 30.694C405.269 31.554 405.785 32.5 405.785 33.532C405.785 34.6213 405.326 35.4527 404.409 36.026C404.179 36.198 403.95 36.284 403.721 36.284C403.262 36.284 403.033 36.0833 403.033 35.682C403.09 35.4527 403.176 35.1947 403.291 34.908C403.463 34.564 403.549 34.22 403.549 33.876C403.549 32.5573 401.485 31.4107 397.357 30.436C392.942 29.6907 388.556 29.318 384.199 29.318C375.197 29.318 361.81 31.21 344.037 34.994C343.177 35.166 342.546 35.3667 342.145 35.596C341.514 35.9973 339.937 44.1387 337.415 60.02C336.497 67.072 336.039 74.984 336.039 83.756C336.039 93.7893 337.443 102.991 340.253 111.362C341.973 116.465 343.951 119.159 346.187 119.446C348.423 119.446 350.917 115.863 353.669 108.696C355.159 104.683 356.105 101.873 356.507 100.268C357.481 97.2867 358.8 90.6933 360.463 80.488C360.577 79.284 360.807 77.8793 361.151 76.274C361.495 75.2993 362.183 74.812 363.215 74.812L363.817 74.898C364.505 75.0127 364.849 75.5287 364.849 76.446C364.849 77.5353 364.533 78.94 363.903 80.66C363.272 82.3227 362.355 86.1927 361.151 92.27C358.284 107.005 354.672 116.694 350.315 121.338C348.709 123.115 346.932 124.004 344.983 124.004ZM367.375 71.286C368.35 69.1647 369.468 67.072 370.729 65.008C373.538 60.192 376.634 54.086 380.017 46.69C381.909 42.218 383.772 37.8033 385.607 33.446C387.499 29.0313 389.018 24.1293 390.165 18.74C390.681 15.9307 390.939 13.6373 390.939 11.86C390.939 8.64933 390.136 7.044 388.531 7.044C386.41 7.044 383.973 9.59533 381.221 14.698C378.813 19.342 376.577 25.1613 374.513 32.156C372.449 39.1507 370.93 45.2567 369.955 50.474C368.178 62.8007 367.289 69.136 367.289 69.48L367.375 71.286ZM364.967 105.6C361.871 105.6 360.323 100.841 360.323 91.324C360.38 86.852 360.667 81.4913 361.183 75.242C363.304 50.818 368.235 31.3533 375.975 16.848C377.638 13.58 379.845 10.5987 382.597 7.904C384.604 5.95466 386.438 4.98 388.101 4.98C389.133 4.98 390.108 5.496 391.025 6.528C391.942 7.56 392.401 9.33733 392.401 11.86C392.401 17.9373 390.394 25.9927 386.381 36.026C385.578 38.3193 383.772 42.5907 380.963 48.84C379.587 51.8213 377.666 56.1213 375.201 61.74C372.736 67.3587 370.471 71.6013 368.407 74.468C367.146 76.0733 366.515 77.908 366.515 79.972C366.515 85.992 366.63 89.432 366.859 90.292C367.203 89.6613 367.432 89.088 367.547 88.572C370.643 79.3413 374.083 74.726 377.867 74.726C378.498 74.726 379.415 74.9553 380.619 75.414C381.823 75.8153 383.486 77.6213 385.607 80.832C388.187 84.6733 390.394 86.594 392.229 86.594C394.178 86.594 396.185 84.3007 398.249 79.714C399.568 76.618 400.714 75.07 401.689 75.07C402.32 75.07 402.635 75.4427 402.635 76.188C402.635 76.4747 402.463 77.2487 402.119 78.51C401.374 81.0327 400.141 83.498 398.421 85.906C396.414 88.7727 394.293 90.206 392.057 90.206C389.42 90.034 387.298 89.1453 385.693 87.54C384.145 85.9347 382.798 84.0427 381.651 81.864C380.103 79.1693 378.641 77.822 377.265 77.822C374.685 77.822 372.363 81.6347 370.299 89.26C368.923 94.1333 368.149 98.548 367.977 102.504C367.748 104.568 366.744 105.6 364.967 105.6ZM442.225 107.492C438.899 107.492 437.036 104.912 436.635 99.752C436.577 98.6627 436.549 97.4587 436.549 96.14C436.549 88.916 437.466 80.9753 439.301 72.318L439.473 71.2C440.505 66.556 441.479 63.4313 442.397 61.826C443.314 60.1633 444.375 59.332 445.579 59.332C446.611 59.332 447.327 59.7333 447.729 60.536C448.13 61.2813 448.331 62.4567 448.331 64.062C448.331 64.75 447.843 70.8273 446.869 82.294L448.503 79.8C450.739 75.844 452.975 73.866 455.211 73.866C457.217 73.866 458.909 76.2453 460.285 81.004L462.349 86.078C462.75 86.8807 463.123 87.282 463.467 87.282C464.785 87.282 466.62 85.218 468.971 81.09L470.261 78.94C471.579 77.1053 472.984 76.188 474.475 76.188C475.564 76.188 476.711 76.6753 477.915 77.65C478.832 78.51 479.835 79.6567 480.925 81.09C483.39 84.4727 485.225 86.164 486.429 86.164C487.633 86.164 489.381 84.3293 491.675 80.66C493.968 76.9333 495.602 75.07 496.577 75.07C497.207 75.07 497.523 75.4427 497.523 76.188C497.523 76.4747 497.465 76.79 497.351 77.134C496.376 78.682 495.745 79.7427 495.459 80.316C493.911 83.24 492.277 85.5333 490.557 87.196C489.123 88.6293 487.776 89.346 486.515 89.346C484.107 89.346 481.039 86.7373 477.313 81.52L475.765 79.542C475.707 79.542 475.679 79.5133 475.679 79.456C475.163 78.8253 474.704 78.51 474.303 78.51C474.131 78.51 473.901 78.6247 473.615 78.854C472.353 79.886 471.121 81.6633 469.917 84.186C469.114 85.906 468.168 87.454 467.079 88.83C465.989 90.1487 464.413 90.8653 462.349 90.98C459.769 90.98 457.762 88.658 456.329 84.014C456.042 83.154 455.612 81.4913 455.039 79.026C454.924 78.682 454.809 78.3667 454.695 78.08C454.637 77.736 454.494 77.564 454.265 77.564C454.093 77.564 453.835 77.736 453.491 78.08C451.255 80.832 449.592 85.0173 448.503 90.636C447.987 92.2413 447.557 94.4487 447.213 97.258C446.639 103.851 444.977 107.263 442.225 107.492ZM499.948 77.564C501.152 77.564 502.471 76.8187 503.904 75.328L505.28 73.694C507.057 71.458 507.946 68.7347 507.946 65.524C507.946 63.2307 507.373 62.084 506.226 62.084C505.194 62.084 504.076 62.9727 502.872 64.75C500.693 68.018 499.375 72.2893 498.916 77.564H499.948ZM506.054 100.612C505.71 100.612 504.965 100.526 503.818 100.354C502.729 100.239 501.439 99.5227 499.948 98.204C496.279 94.936 494.444 89.776 494.444 82.724C494.444 76.4747 495.763 71.2 498.4 66.9C501.152 62.256 503.703 59.934 506.054 59.934C507.201 59.934 508.118 60.536 508.806 61.74C509.494 62.8867 509.838 64.2913 509.838 65.954C509.838 66.6993 509.723 67.932 509.494 69.652C509.322 71.028 508.204 73.006 506.14 75.586C504.076 78.1087 501.983 79.37 499.862 79.37L498.744 79.284C498.629 80.3733 498.572 81.434 498.572 82.466C498.572 87.454 499.776 91.2953 502.184 93.99C503.445 95.4233 504.879 96.14 506.484 96.14C507.516 96.14 508.605 95.8247 509.752 95.194C511.988 93.7607 513.966 91.8113 515.686 89.346C517.463 86.8233 519.355 83.8133 521.362 80.316C522.738 77.8507 523.655 76.3313 524.114 75.758C524.343 75.3567 524.687 75.156 525.146 75.156C525.605 75.156 525.834 75.5 525.834 76.188C525.834 76.7613 525.519 77.65 524.888 78.854C521.563 84.874 519.212 88.9733 517.836 91.152C515.772 94.3627 513.479 96.914 510.956 98.806C509.293 100.01 507.659 100.612 506.054 100.612Z" fill="black"/>
</svg>
